<?xml version="1.0" encoding="utf-8"?>
<!-- Generator: Adobe Illustrator 19.1.0, SVG Export Plug-In . SVG Version: 6.00 Build 0)  -->
<svg version="1.1" id="Calque_1" xmlns="http://www.w3.org/2000/svg" xmlns:xlink="http://www.w3.org/1999/xlink" x="0px" y="0px"
	 viewBox="0 0 40 40" style="enable-background:new 0 0 40 40;" xml:space="preserve">
<style type="text/css">
	.st0{fill:#FFFFFF;}
</style>
<path image-rendering="auto" shape-rendering="auto" color-rendering="auto" color-interpolation="sRGB" class="st0" d="M0.5,33.1
	c0,0.4,0.3,0.7,0.7,0.7h37.4c0.4,0,0.7-0.3,0.7-0.7V6.4c0-0.4-0.3-0.7-0.7-0.7H1.2C0.8,5.7,0.5,6,0.5,6.4V33.1L0.5,33.1z M1.9,32.5
	v-6.7h2c0.4,0,0.7-0.3,0.7-0.7V14.4c0-0.4-0.3-0.7-0.7-0.7h-2V7.1h17.4v6.7c-3,0.3-5.3,2.9-5.3,6s2.3,5.6,5.3,6v6.7H1.9z M1.9,24.4
	v-9.4h1.3v9.4H1.9z M15.3,19.8c0-2.4,1.7-4.3,4-4.6v9.3C17,24.1,15.3,22.1,15.3,19.8z M20.6,32.5v-6.7c3-0.3,5.3-2.9,5.3-6
	s-2.3-5.6-5.3-6V7.1H38v6.7h-2c-0.4,0-0.7,0.3-0.7,0.7v10.7c0,0.4,0.3,0.7,0.7,0.7h2v6.7H20.6L20.6,32.5z M20.6,24.4v-9.3
	c2.3,0.3,4,2.3,4,4.6C24.6,22.1,22.9,24.1,20.6,24.4z M36.6,24.4v-9.4H38v9.4H36.6z"/>
</svg>
