<?xml version="1.0" encoding="utf-8"?>
<!-- Generator: Adobe Illustrator 19.1.0, SVG Export Plug-In . SVG Version: 6.00 Build 0)  -->
<svg version="1.1" id="Calque_1" xmlns="http://www.w3.org/2000/svg" xmlns:xlink="http://www.w3.org/1999/xlink" x="0px" y="0px"
	 viewBox="0 0 70 70" style="enable-background:new 0 0 70 70;" xml:space="preserve">
<style type="text/css">
	.st0{fill:#EF5044;}
</style>
<path class="st0" d="M65.1,26.7C65.1,26.7,65,26.7,65.1,26.7L65,26.3c-0.4-2.1-0.9-4.3-2.1-6.8c-1.8-3.7-4.4-7-7.8-9.9
	c-4.8-4.2-10.2-5.9-13.8-6.6c-3.9-0.8-6.7-0.6-6.9-0.6C17.7,3.4,5.5,15.6,4.7,32.1c-0.4,7.9,3,14.4,3.3,14.8
	c3.7,7.3,10.1,12.7,17.9,15.2c3.1,1,6.3,1.5,9.6,1.5c4.2,0,8.4-0.9,12.4-2.6c0.7,0.4,1.5,0.7,2.3,0.7c2.3,0,4.2-1.9,4.2-4.3
	c0-2.4-1.9-4.3-4.2-4.3c-2.3,0-4.2,1.9-4.2,4.3c0,0.3,0,0.7,0.1,1c-13.1,5.5-28.6-0.1-35.2-13c0,0,0,0,0,0c0-0.1-3.2-6.1-2.9-13.2
	C8.5,17.4,19.5,6.4,34.5,5.5c0,0,0,0,0,0c0.1,0,10.3-0.7,18.5,6.4c3,2.7,5.4,5.7,7,9c1,2.1,1.4,4,1.8,6l0.1,0.4
	c0.1,0.4,0.7,4.7-0.4,8.7c-1.2,4.4-5.3,9.7-12.6,10.1c-4.4,0.3-7.7-0.6-9.9-2.6c-1.6-1.5-2.6-3.6-2.9-6.2c1.9-0.2,3.5-0.8,4.6-1.8
	c1.3-1.1,1.7-2.3,1.9-2.8c0,0,0-0.1,0-0.1c0.1-0.2,0.3-0.8,1-7.7l0.7-7.7c0-0.3,0.1-1.4-0.3-2.6c-0.4-1-1.1-2.2-2.6-3
	c0-0.7-0.5-1.3-1.2-1.4l-1.7-0.2c-0.1,0-0.1,0-0.2,0c-0.7,0-1.3,0.5-1.4,1.2l-0.3,1.9c0,0.4,0.1,0.7,0.3,1c0.2,0.3,0.5,0.5,0.9,0.5
	l1.7,0.2c0.1,0,0.1,0,0.2,0c0.2,0,0.5-0.1,0.7-0.2c0.3,0.2,0.5,0.5,0.6,0.9c0.3,0.6,0.2,1.2,0.2,1.3l0,0l0,0.1l-0.7,7.7
	c-0.3,3-0.7,6.3-0.9,6.9c0,0,0,0.1,0,0.1c-0.2,0.6-0.9,2.6-5.1,2.6c-4.2,0-4.9-1.9-5.1-2.6c0,0,0-0.1,0-0.1c-0.1-0.6-0.5-4-0.9-6.9
	l-0.7-7.7l0-0.1l0,0c0,0-0.1-0.6,0.2-1.3c0.2-0.5,0.5-0.9,1-1.1c0,0,0.1,0.1,0.1,0.1c0.2,0.2,0.6,0.3,0.9,0.3c0,0,0.1,0,0.1,0
	l1.7-0.2c0.4,0,0.7-0.2,0.9-0.5c0.2-0.3,0.3-0.6,0.3-1l-0.2-1.9c-0.1-0.7-0.7-1.2-1.4-1.2c0,0-0.1,0-0.1,0l-1.7,0.2
	c-0.6,0.1-1.1,0.5-1.2,1.1c-2.1,0.8-3,2.2-3.5,3.3c-0.5,1.2-0.4,2.3-0.3,2.6l0.7,7.7l0,0c0.7,6.9,1,7.5,1,7.7c0,0,0,0,0,0.1
	c0.2,0.5,0.6,1.7,1.9,2.8c1.2,1,2.7,1.6,4.6,1.8c0.3,3.6,1.7,6.5,4,8.6c2.8,2.6,6.9,3.7,12.2,3.4c8.9-0.5,13.8-7,15.4-12.4
	C65.9,32,65.1,27,65.1,26.7z M50,56.2c0.6,0,1.1,0.5,1.1,1.2c0,0.7-0.5,1.2-1.1,1.2c-0.6,0-1.1-0.5-1.1-1.2
	C48.9,56.8,49.4,56.2,50,56.2z M34.6,36.3L34.6,36.3l0-0.5L34.6,36.3z"/>
</svg>
