<?xml version="1.0" encoding="utf-8"?>
<!-- Generator: Adobe Illustrator 19.1.0, SVG Export Plug-In . SVG Version: 6.00 Build 0)  -->
<svg version="1.1" id="Calque_1" xmlns="http://www.w3.org/2000/svg" xmlns:xlink="http://www.w3.org/1999/xlink" x="0px" y="0px"
	 viewBox="0 0 70 70" style="enable-background:new 0 0 70 70;" xml:space="preserve">
<style type="text/css">
	.st0{fill:#494C4E;}
	.st1{fill:#00A77C;}
</style>
<g>
	<polygon class="st0" points="60.2,34.2 49.4,34.2 49.4,23.3 46.8,23.3 46.8,34.2 35.9,34.2 35.9,36.8 46.8,36.8 46.8,47.7 
		49.4,47.7 49.4,36.8 60.2,36.8 	"/>
</g>
<path class="st1" d="M32.7,5.5c7.8,0,14.1,6.3,14.1,14.1h2.6c0-9.2-7.5-16.7-16.7-16.7s-16.7,7.5-16.7,16.7v31.7
	c0,9.2,7.5,16.7,16.7,16.7s16.7-7.5,16.7-16.7h-2.6c0,7.8-6.3,14.1-14.1,14.1s-14.1-6.3-14.1-14.1V36.7h13.7v-2.6H18.5V19.6
	C18.5,11.8,24.9,5.5,32.7,5.5z"/>
</svg>
