<?xml version="1.0" encoding="utf-8"?>
<!-- Generator: Adobe Illustrator 19.1.0, SVG Export Plug-In . SVG Version: 6.00 Build 0)  -->
<svg version="1.1" id="Calque_1" xmlns="http://www.w3.org/2000/svg" xmlns:xlink="http://www.w3.org/1999/xlink" x="0px" y="0px"
	 viewBox="0 0 70 70" style="enable-background:new 0 0 70 70;" xml:space="preserve">
<style type="text/css">
	.st0{fill:none;stroke:#1C1C1C;stroke-width:2;stroke-miterlimit:10;}
</style>
<g>
	<path class="st0" d="M59.6,46.8c-3.8-3.3-7.8-5.3-11.6-2l-2.3,2c-1.7,1.4-4.7,8.2-16.7-5.6C17.2,27.6,24.3,25.4,25.9,24l2.3-2
		c3.8-3.3,2.4-7.4-0.4-11.7l-1.6-2.6c-2.7-4.3-5.7-7.1-9.5-3.8l-2,1.8C13,7,8.3,10.9,7.1,18.5c-1.4,9,2.9,19.4,12.8,30.8
		c9.9,11.4,19.5,17.1,28.7,17c7.6-0.1,12.2-4.2,13.6-5.6l2.1-1.8c3.8-3.3,1.4-6.6-2.4-9.9L59.6,46.8z"/>
</g>
</svg>
