<?xml version="1.0" encoding="utf-8"?>
<!-- Generator: Adobe Illustrator 19.1.0, SVG Export Plug-In . SVG Version: 6.00 Build 0)  -->
<svg version="1.1" id="Calque_1" xmlns="http://www.w3.org/2000/svg" xmlns:xlink="http://www.w3.org/1999/xlink" x="0px" y="0px"
	 viewBox="0 0 40 40" style="enable-background:new 0 0 40 40;" xml:space="preserve">
<style type="text/css">
	.st0{fill:#FFFFFF;}
</style>
<path class="st0" d="M32.9,12.6c0-0.3,0.1-0.5,0.1-0.8c0-1.8-1-3.4-2.5-4.2C30,5.3,28,3.6,25.6,3.6c-0.2,0-0.4,0-0.6,0
	c-0.9-0.8-2-1.2-3.2-1.2c-0.1,0-0.2,0-0.2,0C20.4,1.5,19,1,17.6,1c-2.5,0-4.8,1.5-5.7,3.8c-0.8,0.5-1.3,1.3-1.6,2.2
	c-1.9,0.9-3.1,2.8-3.1,4.9c0,0.3,0,0.5,0.1,0.8H6.3l5.1,25.5h17.3l5.1-25.5H32.9z M11.6,8.8l0.5-0.1l0.1-0.5
	c0.1-0.7,0.5-1.4,1.2-1.7l0.3-0.1L13.7,6c0.5-1.7,2-2.8,3.8-2.8c1.1,0,2.2,0.5,2.9,1.3l0.3,0.3l0.4-0.1c0.2,0,0.4-0.1,0.6-0.1
	c0.8,0,1.6,0.4,2.1,1l0.3,0.4l0.5-0.2c0.3-0.1,0.6-0.2,0.9-0.2c1.5,0,2.7,1.2,2.7,2.7c0,0.1,0,0.1,0,0.2l0,0.6l0.6,0.2
	c1.1,0.3,1.9,1.3,1.9,2.5c0,0.3,0,0.5-0.1,0.8H9.4c-0.1-0.3-0.1-0.5-0.1-0.8C9.3,10.4,10.3,9.2,11.6,8.8z M27.2,36.3H13.2L8.9,14.8
	H31L27.2,36.3z"/>
</svg>
