<svg id="Calque_1" data-name="Calque 1" xmlns="http://www.w3.org/2000/svg" viewBox="0 0 50 50"><defs><style>.cls-1{fill:#fff;}</style></defs><path class="cls-1" d="M35.76,19.07a12.33,12.33,0,0,0-4.52-4.52,12.49,12.49,0,0,0-12.48,0,12.33,12.33,0,0,0-4.52,4.52A12.49,12.49,0,0,0,15,32.61a12.18,12.18,0,0,0,6.12,4.49.74.74,0,0,0,.65-.12.63.63,0,0,0,.21-.48s0-.32,0-.87,0-1,0-1.44l-.37.06a5.62,5.62,0,0,1-.9.06,7.36,7.36,0,0,1-1.12-.12,2.59,2.59,0,0,1-1.09-.48,2.07,2.07,0,0,1-.71-1l-.16-.37a4.1,4.1,0,0,0-.51-.82,1.9,1.9,0,0,0-.71-.62l-.11-.08a1.8,1.8,0,0,1-.21-.19,1,1,0,0,1-.14-.23c0-.08,0-.14.08-.19a1,1,0,0,1,.47-.07l.32.05a2.29,2.29,0,0,1,.8.39,2.42,2.42,0,0,1,.78.84,2.88,2.88,0,0,0,.9,1,1.94,1.94,0,0,0,1.06.35,4.84,4.84,0,0,0,.92-.08,3.3,3.3,0,0,0,.73-.25,2.63,2.63,0,0,1,.79-1.66,11.7,11.7,0,0,1-1.65-.29,6.63,6.63,0,0,1-1.52-.63,4.54,4.54,0,0,1-1.31-1.09,5.29,5.29,0,0,1-.85-1.7,8.09,8.09,0,0,1-.33-2.42,4.74,4.74,0,0,1,1.28-3.34,4.37,4.37,0,0,1,.11-3.3,2.37,2.37,0,0,1,1.4.22,10.26,10.26,0,0,1,1.35.62l.68.44a11.72,11.72,0,0,1,6.22,0l.61-.39a9,9,0,0,1,1.49-.71A2.22,2.22,0,0,1,31.52,18a4.28,4.28,0,0,1,.13,3.3,4.74,4.74,0,0,1,1.28,3.34,8.21,8.21,0,0,1-.33,2.43,5.2,5.2,0,0,1-.86,1.7,4.65,4.65,0,0,1-1.31,1.08,6.82,6.82,0,0,1-1.52.63,11.86,11.86,0,0,1-1.66.29,2.88,2.88,0,0,1,.84,2.3V36.5a.66.66,0,0,0,.2.48.72.72,0,0,0,.64.12,12.4,12.4,0,0,0,8.49-11.8A12.13,12.13,0,0,0,35.76,19.07Z"/></svg>