<svg id="Calque_1" data-name="Calque 1" xmlns="http://www.w3.org/2000/svg" viewBox="0 0 50 50"><defs><style>.cls-1{fill:#fff;}</style></defs><path class="cls-1" d="M25,18.73A6.27,6.27,0,1,0,31.28,25,6.26,6.26,0,0,0,25,18.73Zm0,10.35A4.08,4.08,0,1,1,29.08,25,4.09,4.09,0,0,1,25,29.08Zm8-10.61A1.47,1.47,0,1,1,31.53,17,1.46,1.46,0,0,1,33,18.47ZM37.15,20a7.22,7.22,0,0,0-2-5.13,7.28,7.28,0,0,0-5.12-2c-2-.11-8.08-.11-10.1,0a7.29,7.29,0,0,0-5.12,2,7.26,7.26,0,0,0-2,5.13c-.11,2-.11,8.07,0,10.09a7.22,7.22,0,0,0,2,5.13,7.28,7.28,0,0,0,5.12,2c2,.11,8.08.11,10.1,0a7.24,7.24,0,0,0,5.12-2,7.31,7.31,0,0,0,2-5.13C37.26,28,37.26,22,37.15,20ZM34.54,32.21a4.14,4.14,0,0,1-2.33,2.33c-1.61.64-5.43.49-7.21.49s-5.6.14-7.21-.49a4.12,4.12,0,0,1-2.32-2.33C14.83,30.6,15,26.78,15,25s-.14-5.61.5-7.21a4.12,4.12,0,0,1,2.32-2.33C19.4,14.82,23.22,15,25,15s5.61-.14,7.21.49a4.14,4.14,0,0,1,2.33,2.33c.64,1.61.49,5.43.49,7.21S35.18,30.61,34.54,32.21Z"/></svg>