<svg id="Calque_1" data-name="Calque 1" xmlns="http://www.w3.org/2000/svg" viewBox="0 0 50 50"><defs><style>.cls-1{fill:#fff;}</style></defs><path class="cls-1" d="M34.87,13.52H15.19a1.64,1.64,0,0,0-1.63,1.66V34.82a1.64,1.64,0,0,0,1.63,1.66H34.87a1.65,1.65,0,0,0,1.64-1.66V15.18A1.65,1.65,0,0,0,34.87,13.52ZM20.49,33.2h-3.4v-11H20.5v11Zm-1.7-12.45a2,2,0,1,1,2-2A2,2,0,0,1,18.79,20.75ZM33.25,33.2H29.84V27.87c0-1.27,0-2.91-1.76-2.91s-2,1.39-2,2.82V33.2h-3.4v-11h3.26v1.5h.05A3.59,3.59,0,0,1,29.16,22c3.45,0,4.09,2.27,4.09,5.22Z"/></svg>