<svg id="Calque_1" data-name="Calque 1" xmlns="http://www.w3.org/2000/svg" viewBox="0 0 50 50"><defs><style>.cls-1{fill:#fff;}</style></defs><path class="cls-1" d="M36.14,19.29c0,.25,0,.49,0,.74,0,7.6-5.78,16.36-16.36,16.36A16.26,16.26,0,0,1,11,33.81a12.81,12.81,0,0,0,1.39.07,11.57,11.57,0,0,0,7.14-2.45,5.77,5.77,0,0,1-5.38-4,7.88,7.88,0,0,0,1.09.09,5.79,5.79,0,0,0,1.51-.2,5.75,5.75,0,0,1-4.61-5.64v-.07a5.85,5.85,0,0,0,2.6.73,5.74,5.74,0,0,1-2.56-4.79,5.67,5.67,0,0,1,.78-2.9,16.31,16.31,0,0,0,11.86,6,6.34,6.34,0,0,1-.15-1.31,5.76,5.76,0,0,1,10-3.94A11.26,11.26,0,0,0,38.24,14a5.67,5.67,0,0,1-2.53,3.16A11.32,11.32,0,0,0,39,16.31,12.58,12.58,0,0,1,36.14,19.29Z"/></svg>