<svg id="Calque_1" data-name="Calque 1" xmlns="http://www.w3.org/2000/svg" viewBox="0 0 50 50"><defs><style>.cls-1{fill:#fff;}</style></defs><path class="cls-1" d="M25.83,37.36h0c-3.93,0-8.21-.13-12.71-.37a5.38,5.38,0,0,1-5-5,66.85,66.85,0,0,1,0-14,5.4,5.4,0,0,1,5-5,192.52,192.52,0,0,1,23.78,0,5.34,5.34,0,0,1,5,5,66.82,66.82,0,0,1,0,14,5.35,5.35,0,0,1-5,5C33.48,37.23,29.76,37.36,25.83,37.36ZM24.91,14c-3.92,0-7.86.12-11.72.37a4,4,0,0,0-3.77,3.8,65.54,65.54,0,0,0,0,13.72,4,4,0,0,0,3.77,3.8c4.48.25,8.73.37,12.64.37s7.58-.12,11-.36a4.07,4.07,0,0,0,3.78-3.81,65.52,65.52,0,0,0,0-13.72,4,4,0,0,0-3.78-3.8C32.83,14.09,28.82,14,24.91,14ZM21.62,20.3v9.11l8.74-4.53Z"/></svg>