<?xml version="1.0" encoding="utf-8"?>
<!-- Generator: Adobe Illustrator 21.1.0, SVG Export Plug-In . SVG Version: 6.00 Build 0)  -->
<svg version="1.1" xmlns="http://www.w3.org/2000/svg" xmlns:xlink="http://www.w3.org/1999/xlink" x="0px" y="0px"
	 viewBox="0 0 601 407" enable-background="new 0 0 601 407" xml:space="preserve">
<g id="border_centrale_bkgd">
</g>
<g id="Repères" display="none">
</g>
<g id="Calque_3">
</g>
<g id="content">
	<g opacity="0.06">
		<g>
			<path fill="#202E3A" d="M188.91125,239.91162c0,2.15865-0.28244,3.51033-0.86751,4.09538
				c-0.58505,0.56488-1.93672,0.86749-4.0752,0.86749H162.3821c-2.13847,0-3.51031-0.30261-4.0752-0.86749
				c-0.58505-0.58505-0.86749-1.93674-0.86749-4.09538v-31.9762h-60.5026c-2.29987,0-3.75241-0.28244-4.33746-0.86749
				c-0.56488-0.58505-0.8675-1.93672-0.8675-4.09537v-26.0248l61.73323-102.88872c1.14993-2.13847,2.23935-3.20771,3.22789-3.20771
				c0.64557,0,1.23062,0.0807,1.73499,0.24209c0.48418,0.1614,1.06923,0.42366,1.73499,0.74645l14.86842,6.1935
				c0.98854,0.34296,1.85603,0.74644,2.60248,1.2508c0.74644,0.48418,1.10959,1.23063,1.10959,2.21917
				c0,0.66575-0.16139,1.2508-0.48418,1.73499c-0.34297,0.50436-0.66576,1.06924-0.98854,1.73499l-57.7589,98.16795h37.9276
				l3.95415-39.90468c0.16139-1.97708,0.54471-3.30858,1.12976-3.97433c0.56488-0.64558,1.93674-0.98854,4.0752-0.98854h17.37004
				c2.13847,0,3.49014,0.28244,4.0752,0.86749c0.58507,0.58505,0.86751,2.01743,0.86751,4.33746v39.6626h13.87988
				c2.32004,0,3.77258,0.30261,4.33746,0.86749c0.58505,0.58505,0.86749,2.27969,0.86749,5.08391v13.8799
				c0,2.15865-0.28244,3.51031-0.86749,4.09537c-0.56488,0.58505-2.01743,0.86749-4.33746,0.86749h-13.87988V239.91162z"/>
		</g>
		<g>
			<path fill="#202E3A" d="M357.2251,157.86292c0,28.42554-4.94272,50.03217-14.86844,64.8199
				c-9.90558,14.78772-24.53189,22.19168-43.87903,22.19168c-19.32693,0-33.95328-7.44431-43.879-22.31273
				c-9.90556-14.86844-14.86842-36.43471-14.86842-64.69885s4.90234-49.83041,14.74738-64.69884
				c9.82487-14.8886,24.49156-22.31273,44.00005-22.31273c19.16556,0,33.75156,7.38378,43.75797,22.17151
				C352.22186,107.83076,357.2251,129.43739,357.2251,157.86292z M298.47763,218.10326c5.60846,0,10.20819-1.57359,13.75885-4.72078
				c3.55069-3.12701,6.31454-7.42413,8.3118-12.89136c1.97708-5.44704,3.34894-11.84229,4.0752-19.20589
				c0.74646-7.34343,1.12976-15.15086,1.12976-23.42232c0-8.27144-0.3833-16.07889-1.12976-23.42232
				c-0.72626-7.3636-2.09811-13.75883-4.0752-19.22606c-1.99725-5.44705-4.76111-9.74417-8.3118-12.89136
				c-3.55066-3.12701-8.15039-4.7006-13.75885-4.7006c-5.44702,0-9.96606,1.57359-13.51675,4.7006
				c-3.55066,3.14719-6.35489,7.44431-8.41266,12.89136c-2.07794,5.46722-3.46997,11.86246-4.2164,19.22606
				c-0.74646,7.34343-1.12976,15.15088-1.12976,23.42232c0,8.27145,0.3833,16.07889,1.12976,23.42232
				c0.74643,7.3636,2.13846,13.75885,4.2164,19.20589c2.05777,5.46722,4.862,9.76434,8.41266,12.89136
				C288.51157,216.52966,293.03061,218.10326,298.47763,218.10326z"/>
		</g>
		<g>
			<path fill="#202E3A" d="M489.36649,239.91162c0,2.15865-0.28244,3.51033-0.86749,4.09538
				c-0.58505,0.56488-1.93674,0.86749-4.0752,0.86749h-21.58646c-2.13849,0-3.51035-0.30261-4.07523-0.86749
				c-0.58505-0.58505-0.86749-1.93674-0.86749-4.09538v-31.9762h-60.50259c-2.29987,0-3.75241-0.28244-4.33746-0.86749
				c-0.56488-0.58505-0.86749-1.93672-0.86749-4.09537v-26.0248l61.73325-102.88872
				c1.14993-2.13847,2.23932-3.20771,3.22787-3.20771c0.64557,0,1.23062,0.0807,1.73499,0.24209
				c0.48416,0.1614,1.06921,0.42366,1.73499,0.74645l14.86841,6.1935c0.98856,0.34296,1.85605,0.74644,2.60251,1.2508
				c0.74643,0.48418,1.10956,1.23063,1.10956,2.21917c0,0.66575-0.16138,1.2508-0.48416,1.73499
				c-0.34299,0.50436-0.66577,1.06924-0.98856,1.73499l-57.75888,98.16795h37.92758l3.95416-39.90468
				c0.16141-1.97708,0.54471-3.30858,1.12976-3.97433c0.56488-0.64558,1.93674-0.98854,4.0752-0.98854h17.37006
				c2.13846,0,3.49014,0.28244,4.0752,0.86749s0.86749,2.01743,0.86749,4.33746v39.6626h13.87988
				c2.32004,0,3.77258,0.30261,4.33746,0.86749c0.58505,0.58505,0.86749,2.27969,0.86749,5.08391v13.8799
				c0,2.15865-0.28244,3.51031-0.86749,4.09537c-0.56488,0.58505-2.01743,0.86749-4.33746,0.86749h-13.87988V239.91162z"/>
		</g>
	</g>
	
		<circle fill="none" stroke="#5ABDB7" stroke-width="3" stroke-linecap="round" stroke-linejoin="round" stroke-miterlimit="10" cx="54.83333" cy="94.66666" r="3.5"/>
	
		<line fill="none" stroke="#5ABDB7" stroke-width="3" stroke-linecap="round" stroke-linejoin="round" stroke-miterlimit="10" x1="187.33333" y1="167.16667" x2="192.33333" y2="172.16667"/>
	
		<line fill="none" stroke="#5ABDB7" stroke-width="3" stroke-linecap="round" stroke-linejoin="round" stroke-miterlimit="10" x1="192.33333" y1="167.16667" x2="187.33333" y2="172.16667"/>
	
		<circle fill="none" stroke="#5ABDB7" stroke-width="3" stroke-linecap="round" stroke-linejoin="round" stroke-miterlimit="10" cx="145.83333" cy="143.66667" r="3.5"/>
	
		<line fill="none" stroke="#5ABDB7" stroke-width="3" stroke-linecap="round" stroke-linejoin="round" stroke-miterlimit="10" x1="126.33334" y1="96.16666" x2="131.33333" y2="101.16666"/>
	
		<line fill="none" stroke="#5ABDB7" stroke-width="3" stroke-linecap="round" stroke-linejoin="round" stroke-miterlimit="10" x1="131.33333" y1="96.16666" x2="126.33334" y2="101.16666"/>
	<g>
		<path fill="#5ABDB7" d="M91.83334,287.16666c0.2757,0,0.5,0.2243,0.5,0.5s-0.2243,0.5-0.5,0.5s-0.5-0.2243-0.5-0.5
			S91.55764,287.16666,91.83334,287.16666 M91.83334,284.16666c-1.93298,0-3.5,1.56702-3.5,3.5s1.56702,3.5,3.5,3.5
			s3.5-1.56702,3.5-3.5S93.76632,284.16666,91.83334,284.16666L91.83334,284.16666z"/>
	</g>
	
		<line fill="none" stroke="#5ABDB7" stroke-width="3" stroke-linecap="round" stroke-linejoin="round" stroke-miterlimit="10" x1="15.33333" y1="240.16667" x2="20.33333" y2="245.16667"/>
	
		<line fill="none" stroke="#5ABDB7" stroke-width="3" stroke-linecap="round" stroke-linejoin="round" stroke-miterlimit="10" x1="20.33333" y1="240.16667" x2="15.33333" y2="245.16667"/>
	<g>
		<path fill="#5ABDB7" d="M60.83333,206.16667c0.2757,0,0.5,0.2243,0.5,0.5s-0.2243,0.5-0.5,0.5s-0.5-0.2243-0.5-0.5
			S60.55764,206.16667,60.83333,206.16667 M60.83333,203.16667c-1.93298,0-3.5,1.56702-3.5,3.5s1.56702,3.5,3.5,3.5
			s3.5-1.56702,3.5-3.5S62.76632,203.16667,60.83333,203.16667L60.83333,203.16667z"/>
	</g>
	
		<line fill="none" stroke="#5ABDB7" stroke-width="3" stroke-linecap="round" stroke-linejoin="round" stroke-miterlimit="10" x1="23.33333" y1="159.16667" x2="28.33333" y2="164.16667"/>
	
		<line fill="none" stroke="#5ABDB7" stroke-width="3" stroke-linecap="round" stroke-linejoin="round" stroke-miterlimit="10" x1="28.33333" y1="159.16667" x2="23.33333" y2="164.16667"/>
	
		<circle fill="none" stroke="#5ABDB7" stroke-width="3" stroke-linecap="round" stroke-linejoin="round" stroke-miterlimit="10" cx="583.83331" cy="299.66666" r="3.5"/>
	
		<line fill="none" stroke="#5ABDB7" stroke-width="3" stroke-linecap="round" stroke-linejoin="round" stroke-miterlimit="10" x1="496.33334" y1="212.16667" x2="501.33334" y2="217.16667"/>
	
		<line fill="none" stroke="#5ABDB7" stroke-width="3" stroke-linecap="round" stroke-linejoin="round" stroke-miterlimit="10" x1="501.33334" y1="212.16667" x2="496.33334" y2="217.16667"/>
	
		<circle fill="none" stroke="#5ABDB7" stroke-width="3" stroke-linecap="round" stroke-linejoin="round" stroke-miterlimit="10" cx="592.83331" cy="218.66667" r="3.5"/>
	
		<line fill="none" stroke="#5ABDB7" stroke-width="3" stroke-linecap="round" stroke-linejoin="round" stroke-miterlimit="10" x1="545.33331" y1="171.16667" x2="550.33331" y2="176.16667"/>
	
		<line fill="none" stroke="#5ABDB7" stroke-width="3" stroke-linecap="round" stroke-linejoin="round" stroke-miterlimit="10" x1="550.33331" y1="171.16667" x2="545.33331" y2="176.16667"/>
	<g>
		<path fill="#5ABDB7" d="M472.83334,273.16666c0.2757,0,0.5,0.2243,0.5,0.5s-0.2243,0.5-0.5,0.5s-0.5-0.2243-0.5-0.5
			S472.55765,273.16666,472.83334,273.16666 M472.83334,270.16666c-1.93298,0-3.5,1.56702-3.5,3.5s1.56702,3.5,3.5,3.5
			s3.5-1.56702,3.5-3.5S474.76633,270.16666,472.83334,270.16666L472.83334,270.16666z"/>
	</g>
	
		<line fill="none" stroke="#5ABDB7" stroke-width="3" stroke-linecap="round" stroke-linejoin="round" stroke-miterlimit="10" x1="405.33334" y1="166.16667" x2="410.33334" y2="171.16667"/>
	
		<line fill="none" stroke="#5ABDB7" stroke-width="3" stroke-linecap="round" stroke-linejoin="round" stroke-miterlimit="10" x1="410.33334" y1="166.16667" x2="405.33334" y2="171.16667"/>
	
		<circle fill="none" stroke="#5ABDB7" stroke-width="3" stroke-linecap="round" stroke-linejoin="round" stroke-miterlimit="10" cx="491.83334" cy="132.66667" r="3.5"/>
	
		<line fill="none" stroke="#5ABDB7" stroke-width="3" stroke-linecap="round" stroke-linejoin="round" stroke-miterlimit="10" x1="578.28351" y1="97.53282" x2="584.60992" y2="94.37424"/>
	
		<line fill="none" stroke="#5ABDB7" stroke-width="3" stroke-linecap="round" stroke-linejoin="round" stroke-miterlimit="10" x1="579.86743" y1="92.79033" x2="583.026" y2="99.11673"/>
	<g>
		<path fill="#5ABDB7" d="M545.65137,145.9138L545.65137,145.9138c0.0531,0,0.10504,0.00873,0.15887,0.02673
			c0.16235,0.0542,0.24677,0.16635,0.28894,0.25089c0.04224,0.08453,0.08118,0.21939,0.02692,0.38168
			c-0.07904,0.23666-0.29492,0.34262-0.47375,0.34262c-0.0531,0-0.1051-0.00876-0.15894-0.0267
			c-0.26147-0.08734-0.40314-0.37119-0.31586-0.63263C545.25665,146.01973,545.47247,145.9138,545.65137,145.9138
			 M545.65137,142.9138c-1.4646,0.00003-2.82977,0.92661-3.31927,2.39221c-0.6123,1.83347,0.37756,3.81616,2.211,4.4285
			c0.36786,0.12283,0.74164,0.18121,1.10925,0.18121c1.4646,0,2.82977-0.92661,3.31927-2.39224
			c0.6123-1.83344-0.37756-3.81613-2.21106-4.42847C546.3927,142.97218,546.01892,142.9138,545.65137,142.9138L545.65137,142.9138z"
			/>
	</g>
	
		<line fill="none" stroke="#5ABDB7" stroke-width="3" stroke-linecap="round" stroke-linejoin="round" stroke-miterlimit="10" x1="464.33334" y1="75.16666" x2="469.33334" y2="80.16666"/>
	
		<line fill="none" stroke="#5ABDB7" stroke-width="3" stroke-linecap="round" stroke-linejoin="round" stroke-miterlimit="10" x1="469.33334" y1="75.16666" x2="464.33334" y2="80.16666"/>
	
		<circle fill="none" stroke="#5ABDB7" stroke-width="3" stroke-linecap="round" stroke-linejoin="round" stroke-miterlimit="10" cx="385.83334" cy="85.66666" r="3.5"/>
	
		<line fill="none" stroke="#5ABDB7" stroke-width="3" stroke-linecap="round" stroke-linejoin="round" stroke-miterlimit="10" x1="338.33334" y1="133.16667" x2="343.33334" y2="128.16667"/>
	
		<line fill="none" stroke="#5ABDB7" stroke-width="3" stroke-linecap="round" stroke-linejoin="round" stroke-miterlimit="10" x1="338.33334" y1="128.16667" x2="343.33334" y2="133.16667"/>
	<g>
		<path fill="#5ABDB7" d="M277.83334,116.16666c0.2757,0,0.5,0.2243,0.5,0.5s-0.2243,0.5-0.5,0.5s-0.5-0.2243-0.5-0.5
			S277.55765,116.16666,277.83334,116.16666 M277.83334,113.16666c-1.93298,0-3.5,1.56702-3.5,3.5s1.56702,3.5,3.5,3.5
			s3.5-1.56702,3.5-3.5S279.76633,113.16666,277.83334,113.16666L277.83334,113.16666z"/>
	</g>
	
		<line fill="none" stroke="#5ABDB7" stroke-width="3" stroke-linecap="round" stroke-linejoin="round" stroke-miterlimit="10" x1="107.33334" y1="174.16667" x2="112.33334" y2="169.16667"/>
	
		<line fill="none" stroke="#5ABDB7" stroke-width="3" stroke-linecap="round" stroke-linejoin="round" stroke-miterlimit="10" x1="107.33334" y1="169.16667" x2="112.33334" y2="174.16667"/>
	
		<line fill="none" stroke="#5ABDB7" stroke-width="3" stroke-linecap="round" stroke-linejoin="round" stroke-miterlimit="10" x1="166.36375" y1="53.95311" x2="173.15923" y2="51.99825"/>
	
		<line fill="none" stroke="#5ABDB7" stroke-width="3" stroke-linecap="round" stroke-linejoin="round" stroke-miterlimit="10" x1="168.78406" y1="49.57794" x2="170.73892" y2="56.37341"/>
	<g>
		<path fill="#5ABDB7" d="M321.41434,79.72868c0.08398,0,0.16211,0.02066,0.23889,0.06314
			c0.24127,0.13348,0.32898,0.43829,0.19556,0.67947c-0.13281,0.24002-0.37091,0.25867-0.44073,0.25867
			c-0.08392,0-0.16205-0.02063-0.23889-0.06314c-0.14978-0.08286-0.21234-0.20847-0.23846-0.29926s-0.03986-0.2305,0.04303-0.38028
			C321.10641,79.74735,321.34451,79.72868,321.41434,79.72868 M321.41434,76.72871c-1.23218,0-2.42706,0.65189-3.06573,1.8064
			c-0.93567,1.69144-0.32306,3.82117,1.36841,4.75684c0.53693,0.29703,1.11798,0.43802,1.69104,0.43802
			c1.23212,0,2.42712-0.65192,3.0658-1.80643c0.93567-1.69144,0.323-3.82114-1.36841-4.75681
			C322.56851,76.8697,321.9874,76.72868,321.41434,76.72871L321.41434,76.72871z"/>
	</g>
	
		<line fill="none" stroke="#5ABDB7" stroke-width="3" stroke-linecap="round" stroke-linejoin="round" stroke-miterlimit="10" x1="284.20364" y1="22.50501" x2="290.99911" y2="20.55015"/>
	
		<line fill="none" stroke="#5ABDB7" stroke-width="3" stroke-linecap="round" stroke-linejoin="round" stroke-miterlimit="10" x1="286.62396" y1="18.12984" x2="288.57883" y2="24.92532"/>
	
		<circle fill="none" stroke="#5ABDB7" stroke-width="3" stroke-linecap="round" stroke-linejoin="round" stroke-miterlimit="10" cx="232.83333" cy="85.66666" r="3.5"/>
	<path fill="#F4F4F4" d="M248.11008,348.6153h-4.78195h-29.22305v33.3978c0,3.01831,2.44679,5.46509,5.46509,5.46509h23.07483
		c3.0183,0,5.46509-2.44678,5.46509-5.46509v-27.93268l4.52898-5.46512H248.11008z"/>
	<path fill="#E5E5E5" d="M245.25104,218.68655c0-6.7883-4.64795-12.47577-10.93019-14.09592v-2.24881h-7.28679v2.23294
		c-5.11382,1.31981-9.1328,5.35109-10.45251,10.46838h-24.76697c-5.36583,0-9.71571,4.34988-9.71571,9.71573v15.78804
		c0,1.33937-1.08963,2.42892-2.42892,2.42892h-21.86037c-5.36584,0-9.71573,4.34988-9.71573,9.71573v14.19405h7.28679v-14.19405
		c0-1.33937,1.08965-2.42894,2.42894-2.42894h21.86037c5.36583,0,9.71571-4.34988,9.71571-9.71571v-15.78804
		c0-1.33937,1.08965-2.42894,2.42892-2.42894h24.76697c1.31927,5.11575,5.33678,9.13326,10.45251,10.45253v15.5289
		c-6.28224,1.62015-10.93018,7.30762-10.93018,14.09592c0,6.78821,4.64793,12.47577,10.93018,14.09592v51.48517l-1.21446,3.6434
		h9.71571l-1.21446-3.6434V276.5032c6.28224-1.62015,10.93019-7.30771,10.93019-14.09592
		c0-6.7883-4.64795-12.47577-10.93019-14.09592v-15.5289C240.60309,231.16232,245.25104,225.47478,245.25104,218.68655z"/>
	<path fill="#F4F4F4" d="M172.49031,311.99792c-10.56238-12.42847-12.15399-27.06549-12.38823-30.67679v-10.91669h-15.71762
		v11.13245c-0.27361,3.85489-1.97781,17.95035-12.08572,30.09338c-5.30038,5.18164-8.59539,12.40585-8.59539,20.40381
		c0,15.76218,12.77775,28.53992,28.53992,28.53992s28.53992-12.77774,28.53992-28.53992
		C180.78319,324.15021,177.77809,317.36496,172.49031,311.99792z"/>
	<path fill="#F4F4F4" d="M161.92093,270.24768h-19.37291c-0.58725,0-1.06772-0.48047-1.06772-1.06772v-1.17352
		c0-0.58725,0.48047-1.06772,1.06772-1.06772h19.37291c0.58723,0,1.06772,0.48047,1.06772,1.06772v1.17352
		C162.98865,269.76721,162.50816,270.24768,161.92093,270.24768z"/>
	<path fill="#F4F4F4" d="M345.08313,314.47446h-20.56979c-0.58725,0-1.06772-0.4805-1.06772-1.06772v-1.17355
		c0-0.58725,0.48047-1.06772,1.06772-1.06772h20.56979c0.58725,0,1.06772,0.48047,1.06772,1.06772v1.17355
		C346.15085,313.99396,345.67038,314.47446,345.08313,314.47446z"/>
	<path fill="#F4F4F4" d="M427.63306,324.61111v48.71945c0,1.95682,1.58633,3.54321,3.54321,3.54321
		c1.95691,0,3.54324-1.5864,3.54324-3.54321v-48.71945H427.63306z"/>
	<path fill="#F4F4F4" d="M442.98706,324.61111v48.71945c0,1.95682,1.58633,3.54321,3.54321,3.54321
		c1.95691,0,3.54324-1.5864,3.54324-3.54321v-48.71945H442.98706z"/>
	<path fill="#F4F4F4" d="M458.34106,324.61111v48.71945c0,1.95682,1.58633,3.54321,3.54321,3.54321
		c1.95691,0,3.54324-1.5864,3.54324-3.54321v-48.71945H458.34106z"/>
	<path fill="#F4F4F4" d="M473.69507,324.61111v48.71945c0,1.95682,1.58633,3.54321,3.54321,3.54321
		c1.95691,0,3.54324-1.5864,3.54324-3.54321v-48.71945H473.69507z"/>
	<path fill="#E5E5E5" d="M492.51849,382.18863h-1.10727v-64.664h-5.31485v18.60196h-62.89236v-18.60196h-5.31485v64.664h-0.66437
		c-2.93527,0-5.31485,2.37952-5.31485,5.31485h85.9234C497.83334,384.56815,495.45377,382.18863,492.51849,382.18863z
		 M423.20401,341.44144h62.89236v40.74719h-62.89236V341.44144z"/>
	<path fill="#F4F4F4" d="M326.5188,314.63559v21.86038l-19.87338,45.7359c-1.0817,2.48941,0.74289,5.27161,3.45712,5.27161h49.29034
		c2.69794,0,4.52231-2.75159,3.47202-5.23669l-19.3436-45.77081v-21.86038"/>
	<path fill="#E73C4D" d="M338.03137,361.5737c0.03006-0.02884,5.56494-2.71021,5.56494-6.44061l-0.00043-0.00006
		c0-0.00278,0.00043-0.00549,0.00043-0.0083c0-1.62317-1.31583-2.939-2.93903-2.939c-1.15558,0-2.1525,0.66861-2.63263,1.63855
		c-0.48431-0.95798-1.47516-1.6163-2.62198-1.6163c-1.62317,0-2.939,1.31586-2.939,2.93903
		c0,0.10263,0.00543,0.20401,0.01569,0.30392c0.29337,3.70746,5.52145,6.09473,5.55063,6.12277"/>
	<path fill="#E73C4D" d="M330.84549,304.89868c0.02292-0.02203,4.24957-2.06961,4.24957-4.9183l-0.00034-0.00003
		c0-0.00214,0.00034-0.00421,0.00034-0.00632c0-1.23953-1.00482-2.24435-2.24435-2.24435
		c-0.88245,0-1.64374,0.51056-2.01038,1.25125c-0.36984-0.73154-1.1265-1.23425-2.00223-1.23425
		c-1.2395,0-2.24432,1.00482-2.24432,2.24435c0,0.07837,0.00412,0.15576,0.01196,0.23206
		c0.22403,2.83118,4.2164,4.65417,4.23868,4.6756"/>
	<path fill="#E73C4D" d="M336.55396,295.23596c0.01352-0.013,2.50708-1.22101,2.50708-2.90161l-0.00018-0.00003
		c0-0.00125,0.00018-0.00247,0.00018-0.00372c0-0.73126-0.5928-1.32407-1.32407-1.32407c-0.5206,0-0.96976,0.30121-1.18604,0.73819
		c-0.2182-0.43158-0.66458-0.72818-1.18124-0.72818c-0.73126,0-1.32407,0.5928-1.32407,1.3241
		c0,0.04623,0.00244,0.09189,0.00705,0.1369c0.13217,1.67029,2.48752,2.74579,2.50067,2.75842"/>
	<path fill="#E73C4D" d="M335.50494,326.36087c0.02292-0.02203,4.24747-2.07056,4.24747-4.91925l-0.00034-0.00003
		c0-0.00214,0.00034-0.00421,0.00034-0.00635c0-1.2395-1.00482-2.24432-2.24435-2.24432c-0.88245,0-1.64374,0.51056-2.01038,1.25125
		c-0.36984-0.73154-1.1265-1.23425-2.00223-1.23425c-1.2395,0-2.24432,1.00482-2.24432,2.24435
		c0,0.07837,0.00412,0.15576,0.01196,0.23206c0.22403,2.83118,4.21765,4.65134,4.23993,4.67276"/>
	<g>
		<circle fill="#E73C4D" cx="332.96973" cy="342.87192" r="3.03616"/>
	</g>
	<g>
		<path fill="#5ABDB7" d="M151.5952,364.42862c0.85785,2.09552-2.53073,4.84296-3.38864,8.98737
			c-0.60172,2.90692,1.0307,4.96173,2.06085,5.93231c-0.47949-0.74017-0.81311-1.83105-0.23273-3.23657
			c1.16248-2.81531,1.20715-3.05798,1.20715-3.05798s1.47549,1.55328,1.2966,3.15503
			c0.49188-2.52399,0.62595-3.59186-0.26822-6.50421c1.51138,2.17291,4.3877,6.85266,2.42102,9.90375
			C160.30342,375.32632,154.77769,366.96225,151.5952,364.42862L151.5952,364.42862z"/>
	</g>
	<path fill="#E5E5E5" d="M161.45296,387.49655h-18.77361v-2.26648c0-1.36765,1.10869-2.47632,2.47632-2.47632h13.82097
		c1.36763,0,2.47632,1.10867,2.47632,2.47632V387.49655z"/>
	<g>
		<path fill="#0A7CBA" d="M220.3925,222.63989c1.58406,4.08325,5.54077,6.98317,10.18375,6.98317s8.59969-2.89992,10.18375-6.98317
			H220.3925z"/>
	</g>
	<polyline fill="#F4F4F4" points="148.04324,270.53534 148.04324,278.30286 155.25414,278.30286 155.25414,270.61124 	"/>
	<polygon fill="#B5B5B5" points="132.22758,386.38702 119.96611,327.3092 118.82999,327.3092 106.5686,386.38702 
		101.78835,386.38702 101.78835,387.52313 106.33281,387.52313 107.46893,387.52313 118.82999,332.78326 118.82999,386.38702 
		116.55777,386.38702 116.55777,387.52313 122.23834,387.52313 122.23834,386.38702 119.96611,386.38702 119.96611,332.78317 
		131.32726,387.52313 132.46336,387.52313 137.00783,387.52313 137.00783,386.38702 	"/>
	<polygon fill="#B5B5B5" points="197.80869,386.38702 185.54721,327.3092 184.41109,327.3092 172.1497,386.38702 
		167.40695,386.38702 167.40695,387.52313 171.91391,387.52313 173.05002,387.52313 173.08752,387.52313 173.08752,387.34241 
		184.41109,332.78326 184.41109,386.38702 182.13887,386.38702 182.13887,387.52313 187.81944,387.52313 187.81944,386.38702 
		185.54721,386.38702 185.54721,332.78317 196.90836,387.52313 198.04446,387.52313 202.58893,387.52313 202.58893,386.38702 	"/>
	<g>
		<circle fill="#299CCE" cx="145.22214" cy="319.5314" r="2.31507"/>
	</g>
	<g>
		<circle fill="#299CCE" cx="152.43303" cy="318.31696" r="2.7705"/>
	</g>
	<g>
		<circle fill="#299CCE" cx="161.84514" cy="316.26755" r="2.01146"/>
	</g>
	<g>
		<path fill="#0A7CBA" d="M176.43488,321.46695h-1.97084c0.00496-0.06375,0.01912-0.12476,0.01912-0.18976
			c0-1.3624-1.10446-2.46686-2.46687-2.46686c-0.34721,0-0.67677,0.07321-0.97646,0.20264
			c-0.57877-1.12018-1.85371-1.8222-3.26469-1.48325c-0.46187,0.11096-0.87935,0.35233-1.22766,0.66833
			c-0.70062-0.91397-1.79189-1.51306-3.03246-1.51306c-1.47197,0-2.73506,0.83902-3.37727,2.05624
			c-0.60205-1.08527-1.7455-1.82852-3.07457-1.82852c-1.94934,0-3.52953,1.5802-3.52953,3.52954
			c0,0.35892,0.06944,0.69833,0.16899,1.02469h-1.69856c-0.06087-1.39227-1.19994-2.50482-2.60721-2.50482
			c-1.40726,0-2.54634,1.11255-2.60719,2.50482h-5.74847c0.17168-0.3833,0.27188-0.8053,0.27188-1.25241
			c0-1.69781-1.37634-3.0741-3.07411-3.0741c-1.69775,0-3.07411,1.37628-3.07411,3.0741c0,0.44711,0.10022,0.86911,0.2719,1.25241
			h-0.7646c0.01527-0.11319,0.03728-0.22458,0.03728-0.34155c0-1.53009-1.34357-2.70648-2.9982-2.77051
			c-1.59265-0.06161-3.00714,0.55276-3.27147,2.72452c-0.01413,0.11612,0.02202,0.22836,0.03729,0.34155l-0.02058,0.04599
			c-1.22914,3.01572-1.9194,6.30872-1.9194,9.7663c0,14.30893,11.59968,25.90863,25.90864,25.90863
			c14.30887,0,25.90855-11.5997,25.90855-25.90863C178.35426,327.77567,177.66402,324.48267,176.43488,321.46695z"/>
	</g>
	<g>
		<circle fill="#299CCE" cx="167.84155" cy="315.888" r="3.15002"/>
	</g>
	<g>
		<circle fill="#299CCE" cx="172.09218" cy="320.99887" r="2.34037"/>
	</g>
	<g>
		<circle fill="#299CCE" cx="154.50774" cy="322.18805" r="2.97291"/>
	</g>
	<g>
		<circle fill="#299CCE" cx="149.27036" cy="321.25189" r="2.34037"/>
	</g>
	<g>
		<circle fill="#299CCE" cx="142.28719" cy="320.99887" r="1.88495"/>
	</g>
	<g>
		<circle fill="#0A7CBA" cx="131.50882" cy="321.25189" r="3.04881"/>
	</g>
	<circle fill="#F4677B" cx="344.82343" cy="364.66901" r="3.15002"/>
	<circle fill="#E73C4D" cx="336.60049" cy="365.90878" r="2.44158"/>
	<circle fill="#F4677B" cx="326.20163" cy="361.96176" r="2.44158"/>
	<g>
		<circle fill="#299CCE" cx="147.9547" cy="308.82895" r="2.69459"/>
	</g>
	<g>
		<circle fill="#0A7CBA" cx="148.9794" cy="301.7319" r="1.66989"/>
	</g>
	<g>
		<circle fill="#0A7CBA" cx="154.17882" cy="289.1698" r="2.54279"/>
	</g>
	<g>
		<circle fill="#0A7CBA" cx="157.5186" cy="306.47592" r="2.7705"/>
	</g>
	<rect x="115.45107" y="326.19269" fill="#B5B5B5" width="72.26066" height="7.28679"/>
	<g>
		<path fill="#F59C30" d="M220.05975,258.46661c-0.45587,1.23135-0.7173,2.55707-0.7173,3.94699
			c0,6.28812,5.0975,11.38562,11.3856,11.38562s11.3856-5.0975,11.3856-11.38562c0-1.38992-0.26144-2.71564-0.7173-3.94699
			H220.05975z"/>
	</g>
	<line fill="#FFFFFF" stroke="#B5B5B5" stroke-miterlimit="10" x1="247.78104" y1="355.92731" x2="240.89911" y2="355.92731"/>
	<line fill="#FFFFFF" stroke="#B5B5B5" stroke-miterlimit="10" x1="247.78116" y1="358.93826" x2="243.42729" y2="358.93826"/>
	<line fill="#FFFFFF" stroke="#B5B5B5" stroke-miterlimit="10" x1="247.78116" y1="361.94913" x2="243.42729" y2="361.94913"/>
	<line fill="#FFFFFF" stroke="#B5B5B5" stroke-miterlimit="10" x1="247.78104" y1="364.95987" x2="240.89911" y2="364.95987"/>
	<line fill="#FFFFFF" stroke="#B5B5B5" stroke-miterlimit="10" x1="247.78114" y1="367.97083" x2="243.49736" y2="367.97083"/>
	<line fill="#FFFFFF" stroke="#B5B5B5" stroke-miterlimit="10" x1="247.78114" y1="370.98169" x2="243.49736" y2="370.98169"/>
	<line fill="#FFFFFF" stroke="#B5B5B5" stroke-miterlimit="10" x1="247.78104" y1="373.99246" x2="240.89911" y2="373.99246"/>
	<path fill="#B5B5B5" d="M235.03537,202.34821h-8.91824c-0.46979,0-0.85416-0.38437-0.85416-0.85417v-3.60495
		c0-0.46979,0.38437-0.85416,0.85416-0.85416h8.91824c0.46979,0,0.85416,0.38437,0.85416,0.85416v3.60495
		C235.88953,201.96384,235.50516,202.34821,235.03537,202.34821z"/>
	<g>
		<path fill="#E73C4D" d="M358.53998,381.95374l-6.37994-15.09616l0.01038-0.03632c0.00259-0.05136,0.01526-0.09976,0.01526-0.15179
			c0-1.67685-1.35931-3.03616-3.03616-3.03616c-1.14529,0-2.2186,0.67795-2.73572,1.61429
			c-0.27426-0.39331-0.70758-0.66711-1.22351-0.66711c-0.83841,0-1.51807,0.67963-1.51807,1.51807
			c0,0.28265,0.09805,0.53244,0.2326,0.75903h-8.5845c0.04596-0.17047,0.07837-0.34631,0.07837-0.53131
			c0-1.1319-0.91754-2.04941-2.04944-2.04941c-0.47098,0-0.89941,0.16522-1.24551,0.43228
			c-0.34949-1.42252-1.62408-2.48169-3.15439-2.48169c-1.28088,0-2.38593,0.74109-2.91815,1.81619
			c-0.5368-1.06192-1.63504-1.79153-2.90622-1.79153c-1.79916,0-3.25766,1.4585-3.25766,3.25766
			c0,0.11377,0.00601,0.22617,0.01736,0.33691c0.00027,0.00348,0.00131,0.00674,0.00162,0.01022
			c-0.22-0.12402-0.4606-0.21378-0.73108-0.21378c-0.73074,0-1.3609,0.52203-1.50558,1.20969l-0.00256,0.00476l-6.7402,15.51157
			c-0.35632,0.82004,0.08368,1.49094,0.97778,1.49094h45.39145C358.41434,383.86008,358.98309,383.00223,358.53998,381.95374z"/>
	</g>
	<circle fill="#F4677B" cx="345.27884" cy="366.41479" r="1.80905"/>
	<circle fill="#F4677B" cx="351.04755" cy="367.55338" r="1.80905"/>
	<circle fill="#F4677B" cx="333.36191" cy="366.3895" r="2.26447"/>
	<circle fill="#F4677B" cx="319.92688" cy="367.37625" r="2.26447"/>
	<circle fill="#F4677B" cx="324.29138" cy="366.19974" r="1.77109"/>
	<circle fill="#F4677B" cx="340.54749" cy="367.35095" r="2.56809"/>
	<circle fill="#F4677B" cx="331.69202" cy="363.45456" r="0.9994"/>
	<g>
		<circle fill="#299CCE" cx="134.72209" cy="320.72058" r="1.70784"/>
	</g>
	<g>
		<path fill="#F59C30" d="M242.6927,385.22635h-23.21898c-1.6586,0-3.01563-1.35703-3.01563-3.01563v-7.00369h29.25023v7.00369
			C245.70833,383.86932,244.3513,385.22635,242.6927,385.22635z"/>
	</g>
	<line fill="#FFFFFF" stroke="#B5B5B5" stroke-miterlimit="10" x1="247.78116" y1="377.00342" x2="243.42729" y2="377.00342"/>
	<line fill="#FFFFFF" stroke="#B5B5B5" stroke-miterlimit="10" x1="247.78116" y1="380.01428" x2="243.42729" y2="380.01428"/>
	<g>
		<path fill="#6E6186" d="M431.16666,375.41666L431.16666,375.41666c-1.24265,0-2.25-1.00735-2.25-2.25v-23.75h4.5v23.75
			C433.41666,374.4093,432.4093,375.41666,431.16666,375.41666z"/>
	</g>
	<g>
		<path fill="#6E6186" d="M446.5,375.5L446.5,375.5c-1.24265,0-2.25-1.00735-2.25-2.25V349.5h4.5v23.75
			C448.75,374.49265,447.74265,375.5,446.5,375.5z"/>
	</g>
	<g>
		<path fill="#6E6186" d="M461.83334,375.5L461.83334,375.5c-1.24265,0-2.25-1.00735-2.25-2.25V368h4.5v5.25
			C464.08334,374.49265,463.07599,375.5,461.83334,375.5z"/>
	</g>
	<g>
		<path fill="#6E6186" d="M477.16666,375.5L477.16666,375.5c-1.24265,0-2.25-1.00735-2.25-2.25V356.5h4.5v16.75
			C479.41666,374.49265,478.4093,375.5,477.16666,375.5z"/>
	</g>
	<path fill="#E8E8E8" d="M303.27084,202.56003h25.5498c1.33429,0,2.41983,1.08549,2.41983,2.41985v82.2744H338.5v-82.2744
		c0-5.34575-4.33359-9.67935-9.67935-9.67935h-25.5498"/>
	<path fill="#E8E8E8" d="M303.45685,195.30052c-8.68683,0-15.77341,7.04211-15.77341,15.72894s7.04211,15.72894,15.72894,15.72894
		s15.72894-7.04211,15.72894-15.72894V188.041c0-5.34576-4.33362-9.67932-9.67932-9.67932h-25.40826
		c-5.34576,0-9.67938,4.33356-9.67938,9.67932v13.25946c-0.00043,1.33398-1.08533,2.41876-2.41925,2.41907
		c-1.33313-0.00153-2.44562-1.11462-2.44562-2.448v-9.35486l0.00229-0.00043v-8.44958h-0.00034
		c-0.3244-11.45428-9.69147-20.64551-21.22426-20.64551c-11.53271,0-20.89807,9.19165-21.22247,20.64594h-0.03064v13.56146h7.28674
		v-12.95422c0-7.70111,6.26532-13.96637,13.96637-13.96637s13.96638,6.26526,13.96638,13.96637v3.89105h-0.00354v13.30908h0.00012
		c0.00165,5.34454,4.36279,9.70483,9.70758,9.70483v-0.00037c5.32727-0.00159,9.64624-4.3075,9.67371-9.62885h0.00244v-0.04889
		c0-0.00049,0.00006-0.00092,0.00006-0.00146h-0.00006V188.041c0-1.33435,1.08557-2.4198,2.41986-2.4198h25.40826
		c1.33423,0,2.4198,1.08545,2.4198,2.4198v22.98846c0,4.67004-3.79938,8.46942-8.46942,8.46942s-8.46942-3.79938-8.46942-8.46942
		c0-4.6701,3.87915-8.46942,8.54919-8.46942"/>
	<path fill="#B5B5B5" d="M388.22787,252.11104c-2.18475,0-4.00623,1.42337-4.44815,3.32048h-5.16638v-20.76485h-3.44095v20.76485
		h-45.74487v2.24484h45.74487V384.1362h-6.78073v3.36728h17.0025v-3.36728h-6.78082V257.67636h5.32346
		c0.61307,1.65515,2.29245,2.85284,4.29108,2.85284c2.51523,0,4.55426-1.88449,4.55426-4.20908
		C392.78214,253.99547,390.7431,252.11104,388.22787,252.11104z"/>
	
		<line fill="#EDEDED" stroke="#EDEDED" stroke-width="5" stroke-miterlimit="10" x1="-0.16667" y1="390.66666" x2="600.83331" y2="390.66666"/>
</g>
<g id="footer">
</g>
<g id="menu">
</g>
</svg>
