<?xml version="1.0" encoding="utf-8"?>
<!-- Generator: Adobe Illustrator 19.2.1, SVG Export Plug-In . SVG Version: 6.00 Build 0)  -->
<svg version="1.1" xmlns="http://www.w3.org/2000/svg" xmlns:xlink="http://www.w3.org/1999/xlink" x="0px" y="0px"
	 viewBox="0 0 121.75 50.91667" enable-background="new 0 0 121.75 50.91667" xml:space="preserve">
<g id="Calque_4">
</g>
<g id="Repères" display="none">
</g>
<g id="Calque_3">
	<polygon fill="#FFFFFF" points="11.12867,39.7105 2.16467,39.7105 2.16467,4.1975 11.12867,4.1975 11.12867,2.6995 2.16467,2.6995 
		0.66667,2.6995 0.66667,4.1975 0.66667,39.7105 0.66667,41.2085 2.16467,41.2085 11.12867,41.2085 	"/>
	<polygon fill="#FFFFFF" points="37.67737,2.6997 28.71837,2.6997 28.71837,4.1977 37.67737,4.1977 37.67737,39.7107 
		28.71837,39.7107 28.71837,41.2077 37.67737,41.2077 39.17537,41.2077 39.17537,39.7107 39.17537,4.1977 39.17537,2.6997 	"/>
	<path fill="#FFFFFF" d="M19.82757,11.51121l-8.758,20.857l8.758-4.427l8.758,4.427L19.82757,11.51121z M19.82757,15.3792
		l5.80099,13.817l-5.125-2.591l-0.67599-0.342l-0.676,0.342l-5.126,2.591L19.82757,15.3792z"/>
	<path fill="#FFFFFF" d="M51.73967,27.3952h0.02l6.28699-10.86h2.14301l-6.246,10.86l7.08301,10.819h-2.082L51.73967,27.3952z
		 M50.49367,38.2142h-1.83701V5.6962h1.83701V38.2142z"/>
	<path fill="#FFFFFF" d="M69.47906,36.7444c2.49399,0,4.45-3.572,4.45-9.37c0-5.797-1.96001-9.39001-4.45-9.39001
		c-2.57701,0-4.45001,3.593-4.45001,9.39001C65.02905,33.1724,67.10406,36.7444,69.47906,36.7444 M69.47906,38.5814
		c-3.00301,0-6.41-3.981-6.41-11.20699c0-7.22601,3.22499-11.22701,6.41-11.22701c3.18399,0,6.409,4.001,6.409,11.22701
		C75.88806,34.6004,72.54106,38.5814,69.47906,38.5814"/>
	<g>
		<polygon fill="#FFFFFF" points="77.93117,38.214 87.28017,18.25 79.29816,18.25 79.29816,16.536 90.07716,16.536 80.70715,36.499 
			89.77016,36.499 89.77016,38.214 		"/>
	</g>
	<g>
		<path fill="#FFFFFF" d="M98.95667,17.9847c-2.735,0-4.409,2.695-4.756,7.063l-0.08101,1.123h8.24701l0.101-1.45
			C102.63167,20.4547,101.34567,17.9847,98.95667,17.9847 M104.08067,27.9057l-10.00201-0.021l0.10201,1.001
			c0.46901,4.98,3.082,7.858,5.69501,7.858c1.062,0,2.082-0.326,2.87799-0.714l0.61301,1.61301
			c-1.103,0.531-2.57201,0.939-3.92,0.939c-3.96001,0-7.328-4.94-7.328-11.86c0-7.104,3.552-10.574,6.92-10.574
			C103.22366,16.14771,105.06067,21.23071,104.08067,27.9057"/>
	</g>
	<g>
		<path fill="#FFFFFF" d="M116.26855,35.1118v-9.166h-0.89799c-3.715,0-6.675,1.367-6.675,5.859
			c0,3.061,1.79601,4.87801,4.22501,4.87801C114.32556,36.68281,115.42957,35.95081,116.26855,35.1118 M106.73557,31.3348
			c0-3.756,2.85799-6.93999,8.655-7.226l0.87799-0.041c-0.041-4.511-1.633-6.083-4.30699-6.083c-1.00101,0-2.246,0.511-3.164,0.939
			l-0.63301-1.857c1.40901-0.552,3.10301-0.919,4.246-0.919c3.388,0,5.69501,2.246,5.69501,6.471v15.35l-1.96001-0.918
			l-0.44899,0.367c-0.85701,0.694-1.959,1.10201-3.20401,1.10201C109.36856,38.51981,106.73557,35.64181,106.73557,31.3348"/>
	</g>
	<g>
		<path fill="#FFFFFF" d="M100.95963,47.51628V44.4528c0-0.45557-0.08887-0.78809-0.2666-0.99707
			c-0.17725-0.20898-0.44971-0.31348-0.81641-0.31348c-0.47803,0-0.83203,0.13184-1.06104,0.39502
			c-0.22949,0.26367-0.34375,0.67773-0.34375,1.2417v2.7373h-0.43408v-3.19238c0-0.78809-0.36084-1.18164-1.08301-1.18164
			c-0.48975,0-0.84619,0.14258-1.06982,0.42725c-0.22314,0.28516-0.33496,0.74121-0.33496,1.36865v2.57813h-0.42529v-4.6709h0.35205
			l0.09033,0.64063h0.02588c0.12891-0.23242,0.31201-0.41211,0.5498-0.53955s0.5-0.19092,0.78662-0.19092
			c0.73584,0,1.2085,0.27637,1.41797,0.8291h0.01709c0.15186-0.2666,0.35596-0.47119,0.6123-0.61426
			c0.25635-0.14355,0.54785-0.21484,0.87451-0.21484c0.50977,0,0.89209,0.13574,1.14697,0.4082
			c0.25488,0.27197,0.38232,0.70459,0.38232,1.29736v3.05518H100.95963z"/>
		<path fill="#FFFFFF" d="M104.77946,47.60221c-0.6792,0-1.2085-0.20898-1.58789-0.62744
			c-0.37939-0.41797-0.56934-1.00391-0.56934-1.75732c0-0.74463,0.18359-1.34131,0.55029-1.78955
			c0.36621-0.44824,0.86035-0.67236,1.48242-0.67236c0.5498,0,0.98389,0.19189,1.30176,0.57568s0.47705,0.90527,0.47705,1.56396
			v0.34375h-3.36475c0.00586,0.6416,0.15576,1.13135,0.44922,1.46973c0.29346,0.33789,0.71387,0.50684,1.26123,0.50684
			c0.26611,0,0.50049-0.01855,0.70264-0.05566c0.20166-0.0376,0.45752-0.11768,0.7666-0.24072v0.38672
			c-0.26318,0.11475-0.50684,0.19238-0.73047,0.23389C105.29508,47.58122,105.0485,47.60221,104.77946,47.60221z
			 M104.65495,43.13346c-0.4502,0-0.81104,0.14844-1.08301,0.44482s-0.43115,0.72412-0.47705,1.28271h2.8877
			c0-0.5415-0.11768-0.96484-0.35254-1.27002S105.06998,43.13346,104.65495,43.13346z"/>
		<path fill="#FFFFFF" d="M109.43278,42.75554c0.33789,0,0.63037,0.06152,0.87646,0.18457
			c0.24658,0.12305,0.4668,0.33398,0.66162,0.63184h0.02588c-0.01709-0.36133-0.02588-0.71484-0.02588-1.06152v-1.68018h0.42139
			v6.68604h-0.2793l-0.10742-0.71338h-0.03467c-0.35498,0.53271-0.86475,0.79932-1.5293,0.79932
			c-0.64453,0-1.1377-0.20068-1.47852-0.60156s-0.51123-0.98535-0.51123-1.75293c0-0.80811,0.16895-1.42529,0.50732-1.85205
			C108.29704,42.96891,108.78825,42.75554,109.43278,42.75554z M109.43278,43.14225c-0.50977,0-0.89307,0.17871-1.14941,0.53711
			c-0.25635,0.35791-0.38477,0.87793-0.38477,1.55957c0,1.32324,0.51416,1.98535,1.54297,1.98535
			c0.52686,0,0.91357-0.15332,1.16016-0.45996c0.24609-0.30664,0.36914-0.81201,0.36914-1.5166v-0.07324
			c0-0.72168-0.12109-1.24121-0.36279-1.55762C110.36588,43.30046,109.97428,43.14225,109.43278,43.14225z"/>
		<path fill="#FFFFFF" d="M112.90006,41.54802c0-0.2749,0.09033-0.4126,0.271-0.4126c0.08887,0,0.1582,0.03564,0.2085,0.10742
			c0.0498,0.07178,0.0752,0.17334,0.0752,0.30518c0,0.12891-0.02539,0.23047-0.0752,0.30518
			c-0.05029,0.07422-0.11963,0.11133-0.2085,0.11133C112.99039,41.96452,112.90006,41.82585,112.90006,41.54802z M113.3859,47.51628
			h-0.42529v-4.6709h0.42529V47.51628z"/>
		<path fill="#FFFFFF" d="M117.7858,47.51628l-0.10742-0.73926h-0.03467c-0.23486,0.30078-0.47607,0.51367-0.72412,0.63818
			c-0.24756,0.12451-0.54053,0.18701-0.87842,0.18701c-0.4585,0-0.81494-0.11719-1.06982-0.35254
			c-0.25537-0.23486-0.38281-0.55957-0.38281-0.9751c0-0.45557,0.18994-0.80908,0.56934-1.06152
			c0.37988-0.25195,0.9292-0.38525,1.64795-0.39941l0.88965-0.02588v-0.30957c0-0.44385-0.09033-0.77881-0.271-1.00537
			c-0.18018-0.22607-0.47119-0.33936-0.87207-0.33936c-0.43262,0-0.88086,0.12012-1.34473,0.36084l-0.15918-0.36963
			c0.5127-0.24023,1.01953-0.36084,1.521-0.36084c0.5127,0,0.896,0.1333,1.14941,0.3999
			c0.25342,0.26611,0.38037,0.68164,0.38037,1.24609v3.10645H117.7858z M116.06705,47.2155c0.49805,0,0.8916-0.14258,1.1792-0.42773
			c0.28809-0.28467,0.43213-0.68066,0.43213-1.18799V45.1403l-0.81641,0.03418c-0.65625,0.03174-1.12402,0.13379-1.40332,0.30713
			s-0.41895,0.44336-0.41895,0.81006c0,0.29199,0.08984,0.51904,0.26855,0.68115
			C115.48746,47.13444,115.74039,47.2155,116.06705,47.2155z"/>
	</g>
</g>
<g id="footer">
</g>
<g id="community">
</g>
<g id="media">
</g>
<g id="link">
</g>
<g id="platform">
</g>
<g id="intro">
</g>
<g id="menu">
</g>
</svg>
