<?xml version="1.0" encoding="utf-8"?>
<!-- Generator: Adobe Illustrator 19.2.1, SVG Export Plug-In . SVG Version: 6.00 Build 0)  -->
<svg version="1.1" xmlns="http://www.w3.org/2000/svg" xmlns:xlink="http://www.w3.org/1999/xlink" x="0px" y="0px"
	 viewBox="0 0 121.75 50.91667" enable-background="new 0 0 121.75 50.91667" xml:space="preserve">
<g id="Calque_4">
</g>
<g id="Repères" display="none">
</g>
<g id="Calque_3">
	<polygon fill="#FFFFFF" points="11.08701,39.25217 2.123,39.25217 2.123,3.73917 11.08701,3.73917 11.08701,2.24117 2.123,2.24117 
		0.625,2.24117 0.625,3.73917 0.625,39.25217 0.625,40.75017 2.123,40.75017 11.08701,40.75017 	"/>
	<polygon fill="#FFFFFF" points="37.6357,2.24137 28.6767,2.24137 28.6767,3.73937 37.6357,3.73937 37.6357,39.25237 
		28.6767,39.25237 28.6767,40.74937 37.6357,40.74937 39.1337,40.74937 39.1337,39.25237 39.1337,3.73937 39.1337,2.24137 	"/>
	<path fill="#FFFFFF" d="M19.7859,11.05287l-8.758,20.857l8.758-4.427l8.758,4.427L19.7859,11.05287z M19.7859,14.92087
		l5.80099,13.817l-5.125-2.591l-0.67599-0.342l-0.676,0.342l-5.126,2.591L19.7859,14.92087z"/>
	<path fill="#FFFFFF" d="M51.69801,26.93687h0.02l6.28699-10.86H60.148l-6.246,10.86l7.08301,10.819h-2.082L51.69801,26.93687z
		 M50.452,37.75587H48.615V5.23786H50.452V37.75587z"/>
	<path fill="#FFFFFF" d="M69.4374,36.28607c2.49399,0,4.45-3.572,4.45-9.37c0-5.797-1.96001-9.39001-4.45-9.39001
		c-2.57701,0-4.45001,3.593-4.45001,9.39001C64.98739,32.71407,67.0624,36.28607,69.4374,36.28607 M69.4374,38.12307
		c-3.00301,0-6.41-3.981-6.41-11.207s3.22499-11.227,6.41-11.227c3.18399,0,6.409,4.001,6.409,11.227
		S72.4994,38.12307,69.4374,38.12307"/>
	<g>
		<polygon fill="#FFFFFF" points="77.8895,37.75566 87.2385,17.79167 79.25649,17.79167 79.25649,16.07767 90.0355,16.07767 
			80.66549,36.04067 89.72849,36.04067 89.72849,37.75566 		"/>
	</g>
	<g>
		<path fill="#FFFFFF" d="M98.915,17.52637c-2.735,0-4.409,2.695-4.756,7.063l-0.08101,1.123h8.24701l0.101-1.45
			C102.59,19.99637,101.30401,17.52637,98.915,17.52637 M104.03901,27.44737l-10.00201-0.021l0.10201,1.001
			c0.46901,4.98001,3.082,7.858,5.69501,7.858c1.062,0,2.082-0.326,2.87799-0.714l0.61301,1.61301
			c-1.103,0.531-2.57201,0.939-3.92,0.939c-3.96001,0-7.328-4.94-7.328-11.86c0-7.104,3.552-10.574,6.92-10.574
			C103.182,15.68937,105.019,20.77237,104.03901,27.44737"/>
	</g>
	<g>
		<path fill="#FFFFFF" d="M116.22689,34.65347v-9.166h-0.89799c-3.715,0-6.675,1.367-6.675,5.859
			c0,3.06101,1.79601,4.87801,4.22501,4.87801C114.2839,36.22448,115.3879,35.49247,116.22689,34.65347 M106.6939,30.87647
			c0-3.756,2.85799-6.93999,8.655-7.226l0.87799-0.041c-0.041-4.511-1.633-6.083-4.30699-6.083c-1.00101,0-2.246,0.511-3.164,0.939
			l-0.63301-1.857c1.40901-0.552,3.10301-0.919,4.246-0.919c3.388,0,5.69501,2.246,5.69501,6.471v15.35l-1.96001-0.918
			l-0.44899,0.367c-0.85701,0.694-1.959,1.10201-3.20401,1.10201C109.3269,38.06147,106.6939,35.18348,106.6939,30.87647"/>
	</g>
	<g>
		<path fill="#FFFFFF" d="M77.20361,47.14421c-0.66748,0-1.19043-0.21045-1.56836-0.63184
			c-0.37842-0.4209-0.56738-1.0083-0.56738-1.76172c0-0.77344,0.19629-1.37549,0.58887-1.80664
			c0.39209-0.43115,0.9292-0.64648,1.61133-0.64648c0.40381,0,0.79053,0.06982,1.16016,0.21045l-0.11621,0.37793
			c-0.40381-0.13428-0.75488-0.20166-1.05273-0.20166c-0.57275,0-1.00684,0.17676-1.30176,0.53027
			c-0.29541,0.354-0.44287,0.86328-0.44287,1.52783c0,0.63037,0.14746,1.12354,0.44287,1.47998
			c0.29492,0.35693,0.70752,0.53516,1.2373,0.53516c0.42383,0,0.81787-0.07568,1.18164-0.22754v0.39502
			C78.07861,47.07096,77.6875,47.14421,77.20361,47.14421z"/>
		<path fill="#FFFFFF" d="M83.38232,44.71647c0,0.76221-0.18506,1.35693-0.5542,1.78516
			c-0.36963,0.42871-0.87988,0.64258-1.52979,0.64258c-0.40967,0-0.77051-0.09863-1.08301-0.29639
			c-0.31201-0.19775-0.55127-0.48145-0.71729-0.85107c-0.1665-0.36914-0.24951-0.7959-0.24951-1.28027
			c0-0.76172,0.18506-1.35547,0.5542-1.78125c0.36963-0.42529,0.87695-0.6377,1.52148-0.6377
			c0.6416,0,1.14502,0.21533,1.51025,0.64648S83.38232,43.96598,83.38232,44.71647z M79.69531,44.71647
			c0,0.6416,0.14111,1.14209,0.42334,1.50195c0.28223,0.35938,0.68115,0.53906,1.19678,0.53906s0.91455-0.17969,1.19678-0.53906
			c0.28223-0.35986,0.42334-0.86035,0.42334-1.50195c0-0.64453-0.14258-1.14453-0.42773-1.49951
			c-0.28516-0.35547-0.68555-0.53271-1.20117-0.53271s-0.91309,0.17676-1.19238,0.53027
			C79.83496,43.56852,79.69531,44.06901,79.69531,44.71647z"/>
		<path fill="#FFFFFF" d="M90.51074,47.05827v-3.06348c0-0.45557-0.08887-0.78809-0.2666-0.99707
			c-0.17725-0.20898-0.44971-0.31348-0.81641-0.31348c-0.47803,0-0.83203,0.13184-1.06104,0.39502
			c-0.22949,0.26367-0.34375,0.67773-0.34375,1.2417v2.7373h-0.43408v-3.19238c0-0.78809-0.36084-1.18164-1.08301-1.18164
			c-0.48975,0-0.84619,0.14258-1.06982,0.42725c-0.22314,0.28516-0.33496,0.74121-0.33496,1.36865v2.57813h-0.42529v-4.6709h0.35205
			l0.09033,0.64063h0.02588c0.12891-0.23242,0.31201-0.41211,0.5498-0.53955s0.5-0.19092,0.78662-0.19092
			c0.73584,0,1.2085,0.27637,1.41797,0.8291h0.01709c0.15186-0.2666,0.35596-0.47119,0.6123-0.61426
			c0.25635-0.14355,0.54785-0.21484,0.87451-0.21484c0.50977,0,0.89209,0.13574,1.14697,0.4082
			c0.25488,0.27197,0.38232,0.70459,0.38232,1.29736v3.05518H90.51074z"/>
		<path fill="#FFFFFF" d="M98.2793,47.05827v-3.06348c0-0.45557-0.08887-0.78809-0.2666-0.99707
			c-0.17725-0.20898-0.44971-0.31348-0.81641-0.31348c-0.47803,0-0.83203,0.13184-1.06104,0.39502
			c-0.22949,0.26367-0.34375,0.67773-0.34375,1.2417v2.7373h-0.43408v-3.19238c0-0.78809-0.36084-1.18164-1.08301-1.18164
			c-0.48975,0-0.84619,0.14258-1.06982,0.42725c-0.22314,0.28516-0.33496,0.74121-0.33496,1.36865v2.57813h-0.42529v-4.6709h0.35205
			l0.09033,0.64063h0.02588c0.12891-0.23242,0.31201-0.41211,0.5498-0.53955s0.5-0.19092,0.78662-0.19092
			c0.73584,0,1.2085,0.27637,1.41797,0.8291h0.01709c0.15186-0.2666,0.35596-0.47119,0.6123-0.61426
			c0.25635-0.14355,0.54785-0.21484,0.87451-0.21484c0.50977,0,0.89209,0.13574,1.14697,0.4082
			c0.25488,0.27197,0.38232,0.70459,0.38232,1.29736v3.05518H98.2793z"/>
		<path fill="#FFFFFF" d="M100.58203,42.38737v3.02539c0,0.46973,0.09912,0.81104,0.29688,1.02441
			c0.19727,0.21387,0.50391,0.32031,0.91943,0.32031c0.55566,0,0.96436-0.14014,1.22656-0.4209s0.39307-0.73779,0.39307-1.37109
			v-2.57813h0.42139v4.6709h-0.36084l-0.07764-0.64453H103.375c-0.30371,0.48682-0.84326,0.73047-1.61963,0.73047
			c-1.06299,0-1.59424-0.56836-1.59424-1.70605v-3.05078H100.58203z"/>
		<path fill="#FFFFFF" d="M108.66016,47.05827v-3.0293c0-0.46973-0.09863-0.81152-0.29639-1.0249s-0.50439-0.31982-0.91943-0.31982
			c-0.55859,0-0.96777,0.14111-1.22705,0.42285c-0.25928,0.28223-0.38867,0.74023-0.38867,1.37305v2.57813h-0.42529v-4.6709h0.36084
			l0.08154,0.64063h0.02588c0.30371-0.4873,0.84326-0.73047,1.61963-0.73047c1.06006,0,1.58984,0.56836,1.58984,1.70557v3.05518
			H108.66016z"/>
		<path fill="#FFFFFF" d="M110.5332,41.09001c0-0.2749,0.09033-0.4126,0.271-0.4126c0.08887,0,0.1582,0.03564,0.2085,0.10742
			c0.0498,0.07178,0.0752,0.17334,0.0752,0.30518c0,0.12891-0.02539,0.23047-0.0752,0.30518
			c-0.05029,0.07422-0.11963,0.11133-0.2085,0.11133C110.62354,41.50651,110.5332,41.36784,110.5332,41.09001z M111.01904,47.05827
			h-0.42529v-4.6709h0.42529V47.05827z"/>
		<path fill="#FFFFFF" d="M113.81592,46.76628c0.26953,0,0.50439-0.02295,0.70459-0.06885v0.34375
			c-0.20605,0.06885-0.44385,0.10303-0.71289,0.10303c-0.4126,0-0.71729-0.11035-0.91309-0.33105
			c-0.19629-0.22021-0.29443-0.56689-0.29443-1.03955V42.757h-0.69189v-0.24902l0.69189-0.19336l0.21484-1.05713h0.21924v1.12988
			h1.37061V42.757h-1.37061v2.95654c0,0.35791,0.06299,0.62305,0.18896,0.79492S113.54688,46.76628,113.81592,46.76628z"/>
		<path fill="#FFFFFF" d="M114.74854,42.38737h0.43848l0.98828,2.62109c0.30078,0.80518,0.49121,1.34814,0.57129,1.62891h0.02588
			c0.12012-0.36963,0.31641-0.9209,0.58838-1.6543l0.98828-2.5957h0.43848l-2.09277,5.42725
			c-0.16895,0.44092-0.31055,0.73877-0.42529,0.89355s-0.24854,0.271-0.40186,0.34814s-0.33838,0.11621-0.55615,0.11621
			c-0.16357,0-0.34521-0.03027-0.5459-0.09033v-0.36963c0.16602,0.0459,0.34521,0.06885,0.53711,0.06885
			c0.146,0,0.2749-0.03467,0.38672-0.10303c0.11182-0.06885,0.21289-0.17578,0.30322-0.32031
			c0.08984-0.14453,0.19434-0.37402,0.31348-0.6875c0.11865-0.31348,0.19531-0.51758,0.22998-0.6123L114.74854,42.38737z"/>
	</g>
</g>
<g id="footer">
</g>
<g id="community">
</g>
<g id="media">
</g>
<g id="link">
</g>
<g id="platform">
</g>
<g id="intro">
</g>
<g id="menu">
</g>
</svg>
