<?xml version="1.0" encoding="utf-8"?>
<!-- Generator: Adobe Illustrator 19.2.1, SVG Export Plug-In . SVG Version: 6.00 Build 0)  -->
<svg version="1.1" xmlns="http://www.w3.org/2000/svg" xmlns:xlink="http://www.w3.org/1999/xlink" x="0px" y="0px"
	 viewBox="0 0 121.75 50.91667" enable-background="new 0 0 121.75 50.91667" xml:space="preserve">
<g id="Calque_4">
</g>
<g id="Repères" display="none">
</g>
<g id="Calque_3">
	<polygon fill="#FFFFFF" points="10.83701,39.58839 1.873,39.58839 1.873,4.07539 10.83701,4.07539 10.83701,2.57739 1.873,2.57739 
		0.375,2.57739 0.375,4.07539 0.375,39.58839 0.375,41.08639 1.873,41.08639 10.83701,41.08639 	"/>
	<polygon fill="#FFFFFF" points="37.3857,2.57759 28.4267,2.57759 28.4267,4.07559 37.3857,4.07559 37.3857,39.58859 
		28.4267,39.58859 28.4267,41.08559 37.3857,41.08559 38.8837,41.08559 38.8837,39.58859 38.8837,4.07559 38.8837,2.57759 	"/>
	<path fill="#FFFFFF" d="M19.5359,11.3891l-8.758,20.857l8.758-4.427l8.758,4.427L19.5359,11.3891z M19.5359,15.25709
		l5.80099,13.817l-5.125-2.591l-0.67599-0.342l-0.676,0.342l-5.126,2.591L19.5359,15.25709z"/>
	<path fill="#FFFFFF" d="M51.44801,27.27309h0.02l6.28699-10.86H59.898l-6.246,10.86l7.08301,10.819h-2.082L51.44801,27.27309z
		 M50.202,38.09209H48.365V5.57409H50.202V38.09209z"/>
	<path fill="#FFFFFF" d="M69.1874,36.62229c2.49399,0,4.45-3.572,4.45-9.36999c0-5.797-1.96001-9.39001-4.45-9.39001
		c-2.57701,0-4.45001,3.593-4.45001,9.39001C64.73739,33.05029,66.8124,36.62229,69.1874,36.62229 M69.1874,38.45929
		c-3.00301,0-6.41-3.981-6.41-11.20699c0-7.22601,3.22499-11.22701,6.41-11.22701c3.18399,0,6.409,4.001,6.409,11.22701
		C75.5964,34.47829,72.2494,38.45929,69.1874,38.45929"/>
	<g>
		<polygon fill="#FFFFFF" points="77.6395,38.09188 86.9885,18.12789 79.00649,18.12789 79.00649,16.41389 89.7855,16.41389 
			80.41549,36.37689 89.47849,36.37689 89.47849,38.09188 		"/>
	</g>
	<g>
		<path fill="#FFFFFF" d="M98.665,17.86259c-2.735,0-4.409,2.695-4.756,7.063l-0.08101,1.123h8.24701l0.101-1.45
			C102.34,20.33259,101.05401,17.86259,98.665,17.86259 M103.78901,27.78359l-10.00201-0.021l0.10201,1.001
			c0.46901,4.98,3.082,7.858,5.69501,7.858c1.062,0,2.082-0.326,2.87799-0.714l0.61301,1.61301
			c-1.103,0.531-2.57201,0.939-3.92,0.939c-3.96001,0-7.328-4.94-7.328-11.86c0-7.104,3.552-10.574,6.92-10.574
			C102.932,16.02559,104.769,21.10859,103.78901,27.78359"/>
	</g>
	<g>
		<path fill="#FFFFFF" d="M115.97689,34.98969v-9.166h-0.89799c-3.715,0-6.675,1.367-6.675,5.859
			c0,3.061,1.79601,4.878,4.22501,4.878C114.0339,36.5607,115.1379,35.82869,115.97689,34.98969 M106.4439,31.21269
			c0-3.756,2.85799-6.93999,8.655-7.226l0.87799-0.041c-0.041-4.511-1.633-6.083-4.30699-6.083c-1.00101,0-2.246,0.511-3.164,0.939
			l-0.63301-1.857c1.40901-0.552,3.10301-0.919,4.246-0.919c3.388,0,5.69501,2.246,5.69501,6.471v15.35l-1.96001-0.918
			l-0.44899,0.367c-0.85701,0.694-1.959,1.10201-3.20401,1.10201C109.0769,38.39769,106.4439,35.5197,106.4439,31.21269"/>
	</g>
	<g>
		<path fill="#FFFFFF" d="M87.49414,47.48014c-0.71924,0-1.24365-0.26904-1.57275-0.80762h-0.03027l0.01318,0.36084
			c0.01123,0.21191,0.01709,0.44385,0.01709,0.6958v1.7793h-0.42529v-6.78516h0.36084l0.08154,0.66602h0.02588
			c0.3208-0.50391,0.8335-0.75586,1.53809-0.75586c0.63037,0,1.11084,0.20703,1.44189,0.62061
			c0.33057,0.41406,0.49609,1.01611,0.49609,1.80713c0,0.76758-0.17383,1.36279-0.52197,1.78516S88.0957,47.48014,87.49414,47.48014
			z M87.48535,47.10221c0.47852,0,0.84863-0.17773,1.11084-0.5332c0.26221-0.35498,0.39307-0.85205,0.39307-1.49072
			c0-1.37207-0.49561-2.05811-1.48682-2.05811c-0.54443,0-0.94385,0.14941-1.19873,0.44873s-0.38232,0.78711-0.38232,1.46338
			v0.13721c0,0.73047,0.12256,1.25195,0.36719,1.56396C86.53369,46.94596,86.93262,47.10221,87.48535,47.10221z"/>
		<path fill="#FFFFFF" d="M91.15918,47.39421h-0.42529v-6.68604h0.42529V47.39421z"/>
		<path fill="#FFFFFF" d="M95.55908,47.39421l-0.10742-0.73926h-0.03467c-0.23486,0.30078-0.47607,0.51367-0.72412,0.63818
			c-0.24756,0.12451-0.54053,0.18701-0.87842,0.18701c-0.4585,0-0.81494-0.11719-1.06982-0.35254
			c-0.25537-0.23486-0.38281-0.55957-0.38281-0.9751c0-0.45557,0.18994-0.80908,0.56934-1.06152
			c0.37988-0.25195,0.9292-0.38525,1.64795-0.39941l0.88965-0.02588v-0.30957c0-0.44385-0.09033-0.77881-0.271-1.00537
			c-0.18018-0.22607-0.47119-0.33936-0.87207-0.33936c-0.43262,0-0.88086,0.12012-1.34473,0.36084l-0.15918-0.36963
			c0.5127-0.24023,1.01953-0.36084,1.521-0.36084c0.5127,0,0.896,0.1333,1.14941,0.3999
			c0.25342,0.26611,0.38037,0.68164,0.38037,1.24609v3.10645H95.55908z M93.84033,47.09343c0.49805,0,0.8916-0.14258,1.1792-0.42773
			c0.28809-0.28467,0.43213-0.68066,0.43213-1.18799v-0.45947l-0.81641,0.03418c-0.65625,0.03174-1.12402,0.13379-1.40332,0.30713
			s-0.41895,0.44336-0.41895,0.81006c0,0.29199,0.08984,0.51904,0.26855,0.68115
			C93.26074,47.01237,93.51367,47.09343,93.84033,47.09343z"/>
		<path fill="#FFFFFF" d="M98.61816,47.10221c0.26953,0,0.50439-0.02295,0.70459-0.06885v0.34375
			c-0.20605,0.06885-0.44385,0.10303-0.71289,0.10303c-0.4126,0-0.71729-0.11035-0.91309-0.33105
			c-0.19629-0.22021-0.29443-0.56689-0.29443-1.03955v-3.0166h-0.69189v-0.24902l0.69189-0.19336l0.21484-1.05713h0.21924v1.12988
			h1.37061v0.36963h-1.37061v2.95654c0,0.35791,0.06299,0.62305,0.18896,0.79492S98.34912,47.10221,98.61816,47.10221z"/>
		<path fill="#FFFFFF" d="M102.06885,43.09294h-1.1001v4.30127h-0.42529v-4.30127h-0.86816v-0.24902l0.86816-0.15918v-0.36084
			c0-0.57275,0.10498-0.99316,0.31592-1.26123c0.21045-0.26758,0.55469-0.40186,1.0332-0.40186
			c0.25781,0,0.51563,0.03906,0.77344,0.11621l-0.09863,0.36963c-0.22949-0.07178-0.45703-0.10742-0.68359-0.10742
			c-0.33203,0-0.56787,0.09814-0.70654,0.29443c-0.13916,0.19629-0.2085,0.51465-0.2085,0.95605v0.43359h1.1001V43.09294z"/>
		<path fill="#FFFFFF" d="M106.83398,45.05241c0,0.76221-0.18506,1.35693-0.5542,1.78516
			c-0.36963,0.42871-0.87988,0.64258-1.52979,0.64258c-0.40967,0-0.77051-0.09863-1.08301-0.29639
			c-0.31201-0.19775-0.55127-0.48145-0.71729-0.85107c-0.1665-0.36914-0.24951-0.7959-0.24951-1.28027
			c0-0.76172,0.18506-1.35547,0.5542-1.78125c0.36963-0.42529,0.87695-0.6377,1.52148-0.6377
			c0.6416,0,1.14502,0.21533,1.51025,0.64648S106.83398,44.30192,106.83398,45.05241z M103.14697,45.05241
			c0,0.6416,0.14111,1.14209,0.42334,1.50195c0.28223,0.35938,0.68115,0.53906,1.19678,0.53906s0.91455-0.17969,1.19678-0.53906
			c0.28223-0.35986,0.42334-0.86035,0.42334-1.50195c0-0.64453-0.14258-1.14453-0.42773-1.49951
			c-0.28516-0.35547-0.68555-0.53271-1.20117-0.53271s-0.91309,0.17676-1.19238,0.53027
			C103.28662,43.90446,103.14697,44.40495,103.14697,45.05241z"/>
		<path fill="#FFFFFF" d="M109.96631,42.63346c0.19775,0,0.40967,0.02002,0.63574,0.06006l-0.08154,0.4082
			c-0.19482-0.04883-0.39648-0.07324-0.60596-0.07324c-0.39795,0-0.72461,0.16895-0.97949,0.50732
			c-0.25488,0.33789-0.38232,0.76465-0.38232,1.28027v2.57813h-0.42529v-4.6709h0.36084l0.04297,0.84229h0.02979
			c0.19189-0.34375,0.39697-0.58496,0.61475-0.72412C109.39355,42.7028,109.65674,42.63346,109.96631,42.63346z"/>
		<path fill="#FFFFFF" d="M117.38721,47.39421v-3.06348c0-0.45557-0.08887-0.78809-0.2666-0.99707
			c-0.17725-0.20898-0.44971-0.31348-0.81641-0.31348c-0.47803,0-0.83203,0.13184-1.06104,0.39502
			c-0.22949,0.26367-0.34375,0.67773-0.34375,1.2417v2.7373h-0.43408v-3.19238c0-0.78809-0.36084-1.18164-1.08301-1.18164
			c-0.48975,0-0.84619,0.14258-1.06982,0.42725c-0.22314,0.28516-0.33496,0.74121-0.33496,1.36865v2.57813h-0.42529v-4.6709h0.35205
			l0.09033,0.64063h0.02588c0.12891-0.23242,0.31201-0.41211,0.5498-0.53955s0.5-0.19092,0.78662-0.19092
			c0.73584,0,1.2085,0.27637,1.41797,0.8291h0.01709c0.15186-0.2666,0.35596-0.47119,0.6123-0.61426
			c0.25635-0.14355,0.54785-0.21484,0.87451-0.21484c0.50977,0,0.89209,0.13574,1.14697,0.4082
			c0.25488,0.27197,0.38232,0.70459,0.38232,1.29736v3.05518H117.38721z"/>
	</g>
</g>
<g id="footer">
</g>
<g id="community">
</g>
<g id="media">
</g>
<g id="link">
</g>
<g id="platform">
</g>
<g id="intro">
</g>
<g id="menu">
</g>
</svg>
