<?xml version="1.0" encoding="utf-8"?>
<!-- Generator: Adobe Illustrator 19.2.1, SVG Export Plug-In . SVG Version: 6.00 Build 0)  -->
<svg version="1.1" xmlns="http://www.w3.org/2000/svg" xmlns:xlink="http://www.w3.org/1999/xlink" x="0px" y="0px"
	 viewBox="0 0 121.75 50.91667" enable-background="new 0 0 121.75 50.91667" xml:space="preserve">
<g id="Calque_4">
</g>
<g id="Repères" display="none">
</g>
<g id="Calque_3">
	<polygon fill="#FFFFFF" points="10.83701,39.8355 1.873,39.8355 1.873,4.3225 10.83701,4.3225 10.83701,2.8245 1.873,2.8245 
		0.375,2.8245 0.375,4.3225 0.375,39.8355 0.375,41.3335 1.873,41.3335 10.83701,41.3335 	"/>
	<polygon fill="#FFFFFF" points="37.3857,2.8247 28.4267,2.8247 28.4267,4.3227 37.3857,4.3227 37.3857,39.8357 28.4267,39.8357 
		28.4267,41.3327 37.3857,41.3327 38.8837,41.3327 38.8837,39.8357 38.8837,4.3227 38.8837,2.8247 	"/>
	<path fill="#FFFFFF" d="M19.5359,11.63621l-8.758,20.857l8.758-4.427l8.758,4.427L19.5359,11.63621z M19.5359,15.5042
		l5.80099,13.817l-5.125-2.591l-0.67599-0.342l-0.676,0.342l-5.126,2.591L19.5359,15.5042z"/>
	<path fill="#FFFFFF" d="M51.44801,27.5202h0.02l6.28699-10.86H59.898l-6.246,10.86l7.08301,10.819h-2.082L51.44801,27.5202z
		 M50.202,38.3392H48.365V5.8212H50.202V38.3392z"/>
	<path fill="#FFFFFF" d="M69.1874,36.8694c2.49399,0,4.45-3.572,4.45-9.37c0-5.797-1.96001-9.39001-4.45-9.39001
		c-2.57701,0-4.45001,3.593-4.45001,9.39001C64.73739,33.2974,66.8124,36.8694,69.1874,36.8694 M69.1874,38.7064
		c-3.00301,0-6.41-3.981-6.41-11.20699c0-7.22601,3.22499-11.22701,6.41-11.22701c3.18399,0,6.409,4.001,6.409,11.22701
		C75.5964,34.7254,72.2494,38.7064,69.1874,38.7064"/>
	<g>
		<polygon fill="#FFFFFF" points="77.6395,38.339 86.9885,18.375 79.00649,18.375 79.00649,16.661 89.7855,16.661 80.41549,36.624 
			89.47849,36.624 89.47849,38.339 		"/>
	</g>
	<g>
		<path fill="#FFFFFF" d="M98.665,18.1097c-2.735,0-4.409,2.695-4.756,7.063l-0.08101,1.123h8.24701l0.101-1.45
			C102.34,20.5797,101.05401,18.1097,98.665,18.1097 M103.78901,28.0307l-10.00201-0.021l0.10201,1.001
			c0.46901,4.98,3.082,7.858,5.69501,7.858c1.062,0,2.082-0.326,2.87799-0.714l0.61301,1.61301
			c-1.103,0.531-2.57201,0.939-3.92,0.939c-3.96001,0-7.328-4.94-7.328-11.86c0-7.104,3.552-10.574,6.92-10.574
			C102.932,16.27271,104.769,21.35571,103.78901,28.0307"/>
	</g>
	<g>
		<path fill="#FFFFFF" d="M115.97689,35.2368v-9.166h-0.89799c-3.715,0-6.675,1.367-6.675,5.859
			c0,3.061,1.79601,4.87801,4.22501,4.87801C114.0339,36.80781,115.1379,36.07581,115.97689,35.2368 M106.4439,31.4598
			c0-3.756,2.85799-6.93999,8.655-7.226l0.87799-0.041c-0.041-4.511-1.633-6.083-4.30699-6.083c-1.00101,0-2.246,0.511-3.164,0.939
			l-0.63301-1.857c1.40901-0.552,3.10301-0.919,4.246-0.919c3.388,0,5.69501,2.246,5.69501,6.471v15.35l-1.96001-0.918
			l-0.44899,0.367c-0.85701,0.694-1.959,1.10201-3.20401,1.10201C109.0769,38.64481,106.4439,35.76681,106.4439,31.4598"/>
	</g>
	<g>
		<path fill="#FFFFFF" d="M106.31836,47.64128h-0.42529v-6.68604h0.42529V47.64128z"/>
		<path fill="#FFFFFF" d="M107.82178,41.67302c0-0.2749,0.09033-0.4126,0.271-0.4126c0.08887,0,0.1582,0.03564,0.2085,0.10742
			c0.0498,0.07178,0.0752,0.17334,0.0752,0.30518c0,0.12891-0.02539,0.23047-0.0752,0.30518
			c-0.05029,0.07422-0.11963,0.11133-0.2085,0.11133C107.91211,42.08952,107.82178,41.95085,107.82178,41.67302z
			 M108.30762,47.64128h-0.42529v-4.6709h0.42529V47.64128z"/>
		<path fill="#FFFFFF" d="M113.12842,47.64128v-3.0293c0-0.46973-0.09863-0.81152-0.29639-1.0249s-0.50439-0.31982-0.91943-0.31982
			c-0.55859,0-0.96777,0.14111-1.22705,0.42285c-0.25928,0.28223-0.38867,0.74023-0.38867,1.37305v2.57813h-0.42529v-4.6709h0.36084
			l0.08154,0.64063h0.02588c0.30371-0.4873,0.84326-0.73047,1.61963-0.73047c1.06006,0,1.58984,0.56836,1.58984,1.70557v3.05518
			H113.12842z"/>
		<path fill="#FFFFFF" d="M115.47852,45.59147l2.38477-2.62109h0.51563l-1.83887,1.99414l1.99805,2.67676h-0.51123l-1.7749-2.35889
			l-0.76465,0.6958v1.66309h-0.42529v-6.68604h0.42529v3.35156l-0.03027,1.28467H115.47852z"/>
	</g>
</g>
<g id="footer">
</g>
<g id="community">
</g>
<g id="media">
</g>
<g id="link">
</g>
<g id="platform">
</g>
<g id="intro">
</g>
<g id="menu">
</g>
</svg>
