<?xml version="1.0" encoding="utf-8"?>
<!-- Generator: Adobe Illustrator 19.2.1, SVG Export Plug-In . SVG Version: 6.00 Build 0)  -->
<svg version="1.1" xmlns="http://www.w3.org/2000/svg" xmlns:xlink="http://www.w3.org/1999/xlink" x="0px" y="0px"
	 viewBox="0 0 67.56928 26.90892" enable-background="new 0 0 67.56928 26.90892" xml:space="preserve">
<g id="Calque_4">
</g>
<g id="Repères" display="none">
</g>
<g id="_x31_6_Col_Grid" display="none" opacity="0.1" enable-background="new    ">
</g>
<g id="Calque_3">
	<g>
		<g>
			<polygon fill="#FFFFFF" points="6.76896,21.61822 1.82582,21.61822 1.82582,2.0356 6.76896,2.0356 6.76896,1.20979 
				1.82582,1.20979 1,1.20979 1,2.0356 1,21.61822 1,22.44404 1.82582,22.44404 6.76896,22.44404 			"/>
		</g>
		<g>
			<polygon fill="#FFFFFF" points="21.40842,1.20979 16.46816,1.20979 16.46816,2.0356 21.40842,2.0356 21.40842,21.61822 
				16.46816,21.61822 16.46816,22.44404 21.40842,22.44404 22.23425,22.44404 22.23425,21.61822 22.23425,2.0356 22.23425,1.20979 
							"/>
		</g>
	</g>
	<g>
		<path fill="#FFFFFF" d="M11.56573,8.20151l3.19898,7.61887l-2.82643-1.42877l-0.37255-0.18833l-0.37257,0.18833l-2.82639,1.42876
			L11.56573,8.20151 M11.56573,6.06836L6.73659,17.56978l4.82914-2.44117l4.82916,2.44117L11.56573,6.06836L11.56573,6.06836z"/>
	</g>
	<g>
		<g>
			<path fill="#FFFFFF" d="M28.4757,2.8623v17.93072h-1.01294V2.8623H28.4757z M29.16241,14.82734h0.01122l3.46679-5.98813h1.18188
				l-3.44434,5.98813l3.90584,5.96568h-1.14806L29.16241,14.82734z"/>
		</g>
		<g>
			<path fill="#FFFFFF" d="M38.94445,20.99564c-1.65581,0-3.53443-2.19497-3.53443-6.17952
				c0-3.9847,1.77806-6.19075,3.53443-6.19075c1.75591,0,3.53428,2.20604,3.53428,6.19075
				C42.47873,18.80067,40.63288,20.99564,38.94445,20.99564z M38.94445,19.98255c1.37552,0,2.45385-1.96976,2.45385-5.16644
				S40.31758,9.6383,38.94445,9.6383c-1.42117,0-2.45385,1.98113-2.45385,5.17781S37.63477,19.98255,38.94445,19.98255z"/>
		</g>
		<g>
			<path fill="#FFFFFF" d="M43.60509,20.79302l5.15522-11.00836h-4.40116V8.83921h5.94323L45.1358,19.84757h4.99779v0.94545
				H43.60509z"/>
		</g>
		<g>
			<path fill="#FFFFFF" d="M58.02443,15.10882l-5.51541-0.01137l0.05627,0.55159c0.25888,2.7464,1.69965,4.33352,3.14042,4.33352
				c0.5854,0,1.14821-0.18002,1.58712-0.39386l0.33775,0.88918c-0.60785,0.2927-1.41832,0.51777-2.16115,0.51777
				c-2.18375,0-4.04097-2.72396-4.04097-6.53971c0-3.91707,1.95853-5.83055,3.81575-5.83055
				C57.55201,8.62537,58.56479,11.42804,58.02443,15.10882z M55.19917,9.6383c-1.50826,0-2.43126,1.48581-2.62265,3.89462
				l-0.04489,0.61907h4.54736l0.05627-0.79924C57.22533,11.00036,56.51617,9.6383,55.19917,9.6383z"/>
		</g>
		<g>
			<path fill="#FFFFFF" d="M59.48839,16.99971c0-2.07106,1.57589-3.82698,4.77258-3.98455l0.48395-0.0226
				c-0.02245-2.48752-0.90041-3.35426-2.37499-3.35426c-0.55159,0-1.23815,0.28148-1.74469,0.51777l-0.34897-1.02431
				c0.7768-0.30393,1.71102-0.50639,2.34132-0.50639c1.86845,0,3.14042,1.23815,3.14042,3.5681v8.46443l-1.08057-0.50639
				l-0.24767,0.20247c-0.47272,0.38279-1.08057,0.60785-1.76714,0.60785C60.94038,20.96182,59.48839,19.37485,59.48839,16.99971z
				 M64.74492,19.08215v-5.05391h-0.49517c-2.04862,0-3.68078,0.7539-3.68078,3.23035c0,1.68843,0.99049,2.69029,2.32995,2.69029
				C63.67377,19.94888,64.28222,19.54484,64.74492,19.08215z"/>
		</g>
	</g>
	<g>
		<path fill="#FFFFFF" d="M55.29813,23.41701v0.15252l-0.49755,0.03105c0.13268,0.16509,0.19902,0.34639,0.19902,0.54389
			c0,0.23158-0.0771,0.41909-0.23113,0.56283c-0.15403,0.14373-0.36078,0.21568-0.62023,0.21568
			c-0.1092,0-0.18584-0.00439-0.23007-0.01333c-0.08694,0.04574-0.15328,0.09951-0.19902,0.16146
			c-0.04574,0.06195-0.06861,0.12753-0.06861,0.1969c0,0.07664,0.02908,0.13268,0.08739,0.16797
			c0.05831,0.03544,0.156,0.05316,0.29308,0.05316h0.42015c0.26097,0,0.46074,0.05271,0.59933,0.15812
			c0.13858,0.10542,0.20795,0.26127,0.20795,0.46771c0,0.25354-0.10284,0.44923-0.30853,0.58721
			c-0.20568,0.13783-0.49876,0.20674-0.87907,0.20674c-0.30231,0-0.53632-0.05831-0.70217-0.17479
			c-0.16585-0.11647-0.24885-0.27854-0.24885-0.48649c0-0.16509,0.05119-0.30231,0.15373-0.41137
			c0.10239-0.10905,0.24143-0.18357,0.41682-0.2234c-0.07225-0.0309-0.1301-0.07467-0.17357-0.13147
			c-0.04347-0.0568-0.06528-0.12208-0.06528-0.19584c0-0.16055,0.10254-0.30216,0.30746-0.42454
			c-0.1401-0.05755-0.24915-0.14782-0.32731-0.27096c-0.07815-0.12299-0.11723-0.26415-0.11723-0.42348
			c0-0.24022,0.07634-0.43303,0.22886-0.57828c0.15267-0.1451,0.35865-0.2178,0.61811-0.2178
			c0.15782,0,0.2802,0.01545,0.36714,0.0465H55.29813z M53.35202,26.2278c0,0.33018,0.24552,0.49527,0.7364,0.49527
			c0.63114,0,0.94663-0.20114,0.94663-0.60372c0-0.14449-0.04938-0.24915-0.14813-0.31398
			c-0.0989-0.06483-0.25885-0.09739-0.47998-0.09739h-0.39365C53.57239,25.70799,53.35202,25.88126,53.35202,26.2278z
			 M53.53559,24.16658c0,0.18584,0.05634,0.32988,0.16918,0.43242c0.11284,0.10239,0.26354,0.15373,0.45226,0.15373
			c0.20053,0,0.35426-0.05089,0.46104-0.15267c0.10693-0.10178,0.1604-0.24915,0.1604-0.44226
			c0-0.20493-0.05498-0.35866-0.16479-0.46104c-0.10981-0.10254-0.26354-0.15373-0.46104-0.15373
			c-0.19175,0-0.34245,0.05498-0.45226,0.16479C53.59056,23.81762,53.53559,23.97059,53.53559,24.16658z"/>
		<path fill="#FFFFFF" d="M56.96434,23.37051c0.10163,0,0.21083,0.0103,0.3273,0.0309l-0.04211,0.21023
			c-0.10027-0.02514-0.20417-0.03771-0.31171-0.03771c-0.20507,0-0.37304,0.08709-0.50436,0.26097
			c-0.13116,0.17403-0.19675,0.39365-0.19675,0.659v1.32694h-0.21901v-2.40382h0.18584l0.02211,0.43333h0.01545
			c0.09875-0.1769,0.20417-0.3011,0.31625-0.37259S56.80515,23.37051,56.96434,23.37051z"/>
		<path fill="#FFFFFF" d="M59.9949,24.61551c0,0.39228-0.09512,0.69853-0.28535,0.91891
			c-0.19008,0.22037-0.45256,0.33064-0.78729,0.33064c-0.21083,0-0.39652-0.05089-0.55722-0.15252
			c-0.1607-0.10178-0.28384-0.24779-0.36941-0.43802c-0.08543-0.19008-0.12814-0.40985-0.12814-0.659
			c0-0.39213,0.09496-0.69763,0.2852-0.91664c0.19024-0.21886,0.4512-0.32837,0.7829-0.32837
			c0.33018,0,0.58933,0.11102,0.77729,0.33276C59.90085,23.92531,59.9949,24.22929,59.9949,24.61551z M58.09741,24.61551
			c0,0.33033,0.07255,0.58797,0.2178,0.7729c0.14525,0.18508,0.35063,0.27763,0.61599,0.27763s0.47059-0.09254,0.61584-0.27763
			c0.14525-0.18493,0.2178-0.44257,0.2178-0.7729c0-0.3317-0.07331-0.58888-0.21992-0.77169
			c-0.14676-0.18281-0.35275-0.2743-0.61811-0.2743c-0.26551,0-0.46998,0.09103-0.61372,0.27308
			C58.16936,24.02482,58.09741,24.28245,58.09741,24.61551z"/>
		<path fill="#FFFFFF" d="M61.07739,23.41701v1.55686c0,0.24173,0.05089,0.41758,0.15267,0.52738
			c0.10163,0.10981,0.25945,0.16479,0.47316,0.16479c0.28611,0,0.49648-0.07225,0.63144-0.21674s0.20235-0.37956,0.20235-0.7055
			v-1.32679h0.21674v2.40382h-0.18584l-0.03968-0.3317H62.5149c-0.15631,0.25067-0.43423,0.37593-0.83379,0.37593
			c-0.54692,0-0.82046-0.29262-0.82046-0.87802v-1.57003H61.07739z"/>
		<path fill="#FFFFFF" d="M64.81345,25.86506c-0.37002,0-0.63992-0.13859-0.8094-0.41576H63.9886l0.00666,0.18569
			c0.00576,0.1092,0.00879,0.22855,0.00879,0.35835v0.91558h-0.21901v-3.49191h0.18584l0.04196,0.34275h0.01333
			c0.16508-0.25945,0.42908-0.38925,0.79168-0.38925c0.32442,0,0.57176,0.10648,0.742,0.31958s0.25536,0.52299,0.25536,0.92981
			c0,0.39516-0.08951,0.70156-0.26868,0.91891C65.36749,25.75631,65.12304,25.86506,64.81345,25.86506z M64.80906,25.67043
			c0.24612,0,0.43681-0.09133,0.57162-0.27414c0.13495-0.18281,0.20235-0.43863,0.20235-0.76745
			c0-0.70611-0.25506-1.05931-0.76517-1.05931c-0.28005,0-0.48573,0.07709-0.61705,0.23113
			c-0.13116,0.15404-0.19675,0.405-0.19675,0.75291v0.07088c0,0.37592,0.06301,0.64431,0.18903,0.80501
			C64.31924,25.59016,64.52447,25.67043,64.80906,25.67043z"/>
	</g>
	<g>
		<rect x="38.80175" y="23.80602" fill="#007BB8" width="1.68339" height="1.68339"/>
	</g>
	<g>
		<rect x="41.21008" y="23.80602" fill="#F79B2D" width="1.68339" height="1.68339"/>
	</g>
	<g>
		<rect x="43.62435" y="23.80602" fill="#E53D4D" width="1.68339" height="1.68339"/>
	</g>
	<g>
		<rect x="46.038" y="23.80602" fill="#6D5E84" width="1.68339" height="1.68339"/>
	</g>
	<g>
		<rect x="48.45256" y="23.80602" fill="#51BFB7" width="1.68339" height="1.68339"/>
	</g>
</g>
</svg>
