<?xml version="1.0" encoding="utf-8"?>
<!-- Generator: Adobe Illustrator 19.2.1, SVG Export Plug-In . SVG Version: 6.00 Build 0)  -->
<svg version="1.1" xmlns="http://www.w3.org/2000/svg" xmlns:xlink="http://www.w3.org/1999/xlink" x="0px" y="0px"
	 viewBox="0 0 69.5 69.5" enable-background="new 0 0 69.5 69.5" xml:space="preserve">
<g id="Calque_4">
</g>
<g id="Repères" display="none">
</g>
<g id="Calque_3">
</g>
<g id="footer">
</g>
<g id="community">
	<g>
		<path fill="#FFFFFF" d="M62.94141,69.2341H5.58398c-0.82813,0-1.5-0.67188-1.5-1.5V10.32883c0-0.82813,0.67188-1.5,1.5-1.5
			h57.35742c0.82813,0,1.5,0.67188,1.5,1.5V67.7341C64.44141,68.56223,63.76953,69.2341,62.94141,69.2341z M7.08398,66.2341
			h54.35742V11.82883H7.08398V66.2341z"/>
	</g>
	<g>
		<path fill="#FFFFFF" d="M14.12402,16.17356c-0.82813,0-1.5-0.67188-1.5-1.5V3.66184c0-0.82813,0.67188-1.5,1.5-1.5
			s1.5,0.67188,1.5,1.5v11.01172C15.62402,15.50168,14.95215,16.17356,14.12402,16.17356z"/>
	</g>
	<g>
		<path fill="#FFFFFF" d="M27.01465,16.17356c-0.82813,0-1.5-0.67188-1.5-1.5V3.66184c0-0.82813,0.67188-1.5,1.5-1.5
			s1.5,0.67188,1.5,1.5v11.01172C28.51465,15.50168,27.84277,16.17356,27.01465,16.17356z"/>
	</g>
	<g>
		<path fill="#FFFFFF" d="M39.90527,16.17356c-0.82813,0-1.5-0.67188-1.5-1.5V3.66184c0-0.82813,0.67188-1.5,1.5-1.5
			s1.5,0.67188,1.5,1.5v11.01172C41.40527,15.50168,40.7334,16.17356,39.90527,16.17356z"/>
	</g>
	<g>
		<path fill="#FFFFFF" d="M52.7959,16.17356c-0.82813,0-1.5-0.67188-1.5-1.5V3.66184c0-0.82813,0.67188-1.5,1.5-1.5
			s1.5,0.67188,1.5,1.5v11.01172C54.2959,15.50168,53.62402,16.17356,52.7959,16.17356z"/>
	</g>
	<g>
		<path fill="#FFFFFF" d="M62.2832,22.34836H5.6582c-0.82813,0-1.5-0.67188-1.5-1.5s0.67188-1.5,1.5-1.5h56.625
			c0.82813,0,1.5,0.67188,1.5,1.5S63.11133,22.34836,62.2832,22.34836z"/>
	</g>
	<g>
		<path fill="#FFFFFF" d="M62.94141,37.93039h-56.625c-0.82813,0-1.5-0.67188-1.5-1.5s0.67188-1.5,1.5-1.5h56.625
			c0.82813,0,1.5,0.67188,1.5,1.5S63.76953,37.93039,62.94141,37.93039z"/>
	</g>
	<g>
		<path fill="#FFFFFF" d="M62.94141,53.29855h-56.625c-0.82813,0-1.5-0.67188-1.5-1.5s0.67188-1.5,1.5-1.5h56.625
			c0.82813,0,1.5,0.67188,1.5,1.5S63.76953,53.29855,62.94141,53.29855z"/>
	</g>
	<g>
		<path fill="#FFFFFF" d="M24.57129,68.65793c-0.82813,0-1.5-0.67188-1.5-1.5V21.07004c0-0.82813,0.67188-1.5,1.5-1.5
			s1.5,0.67188,1.5,1.5v46.08789C26.07129,67.98605,25.39941,68.65793,24.57129,68.65793z"/>
	</g>
	<g>
		<path fill="#FFFFFF" d="M44.06934,68.65793c-0.82813,0-1.5-0.67188-1.5-1.5V21.07004c0-0.82813,0.67188-1.5,1.5-1.5
			s1.5,0.67188,1.5,1.5v46.08789C45.56934,67.98605,44.89746,68.65793,44.06934,68.65793z"/>
	</g>
	<g>
		<path fill="#FFFFFF" d="M12.53418,32.64426h2.12402v-6.46094h-1.75v-1.11328c0.94238-0.18555,1.59961-0.43262,2.19824-0.80371
			h1.28613v8.37793h1.86914v1.45313h-5.72754V32.64426z"/>
	</g>
</g>
<g id="media">
</g>
<g id="link">
</g>
<g id="platform">
</g>
<g id="intro">
</g>
<g id="menu">
</g>
</svg>
