<?xml version="1.0" encoding="utf-8"?>
<!-- Generator: Adobe Illustrator 19.2.1, SVG Export Plug-In . SVG Version: 6.00 Build 0)  -->
<svg version="1.1" xmlns="http://www.w3.org/2000/svg" xmlns:xlink="http://www.w3.org/1999/xlink" x="0px" y="0px"
	 viewBox="0 0 71.66666 71.66666" enable-background="new 0 0 71.66666 71.66666" xml:space="preserve">
<g id="border_centrale_bkgd">
</g>
<g id="Repères" display="none">
</g>
<g id="Calque_3">
</g>
<g id="Footer">
</g>
<g id="vos_objectifs">
</g>
<g id="Nos_compétences">
	<path fill="#FFFFFF" d="M61.4372,56.94382l0.00439-0.00415L47.52973,42.00705v-0.00061
		c3.77814-4.1239,5.80011-9.90222,4.81287-16.23401c-0.36548-2.34412-1.19305-4.6106-2.42645-6.63708
		c-3.51996-5.78357-9.41779-9.19702-15.91913-9.42615C22.04554,9.28354,12.40619,19.67111,14.271,32.0748
		c0.35455,2.35828,1.1778,4.64026,2.41162,6.68103c3.51611,5.81628,9.43011,9.25024,15.95245,9.47998
		c0.23102,0.00879,0.4613,0.01172,0.69086,0.01172c2.90601,0,5.64807-0.6532,8.11548-1.7937c0,0,0.00037-0.00012,0.00043,0
		l14.5235,15.58789l0.00397-0.00378c0.68353,0.77136,1.66675,1.26624,2.77301,1.26624c2.06152,0,3.73273-1.68579,3.73273-3.76563
		C62.47504,58.53049,62.07679,57.6196,61.4372,56.94382z M32.79297,43.74728c-4.91486-0.17297-9.37952-2.71838-12.09314-7.04016
		c-1.07416-1.71082-1.77173-3.65076-2.034-5.65356c-1.20435-9.19885,5.7923-16.86462,14.63739-16.86462
		c0.52594,0,1.05188,0.02563,1.6347,0.0769c1.80469,0.15869,3.58258,0.64868,5.17157,1.5188
		c5.27222,2.88757,8.17883,8.11548,7.98096,13.71057C47.80243,37.66953,41.05213,44.03098,32.79297,43.74728z"/>
</g>
<g id="Nos_missions">
</g>
<g id="Menu">
</g>
</svg>
