<?xml version="1.0" encoding="utf-8"?>
<!-- Generator: Adobe Illustrator 19.2.1, SVG Export Plug-In . SVG Version: 6.00 Build 0)  -->
<svg version="1.1" xmlns="http://www.w3.org/2000/svg" xmlns:xlink="http://www.w3.org/1999/xlink" x="0px" y="0px"
	 viewBox="0 0 83.03125 81.8125" enable-background="new 0 0 83.03125 81.8125" xml:space="preserve">
<g id="border_centrale_bkgd">
</g>
<g id="Repères" display="none">
</g>
<g id="Calque_3">
</g>
<g id="Footer">
</g>
<g id="vos_objectifs">
	<g>
		<path fill="#0E2030" d="M35.99347,61.57324c-0.28027,0-0.56055-0.10645-0.77539-0.31934L15.42316,41.63672
			c-0.20898-0.20703-0.32617-0.48828-0.32617-0.78125c-0.00098-0.29395,0.11719-0.5752,0.3252-0.78223l7.92285-7.85156
			c0.42969-0.42578,1.11914-0.42578,1.54883,0l11.09961,11l22.99414-22.7666c0.42969-0.42676,1.11914-0.4248,1.54883,0
			l7.92383,7.85156c0.20801,0.20605,0.3252,0.48828,0.3252,0.78125c0,0.29395-0.11719,0.5752-0.32617,0.78125L36.76789,61.25488
			C36.55304,61.46777,36.27375,61.57324,35.99347,61.57324z M17.76008,40.85352l18.23437,18.07031l30.12793-29.83594
			l-6.36036-6.30371l-22.99414,22.7666c-0.43066,0.42578-1.12012,0.42578-1.54883,0L24.11945,34.55176L17.76008,40.85352z"/>
	</g>
	<g>
		<g>
			<polygon fill="#1A2530" points="60.02259,0 60.02259,1.99543 81.03049,1.99543 81.03049,79.81707 60.02259,79.81707 
				60.02259,81.8125 83.03125,81.8125 83.03125,0 			"/>
			<polygon fill="#1A2530" points="0,81.8125 23.00866,81.8125 23.00866,79.81707 2.00075,79.81707 2.00075,1.99543 
				23.00866,1.99543 23.00866,0 0,0 			"/>
		</g>
	</g>
</g>
<g id="Nos_compétences">
</g>
<g id="Nos_missions">
</g>
<g id="Menu">
</g>
</svg>
