<?xml version="1.0" encoding="utf-8"?>
<!-- Generator: Adobe Illustrator 19.2.1, SVG Export Plug-In . SVG Version: 6.00 Build 0)  -->
<svg version="1.1" xmlns="http://www.w3.org/2000/svg" xmlns:xlink="http://www.w3.org/1999/xlink" x="0px" y="0px"
	 viewBox="0 0 71.66666 71.66666" enable-background="new 0 0 71.66666 71.66666" xml:space="preserve">
<g id="border_centrale_bkgd">
</g>
<g id="Repères" display="none">
</g>
<g id="Calque_3">
</g>
<g id="Footer">
</g>
<g id="vos_objectifs">
</g>
<g id="Nos_compétences">
	<g>
		<path fill="#FFFFFF" d="M57.21595,4.95112c-0.44725,0.15898-0.78386,0.46899-0.9939,0.89451l-1.66594,3.26549l-2.53521,5.0646
			c0.00874,0.00641,0.01805,0.01204,0.02679,0.01864l-2.55656,5.03548l-0.72329,1.44523v0.07901
			c-0.01029-0.01514-0.02504-0.0066-0.0396,0l-0.04737,0.09473L37.8936,31.29403l-3.53726,3.57337
			c-0.74096,0.71358-0.76328,1.89286-0.04969,2.63382s1.89287,0.76328,2.63382,0.04969l3.8762-3.87619
			c0.00233,0.00388,0.00291,0.00835,0.00524,0.01223l10.26916-10.53976l15.12566-7.58622
			c0.8221-0.65108,1.01952-2.02157,0.24245-2.75806l-8.81248,1.19268l1.45765-8.6469
			C58.634,4.87735,57.85286,4.7568,57.21595,4.95112z"/>
		<path fill="#FFFFFF" d="M58.55519,21.18385c2.96829,4.44167,4.72353,9.6637,4.72353,15.47256
			c0,15.55603-12.33945,28.12726-27.63031,28.12726c-15.29066,0-27.63031-12.57124-27.63031-28.12726
			c0-15.55622,12.33965-28.02787,27.63031-28.02787c5.58484,0,10.7335,1.75038,15.07092,4.64355l1.69875-3.41943
			c-4.85301-3.08748-10.6277-4.90154-16.76967-4.90154c-17.31379,0-31.40712,14.1834-31.40712,31.70529
			c0,17.5215,14.09333,31.80468,31.40712,31.80468S67.05552,54.1779,67.05552,36.65641c0-6.35608-1.91072-12.22162-5.1007-17.1781
			L58.55519,21.18385z"/>
		<path fill="#FFFFFF" d="M35.6484,27.115c-5.30919,0-9.64079,4.23202-9.64079,9.5414c0,5.30919,4.3316,9.64079,9.64079,9.64079
			s9.64079-4.3316,9.64079-9.64079c0-1.56131-0.32651-3.0143-0.96342-4.3054l-2.87997,2.9714
			c0.09357,0.4257,0.16597,0.86073,0.16597,1.334c0,3.31499-2.64819,5.96338-5.96338,5.96338
			c-3.31519,0-5.96338-2.64838-5.96338-5.96338c0-3.31499,2.64819-5.86399,5.96338-5.86399
			c0.15103,0,0.2906,0.02873,0.43793,0.03766l3.0706-2.97354C38.0687,27.40269,36.89874,27.115,35.6484,27.115z"/>
		<path fill="#FFFFFF" d="M35.6484,15.98337c-11.42262,0-20.77243,9.25042-20.77243,20.67304
			c0,11.42223,9.34981,20.77243,20.77243,20.77243s20.77243-9.35019,20.77243-20.77243c0-4.63637-1.59334-8.86276-4.1831-12.30335
			l-0.31118,0.15607l-2.41195,2.48843c1.97362,2.73749,3.22881,5.99929,3.22881,9.65885
			c0,9.42823-7.66659,17.09501-17.09502,17.09501s-17.09501-7.66678-17.09501-17.09501s7.66659-16.99562,17.09501-16.99562
			c3.37187,0,6.52419,1.0269,9.18287,2.7006l2.56763-2.48649C44.04508,17.50857,40.05862,15.98337,35.6484,15.98337z"/>
	</g>
</g>
<g id="Nos_missions">
</g>
<g id="Menu">
</g>
</svg>
