<?xml version="1.0" encoding="utf-8"?>
<!-- Generator: Adobe Illustrator 19.2.1, SVG Export Plug-In . SVG Version: 6.00 Build 0)  -->
<svg version="1.1" id="Calque_1" xmlns="http://www.w3.org/2000/svg" xmlns:xlink="http://www.w3.org/1999/xlink" x="0px" y="0px"
	 viewBox="0 0 438 185" enable-background="new 0 0 438 185" xml:space="preserve">
<g>
	<g>
		<polygon fill="#FFFFFF" points="47.99714,141.5472 16.12548,141.5472 16.12548,15.2852 47.99714,15.2852 47.99714,9.9607 
			16.12548,9.9607 10.80085,9.9607 10.80085,15.2852 10.80085,141.5472 10.80085,146.87183 16.12548,146.87183 47.99714,146.87183 
					"/>
	</g>
	<g>
		<polygon fill="#FFFFFF" points="142.38734,9.9607 110.53423,9.9607 110.53423,15.2852 142.38734,15.2852 142.38734,141.5472 
			110.53423,141.5472 110.53423,146.87183 142.38734,146.87183 147.71198,146.87183 147.71198,141.5472 147.71198,15.2852 
			147.71198,9.9607 		"/>
	</g>
</g>
<g>
	<path fill="#FFFFFF" d="M78.92507,55.04092l20.62592,49.12383l-18.22387-9.21221l-2.40205-1.21426l-2.40219,1.21426
		l-18.2236,9.21217L78.92507,55.04092 M78.92507,41.2871l-31.13665,74.15718l31.13665-15.73979l31.13679,15.73979L78.92507,41.2871
		L78.92507,41.2871z"/>
</g>
<g>
	<g>
		<path fill="#FFFFFF" d="M187.95471,20.61551v115.6111h-6.53105V20.61551H187.95471z M192.3824,97.76194h0.07237l22.35266-38.6094
			h7.62038l-22.20793,38.6094l25.18352,38.46467h-7.40231L192.3824,97.76194z"/>
	</g>
	<g>
		<path fill="#FFFFFF" d="M255.45361,137.533c-10.67604,0-22.78876-14.1524-22.78876-39.84343
			c0-25.692,11.46432-39.91581,22.78876-39.91581c11.32153,0,22.78781,14.2238,22.78781,39.91581
			C278.24142,123.38061,266.34003,137.533,255.45361,137.533z M255.45361,131.00098c8.8689,0,15.82159-12.7003,15.82159-33.3114
			s-6.96814-33.38474-15.82159-33.38474c-9.16316,0-15.82158,12.77364-15.82158,33.38474S247.00926,131.00098,255.45361,131.00098z"
			/>
	</g>
	<g>
		<path fill="#FFFFFF" d="M285.50385,136.22661l33.23904-70.97815h-28.37717v-6.09592h38.31995l-33.31238,70.97815h32.22403v6.09592
			H285.50385z"/>
	</g>
	<g>
		<path fill="#FFFFFF" d="M378.47476,99.57682l-35.56143-0.07333l0.36276,3.55643
			c1.66919,17.70788,10.95877,27.94106,20.24832,27.94106c3.77451,0,7.40329-1.16071,10.23318-2.53947l2.17767,5.73314
			c-3.91922,1.88724-9.14484,3.33836-13.93436,3.33836c-14.08002,0-26.05478-17.56314-26.05478-42.16582
			c0-25.25588,12.62796-37.59341,24.60269-37.59341C375.42874,57.77377,381.95883,75.84443,378.47476,99.57682z M360.25842,64.30483
			c-9.72473,0-15.6759,9.57999-16.90994,25.11116l-0.28946,3.99158h29.31982l0.36279-5.15325
			C373.32248,73.08689,368.75006,64.30483,360.25842,64.30483z"/>
	</g>
	<g>
		<path fill="#FFFFFF" d="M387.91388,111.76865c0-13.35351,10.16083-24.67504,30.77191-25.69103l3.12033-0.14569
			c-0.14471-16.03868-5.80548-21.62709-15.31311-21.62709c-3.55643,0-7.98315,1.81488-11.24918,3.33838l-2.25003-6.60439
			c5.00854-1.95961,11.03207-3.26505,15.09604-3.26505c12.04709,0,20.24832,7.98317,20.24832,23.00586v54.57571l-6.96719-3.26505
			l-1.5968,1.30544c-3.04797,2.46809-6.96719,3.91922-11.39392,3.91922
			C397.27582,137.31496,387.91388,127.08273,387.91388,111.76865z M421.80612,125.19549V92.60964h-3.19269
			c-13.20877,0-23.73239,4.86091-23.73239,20.82819c0,10.88639,6.38635,17.34605,15.02271,17.34605
			C414.89975,130.78389,418.82281,128.1788,421.80612,125.19549z"/>
	</g>
</g>
<g>
	<path fill="#FFFFFF" d="M247.875,176.02344c-2.63379,0-4.67383-0.81055-6.11719-2.43164
		c-1.44531-1.62207-2.16699-3.91602-2.16699-6.88184c0-3.04395,0.7334-5.39551,2.2002-7.05566
		c1.46582-1.66016,3.55469-2.49023,6.2666-2.49023c0.87402,0,1.74902,0.09473,2.62305,0.28223
		c0.87402,0.18848,1.56055,0.41016,2.05859,0.66406l-0.84668,2.34082c-0.6084-0.24316-1.27246-0.44531-1.99219-0.60547
		s-1.35547-0.24121-1.90918-0.24121c-3.69629,0-5.54492,2.35742-5.54492,7.07227c0,2.23535,0.45117,3.95117,1.35254,5.14648
		c0.90234,1.19531,2.23926,1.79297,4.00977,1.79297c1.5166,0,3.07129-0.32617,4.66504-0.97949v2.44043
		C251.25586,175.70801,249.72363,176.02344,247.875,176.02344z"/>
	<path fill="#FFFFFF" d="M274.19531,166.57715c0,2.96582-0.74707,5.28223-2.24121,6.94824
		c-1.49414,1.66504-3.55859,2.49805-6.19238,2.49805c-1.62695,0-3.07129-0.38184-4.33301-1.14551s-2.23535-1.85938-2.92188-3.28711
		s-1.0293-3.09863-1.0293-5.01367c0-2.96582,0.74121-5.27637,2.22461-6.93066s3.54199-2.48242,6.17578-2.48242
		c2.5459,0,4.56836,0.84668,6.06738,2.54004C273.44531,161.39746,274.19531,163.68848,274.19531,166.57715z M260.33301,166.57715
		c0,2.32422,0.46484,4.09473,1.39453,5.3125s2.29688,1.82617,4.10059,1.82617s3.17383-0.60645,4.10938-1.81738
		c0.93457-1.21289,1.40234-2.98633,1.40234-5.32129c0-2.31348-0.46777-4.07031-1.40234-5.27051
		c-0.93555-1.20117-2.31641-1.80176-4.14258-1.80176c-1.80371,0-3.16504,0.59277-4.08398,1.77637
		C260.79199,162.46582,260.33301,164.23047,260.33301,166.57715z"/>
	<path fill="#FFFFFF" d="M303.91895,175.69141v-11.83691c0-1.44922-0.30957-2.53711-0.92969-3.26172
		s-1.58301-1.08789-2.88867-1.08789c-1.71582,0-2.98242,0.49316-3.80176,1.47754c-0.81934,0.98535-1.22852,2.50098-1.22852,4.54883
		v10.16016h-2.75586v-11.83691c0-1.44922-0.30957-2.53711-0.92969-3.26172s-1.58789-1.08789-2.90527-1.08789
		c-1.72656,0-2.99121,0.51758-3.79395,1.55273c-0.80176,1.03516-1.20313,2.73047-1.20313,5.08789v9.5459h-2.75586v-18.19531h2.24121
		l0.44824,2.49023h0.13281c0.52051-0.88477,1.25391-1.57715,2.19922-2.0752c0.94727-0.49805,2.00684-0.74707,3.17969-0.74707
		c2.84473,0,4.7041,1.0293,5.57813,3.08789h0.13281c0.54199-0.95117,1.32813-1.7041,2.35742-2.25781
		c1.0293-0.55273,2.20215-0.83008,3.51953-0.83008c2.05859,0,3.59961,0.5293,4.62305,1.58594
		c1.02441,1.05664,1.53613,2.74707,1.53613,5.07129v11.87012H303.91895z"/>
	<path fill="#FFFFFF" d="M337.24414,175.69141v-11.83691c0-1.44922-0.30957-2.53711-0.92969-3.26172
		s-1.58301-1.08789-2.88867-1.08789c-1.71582,0-2.98242,0.49316-3.80176,1.47754c-0.81934,0.98535-1.22852,2.50098-1.22852,4.54883
		v10.16016h-2.75586v-11.83691c0-1.44922-0.30957-2.53711-0.92969-3.26172s-1.58789-1.08789-2.90527-1.08789
		c-1.72656,0-2.99121,0.51758-3.79395,1.55273c-0.80176,1.03516-1.20313,2.73047-1.20313,5.08789v9.5459h-2.75586v-18.19531h2.24121
		l0.44824,2.49023h0.13281c0.52051-0.88477,1.25391-1.57715,2.19922-2.0752c0.94727-0.49805,2.00684-0.74707,3.17969-0.74707
		c2.84473,0,4.7041,1.0293,5.57813,3.08789h0.13281c0.54199-0.95117,1.32813-1.7041,2.35742-2.25781
		c1.0293-0.55273,2.20215-0.83008,3.51953-0.83008c2.05859,0,3.59961,0.5293,4.62305,1.58594
		c1.02441,1.05664,1.53613,2.74707,1.53613,5.07129v11.87012H337.24414z"/>
	<path fill="#FFFFFF" d="M349.96777,157.49609v11.80371c0,1.4834,0.33789,2.58984,1.0127,3.32031s1.73242,1.0957,3.1709,1.0957
		c1.90332,0,3.29492-0.52051,4.17578-1.56055c0.87891-1.04004,1.31934-2.73926,1.31934-5.09668v-9.5625h2.75586v18.19531h-2.27441
		l-0.39844-2.44043h-0.14941c-0.56445,0.89648-1.34766,1.58301-2.34863,2.05859c-1.00195,0.47559-2.14453,0.71387-3.42871,0.71387
		c-2.21387,0-3.87109-0.52539-4.97168-1.57715c-1.10156-1.05176-1.65234-2.7334-1.65234-5.04688v-11.90332H349.96777z"/>
	<path fill="#FFFFFF" d="M382.39746,175.69141V163.9209c0-1.48242-0.33789-2.58984-1.0127-3.32031s-1.73242-1.0957-3.1709-1.0957
		c-1.90332,0-3.29785,0.51465-4.18359,1.54395s-1.32813,2.72852-1.32813,5.09668v9.5459h-2.75586v-18.19531h2.24121l0.44824,2.49023
		h0.13281c0.56445-0.89648,1.35547-1.59082,2.37402-2.08301s2.15234-0.73926,3.40332-0.73926
		c2.19141,0,3.84082,0.5293,4.94727,1.58594s1.66016,2.74707,1.66016,5.07129v11.87012H382.39746z"/>
	<path fill="#FFFFFF" d="M392.28223,152.56543c0-0.63086,0.15527-1.09277,0.46484-1.38574s0.69727-0.44043,1.16211-0.44043
		c0.44238,0,0.82422,0.14941,1.14551,0.44824s0.48145,0.75879,0.48145,1.37793c0,0.62012-0.16016,1.08203-0.48145,1.38672
		s-0.70313,0.45605-1.14551,0.45605c-0.46484,0-0.85254-0.15137-1.16211-0.45605S392.28223,153.18555,392.28223,152.56543z
		 M395.27051,175.69141h-2.75586v-18.19531h2.75586V175.69141z"/>
	<path fill="#FFFFFF" d="M408.69141,173.74902c0.4873,0,0.95703-0.03613,1.41113-0.1084
		c0.4541-0.07129,0.81348-0.14648,1.0791-0.22363v2.1084c-0.29883,0.14355-0.73828,0.2627-1.32031,0.35742
		c-0.58008,0.09375-1.10352,0.14063-1.56836,0.14063c-3.51953,0-5.2793-1.85352-5.2793-5.56152V159.6377h-2.60645v-1.32813
		l2.60645-1.14551l1.16211-3.88477h1.59375v4.2168h5.2793v2.1416h-5.2793v10.70801c0,1.0957,0.25977,1.93652,0.78027,2.52344
		S407.78418,173.74902,408.69141,173.74902z"/>
	<path fill="#FFFFFF" d="M413.62793,157.49609h2.95508l3.98438,10.37598c0.87402,2.36816,1.41699,4.07813,1.62695,5.12988h0.13281
		c0.14355-0.56445,0.44531-1.53027,0.9043-2.89648c0.45996-1.36719,1.96191-5.57031,4.50781-12.60938h2.95508l-7.81934,20.71875
		c-0.77441,2.04785-1.67969,3.5-2.71387,4.35742c-1.03516,0.8584-2.30566,1.28711-3.81055,1.28711
		c-0.84082,0-1.6709-0.09375-2.49023-0.28223v-2.20801c0.6084,0.13281,1.28906,0.19922,2.04199,0.19922
		c1.89258,0,3.24316-1.0625,4.05078-3.1875l1.0127-2.58984L413.62793,157.49609z"/>
</g>
</svg>
