<?xml version="1.0" encoding="utf-8"?>
<!-- Generator: Adobe Illustrator 19.2.1, SVG Export Plug-In . SVG Version: 6.00 Build 0)  -->
<svg version="1.1" id="Calque_1" xmlns="http://www.w3.org/2000/svg" xmlns:xlink="http://www.w3.org/1999/xlink" x="0px" y="0px"
	 viewBox="0 0 438 185" enable-background="new 0 0 438 185" xml:space="preserve">
<g>
	<g>
		<polygon fill="#6D5E84" points="49.47187,141.5472 17.6002,141.5472 17.6002,15.2852 49.47187,15.2852 49.47187,9.9607 
			17.6002,9.9607 12.27558,9.9607 12.27558,15.2852 12.27558,141.5472 12.27558,146.87183 17.6002,146.87183 49.47187,146.87183 		
			"/>
	</g>
	<g>
		<polygon fill="#6D5E84" points="143.86208,9.9607 112.00896,9.9607 112.00896,15.2852 143.86208,15.2852 143.86208,141.5472 
			112.00896,141.5472 112.00896,146.87183 143.86208,146.87183 149.18669,146.87183 149.18669,141.5472 149.18669,15.2852 
			149.18669,9.9607 		"/>
	</g>
</g>
<g>
	<path fill="#6D5E84" d="M80.3998,55.04092l20.62592,49.12383l-18.22387-9.21221l-2.40205-1.21426l-2.40218,1.21426
		l-18.2236,9.21217L80.3998,55.04092 M80.3998,41.2871l-31.13665,74.15718L80.3998,99.70448l31.1368,15.73979L80.3998,41.2871
		L80.3998,41.2871z"/>
</g>
<g>
	<g>
		<path fill="#1C1C1C" d="M189.42944,20.61551v115.6111h-6.53107V20.61551H189.42944z M193.85713,97.76194h0.07237l22.35265-38.6094
			h7.62038l-22.20793,38.6094l25.18353,38.46467h-7.40233L193.85713,97.76194z"/>
	</g>
	<g>
		<path fill="#1C1C1C" d="M256.92834,137.533c-10.67606,0-22.78877-14.1524-22.78877-39.84343
			c0-25.692,11.46434-39.91581,22.78877-39.91581c11.32153,0,22.78781,14.2238,22.78781,39.91581
			C279.71616,123.38061,267.81473,137.533,256.92834,137.533z M256.92834,131.00098c8.8689,0,15.82159-12.7003,15.82159-33.3114
			s-6.96814-33.38474-15.82159-33.38474c-9.16316,0-15.82159,12.77364-15.82159,33.38474S248.48399,131.00098,256.92834,131.00098z"
			/>
	</g>
	<g>
		<path fill="#1C1C1C" d="M286.97858,136.22661l33.23904-70.97815h-28.37717v-6.09592h38.31992l-33.31235,70.97815h32.224v6.09592
			H286.97858z"/>
	</g>
	<g>
		<path fill="#1C1C1C" d="M379.94949,99.57682l-35.56143-0.07333l0.36276,3.55643
			c1.66919,17.70788,10.95877,27.94106,20.24832,27.94106c3.77451,0,7.40329-1.16071,10.23318-2.53947l2.17767,5.73314
			c-3.91922,1.88724-9.14484,3.33836-13.93436,3.33836c-14.08005,0-26.05478-17.56314-26.05478-42.16582
			c0-25.25588,12.62796-37.59341,24.60269-37.59341C376.90347,57.77377,383.43356,75.84443,379.94949,99.57682z M361.73312,64.30483
			c-9.7247,0-15.67587,9.57999-16.90994,25.11116l-0.28943,3.99158h29.31982l0.36276-5.15325
			C374.79718,73.08689,370.22476,64.30483,361.73312,64.30483z"/>
	</g>
	<g>
		<path fill="#1C1C1C" d="M389.38861,111.76865c0-13.35351,10.16083-24.67504,30.77191-25.69103l3.12033-0.14569
			c-0.14471-16.03868-5.80548-21.62709-15.31311-21.62709c-3.55643,0-7.98315,1.81488-11.24918,3.33838l-2.25003-6.60439
			c5.00851-1.95961,11.03207-3.26505,15.09604-3.26505c12.04709,0,20.24829,7.98317,20.24829,23.00586v54.57571l-6.96716-3.26505
			l-1.59683,1.30544c-3.04794,2.46809-6.96716,3.91922-11.39389,3.91922
			C398.75052,137.31496,389.38861,127.08273,389.38861,111.76865z M423.28085,125.19549V92.60964h-3.19269
			c-13.20877,0-23.73239,4.86091-23.73239,20.82819c0,10.88639,6.38635,17.34605,15.02271,17.34605
			C416.37445,130.78389,420.29755,128.1788,423.28085,125.19549z"/>
	</g>
</g>
<g>
	<path fill="#6D5E84" d="M249.34961,176.02344c-2.63379,0-4.67383-0.81055-6.11719-2.43164
		c-1.44531-1.62207-2.16699-3.91602-2.16699-6.88184c0-3.04395,0.7334-5.39551,2.2002-7.05566
		c1.46582-1.66016,3.55469-2.49023,6.2666-2.49023c0.87402,0,1.74902,0.09473,2.62305,0.28223
		c0.87402,0.18848,1.56055,0.41016,2.05859,0.66406l-0.84668,2.34082c-0.6084-0.24316-1.27246-0.44531-1.99219-0.60547
		s-1.35547-0.24121-1.90918-0.24121c-3.69629,0-5.54492,2.35742-5.54492,7.07227c0,2.23535,0.45117,3.95117,1.35254,5.14648
		c0.90234,1.19531,2.23926,1.79297,4.00977,1.79297c1.5166,0,3.07129-0.32617,4.66504-0.97949v2.44043
		C252.73047,175.70801,251.19824,176.02344,249.34961,176.02344z"/>
	<path fill="#6D5E84" d="M275.66992,166.57715c0,2.96582-0.74707,5.28223-2.24121,6.94824
		c-1.49414,1.66504-3.55859,2.49805-6.19238,2.49805c-1.62695,0-3.07129-0.38184-4.33301-1.14551s-2.23535-1.85938-2.92188-3.28711
		s-1.0293-3.09863-1.0293-5.01367c0-2.96582,0.74121-5.27637,2.22461-6.93066s3.54199-2.48242,6.17578-2.48242
		c2.5459,0,4.56836,0.84668,6.06738,2.54004C274.91992,161.39746,275.66992,163.68848,275.66992,166.57715z M261.80762,166.57715
		c0,2.32422,0.46484,4.09473,1.39453,5.3125s2.29688,1.82617,4.10059,1.82617s3.17383-0.60645,4.10938-1.81738
		c0.93457-1.21289,1.40234-2.98633,1.40234-5.32129c0-2.31348-0.46777-4.07031-1.40234-5.27051
		c-0.93555-1.20117-2.31641-1.80176-4.14258-1.80176c-1.80371,0-3.16504,0.59277-4.08398,1.77637
		C262.2666,162.46582,261.80762,164.23047,261.80762,166.57715z"/>
	<path fill="#6D5E84" d="M305.39355,175.69141v-11.83691c0-1.44922-0.30957-2.53711-0.92969-3.26172
		s-1.58301-1.08789-2.88867-1.08789c-1.71582,0-2.98242,0.49316-3.80176,1.47754c-0.81934,0.98535-1.22852,2.50098-1.22852,4.54883
		v10.16016h-2.75586v-11.83691c0-1.44922-0.30957-2.53711-0.92969-3.26172s-1.58789-1.08789-2.90527-1.08789
		c-1.72656,0-2.99121,0.51758-3.79395,1.55273c-0.80176,1.03516-1.20313,2.73047-1.20313,5.08789v9.5459h-2.75586v-18.19531h2.24121
		l0.44824,2.49023h0.13281c0.52051-0.88477,1.25391-1.57715,2.19922-2.0752c0.94727-0.49805,2.00684-0.74707,3.17969-0.74707
		c2.84473,0,4.7041,1.0293,5.57813,3.08789h0.13281c0.54199-0.95117,1.32813-1.7041,2.35742-2.25781
		c1.0293-0.55273,2.20215-0.83008,3.51953-0.83008c2.05859,0,3.59961,0.5293,4.62305,1.58594
		c1.02441,1.05664,1.53613,2.74707,1.53613,5.07129v11.87012H305.39355z"/>
	<path fill="#6D5E84" d="M338.71875,175.69141v-11.83691c0-1.44922-0.30957-2.53711-0.92969-3.26172
		s-1.58301-1.08789-2.88867-1.08789c-1.71582,0-2.98242,0.49316-3.80176,1.47754c-0.81934,0.98535-1.22852,2.50098-1.22852,4.54883
		v10.16016h-2.75586v-11.83691c0-1.44922-0.30957-2.53711-0.92969-3.26172s-1.58789-1.08789-2.90527-1.08789
		c-1.72656,0-2.99121,0.51758-3.79395,1.55273c-0.80176,1.03516-1.20313,2.73047-1.20313,5.08789v9.5459h-2.75586v-18.19531h2.24121
		l0.44824,2.49023h0.13281c0.52051-0.88477,1.25391-1.57715,2.19922-2.0752c0.94727-0.49805,2.00684-0.74707,3.17969-0.74707
		c2.84473,0,4.7041,1.0293,5.57813,3.08789h0.13281c0.54199-0.95117,1.32813-1.7041,2.35742-2.25781
		c1.0293-0.55273,2.20215-0.83008,3.51953-0.83008c2.05859,0,3.59961,0.5293,4.62305,1.58594
		c1.02441,1.05664,1.53613,2.74707,1.53613,5.07129v11.87012H338.71875z"/>
	<path fill="#6D5E84" d="M351.44238,157.49609v11.80371c0,1.4834,0.33789,2.58984,1.0127,3.32031s1.73242,1.0957,3.1709,1.0957
		c1.90332,0,3.29492-0.52051,4.17578-1.56055c0.87891-1.04004,1.31934-2.73926,1.31934-5.09668v-9.5625h2.75586v18.19531h-2.27441
		l-0.39844-2.44043h-0.14941c-0.56445,0.89648-1.34766,1.58301-2.34863,2.05859c-1.00195,0.47559-2.14453,0.71387-3.42871,0.71387
		c-2.21387,0-3.87109-0.52539-4.97168-1.57715c-1.10156-1.05176-1.65234-2.7334-1.65234-5.04688v-11.90332H351.44238z"/>
	<path fill="#6D5E84" d="M383.87207,175.69141V163.9209c0-1.48242-0.33789-2.58984-1.0127-3.32031s-1.73242-1.0957-3.1709-1.0957
		c-1.90332,0-3.29785,0.51465-4.18359,1.54395s-1.32813,2.72852-1.32813,5.09668v9.5459h-2.75586v-18.19531h2.24121l0.44824,2.49023
		h0.13281c0.56445-0.89648,1.35547-1.59082,2.37402-2.08301s2.15234-0.73926,3.40332-0.73926
		c2.19141,0,3.84082,0.5293,4.94727,1.58594s1.66016,2.74707,1.66016,5.07129v11.87012H383.87207z"/>
	<path fill="#6D5E84" d="M393.75684,152.56543c0-0.63086,0.15527-1.09277,0.46484-1.38574s0.69727-0.44043,1.16211-0.44043
		c0.44238,0,0.82422,0.14941,1.14551,0.44824s0.48145,0.75879,0.48145,1.37793c0,0.62012-0.16016,1.08203-0.48145,1.38672
		s-0.70313,0.45605-1.14551,0.45605c-0.46484,0-0.85254-0.15137-1.16211-0.45605S393.75684,153.18555,393.75684,152.56543z
		 M396.74512,175.69141h-2.75586v-18.19531h2.75586V175.69141z"/>
	<path fill="#6D5E84" d="M410.16602,173.74902c0.4873,0,0.95703-0.03613,1.41113-0.1084
		c0.4541-0.07129,0.81348-0.14648,1.0791-0.22363v2.1084c-0.29883,0.14355-0.73828,0.2627-1.32031,0.35742
		c-0.58008,0.09375-1.10352,0.14063-1.56836,0.14063c-3.51953,0-5.2793-1.85352-5.2793-5.56152V159.6377h-2.60645v-1.32813
		l2.60645-1.14551l1.16211-3.88477h1.59375v4.2168h5.2793v2.1416h-5.2793v10.70801c0,1.0957,0.25977,1.93652,0.78027,2.52344
		S409.25879,173.74902,410.16602,173.74902z"/>
	<path fill="#6D5E84" d="M415.10254,157.49609h2.95508l3.98438,10.37598c0.87402,2.36816,1.41699,4.07813,1.62695,5.12988h0.13281
		c0.14355-0.56445,0.44531-1.53027,0.9043-2.89648c0.45996-1.36719,1.96191-5.57031,4.50781-12.60938h2.95508l-7.81934,20.71875
		c-0.77441,2.04785-1.67969,3.5-2.71387,4.35742c-1.03516,0.8584-2.30566,1.28711-3.81055,1.28711
		c-0.84082,0-1.6709-0.09375-2.49023-0.28223v-2.20801c0.6084,0.13281,1.28906,0.19922,2.04199,0.19922
		c1.89258,0,3.24316-1.0625,4.05078-3.1875l1.0127-2.58984L415.10254,157.49609z"/>
</g>
</svg>
