<?xml version="1.0" encoding="utf-8"?>
<!-- Generator: Adobe Illustrator 19.2.1, SVG Export Plug-In . SVG Version: 6.00 Build 0)  -->
<svg version="1.1" id="Calque_1" xmlns="http://www.w3.org/2000/svg" xmlns:xlink="http://www.w3.org/1999/xlink" x="0px" y="0px"
	 viewBox="0 0 438 185" enable-background="new 0 0 438 185" xml:space="preserve">
<g>
	<polygon fill="#FFFFFF" points="47.99714,140.5472 16.12548,140.5472 16.12548,14.2852 47.99714,14.2852 47.99714,8.9607 
		16.12548,8.9607 10.80085,8.9607 10.80085,14.2852 10.80085,140.5472 10.80085,145.87183 16.12548,145.87183 47.99714,145.87183 	
		"/>
	<polygon fill="#FFFFFF" points="142.38734,8.9607 110.53423,8.9607 110.53423,14.2852 142.38734,14.2852 142.38734,140.5472 
		110.53423,140.5472 110.53423,145.87183 142.38734,145.87183 147.71198,145.87183 147.71198,140.5472 147.71198,14.2852 
		147.71198,8.9607 	"/>
</g>
<path fill="#FFFFFF" d="M78.92507,54.04092l20.62592,49.12383l-18.22387-9.21221l-2.40205-1.21426l-2.40219,1.21426
	l-18.2236,9.21217L78.92507,54.04092 M78.92507,40.2871l-31.13665,74.15718l31.13665-15.73979l31.13679,15.73979L78.92507,40.2871
	L78.92507,40.2871z"/>
<g>
	<path fill="#FFFFFF" d="M187.95471,19.61551v115.6111h-6.53105V19.61551H187.95471z M192.3824,96.76194h0.07237l22.35266-38.6094
		h7.62038l-22.20793,38.6094l25.18352,38.46467h-7.40231L192.3824,96.76194z"/>
	<path fill="#FFFFFF" d="M255.45361,136.533c-10.67604,0-22.78876-14.1524-22.78876-39.84343
		c0-25.692,11.46432-39.91581,22.78876-39.91581c11.32153,0,22.78781,14.2238,22.78781,39.91581
		C278.24142,122.38061,266.34003,136.533,255.45361,136.533z M255.45361,130.00098c8.8689,0,15.82159-12.7003,15.82159-33.3114
		s-6.96814-33.38474-15.82159-33.38474c-9.16316,0-15.82158,12.77364-15.82158,33.38474S247.00926,130.00098,255.45361,130.00098z"
		/>
	<path fill="#FFFFFF" d="M285.50385,135.22661l33.23904-70.97815h-28.37717v-6.09592h38.31995l-33.31238,70.97815h32.22403v6.09592
		H285.50385z"/>
	<path fill="#FFFFFF" d="M378.47476,98.57682l-35.56143-0.07333l0.36276,3.55643
		c1.66919,17.70788,10.95877,27.94106,20.24832,27.94106c3.77451,0,7.40329-1.16071,10.23318-2.53947l2.17767,5.73314
		c-3.91922,1.88724-9.14484,3.33836-13.93436,3.33836c-14.08002,0-26.05478-17.56314-26.05478-42.16582
		c0-25.25588,12.62796-37.59341,24.60269-37.59341C375.42874,56.77377,381.95883,74.84443,378.47476,98.57682z M360.25842,63.30483
		c-9.72473,0-15.6759,9.57999-16.90994,25.11116l-0.28946,3.99158h29.31982l0.36279-5.15325
		C373.32248,72.08689,368.75006,63.30483,360.25842,63.30483z"/>
	<path fill="#FFFFFF" d="M387.91388,110.76865c0-13.35351,10.16083-24.67504,30.77191-25.69103l3.12033-0.14569
		c-0.14471-16.03868-5.80548-21.62709-15.31311-21.62709c-3.55643,0-7.98315,1.81488-11.24918,3.33838l-2.25003-6.60439
		c5.00854-1.95961,11.03207-3.26505,15.09604-3.26505c12.04709,0,20.24832,7.98317,20.24832,23.00586v54.57571l-6.96719-3.26505
		l-1.5968,1.30544c-3.04797,2.46809-6.96719,3.91922-11.39392,3.91922C397.27582,136.31496,387.91388,126.08273,387.91388,110.76865
		z M421.80612,124.19549V91.60964h-3.19269c-13.20877,0-23.73239,4.86091-23.73239,20.82819
		c0,10.88639,6.38635,17.34605,15.02271,17.34605C414.89975,129.78389,418.82281,127.1788,421.80612,124.19549z"/>
</g>
<g>
	<path fill="#FFFFFF" d="M375.3916,174.69141h-2.75586v-25.83203h2.75586V174.69141z"/>
	<path fill="#FFFFFF" d="M382.70313,151.56543c0-0.63086,0.15527-1.09277,0.46484-1.38574s0.69727-0.44043,1.16211-0.44043
		c0.44238,0,0.82422,0.14941,1.14551,0.44824s0.48145,0.75879,0.48145,1.37793c0,0.62012-0.16016,1.08203-0.48145,1.38672
		s-0.70313,0.45605-1.14551,0.45605c-0.46484,0-0.85254-0.15137-1.16211-0.45605S382.70313,152.18555,382.70313,151.56543z
		 M385.69141,174.69141h-2.75586v-18.19531h2.75586V174.69141z"/>
	<path fill="#FFFFFF" d="M405.68652,174.69141V162.9209c0-1.48242-0.33789-2.58984-1.0127-3.32031s-1.73242-1.0957-3.1709-1.0957
		c-1.90332,0-3.29785,0.51465-4.18359,1.54395s-1.32813,2.72852-1.32813,5.09668v9.5459h-2.75586v-18.19531h2.24121l0.44824,2.49023
		h0.13281c0.56445-0.89648,1.35547-1.59082,2.37402-2.08301s2.15234-0.73926,3.40332-0.73926
		c2.19141,0,3.84082,0.5293,4.94727,1.58594s1.66016,2.74707,1.66016,5.07129v11.87012H405.68652z"/>
	<path fill="#FFFFFF" d="M418.52539,165.37793c0.47559-0.6748,1.20117-1.56055,2.1748-2.65625l5.87695-6.22559h3.27051
		l-7.37109,7.75293l7.88574,10.44238h-3.33691l-6.4248-8.59961l-2.0752,1.79297v6.80664h-2.72266v-25.83203h2.72266v13.69629
		c0,0.6084-0.04395,1.5498-0.13281,2.82227H418.52539z"/>
</g>
</svg>
