<?xml version="1.0" encoding="utf-8"?>
<!-- Generator: Adobe Illustrator 19.2.1, SVG Export Plug-In . SVG Version: 6.00 Build 0)  -->
<svg version="1.1" id="Calque_1" xmlns="http://www.w3.org/2000/svg" xmlns:xlink="http://www.w3.org/1999/xlink" x="0px" y="0px"
	 viewBox="0 0 438 185" enable-background="new 0 0 438 185" xml:space="preserve">
<g>
	<g>
		<polygon fill="#007BB8" points="47.47187,138.5472 15.6002,138.5472 15.6002,12.2852 47.47187,12.2852 47.47187,6.9607 
			15.6002,6.9607 10.27558,6.9607 10.27558,12.2852 10.27558,138.5472 10.27558,143.87183 15.6002,143.87183 47.47187,143.87183 		
			"/>
	</g>
	<g>
		<polygon fill="#007BB8" points="141.86208,6.9607 110.00896,6.9607 110.00896,12.2852 141.86208,12.2852 141.86208,138.5472 
			110.00896,138.5472 110.00896,143.87183 141.86208,143.87183 147.18669,143.87183 147.18669,138.5472 147.18669,12.2852 
			147.18669,6.9607 		"/>
	</g>
</g>
<g>
	<path fill="#007BB8" d="M78.3998,52.04092l20.62592,49.12383l-18.22387-9.21221l-2.40205-1.21426l-2.40218,1.21426
		l-18.2236,9.21217L78.3998,52.04092 M78.3998,38.2871l-31.13665,74.15718L78.3998,96.70448l31.1368,15.73979L78.3998,38.2871
		L78.3998,38.2871z"/>
</g>
<g>
	<g>
		<path fill="#1C1C1C" d="M187.42944,17.61551v115.6111h-6.53107V17.61551H187.42944z M191.85713,94.76194h0.07237l22.35265-38.6094
			h7.62038l-22.20793,38.6094l25.18353,38.46467h-7.40233L191.85713,94.76194z"/>
	</g>
	<g>
		<path fill="#1C1C1C" d="M254.92834,134.533c-10.67606,0-22.78877-14.1524-22.78877-39.84343
			c0-25.692,11.46434-39.91581,22.78877-39.91581c11.32153,0,22.78781,14.2238,22.78781,39.91581
			C277.71616,120.38061,265.81473,134.533,254.92834,134.533z M254.92834,128.00098c8.8689,0,15.82159-12.7003,15.82159-33.3114
			s-6.96814-33.38474-15.82159-33.38474c-9.16316,0-15.82159,12.77364-15.82159,33.38474S246.48399,128.00098,254.92834,128.00098z"
			/>
	</g>
	<g>
		<path fill="#1C1C1C" d="M284.97858,133.22661l33.23904-70.97815h-28.37717v-6.09591h38.31992l-33.31235,70.97815h32.224v6.09592
			H284.97858z"/>
	</g>
	<g>
		<path fill="#1C1C1C" d="M377.94949,96.57682l-35.56143-0.07333l0.36276,3.55643
			c1.66919,17.70788,10.95877,27.94106,20.24832,27.94106c3.77451,0,7.40329-1.16071,10.23318-2.53947l2.17767,5.73314
			c-3.91922,1.88724-9.14484,3.33836-13.93436,3.33836c-14.08005,0-26.05478-17.56314-26.05478-42.16582
			c0-25.25588,12.62796-37.59341,24.60269-37.59341C374.90347,54.77377,381.43356,72.84443,377.94949,96.57682z M359.73312,61.30483
			c-9.7247,0-15.67587,9.57999-16.90994,25.11116l-0.28943,3.99158h29.31982l0.36276-5.15325
			C372.79718,70.08689,368.22476,61.30483,359.73312,61.30483z"/>
	</g>
	<g>
		<path fill="#1C1C1C" d="M387.38861,108.76865c0-13.35351,10.16083-24.67504,30.77191-25.69103l3.12033-0.14569
			c-0.14471-16.03868-5.80548-21.62709-15.31311-21.62709c-3.55643,0-7.98315,1.81488-11.24918,3.33838l-2.25003-6.60439
			c5.00851-1.95961,11.03207-3.26505,15.09604-3.26505c12.04709,0,20.24829,7.98316,20.24829,23.00586v54.57571l-6.96716-3.26505
			l-1.59683,1.30544c-3.04794,2.46809-6.96716,3.91922-11.39389,3.91922
			C396.75052,134.31496,387.38861,124.08273,387.38861,108.76865z M421.28085,122.19549V89.60964h-3.19269
			c-13.20877,0-23.73239,4.86091-23.73239,20.82819c0,10.88639,6.38635,17.34605,15.02271,17.34605
			C414.37445,127.78389,418.29755,125.1788,421.28085,122.19549z"/>
	</g>
</g>
<g>
	<path fill="#007BB8" d="M291.78125,173.02344c-1.18457,0-2.26563-0.21875-3.24609-0.65625
		c-0.97852-0.43652-1.80078-1.10938-2.46484-2.0166h-0.19922c0.13281,1.0625,0.19922,2.06934,0.19922,3.02148v7.4873h-2.75586
		v-26.36328h2.24121l0.38184,2.49023h0.13281c0.70801-0.99609,1.5332-1.71484,2.47363-2.1582
		c0.94043-0.44238,2.01953-0.66406,3.2373-0.66406c2.41309,0,4.27539,0.8252,5.58594,2.47363
		c1.3125,1.64941,1.96777,3.96191,1.96777,6.93945c0,2.98828-0.66699,5.30957-2.00098,6.96387
		C296.00098,172.19629,294.14941,173.02344,291.78125,173.02344z M291.38281,156.50488c-1.85938,0-3.2041,0.51465-4.03418,1.54395
		s-1.25586,2.66699-1.27832,4.91406v0.61426c0,2.55664,0.42578,4.38574,1.27832,5.4873
		c0.85254,1.10059,2.21875,1.65137,4.10059,1.65137c1.57129,0,2.80273-0.63672,3.69336-1.90918
		c0.8916-1.27246,1.33691-3.02734,1.33691-5.2627c0-2.26855-0.44531-4.00977-1.33691-5.2207
		C294.25195,157.11133,292.99902,156.50488,291.38281,156.50488z"/>
	<path fill="#007BB8" d="M308.60547,172.69141h-2.75586v-25.83203h2.75586V172.69141z"/>
	<path fill="#007BB8" d="M327.33887,172.69141l-0.54785-2.58984h-0.13281c-0.90723,1.13965-1.8125,1.91211-2.71387,2.31641
		c-0.90234,0.40332-2.02832,0.60547-3.37891,0.60547c-1.80371,0-3.21777-0.46484-4.24219-1.39453
		c-1.02344-0.92969-1.53516-2.25195-1.53516-3.96777c0-3.6748,2.93848-5.60059,8.81543-5.77734l3.08789-0.09961v-1.12891
		c0-1.42773-0.30762-2.48145-0.9209-3.16211c-0.61523-0.68066-1.59668-1.02148-2.94727-1.02148
		c-1.5166,0-3.23145,0.46484-5.14648,1.39453l-0.84668-2.1084c0.89648-0.48633,1.87891-0.86816,2.94629-1.14551
		c1.06836-0.27637,2.13965-0.41504,3.21289-0.41504c2.16895,0,3.77734,0.48145,4.82227,1.44434
		c1.04688,0.96289,1.56934,2.50684,1.56934,4.63184v12.41797H327.33887z M321.11328,170.74902
		c1.71582,0,3.06348-0.4707,4.04199-1.41113c0.98047-0.94043,1.46973-2.25781,1.46973-3.95117v-1.64355l-2.75586,0.11621
		c-2.19141,0.07715-3.77148,0.41797-4.73926,1.02148c-0.96875,0.60254-1.45313,1.54102-1.45313,2.81348
		c0,0.99609,0.30176,1.75391,0.9043,2.27441C319.18457,170.48926,320.02832,170.74902,321.11328,170.74902z"/>
	<path fill="#007BB8" d="M342.63477,170.74902c0.4873,0,0.95703-0.03613,1.41113-0.1084
		c0.4541-0.07129,0.81348-0.14648,1.0791-0.22363v2.1084c-0.29883,0.14355-0.73828,0.2627-1.32031,0.35742
		c-0.58008,0.09375-1.10352,0.14063-1.56836,0.14063c-3.51953,0-5.2793-1.85352-5.2793-5.56152V156.6377h-2.60645v-1.32813
		l2.60645-1.14551l1.16211-3.88477h1.59375v4.2168h5.2793v2.1416h-5.2793v10.70801c0,1.0957,0.25977,1.93652,0.78027,2.52344
		S341.72754,170.74902,342.63477,170.74902z"/>
	<path fill="#007BB8" d="M358.66211,156.6377h-4.63184v16.05371h-2.75586V156.6377h-3.25391v-1.24512l3.25391-0.99609v-1.0127
		c0-4.4707,1.95313-6.70703,5.86035-6.70703c0.96289,0,2.0918,0.19434,3.38672,0.58105l-0.71387,2.20801
		c-1.0625-0.34277-1.96973-0.51465-2.72266-0.51465c-1.04004,0-1.80957,0.34668-2.30762,1.03809s-0.74707,1.80078-0.74707,3.32813
		v1.17871h4.63184V156.6377z"/>
	<path fill="#007BB8" d="M379.3877,163.57715c0,2.96582-0.74707,5.28223-2.24121,6.94824
		c-1.49414,1.66504-3.55859,2.49805-6.19238,2.49805c-1.62695,0-3.07129-0.38184-4.33301-1.14551s-2.23535-1.85938-2.92188-3.28711
		s-1.0293-3.09863-1.0293-5.01367c0-2.96582,0.74121-5.27637,2.22461-6.93066s3.54199-2.48242,6.17578-2.48242
		c2.5459,0,4.56836,0.84668,6.06738,2.54004C378.6377,158.39746,379.3877,160.68848,379.3877,163.57715z M365.52539,163.57715
		c0,2.32422,0.46484,4.09473,1.39453,5.3125s2.29688,1.82617,4.10059,1.82617s3.17383-0.60645,4.10938-1.81738
		c0.93457-1.21289,1.40234-2.98633,1.40234-5.32129c0-2.31348-0.46777-4.07031-1.40234-5.27051
		c-0.93555-1.20117-2.31641-1.80176-4.14258-1.80176c-1.80371,0-3.16504,0.59277-4.08398,1.77637
		C365.98438,159.46582,365.52539,161.23047,365.52539,163.57715z"/>
	<path fill="#007BB8" d="M394.21973,154.16406c0.80762,0,1.5332,0.06641,2.1748,0.19922l-0.38184,2.55664
		c-0.75293-0.16602-1.41699-0.24902-1.99219-0.24902c-1.47168,0-2.73047,0.59766-3.77734,1.79297
		c-1.04492,1.19531-1.56836,2.68359-1.56836,4.46582v9.76172h-2.75586v-18.19531h2.27441l0.31543,3.37012h0.13281
		c0.6748-1.18359,1.48828-2.09668,2.44043-2.73926C392.03418,154.48535,393.08008,154.16406,394.21973,154.16406z"/>
	<path fill="#007BB8" d="M424.69043,172.69141v-11.83691c0-1.44922-0.30957-2.53711-0.92969-3.26172
		s-1.58301-1.08789-2.88867-1.08789c-1.71582,0-2.98242,0.49316-3.80176,1.47754c-0.81934,0.98535-1.22852,2.50098-1.22852,4.54883
		v10.16016h-2.75586v-11.83691c0-1.44922-0.30957-2.53711-0.92969-3.26172s-1.58789-1.08789-2.90527-1.08789
		c-1.72656,0-2.99121,0.51758-3.79395,1.55273c-0.80176,1.03516-1.20313,2.73047-1.20313,5.08789v9.5459h-2.75586v-18.19531h2.24121
		l0.44824,2.49023h0.13281c0.52051-0.88477,1.25391-1.57715,2.19922-2.0752c0.94727-0.49805,2.00684-0.74707,3.17969-0.74707
		c2.84473,0,4.7041,1.0293,5.57813,3.08789h0.13281c0.54199-0.95117,1.32813-1.7041,2.35742-2.25781
		c1.0293-0.55273,2.20215-0.83008,3.51953-0.83008c2.05859,0,3.59961,0.5293,4.62305,1.58594
		c1.02441,1.05664,1.53613,2.74707,1.53613,5.07129v11.87012H424.69043z"/>
</g>
</svg>
