<?xml version="1.0" encoding="utf-8"?>
<!-- Generator: Adobe Illustrator 19.2.1, SVG Export Plug-In . SVG Version: 6.00 Build 0)  -->
<svg version="1.1" id="Calque_1" xmlns="http://www.w3.org/2000/svg" xmlns:xlink="http://www.w3.org/1999/xlink" x="0px" y="0px"
	 viewBox="0 0 438 185" enable-background="new 0 0 438 185" xml:space="preserve">
<g>
	<polygon fill="#FFFFFF" points="46.33047,142.88052 14.45881,142.88052 14.45881,16.61853 46.33047,16.61853 46.33047,11.29404 
		14.45881,11.29404 9.13418,11.29404 9.13418,16.61853 9.13418,142.88052 9.13418,148.20515 14.45881,148.20515 46.33047,148.20515 
			"/>
	<polygon fill="#FFFFFF" points="140.72067,11.29404 108.86756,11.29404 108.86756,16.61853 140.72067,16.61853 
		140.72067,142.88052 108.86756,142.88052 108.86756,148.20515 140.72067,148.20515 146.0453,148.20515 146.0453,142.88052 
		146.0453,16.61853 146.0453,11.29404 	"/>
</g>
<path fill="#FFFFFF" d="M77.25841,56.37425l20.62592,49.12383l-18.22387-9.2122l-2.40205-1.21426l-2.40219,1.21426l-18.2236,9.21217
	L77.25841,56.37425 M77.25841,42.62043L46.12175,116.7776l31.13666-15.73979l31.13679,15.73979L77.25841,42.62043L77.25841,42.62043
	z"/>
<g>
	<path fill="#FFFFFF" d="M186.28806,21.94884v115.6111h-6.53107V21.94884H186.28806z M190.71574,99.09527h0.07236l22.35266-38.60939
		h7.62038l-22.20793,38.60939l25.18353,38.46467h-7.40233L190.71574,99.09527z"/>
	<path fill="#FFFFFF" d="M253.78696,138.86635c-10.67606,0-22.78877-14.1524-22.78877-39.84344
		c0-25.69199,11.46434-39.9158,22.78877-39.9158c11.32153,0,22.78781,14.2238,22.78781,39.9158
		C276.57477,124.71394,264.67334,138.86635,253.78696,138.86635z M253.78696,132.33432
		c8.8689,0,15.82159-12.70031,15.82159-33.31142s-6.96814-33.38474-15.82159-33.38474
		c-9.16318,0-15.82159,12.77364-15.82159,33.38474S245.34259,132.33432,253.78696,132.33432z"/>
	<path fill="#FFFFFF" d="M283.83719,137.55994l33.23904-70.97815h-28.3772v-6.09591h38.31995l-33.31238,70.97815h32.22403v6.09592
		H283.83719z"/>
	<path fill="#FFFFFF" d="M376.80811,100.91015l-35.56146-0.07333l0.36279,3.55643
		c1.66919,17.70787,10.95877,27.94106,20.24832,27.94106c3.77448,0,7.40329-1.16072,10.23318-2.53949l2.17767,5.73314
		c-3.91922,1.88724-9.14484,3.33838-13.93436,3.33838c-14.08005,0-26.05478-17.56315-26.05478-42.16583
		c0-25.25589,12.62793-37.59341,24.60269-37.59341C373.76205,59.10711,380.29218,77.17776,376.80811,100.91015z M358.59174,65.63817
		c-9.7247,0-15.6759,9.57999-16.90994,25.11116l-0.28946,3.99158h29.31985l0.36276-5.15326
		C371.65579,74.42022,367.08337,65.63817,358.59174,65.63817z"/>
	<path fill="#FFFFFF" d="M386.24722,113.10198c0-13.35351,10.1608-24.67505,30.77191-25.69103l3.12033-0.14569
		c-0.14474-16.03869-5.80551-21.62709-15.31311-21.62709c-3.55646,0-7.98318,1.81488-11.24918,3.33838l-2.25003-6.60439
		c5.00851-1.95961,11.03207-3.26505,15.09601-3.26505c12.04712,0,20.24832,7.98316,20.24832,23.00586v54.57571l-6.96716-3.26505
		l-1.59683,1.30545c-3.04794,2.46808-6.96716,3.9192-11.39389,3.9192C395.60913,138.64828,386.24722,128.41606,386.24722,113.10198z
		 M420.13947,126.52882V93.94298h-3.19269c-13.20877,0-23.73239,4.86091-23.73239,20.82819
		c0,10.88639,6.38632,17.34606,15.02271,17.34606C413.23306,132.11723,417.15616,129.51213,420.13947,126.52882z"/>
</g>
<rect x="367.58334" y="145.90685" fill="none" width="60.69105" height="30.96478"/>
<text transform="matrix(1 0 0 1 372.64316 169.46704)" fill="#FFFFFF" font-family="'OpenSans'" font-size="31px" letter-spacing="1">link</text>
</svg>
