<?xml version="1.0" encoding="utf-8"?>
<!-- Generator: Adobe Illustrator 19.2.1, SVG Export Plug-In . SVG Version: 6.00 Build 0)  -->
<svg version="1.1" id="Calque_1" xmlns="http://www.w3.org/2000/svg" xmlns:xlink="http://www.w3.org/1999/xlink" x="0px" y="0px"
	 viewBox="0 0 438 185" enable-background="new 0 0 438 185" xml:space="preserve">
<g>
	<g>
		<polygon fill="#FFFFFF" points="47.99714,141.5472 16.12548,141.5472 16.12548,15.2852 47.99714,15.2852 47.99714,9.9607 
			16.12548,9.9607 10.80085,9.9607 10.80085,15.2852 10.80085,141.5472 10.80085,146.87183 16.12548,146.87183 47.99714,146.87183 
					"/>
	</g>
	<g>
		<polygon fill="#FFFFFF" points="142.38734,9.9607 110.53423,9.9607 110.53423,15.2852 142.38734,15.2852 142.38734,141.5472 
			110.53423,141.5472 110.53423,146.87183 142.38734,146.87183 147.71198,146.87183 147.71198,141.5472 147.71198,15.2852 
			147.71198,9.9607 		"/>
	</g>
</g>
<g>
	<path fill="#FFFFFF" d="M78.92507,55.04092l20.62592,49.12383l-18.22387-9.21221l-2.40205-1.21426l-2.40219,1.21426
		l-18.2236,9.21217L78.92507,55.04092 M78.92507,41.2871l-31.13665,74.15718l31.13665-15.73979l31.13679,15.73979L78.92507,41.2871
		L78.92507,41.2871z"/>
</g>
<g>
	<g>
		<path fill="#FFFFFF" d="M187.95471,20.61551v115.6111h-6.53105V20.61551H187.95471z M192.3824,97.76194h0.07237l22.35266-38.6094
			h7.62038l-22.20793,38.6094l25.18352,38.46467h-7.40231L192.3824,97.76194z"/>
	</g>
	<g>
		<path fill="#FFFFFF" d="M255.45361,137.533c-10.67604,0-22.78876-14.1524-22.78876-39.84343
			c0-25.692,11.46432-39.91581,22.78876-39.91581c11.32153,0,22.78781,14.2238,22.78781,39.91581
			C278.24142,123.38061,266.34003,137.533,255.45361,137.533z M255.45361,131.00098c8.8689,0,15.82159-12.7003,15.82159-33.3114
			s-6.96814-33.38474-15.82159-33.38474c-9.16316,0-15.82158,12.77364-15.82158,33.38474S247.00926,131.00098,255.45361,131.00098z"
			/>
	</g>
	<g>
		<path fill="#FFFFFF" d="M285.50385,136.22661l33.23904-70.97815h-28.37717v-6.09592h38.31995l-33.31238,70.97815h32.22403v6.09592
			H285.50385z"/>
	</g>
	<g>
		<path fill="#FFFFFF" d="M378.47476,99.57682l-35.56143-0.07333l0.36276,3.55643
			c1.66919,17.70788,10.95877,27.94106,20.24832,27.94106c3.77451,0,7.40329-1.16071,10.23318-2.53947l2.17767,5.73314
			c-3.91922,1.88724-9.14484,3.33836-13.93436,3.33836c-14.08002,0-26.05478-17.56314-26.05478-42.16582
			c0-25.25588,12.62796-37.59341,24.60269-37.59341C375.42874,57.77377,381.95883,75.84443,378.47476,99.57682z M360.25842,64.30483
			c-9.72473,0-15.6759,9.57999-16.90994,25.11116l-0.28946,3.99158h29.31982l0.36279-5.15325
			C373.32248,73.08689,368.75006,64.30483,360.25842,64.30483z"/>
	</g>
	<g>
		<path fill="#FFFFFF" d="M387.91388,111.76865c0-13.35351,10.16083-24.67504,30.77191-25.69103l3.12033-0.14569
			c-0.14471-16.03868-5.80548-21.62709-15.31311-21.62709c-3.55643,0-7.98315,1.81488-11.24918,3.33838l-2.25003-6.60439
			c5.00854-1.95961,11.03207-3.26505,15.09604-3.26505c12.04709,0,20.24832,7.98317,20.24832,23.00586v54.57571l-6.96719-3.26505
			l-1.5968,1.30544c-3.04797,2.46809-6.96719,3.91922-11.39392,3.91922
			C397.27582,137.31496,387.91388,127.08273,387.91388,111.76865z M421.80612,125.19549V92.60964h-3.19269
			c-13.20877,0-23.73239,4.86091-23.73239,20.82819c0,10.88639,6.38635,17.34605,15.02271,17.34605
			C414.89975,130.78389,418.82281,128.1788,421.80612,125.19549z"/>
	</g>
</g>
<g>
	<path fill="#FFFFFF" d="M350.99707,175.69141v-11.83691c0-1.44922-0.30957-2.53711-0.92969-3.26172
		s-1.58301-1.08789-2.88867-1.08789c-1.71582,0-2.98242,0.49316-3.80176,1.47754c-0.81934,0.98535-1.22852,2.50098-1.22852,4.54883
		v10.16016h-2.75586v-11.83691c0-1.44922-0.30957-2.53711-0.92969-3.26172s-1.58789-1.08789-2.90527-1.08789
		c-1.72656,0-2.99121,0.51758-3.79395,1.55273c-0.80176,1.03516-1.20313,2.73047-1.20313,5.08789v9.5459h-2.75586v-18.19531h2.24121
		l0.44824,2.49023h0.13281c0.52051-0.88477,1.25391-1.57715,2.19922-2.0752c0.94727-0.49805,2.00684-0.74707,3.17969-0.74707
		c2.84473,0,4.7041,1.0293,5.57813,3.08789h0.13281c0.54199-0.95117,1.32813-1.7041,2.35742-2.25781
		c1.0293-0.55273,2.20215-0.83008,3.51953-0.83008c2.05859,0,3.59961,0.5293,4.62305,1.58594
		c1.02441,1.05664,1.53613,2.74707,1.53613,5.07129v11.87012H350.99707z"/>
	<path fill="#FFFFFF" d="M368.81738,176.02344c-2.68945,0-4.81152-0.81934-6.36621-2.45703
		c-1.55566-1.6377-2.33301-3.91211-2.33301-6.82324c0-2.93262,0.72168-5.2627,2.16699-6.98926
		c1.44336-1.72656,3.38379-2.58984,5.81836-2.58984c2.28027,0,4.08398,0.75,5.41211,2.25s1.99219,3.47754,1.99219,5.93457v1.74316
		h-12.53418c0.05566,2.13574,0.59473,3.75781,1.61816,4.86426c1.02441,1.10645,2.46582,1.66016,4.3252,1.66016
		c1.95898,0,3.89551-0.40918,5.81055-1.22852v2.45703c-0.97363,0.4209-1.89551,0.72168-2.76465,0.90527
		C371.09473,175.93164,370.0459,176.02344,368.81738,176.02344z M368.07031,159.47168c-1.46094,0-2.62598,0.47656-3.49414,1.42773
		c-0.86914,0.95215-1.38086,2.26855-1.53613,3.95117h9.5127c0-1.7373-0.3877-3.06836-1.16211-3.99219
		S369.50879,159.47168,368.07031,159.47168z"/>
	<path fill="#FFFFFF" d="M394.29102,173.25098h-0.14941c-1.27246,1.84863-3.17676,2.77246-5.71094,2.77246
		c-2.37988,0-4.23047-0.81348-5.55371-2.44043c-1.32227-1.62695-1.9834-3.94043-1.9834-6.93945s0.66406-5.3291,1.99219-6.98926
		s3.17676-2.49023,5.54492-2.49023c2.46777,0,4.36035,0.89648,5.67773,2.68945h0.21582l-0.11621-1.31152l-0.06641-1.27832v-7.4043
		h2.75586v25.83203h-2.24121L394.29102,173.25098z M388.7793,173.71582c1.88184,0,3.24609-0.51172,4.0918-1.53613
		c0.84766-1.02344,1.27051-2.6748,1.27051-4.95508v-0.58105c0-2.5791-0.42871-4.41797-1.28613-5.51953
		c-0.8584-1.10156-2.22754-1.65234-4.10938-1.65234c-1.61621,0-2.85254,0.62891-3.71094,1.88477
		c-0.85742,1.25586-1.28613,3.0293-1.28613,5.32031c0,2.32422,0.42578,4.07813,1.27832,5.2627
		S387.12988,173.71582,388.7793,173.71582z"/>
	<path fill="#FFFFFF" d="M404.20801,152.56543c0-0.63086,0.15527-1.09277,0.46484-1.38574s0.69727-0.44043,1.16211-0.44043
		c0.44238,0,0.82422,0.14941,1.14551,0.44824s0.48145,0.75879,0.48145,1.37793c0,0.62012-0.16016,1.08203-0.48145,1.38672
		s-0.70313,0.45605-1.14551,0.45605c-0.46484,0-0.85254-0.15137-1.16211-0.45605S404.20801,153.18555,404.20801,152.56543z
		 M407.19629,175.69141h-2.75586v-18.19531h2.75586V175.69141z"/>
	<path fill="#FFFFFF" d="M425.92969,175.69141l-0.54785-2.58984h-0.13281c-0.90723,1.13965-1.8125,1.91211-2.71387,2.31641
		c-0.90234,0.40332-2.02832,0.60547-3.37891,0.60547c-1.80371,0-3.21777-0.46484-4.24219-1.39453
		c-1.02344-0.92969-1.53516-2.25195-1.53516-3.96777c0-3.6748,2.93848-5.60059,8.81543-5.77734l3.08789-0.09961v-1.12891
		c0-1.42773-0.30762-2.48145-0.9209-3.16211c-0.61523-0.68066-1.59668-1.02148-2.94727-1.02148
		c-1.5166,0-3.23145,0.46484-5.14648,1.39453l-0.84668-2.1084c0.89648-0.48633,1.87891-0.86816,2.94629-1.14551
		c1.06836-0.27637,2.13965-0.41504,3.21289-0.41504c2.16895,0,3.77734,0.48145,4.82227,1.44434
		c1.04688,0.96289,1.56934,2.50684,1.56934,4.63184v12.41797H425.92969z M419.7041,173.74902
		c1.71582,0,3.06348-0.4707,4.04199-1.41113c0.98047-0.94043,1.46973-2.25781,1.46973-3.95117v-1.64355l-2.75586,0.11621
		c-2.19141,0.07715-3.77148,0.41797-4.73926,1.02148c-0.96875,0.60254-1.45313,1.54102-1.45313,2.81348
		c0,0.99609,0.30176,1.75391,0.9043,2.27441C417.77539,173.48926,418.61914,173.74902,419.7041,173.74902z"/>
</g>
</svg>
