<?xml version="1.0" encoding="utf-8"?>
<!-- Generator: Adobe Illustrator 19.2.1, SVG Export Plug-In . SVG Version: 6.00 Build 0)  -->
<svg version="1.1" id="Calque_1" xmlns="http://www.w3.org/2000/svg" xmlns:xlink="http://www.w3.org/1999/xlink" x="0px" y="0px"
	 viewBox="0 0 438 185" enable-background="new 0 0 438 185" xml:space="preserve">
<g>
	<g>
		<polygon fill="#FFFFFF" points="46.33047,142.88052 14.45881,142.88052 14.45881,16.61853 46.33047,16.61853 46.33047,11.29404 
			14.45881,11.29404 9.13418,11.29404 9.13418,16.61853 9.13418,142.88052 9.13418,148.20515 14.45881,148.20515 
			46.33047,148.20515 		"/>
	</g>
	<g>
		<polygon fill="#FFFFFF" points="140.72067,11.29404 108.86756,11.29404 108.86756,16.61853 140.72067,16.61853 
			140.72067,142.88052 108.86756,142.88052 108.86756,148.20515 140.72067,148.20515 146.0453,148.20515 146.0453,142.88052 
			146.0453,16.61853 146.0453,11.29404 		"/>
	</g>
</g>
<g>
	<path fill="#FFFFFF" d="M77.25841,56.37425l20.62592,49.12383l-18.22387-9.2122l-2.40205-1.21426l-2.40219,1.21426
		l-18.2236,9.21217L77.25841,56.37425 M77.25841,42.62043L46.12175,116.7776l31.13666-15.73979l31.13679,15.73979L77.25841,42.62043
		L77.25841,42.62043z"/>
</g>
<g>
	<g>
		<path fill="#FFFFFF" d="M186.28806,21.94884v115.6111h-6.53107V21.94884H186.28806z M190.71574,99.09527h0.07236
			l22.35266-38.60939h7.62038l-22.20793,38.60939l25.18353,38.46467h-7.40233L190.71574,99.09527z"/>
	</g>
	<g>
		<path fill="#FFFFFF" d="M253.78696,138.86635c-10.67606,0-22.78877-14.1524-22.78877-39.84344
			c0-25.69199,11.46434-39.9158,22.78877-39.9158c11.32153,0,22.78781,14.2238,22.78781,39.9158
			C276.57477,124.71394,264.67334,138.86635,253.78696,138.86635z M253.78696,132.33432
			c8.8689,0,15.82159-12.70031,15.82159-33.31142s-6.96814-33.38474-15.82159-33.38474
			c-9.16318,0-15.82159,12.77364-15.82159,33.38474S245.34259,132.33432,253.78696,132.33432z"/>
	</g>
	<g>
		<path fill="#FFFFFF" d="M283.83719,137.55994l33.23904-70.97815h-28.3772v-6.09591h38.31995l-33.31238,70.97815h32.22403v6.09592
			H283.83719z"/>
	</g>
	<g>
		<path fill="#FFFFFF" d="M376.80811,100.91015l-35.56146-0.07333l0.36279,3.55643
			c1.66919,17.70787,10.95877,27.94106,20.24832,27.94106c3.77448,0,7.40329-1.16072,10.23318-2.53949l2.17767,5.73314
			c-3.91922,1.88724-9.14484,3.33838-13.93436,3.33838c-14.08005,0-26.05478-17.56315-26.05478-42.16583
			c0-25.25589,12.62793-37.59341,24.60269-37.59341C373.76205,59.10711,380.29218,77.17776,376.80811,100.91015z
			 M358.59174,65.63817c-9.7247,0-15.6759,9.57999-16.90994,25.11116l-0.28946,3.99158h29.31985l0.36276-5.15326
			C371.65579,74.42022,367.08337,65.63817,358.59174,65.63817z"/>
	</g>
	<g>
		<path fill="#FFFFFF" d="M386.24722,113.10198c0-13.35351,10.1608-24.67505,30.77191-25.69103l3.12033-0.14569
			c-0.14474-16.03869-5.80551-21.62709-15.31311-21.62709c-3.55646,0-7.98318,1.81488-11.24918,3.33838l-2.25003-6.60439
			c5.00851-1.95961,11.03207-3.26505,15.09601-3.26505c12.04712,0,20.24832,7.98316,20.24832,23.00586v54.57571l-6.96716-3.26505
			l-1.59683,1.30545c-3.04794,2.46808-6.96716,3.9192-11.39389,3.9192C395.60913,138.64828,386.24722,128.41606,386.24722,113.10198
			z M420.13947,126.52882V93.94298h-3.19269c-13.20877,0-23.73239,4.86091-23.73239,20.82819
			c0,10.88639,6.38632,17.34606,15.02271,17.34606C413.23306,132.11723,417.15616,129.51213,420.13947,126.52882z"/>
	</g>
</g>
<g>
	<path fill="#FFFFFF" d="M302.06738,169.76953c-1.08008,0-2.06641-0.19922-2.95898-0.59766
		c-0.89355-0.39844-1.64258-1.01172-2.24805-1.83984h-0.18164c0.12109,0.96875,0.18164,1.8877,0.18164,2.75586v6.82617h-2.5127
		v-24.03711h2.04297l0.34863,2.27051h0.12109c0.64551-0.9082,1.39746-1.56348,2.25488-1.96777
		c0.8584-0.40332,1.8418-0.60547,2.95215-0.60547c2.2002,0,3.89746,0.75195,5.09375,2.25586
		c1.19531,1.50391,1.79395,3.6123,1.79395,6.32617c0,2.72461-0.6084,4.8418-1.82422,6.35059
		C305.91406,169.01563,304.22656,169.76953,302.06738,169.76953z M301.7041,154.70898c-1.69531,0-2.9209,0.46875-3.67871,1.40723
		c-0.75586,0.93848-1.14453,2.43164-1.16504,4.48047v0.55957c0,2.33203,0.38867,3.99902,1.16504,5.00293
		c0.77734,1.00488,2.02344,1.50684,3.73926,1.50684c1.43262,0,2.55566-0.58105,3.36816-1.74121
		c0.81152-1.16016,1.21875-2.75977,1.21875-4.79785c0-2.06934-0.40723-3.65625-1.21875-4.76074
		C304.32031,155.26074,303.17773,154.70898,301.7041,154.70898z"/>
	<path fill="#FFFFFF" d="M317.40723,169.4668h-2.5127v-23.55273h2.5127V169.4668z"/>
	<path fill="#FFFFFF" d="M334.4873,169.4668l-0.49902-2.36133h-0.12109c-0.82813,1.03906-1.65332,1.74316-2.47559,2.11133
		s-1.84863,0.55273-3.08008,0.55273c-1.64453,0-2.93457-0.42383-3.86719-1.27148c-0.93359-0.84766-1.40039-2.05371-1.40039-3.61719
		c0-3.35059,2.67871-5.10645,8.03809-5.26758l2.81445-0.0918v-1.0293c0-1.30078-0.2793-2.2627-0.83984-2.88281
		c-0.55957-0.62109-1.45508-0.93066-2.68652-0.93066c-1.38281,0-2.94629,0.42383-4.69238,1.27148l-0.77148-1.92285
		c0.81641-0.44336,1.71191-0.79199,2.68652-1.04395c0.97363-0.25195,1.9502-0.37891,2.92871-0.37891
		c1.97754,0,3.44336,0.43945,4.39746,1.31738c0.95313,0.87793,1.43066,2.28516,1.43066,4.22266v11.32227H334.4873z
		 M328.81055,167.69531c1.56445,0,2.79297-0.42871,3.68652-1.28613c0.89258-0.85742,1.33887-2.05859,1.33887-3.60254v-1.49805
		l-2.51172,0.10547c-1.99805,0.07031-3.43945,0.38086-4.32227,0.93066c-0.88281,0.55078-1.32422,1.40527-1.32422,2.56543
		c0,0.9082,0.27441,1.59961,0.8252,2.07422C327.05273,167.45898,327.82227,167.69531,328.81055,167.69531z"/>
	<path fill="#FFFFFF" d="M348.43555,167.69531c0.44434,0,0.87305-0.03223,1.28613-0.09766
		c0.41406-0.06543,0.74219-0.13379,0.98438-0.20508v1.92285c-0.27246,0.13086-0.67383,0.23926-1.20313,0.3252
		c-0.53027,0.08594-1.00684,0.12891-1.43066,0.12891c-3.20898,0-4.81348-1.69043-4.81348-5.07031v-9.86914h-2.37695v-1.21094
		l2.37695-1.04492l1.05957-3.54199h1.45313v3.84473h4.81348v1.95313h-4.81348v9.7627c0,0.99902,0.2373,1.76563,0.71191,2.30078
		C346.95703,167.42871,347.6084,167.69531,348.43555,167.69531z"/>
	<path fill="#FFFFFF" d="M363.04785,154.83008h-4.22363v14.63672h-2.51172v-14.63672h-2.9668v-1.13574l2.9668-0.9082v-0.92285
		c0-4.07715,1.78027-6.11523,5.34277-6.11523c0.87793,0,1.90723,0.17676,3.08789,0.5293l-0.65137,2.01367
		c-0.96875-0.3125-1.7959-0.46973-2.48242-0.46973c-0.94824,0-1.64941,0.31543-2.10352,0.94629s-0.68164,1.64258-0.68164,3.03516
		v1.07422h4.22363V154.83008z"/>
	<path fill="#FFFFFF" d="M381.94434,161.15625c0,2.70508-0.68066,4.81641-2.04395,6.33496
		c-1.36133,1.51953-3.24414,2.27832-5.64551,2.27832c-1.4834,0-2.7998-0.34766-3.9502-1.04492
		c-1.15039-0.69531-2.03906-1.69531-2.66406-2.99609c-0.62598-1.30273-0.93945-2.82617-0.93945-4.57227
		c0-2.70313,0.67676-4.81055,2.0293-6.31934c1.35156-1.50781,3.22852-2.2627,5.63086-2.2627
		c2.32031,0,4.16406,0.77246,5.53223,2.31641C381.26074,156.43457,381.94434,158.52344,381.94434,161.15625z M369.30469,161.15625
		c0,2.11914,0.42383,3.73438,1.27148,4.84375c0.84766,1.11035,2.09473,1.66602,3.73926,1.66602s2.89355-0.55273,3.74609-1.6582
		c0.85254-1.10449,1.2793-2.72168,1.2793-4.85156c0-2.1084-0.42676-3.70996-1.2793-4.80566
		c-0.85254-1.09473-2.11133-1.6416-3.77637-1.6416c-1.64453,0-2.88574,0.54004-3.72363,1.61914
		C369.72363,157.4082,369.30469,159.01758,369.30469,161.15625z"/>
	<path fill="#FFFFFF" d="M395.4668,152.57422c0.73633,0,1.39746,0.06055,1.98242,0.18164l-0.34766,2.33105
		c-0.68652-0.15137-1.29199-0.22656-1.81641-0.22656c-1.3418,0-2.49023,0.54492-3.44336,1.63477
		c-0.9541,1.08984-1.43066,2.44629-1.43066,4.07129v8.90039h-2.5127v-16.58984h2.07422l0.28711,3.07324h0.12109
		c0.61523-1.08008,1.35742-1.91211,2.22461-2.49805C393.47363,152.86719,394.42773,152.57422,395.4668,152.57422z"/>
	<path fill="#FFFFFF" d="M423.24902,169.4668v-10.79297c0-1.32129-0.2832-2.3125-0.84766-2.97363
		c-0.56543-0.66113-1.44336-0.99121-2.63477-0.99121c-1.56348,0-2.71875,0.44922-3.46582,1.34668
		c-0.74707,0.89844-1.12012,2.28027-1.12012,4.14746v9.26367h-2.5127v-10.79297c0-1.32129-0.28223-2.3125-0.84766-2.97363
		s-1.44824-0.99121-2.64941-0.99121c-1.57422,0-2.72656,0.47168-3.45801,1.41504c-0.73242,0.94336-1.09766,2.48926-1.09766,4.63965
		v8.70313h-2.5127v-16.58984h2.04297l0.40918,2.27051h0.12109c0.47461-0.80664,1.14258-1.4375,2.00586-1.8916
		c0.8623-0.4541,1.8291-0.68164,2.89844-0.68164c2.59375,0,4.28906,0.93848,5.08594,2.81543h0.12109
		c0.49414-0.86719,1.21094-1.55371,2.14941-2.05859c0.93848-0.50391,2.00781-0.75684,3.20898-0.75684
		c1.87695,0,3.28223,0.48242,4.21582,1.44531c0.93262,0.96387,1.39941,2.50586,1.39941,4.625v10.82227H423.24902z"/>
</g>
</svg>
