<?xml version="1.0" encoding="utf-8"?>
<!-- Generator: Adobe Illustrator 19.2.1, SVG Export Plug-In . SVG Version: 6.00 Build 0)  -->
<svg version="1.1" xmlns="http://www.w3.org/2000/svg" xmlns:xlink="http://www.w3.org/1999/xlink" x="0px" y="0px"
	 viewBox="0 0 67.56928 28.07559" enable-background="new 0 0 67.56928 28.07559" xml:space="preserve">
<g id="Calque_4">
</g>
<g id="Repères" display="none">
</g>
<g id="_x31_6_Col_Grid" display="none" opacity="0.1" enable-background="new    ">
</g>
<g id="Calque_3">
	<g>
		<polygon fill="#FFFFFF" points="6.29486,20.99532 1.26249,20.99532 1.26249,1.0592 6.29486,1.0592 6.29486,0.21849 
			1.26249,0.21849 0.42175,0.21849 0.42175,1.0592 0.42175,20.99532 0.42175,21.83605 1.26249,21.83605 6.29486,21.83605 		"/>
		<polygon fill="#FFFFFF" points="21.19858,0.21849 16.16914,0.21849 16.16914,1.0592 21.19858,1.0592 21.19858,20.99532 
			16.16914,20.99532 16.16914,21.83605 21.19858,21.83605 22.03931,21.83605 22.03931,20.99532 22.03931,1.0592 22.03931,0.21849 		
			"/>
	</g>
	<path fill="#FFFFFF" d="M11.17821,7.33643l3.25673,7.7564l-2.87745-1.45456l-0.37927-0.19173l-0.37929,0.19173l-2.87741,1.45455
		L11.17821,7.33643 M11.17821,5.16477L6.2619,16.8738l4.91632-2.48523l4.91634,2.48523L11.17821,5.16477L11.17821,5.16477z"/>
	<g>
		<path fill="#FFFFFF" d="M28.39343,1.90083v18.25439h-1.03122V1.90083H28.39343z M29.09254,14.08185h0.01143l3.52937-6.09622
			h1.20322l-3.50652,6.09622l3.97635,6.07337h-1.16879L29.09254,14.08185z"/>
		<path fill="#FFFFFF" d="M39.05116,20.3615c-1.6857,0-3.59823-2.23459-3.59823-6.29107c0-4.05663,1.81016-6.3025,3.59823-6.3025
			c1.78761,0,3.59807,2.24586,3.59807,6.3025C42.64923,18.12691,40.77006,20.3615,39.05116,20.3615z M39.05116,19.33012
			c1.40035,0,2.49815-2.00531,2.49815-5.2597s-1.10023-5.27128-2.49815-5.27128c-1.44682,0-2.49815,2.01689-2.49815,5.27128
			S37.71783,19.33012,39.05116,19.33012z"/>
		<path fill="#FFFFFF" d="M43.79593,20.15522L49.0442,8.94814h-4.48061V7.98563h6.05052l-5.25985,11.20708h5.08801v0.96251H43.79593
			z"/>
		<path fill="#FFFFFF" d="M58.47555,14.36841l-5.61497-0.01158l0.05728,0.56154c0.26356,2.79598,1.73033,4.41175,3.19711,4.41175
			c0.59597,0,1.16894-0.18327,1.61576-0.40097l0.34385,0.90523c-0.61882,0.29799-1.44392,0.52711-2.20016,0.52711
			c-2.22317,0-4.11391-2.77313-4.11391-6.65777c0-3.98777,1.99389-5.9358,3.88464-5.9358
			C57.9946,7.76793,59.02567,10.62119,58.47555,14.36841z M55.59929,8.79915c-1.53548,0-2.47514,1.51263-2.66999,3.96492
			l-0.0457,0.63025h4.62945l0.05728-0.81367C57.66203,10.18579,56.94007,8.79915,55.59929,8.79915z"/>
		<path fill="#FFFFFF" d="M59.96594,16.29344c0-2.10845,1.60434-3.89606,4.85873-4.05648l0.49268-0.023
			c-0.02285-2.53242-0.91666-3.41481-2.41786-3.41481c-0.56154,0-1.2605,0.28656-1.77619,0.52711l-0.35527-1.0428
			c0.79082-0.30941,1.74191-0.51553,2.38358-0.51553c1.90218,0,3.19711,1.2605,3.19711,3.63251v8.61722l-1.10008-0.51554
			l-0.25213,0.20612c-0.48126,0.3897-1.10008,0.61882-1.79904,0.61882C61.44414,20.32707,59.96594,18.71145,59.96594,16.29344z
			 M65.31734,18.41347v-5.14514h-0.5041c-2.0856,0-3.74722,0.76751-3.74722,3.28866c0,1.7189,1.00837,2.73885,2.37201,2.73885
			C64.22687,19.29585,64.8463,18.88452,65.31734,18.41347z"/>
	</g>
	<g>
		<path fill="#FFFFFF" d="M53.27295,22.97663v0.27539l-0.53174,0.06299c0.04883,0.06104,0.09229,0.14111,0.13086,0.23975
			s0.05762,0.20996,0.05762,0.33398c0,0.28174-0.09619,0.50635-0.28809,0.67383c-0.19238,0.16797-0.45654,0.25146-0.79199,0.25146
			c-0.08545,0-0.16602-0.00684-0.24121-0.02051c-0.18506,0.09766-0.27783,0.2207-0.27783,0.36914
			c0,0.0791,0.03223,0.13721,0.09717,0.17432c0.06445,0.0376,0.17578,0.05664,0.33301,0.05664h0.5083
			c0.31104,0,0.55029,0.06543,0.7168,0.19678c0.16699,0.13086,0.25049,0.32129,0.25049,0.57129
			c0,0.31787-0.12744,0.56055-0.38281,0.72754c-0.25488,0.1665-0.62744,0.25-1.1167,0.25
			c-0.37549,0-0.66504-0.06982-0.86865-0.20947c-0.20361-0.14014-0.30566-0.3374-0.30566-0.59229
			c0-0.1748,0.05615-0.32617,0.16797-0.45361s0.26904-0.21436,0.47168-0.25977c-0.07324-0.0332-0.13477-0.08447-0.18457-0.1543
			c-0.0498-0.07031-0.07471-0.15137-0.07471-0.24414c0-0.10449,0.02783-0.19629,0.08398-0.2749
			c0.05566-0.07861,0.14404-0.15479,0.26465-0.22803c-0.14844-0.06152-0.26953-0.16553-0.36328-0.31201
			c-0.09326-0.14697-0.14014-0.31445-0.14014-0.50342c0-0.31445,0.09424-0.55713,0.2832-0.72754
			c0.18848-0.17041,0.45605-0.25537,0.80225-0.25537c0.1499,0,0.28564,0.01758,0.40625,0.05225H53.27295z M50.98193,26.3321
			c0,0.15527,0.06592,0.27344,0.19678,0.354c0.13086,0.08008,0.31885,0.12012,0.56348,0.12012
			c0.36523,0,0.63574-0.0542,0.81152-0.16357c0.17529-0.10938,0.26318-0.25732,0.26318-0.44434
			c0-0.15576-0.04785-0.26367-0.14404-0.32373s-0.27686-0.09033-0.54248-0.09033H51.6084c-0.19727,0-0.35107,0.04688-0.46094,0.1416
			C51.03711,26.02008,50.98193,26.15534,50.98193,26.3321z M51.21777,23.89704c0,0.20068,0.05713,0.35303,0.17041,0.45605
			c0.11377,0.10303,0.27197,0.1543,0.47461,0.1543c0.4248,0,0.63721-0.20605,0.63721-0.61865
			c0-0.43164-0.21533-0.64746-0.64502-0.64746c-0.20459,0-0.36182,0.05518-0.47168,0.16553
			C51.27295,23.51667,51.21777,23.68024,51.21777,23.89704z"/>
		<path fill="#FFFFFF" d="M55.44189,22.92438c0.12744,0,0.24219,0.01025,0.34326,0.03125l-0.06006,0.40381
			c-0.11914-0.02637-0.22363-0.03955-0.31445-0.03955c-0.23242,0-0.43115,0.09473-0.59668,0.2832
			c-0.16504,0.18896-0.24756,0.42383-0.24756,0.70508v1.5415h-0.43506v-2.87305h0.35889l0.0498,0.53223h0.021
			c0.10693-0.18701,0.23535-0.33105,0.38525-0.43262C55.09668,22.97516,55.26172,22.92438,55.44189,22.92438z"/>
		<path fill="#FFFFFF" d="M59.07031,24.41071c0,0.46826-0.11768,0.83398-0.35352,1.09668
			c-0.23633,0.26318-0.56201,0.39453-0.97803,0.39453c-0.25684,0-0.48486-0.06006-0.68408-0.18066s-0.35303-0.29346-0.46143-0.51904
			s-0.1626-0.48926-0.1626-0.7915c0-0.46826,0.11719-0.8335,0.35156-1.09473c0.23389-0.26123,0.55908-0.3916,0.9751-0.3916
			c0.40186,0,0.72119,0.13379,0.95801,0.40088C58.95215,23.59284,59.07031,23.95465,59.07031,24.41071z M56.88184,24.41071
			c0,0.3667,0.07324,0.64648,0.22021,0.83887c0.14648,0.19189,0.3623,0.28809,0.64746,0.28809
			c0.28467,0,0.50098-0.0957,0.64844-0.28711c0.14795-0.19141,0.22168-0.47119,0.22168-0.83984
			c0-0.36523-0.07373-0.64258-0.22168-0.83252c-0.14746-0.18945-0.36572-0.28418-0.65381-0.28418
			c-0.28467,0-0.5,0.09326-0.64502,0.28027S56.88184,24.0401,56.88184,24.41071z"/>
		<path fill="#FFFFFF" d="M60.51074,22.97663v1.86377c0,0.23438,0.05322,0.40918,0.16016,0.52441
			c0.10645,0.11523,0.27344,0.17285,0.50049,0.17285c0.30078,0,0.52051-0.08203,0.65918-0.24609
			c0.13916-0.16455,0.2085-0.43262,0.2085-0.80518v-1.50977h0.43506v2.87305h-0.35889l-0.06299-0.38525h-0.02344
			c-0.08936,0.1416-0.21289,0.25-0.37109,0.3252c-0.1582,0.07471-0.33838,0.1123-0.5415,0.1123
			c-0.34912,0-0.61084-0.08301-0.78467-0.24902c-0.17432-0.16602-0.26123-0.43164-0.26123-0.79688v-1.87939H60.51074z"/>
		<path fill="#FFFFFF" d="M65.00244,25.90192c-0.18701,0-0.35791-0.03418-0.5127-0.10352
			c-0.15479-0.06885-0.28418-0.1748-0.38916-0.31836h-0.03125c0.021,0.16797,0.03125,0.32666,0.03125,0.47705v1.18213h-0.43506
			v-4.1626h0.354l0.06006,0.39307h0.021c0.11182-0.15723,0.24219-0.27051,0.39063-0.34033
			c0.14844-0.07031,0.31885-0.10498,0.51123-0.10498c0.38086,0,0.6748,0.12988,0.88184,0.39063
			c0.20703,0.26025,0.31055,0.62549,0.31055,1.0957c0,0.47168-0.10498,0.83838-0.31592,1.09961
			C65.66846,25.77155,65.37646,25.90192,65.00244,25.90192z M64.93945,23.29401c-0.29346,0-0.50586,0.08105-0.63721,0.24365
			c-0.13086,0.1626-0.19824,0.42139-0.20166,0.77588v0.09717c0,0.40332,0.06738,0.69238,0.20166,0.86621
			c0.13477,0.17383,0.35059,0.26074,0.64746,0.26074c0.24854,0,0.44287-0.10059,0.5835-0.30127
			c0.14063-0.20117,0.21094-0.47803,0.21094-0.83105c0-0.3584-0.07031-0.63281-0.21094-0.82422S65.19434,23.29401,64.93945,23.29401
			z"/>
	</g>
	<rect x="36.85324" y="23.85419" fill="#007BB8" width="1.71378" height="1.71378"/>
	<rect x="39.30505" y="23.85419" fill="#F79B2D" width="1.71378" height="1.71378"/>
	<rect x="41.7629" y="23.85419" fill="#E53D4D" width="1.71378" height="1.71378"/>
	<rect x="44.22012" y="23.85419" fill="#6D5E84" width="1.71378" height="1.71378"/>
	<rect x="46.67826" y="23.85419" fill="#51BFB7" width="1.71378" height="1.71378"/>
</g>
</svg>
