<?xml version="1.0" encoding="utf-8"?>
<!-- Generator: Adobe Illustrator 19.2.1, SVG Export Plug-In . SVG Version: 6.00 Build 0)  -->
<svg version="1.1" id="Calque_1" xmlns="http://www.w3.org/2000/svg" xmlns:xlink="http://www.w3.org/1999/xlink" x="0px" y="0px"
	 viewBox="0 0 438 185" enable-background="new 0 0 438 185" xml:space="preserve">
<g>
	<polygon fill="#FFFFFF" points="48.33047,141.88052 16.45881,141.88052 16.45881,15.61853 48.33047,15.61853 48.33047,10.29404 
		16.45881,10.29404 11.13418,10.29404 11.13418,15.61853 11.13418,141.88052 11.13418,147.20515 16.45881,147.20515 
		48.33047,147.20515 	"/>
	<polygon fill="#FFFFFF" points="142.72067,10.29404 110.86756,10.29404 110.86756,15.61853 142.72067,15.61853 
		142.72067,141.88052 110.86756,141.88052 110.86756,147.20515 142.72067,147.20515 148.0453,147.20515 148.0453,141.88052 
		148.0453,15.61853 148.0453,10.29404 	"/>
</g>
<path fill="#FFFFFF" d="M79.25841,55.37425l20.62592,49.12383l-18.22387-9.2122l-2.40205-1.21426l-2.40219,1.21426l-18.2236,9.21217
	L79.25841,55.37425 M79.25841,41.62043L48.12175,115.7776l31.13666-15.73979l31.13679,15.73979L79.25841,41.62043L79.25841,41.62043
	z"/>
<g>
	<path fill="#FFFFFF" d="M188.28806,20.94884v115.6111h-6.53107V20.94884H188.28806z M192.71574,98.09527h0.07236l22.35266-38.60939
		h7.62038l-22.20793,38.60939l25.18353,38.46467h-7.40233L192.71574,98.09527z"/>
	<path fill="#FFFFFF" d="M255.78696,137.86635c-10.67606,0-22.78877-14.1524-22.78877-39.84344
		c0-25.69199,11.46434-39.9158,22.78877-39.9158c11.32153,0,22.78781,14.2238,22.78781,39.9158
		C278.57477,123.71394,266.67334,137.86635,255.78696,137.86635z M255.78696,131.33432
		c8.8689,0,15.82159-12.70031,15.82159-33.31142s-6.96814-33.38474-15.82159-33.38474
		c-9.16318,0-15.82159,12.77364-15.82159,33.38474S247.34259,131.33432,255.78696,131.33432z"/>
	<path fill="#FFFFFF" d="M285.83719,136.55994l33.23904-70.97815h-28.3772v-6.09591h38.31995l-33.31238,70.97815h32.22403v6.09592
		H285.83719z"/>
	<path fill="#FFFFFF" d="M378.80811,99.91015l-35.56146-0.07333l0.36279,3.55643
		c1.66919,17.70787,10.95877,27.94106,20.24832,27.94106c3.77448,0,7.40329-1.16072,10.23318-2.53949l2.17767,5.73314
		c-3.91922,1.88724-9.14484,3.33838-13.93436,3.33838c-14.08005,0-26.05478-17.56315-26.05478-42.16583
		c0-25.25589,12.62793-37.59341,24.60269-37.59341C375.76205,58.10711,382.29218,76.17776,378.80811,99.91015z M360.59174,64.63817
		c-9.7247,0-15.6759,9.57999-16.90994,25.11116l-0.28946,3.99158h29.31985l0.36276-5.15326
		C373.65579,73.42022,369.08337,64.63817,360.59174,64.63817z"/>
	<path fill="#FFFFFF" d="M388.24722,112.10198c0-13.35351,10.1608-24.67505,30.77191-25.69103l3.12033-0.14569
		c-0.14474-16.03869-5.80551-21.62709-15.31311-21.62709c-3.55646,0-7.98318,1.81488-11.24918,3.33838l-2.25003-6.60439
		c5.00851-1.95961,11.03207-3.26505,15.09601-3.26505c12.04712,0,20.24832,7.98316,20.24832,23.00586v54.57571l-6.96716-3.26505
		l-1.59683,1.30545c-3.04794,2.46808-6.96716,3.9192-11.39389,3.9192C397.60913,137.64828,388.24722,127.41607,388.24722,112.10198z
		 M422.13947,125.52882V92.94298h-3.19269c-13.20877,0-23.73239,4.86091-23.73239,20.82819
		c0,10.88639,6.38632,17.34606,15.02271,17.34606C415.23306,131.11723,419.15616,128.51213,422.13947,125.52882z"/>
</g>
<g>
	<path fill="#FFFFFF" d="M353.82617,151.87695v1.58984l-3.07324,0.36328c0.28223,0.35352,0.53516,0.81445,0.75684,1.38477
		s0.33301,1.21387,0.33301,1.92969c0,1.625-0.55469,2.92188-1.66504,3.89063s-2.63379,1.45313-4.57129,1.45313
		c-0.49414,0-0.95898-0.04102-1.39258-0.12109c-1.06934,0.56445-1.60449,1.27637-1.60449,2.13379
		c0,0.4541,0.18652,0.79004,0.56055,1.00684c0.37305,0.2168,1.01367,0.3252,1.92188,0.3252h2.93652
		c1.7959,0,3.17578,0.37793,4.13965,1.13574c0.96387,0.75586,1.44531,1.85645,1.44531,3.29883
		c0,1.83691-0.73633,3.2373-2.20898,4.20117c-1.47363,0.96289-3.62305,1.44531-6.44922,1.44531
		c-2.16895,0-3.8418-0.40332-5.01758-1.21094s-1.76367-1.94727-1.76367-3.4209c0-1.00879,0.32324-1.88184,0.96875-2.61816
		c0.64648-0.7373,1.55469-1.23633,2.72461-1.49902c-0.42383-0.19141-0.7793-0.48926-1.06641-0.89355
		c-0.28809-0.40332-0.43164-0.87207-0.43164-1.40723c0-0.60547,0.16113-1.13574,0.48438-1.58887
		c0.32324-0.45508,0.83203-0.89355,1.5293-1.31738c-0.8584-0.35352-1.55762-0.9541-2.09668-1.80176
		c-0.54004-0.84766-0.80957-1.81641-0.80957-2.90625c0-1.81543,0.54492-3.21582,1.63477-4.2002
		c1.08984-0.9834,2.63281-1.47559,4.63086-1.47559c0.86816,0,1.65039,0.10156,2.34668,0.30273H353.82617z M340.5957,171.25195
		c0,0.89844,0.37891,1.5791,1.13574,2.04297c0.75684,0.46484,1.8418,0.69727,3.25488,0.69727
		c2.1084,0,3.66992-0.31641,4.68457-0.94629c1.01367-0.63086,1.52051-1.48633,1.52051-2.56543
		c0-0.89844-0.27734-1.52148-0.83203-1.87012c-0.55469-0.34766-1.59961-0.52246-3.13281-0.52246h-3.0127
		c-1.14063,0-2.02832,0.27344-2.66406,0.81836S340.5957,170.23242,340.5957,171.25195z M341.95898,157.18945
		c0,1.16113,0.32715,2.03906,0.9834,2.63477c0.65625,0.59473,1.56934,0.89258,2.73926,0.89258
		c2.45313,0,3.67871-1.19043,3.67871-3.57227c0-2.49219-1.24121-3.73828-3.72363-3.73828
		c-1.18066,0-2.08887,0.31738-2.72461,0.95313S341.95898,155.93945,341.95898,157.18945z"/>
	<path fill="#FFFFFF" d="M366.34961,151.57422c0.73633,0,1.39746,0.06055,1.98242,0.18164l-0.34766,2.33105
		c-0.68652-0.15137-1.29199-0.22656-1.81641-0.22656c-1.3418,0-2.49023,0.54492-3.44336,1.63477
		c-0.9541,1.08984-1.43066,2.44629-1.43066,4.07129v8.90039h-2.5127v-16.58984h2.07422l0.28711,3.07324h0.12109
		c0.61523-1.08008,1.35742-1.91211,2.22461-2.49805C364.35645,151.86719,365.31055,151.57422,366.34961,151.57422z"/>
	<path fill="#FFFFFF" d="M387.30469,160.15625c0,2.70508-0.68066,4.81641-2.04395,6.33496
		c-1.36133,1.51953-3.24414,2.27832-5.64551,2.27832c-1.4834,0-2.7998-0.34766-3.9502-1.04492
		c-1.15039-0.69531-2.03906-1.69531-2.66406-2.99609c-0.62598-1.30273-0.93945-2.82617-0.93945-4.57227
		c0-2.70313,0.67676-4.81055,2.0293-6.31934c1.35156-1.50781,3.22852-2.2627,5.63086-2.2627
		c2.32031,0,4.16406,0.77246,5.53223,2.31641C386.62109,155.43457,387.30469,157.52344,387.30469,160.15625z M374.66504,160.15625
		c0,2.11914,0.42383,3.73438,1.27148,4.84375c0.84766,1.11035,2.09473,1.66602,3.73926,1.66602s2.89355-0.55273,3.74609-1.6582
		c0.85254-1.10449,1.2793-2.72168,1.2793-4.85156c0-2.1084-0.42676-3.70996-1.2793-4.80566
		c-0.85254-1.09473-2.11133-1.6416-3.77637-1.6416c-1.64453,0-2.88574,0.54004-3.72363,1.61914
		C375.08398,156.4082,374.66504,158.01758,374.66504,160.15625z"/>
	<path fill="#FFFFFF" d="M395.62207,151.87695v10.76172c0,1.35254,0.30762,2.36133,0.92383,3.02734
		c0.61523,0.66602,1.5791,1,2.89063,1c1.73535,0,3.00488-0.47461,3.80664-1.42383c0.80273-0.94824,1.20313-2.49707,1.20313-4.64648
		v-8.71875h2.51367v16.58984h-2.07422l-0.36328-2.22461h-0.13672c-0.51367,0.81641-1.22852,1.44238-2.1416,1.87695
		c-0.91309,0.43359-1.95508,0.65039-3.12598,0.65039c-2.01758,0-3.5293-0.47949-4.5332-1.4375
		c-1.00391-0.95898-1.50586-2.49316-1.50586-4.60156v-10.85352H395.62207z"/>
	<path fill="#FFFFFF" d="M421.55762,168.76953c-1.08008,0-2.06641-0.19922-2.95898-0.59766
		c-0.89355-0.39844-1.64258-1.01172-2.24805-1.83984h-0.18164c0.12109,0.96875,0.18164,1.8877,0.18164,2.75586v6.82617h-2.5127
		v-24.03711h2.04297l0.34863,2.27051h0.12109c0.64551-0.9082,1.39746-1.56348,2.25488-1.96777
		c0.8584-0.40332,1.8418-0.60547,2.95215-0.60547c2.2002,0,3.89746,0.75195,5.09375,2.25586
		c1.19531,1.50391,1.79395,3.6123,1.79395,6.32617c0,2.72461-0.6084,4.8418-1.82422,6.35059
		C425.4043,168.01563,423.7168,168.76953,421.55762,168.76953z M421.19434,153.70898c-1.69531,0-2.9209,0.46875-3.67871,1.40723
		c-0.75586,0.93848-1.14453,2.43164-1.16504,4.48047v0.55957c0,2.33203,0.38867,3.99902,1.16504,5.00293
		c0.77734,1.00488,2.02344,1.50684,3.73926,1.50684c1.43262,0,2.55566-0.58105,3.36816-1.74121
		c0.81152-1.16016,1.21875-2.75977,1.21875-4.79785c0-2.06934-0.40723-3.65625-1.21875-4.76074
		C423.81055,154.26074,422.66797,153.70898,421.19434,153.70898z"/>
</g>
<rect x="254.70018" y="154.96228" fill="#007BB8" width="10.85392" height="10.85392"/>
<rect x="270.22827" y="154.96228" fill="#F79B2D" width="10.85392" height="10.85392"/>
<rect x="285.79465" y="154.96228" fill="#E53D4D" width="10.85392" height="10.85392"/>
<rect x="301.35706" y="154.96228" fill="#6D5E84" width="10.85392" height="10.85392"/>
<rect x="316.92526" y="154.96228" fill="#51BFB7" width="10.85392" height="10.85392"/>
</svg>
