<?xml version="1.0" encoding="utf-8"?>
<!-- Generator: Adobe Illustrator 19.2.1, SVG Export Plug-In . SVG Version: 6.00 Build 0)  -->
<svg version="1.1" id="Calque_1" xmlns="http://www.w3.org/2000/svg" xmlns:xlink="http://www.w3.org/1999/xlink" x="0px" y="0px"
	 viewBox="0 0 54.9 70.3" style="enable-background:new 0 0 54.9 70.3;" xml:space="preserve">
<style type="text/css">
	.st0{fill:#191919;}
	.st1{fill:#FF4C0E;}
</style>
<g>
	<path class="st0" d="M2.4,55.9v4c0.5-0.8,1.2-1.2,2.2-1.2s1.7,0.3,2.3,1c0.6,0.7,0.9,1.6,0.9,2.6c0,1.1-0.3,2-0.8,2.7
		c-0.6,0.7-1.3,1.1-2.3,1.1c-1,0-1.7-0.4-2.2-1.2V66H1.1V55.9H2.4z M2.4,62.4c0,0.8,0.2,1.5,0.6,1.9c0.4,0.4,0.8,0.6,1.4,0.6
		s1-0.2,1.4-0.7c0.4-0.5,0.5-1.1,0.5-1.8c0-0.8-0.2-1.4-0.5-1.8c-0.4-0.4-0.8-0.7-1.3-0.7c-0.5,0-1,0.2-1.4,0.6
		C2.6,60.9,2.4,61.5,2.4,62.4z"/>
	<path class="st0" d="M12.4,58.7c1.9,0,2.8,0.9,2.8,2.8v4.6h-1.4v-0.9c-0.4,0.6-1,0.9-2,0.9c-0.7,0-1.2-0.2-1.7-0.6
		c-0.4-0.4-0.6-0.9-0.6-1.6c0-0.7,0.3-1.2,0.8-1.6s1.3-0.6,2.2-0.6h1.2v-0.4c0-0.5-0.1-0.9-0.4-1.1c-0.2-0.3-0.6-0.4-1.2-0.4
		c-0.8,0-1.5,0.2-2.1,0.6V59C10.7,58.8,11.4,58.7,12.4,58.7z M13.8,62.8h-1.1c-0.5,0-0.9,0.1-1.2,0.3c-0.3,0.2-0.4,0.5-0.4,0.8
		c0,0.3,0.1,0.6,0.3,0.8c0.2,0.2,0.5,0.3,1,0.3c0.4,0,0.8-0.1,1-0.4c0.3-0.3,0.4-0.6,0.4-1C13.8,63.6,13.8,62.8,13.8,62.8z"/>
	<path class="st0" d="M21.3,65c0.6,0,1.1-0.2,1.6-0.5v1.3c-0.5,0.3-1.1,0.4-1.8,0.4c-1.1,0-2-0.4-2.7-1.1s-1-1.6-1-2.7s0.3-2,1-2.7
		s1.6-1.1,2.8-1.1c0.6,0,1.2,0.1,1.7,0.4v1.3c-0.5-0.3-1-0.4-1.7-0.4s-1.2,0.2-1.7,0.7s-0.7,1.1-0.7,1.8c0,0.7,0.2,1.3,0.7,1.8
		C19.9,64.7,20.6,65,21.3,65z"/>
	<path class="st0" d="M25.3,66V56h1.4v10H25.3z M28.3,62.2l2.8,3.8h-1.7l-2.7-3.8l2.7-3.5H31L28.3,62.2z"/>
	<path class="st0" d="M36.2,57c-0.7,0-1,0.4-1,1.2v0.5h1.5v1.1h-1.5V66h-1.5v-6.2h-1.2v-1.1h1.2v-0.6c0-0.8,0.2-1.3,0.6-1.8
		c0.4-0.4,1-0.7,1.7-0.7c0.3,0,0.5,0,0.8,0.1v1.2C36.6,57,36.4,57,36.2,57z"/>
	<path class="st0" d="M38.7,66V55.9h1.4V66H38.7z"/>
	<path class="st0" d="M43,57.2c-0.2-0.2-0.2-0.4-0.2-0.6c0-0.2,0.1-0.5,0.2-0.6c0.2-0.2,0.4-0.3,0.6-0.3c0.2,0,0.5,0.1,0.6,0.3
		c0.2,0.2,0.3,0.4,0.3,0.6c0,0.2-0.1,0.4-0.3,0.6c-0.2,0.2-0.4,0.3-0.6,0.3C43.3,57.4,43.1,57.4,43,57.2z M42.9,66v-7.3h1.4V66H42.9
		z"/>
	<path class="st0" d="M48.5,58.8v1.1c0.5-0.8,1.2-1.2,2.2-1.2s1.7,0.3,2.3,1c0.6,0.7,0.8,1.6,0.8,2.7s-0.3,2-0.9,2.7
		s-1.3,1.1-2.3,1.1s-1.7-0.4-2.2-1.2v3.9H47v-10L48.5,58.8L48.5,58.8z M48.5,62.4c0,0.8,0.2,1.5,0.6,1.9c0.4,0.4,0.9,0.6,1.4,0.6
		s1-0.2,1.3-0.7c0.4-0.4,0.5-1.1,0.5-1.8s-0.2-1.4-0.5-1.8c-0.4-0.4-0.8-0.7-1.3-0.7s-1,0.2-1.4,0.6C48.7,60.9,48.5,61.5,48.5,62.4z
		"/>
</g>
<g>
	<path class="st1" d="M20.5,38.4c1.5,1.5,3.5,2.3,5.6,2.3s4.1-0.8,5.6-2.3c1.5-1.5,2.3-3.5,2.3-5.6s-0.8-4.1-2.3-5.6
		c-1.5-1.5-3.5-2.3-5.6-2.3s-4.1,0.8-5.6,2.3c-1.5,1.5-2.3,3.5-2.3,5.6C18.1,34.9,19,36.9,20.5,38.4z M20.3,32.8
		c0-1.5,0.6-3,1.7-4.1s2.6-1.7,4.1-1.7s3,0.6,4.1,1.7c1.1,1.1,1.7,2.5,1.7,4.1c0,1.6-0.6,3-1.7,4.1c-1.1,1.1-2.5,1.7-4.1,1.7
		s-3-0.6-4.1-1.7C20.9,35.8,20.3,34.4,20.3,32.8z"/>
	<path class="st1" d="M30.6,18L30.6,18l-0.1,2.2l0,0c5.2,1.9,8.6,6.8,8.6,12.3c0,7.2-5.9,13.1-13.1,13.1s-13-5.8-13.1-13v-0.1h-2.1
		v0.1c0.1,8.3,6.9,15.1,15.2,15.1c8.4,0,15.2-6.8,15.2-15.2C41.3,25.9,36.9,20,30.6,18z"/>
	<polygon class="st1" points="17.9,16.6 17.9,16.6 19.4,18.1 33.8,3.6 33.9,3.5 13.2,3.5 13.2,5.6 28.8,5.6 	"/>
</g>
</svg>
