<?xml version="1.0" encoding="utf-8"?>
<!-- Generator: Adobe Illustrator 19.2.1, SVG Export Plug-In . SVG Version: 6.00 Build 0)  -->
<svg version="1.1" xmlns="http://www.w3.org/2000/svg" xmlns:xlink="http://www.w3.org/1999/xlink" x="0px" y="0px"
	 viewBox="0 0 122 121.03125" enable-background="new 0 0 122 121.03125" xml:space="preserve">
<g id="Calque_4">
</g>
<g id="Repères" display="none">
</g>
<g id="_x31_6_Col_Grid" display="none" opacity="0.1" enable-background="new    ">
</g>
<g id="Calque_3">
	<polygon fill="#FFFFFF" points="33,117 5,117 5,5 33,5 33,0 5.05412,0 0,0 0,4.59579 0,116.51116 0,121 5.05412,121 33,121 	"/>
	<polygon fill="#FFFFFF" points="116.96855,0 89,0 89,5 117,5 117,117 89,117 89,121 116.96855,121 122,121 122,116.51179 
		122,4.59641 122,0 	"/>
	<path fill="#FFFFFF" d="M60.71685,27.64414l-27.5999,65.72858l27.5999-13.95122l27.59987,13.95122L60.71685,27.64414z
		 M60.71685,39.83371l18.28121,43.54278l-16.15089-8.16524l-2.13032-1.07779l-2.13035,1.07779l-16.15403,8.16524L60.71685,39.83371z
		"/>
</g>
</svg>
