<?xml version="1.0" encoding="utf-8"?>
<!-- Generator: Adobe Illustrator 21.1.0, SVG Export Plug-In . SVG Version: 6.00 Build 0)  -->
<svg version="1.1" xmlns="http://www.w3.org/2000/svg" xmlns:xlink="http://www.w3.org/1999/xlink" x="0px" y="0px"
	 viewBox="0 0 96 50" enable-background="new 0 0 96 50" xml:space="preserve">
<g id="Calque_4">
</g>
<g id="Repères" display="none">
</g>
<g id="Calque_3">
</g>
<g id="footer">
</g>
<g id="community">
</g>
<g id="media">
</g>
<g id="link">
</g>
<g id="platform">
	<path fill="#E84847" d="M55.24981,2.32956l-3.43425,6.30945c-0.53244-1.49084-1.35773-2.71546-2.47586-3.67386l0,0
		c-2.07653-1.75706-5.32442-2.63559-9.71708-2.63559H29.10687v29.04475h5.777h1.97004l0,0v-7.05487l0,0v-0.58569h2.82195
		c0.77204,0,1.51746-0.02662,2.23626-0.10649l3.03492,5.48416h5.13807l5.08483-8.94504l-0.05325,0.15973l2.18301-3.88683v14.96164
		h8.67882V2.32956H55.24981z M36.88054,16.78538V9.22469h2.66221c1.83693,0,3.16803,0.29284,3.99332,0.85191
		c0.7188,0.50582,1.09151,1.38435,1.09151,2.71546c0,1.35773-0.29285,2.39599-0.90515,3.06155
		c-0.55907,0.63893-1.78368,0.9584-3.54074,0.9584h-3.30115V16.78538z M36.88054,22.08319v-3.64723h3.30114
		c2.31612,0,3.86021-0.50582,4.76536-1.51746c0.87853-0.98502,1.30448-2.36937,1.30448-4.15306
		c0-1.86355-0.61231-3.22128-1.78368-4.04657c-1.09151-0.77204-2.71545-1.14475-4.92509-1.14475h-4.31279v10.86183l0,0v3.67385l0,0
		v7.64055h-0.34609h-4.12643V3.95351h8.86517c3.99332,0,6.89513,0.77204,8.67881,2.26288
		c1.73044,1.46422,2.60897,3.78034,2.60897,6.92176s-0.87853,5.37767-2.66221,6.78864
		c-1.81031,1.4376-4.6855,2.18301-8.5457,2.18301h-2.82195V22.08319z M49.15334,27.46086h-3.2479l-2.28951-4.04656
		c2.34275-0.37271,4.23292-1.11813,5.61727-2.23626c2.15639-1.73044,3.27452-4.4459,3.27452-8.06651
		c0-0.74542-0.05324-1.4376-0.13311-2.10315l3.83359-7.08149h6.28283l-3.64723,6.4958L49.15334,27.46086z M64.38121,29.75036
		h-5.4043V13.53748l5.4043-9.55735V29.75036z"/>
	<g>
		<path fill="#1F2A4D" d="M9.19351,42.82183c0,1.75706-1.09151,2.7687-3.0083,2.7687H4.50802v2.23626H3.0438v-7.64055h3.14141
			C8.07538,40.21286,9.19351,41.14463,9.19351,42.82183z M7.80916,42.87508c0-0.93178-0.61231-1.38435-1.70382-1.38435H4.50802
			v2.82195h1.59733C7.17023,44.31267,7.80916,43.83347,7.80916,42.87508z"/>
		<path fill="#1F2A4D" d="M15.98216,47.82679l-1.33111-2.26288c-0.07987,0-0.18636,0-0.26622,0h-1.73044v2.23626h-1.46422v-7.64055
			h3.19466c1.97004,0,3.08817,0.9584,3.08817,2.63559c0,1.19799-0.53244,2.0499-1.51746,2.47586l1.67719,2.5291h-1.65057V47.82679z
			 M12.68101,44.31267h1.73044c1.09151,0,1.70382-0.4792,1.70382-1.43759c0-0.93177-0.61231-1.38435-1.70382-1.38435h-1.73044
			V44.31267z"/>
		<path fill="#1F2A4D" d="M27.42968,44.01983c0,2.18301-1.75706,3.88683-4.07319,3.88683c-2.2895,0-4.07319-1.6772-4.07319-3.88683
			c0-2.20964,1.75706-3.86021,4.07319-3.86021S27.42968,41.83681,27.42968,44.01983z M20.80077,44.01983
			c0,1.43759,1.198,2.58234,2.58235,2.58234c1.38435,0,2.55573-1.14475,2.55573-2.58234c0-1.4376-1.14475-2.55573-2.55573-2.55573
			C21.97214,41.4641,20.80077,42.58223,20.80077,44.01983z"/>
		<path fill="#1F2A4D" d="M31.23664,40.21286l2.39599,4.89847l2.39599-4.89847h1.6772v7.64055h-1.33111v-5.45754l-2.26288,4.65887
			h-0.9584l-2.26288-4.65887v5.45754h-1.35773v-7.64055H31.23664z"/>
		<path fill="#1F2A4D" d="M47.92873,44.01983c0,2.18301-1.75706,3.88683-4.07319,3.88683c-2.28951,0-4.07319-1.6772-4.07319-3.88683
			c0-2.20964,1.75706-3.86021,4.07319-3.86021C46.14504,40.15962,47.92873,41.83681,47.92873,44.01983z M41.27319,44.01983
			c0,1.43759,1.198,2.58234,2.58235,2.58234s2.55573-1.14475,2.55573-2.58234c0-1.4376-1.14475-2.55573-2.55573-2.55573
			C42.47119,41.4641,41.27319,42.58223,41.27319,44.01983z"/>
		<path fill="#1F2A4D" d="M51.70907,40.21286l2.39599,4.89847l2.39599-4.89847h1.6772v7.64055h-1.33111v-5.45754l-2.26288,4.65887
			h-0.9584l-2.26288-4.65887v5.45754h-1.35773v-7.64055H51.70907z"/>
		<path fill="#1F2A4D" d="M65.84543,46.22947h-3.7271l-0.66555,1.62395h-1.51746l3.35439-7.64055h1.51746l3.30114,7.64055h-1.5707
			L65.84543,46.22947z M65.31298,44.97823l-1.3311-3.19466l-1.35773,3.19466H65.31298z"/>
		<path fill="#1F2A4D" d="M74.89696,47.82679l-2.36937-3.27452L71.30296,45.91v1.91679h-1.46422v-7.64055h1.46422v3.7271
			l3.46088-3.7271h1.70382l-2.92844,3.2479l3.11479,4.39265H74.89696z"/>
		<path fill="#1F2A4D" d="M84.13483,40.21286v1.27787H80.0084v1.89017h3.70048v1.27786H80.0084v1.91679h4.25954v1.27786h-5.72376
			v-7.64055L84.13483,40.21286L84.13483,40.21286z"/>
		<path fill="#1F2A4D" d="M91.34943,47.82679l-1.33111-2.26288c-0.07986,0-0.18636,0-0.26622,0h-1.73044v2.23626h-1.46422v-7.64055
			h3.19466c1.97003,0,3.08817,0.9584,3.08817,2.63559c0,1.19799-0.53244,2.0499-1.51746,2.47586L93,47.80017h-1.65057V47.82679z
			 M88.02167,44.31267h1.73044c1.09151,0,1.70381-0.4792,1.70381-1.43759c0-0.93177-0.6123-1.38435-1.70381-1.38435h-1.73044
			V44.31267z"/>
	</g>
</g>
<g id="intro">
</g>
<g id="menu">
</g>
</svg>
