<?xml version="1.0" encoding="utf-8"?>
<!-- Generator: Adobe Illustrator 19.2.1, SVG Export Plug-In . SVG Version: 6.00 Build 0)  -->
<svg version="1.1" id="Calque_1" xmlns="http://www.w3.org/2000/svg" xmlns:xlink="http://www.w3.org/1999/xlink" x="0px" y="0px"
	 viewBox="0 0 438 185" enable-background="new 0 0 438 185" xml:space="preserve">
<g>
	<polygon fill="#FFFFFF" points="47.99714,138.5472 16.12548,138.5472 16.12548,12.2852 47.99714,12.2852 47.99714,6.9607 
		16.12548,6.9607 10.80085,6.9607 10.80085,12.2852 10.80085,138.5472 10.80085,143.87183 16.12548,143.87183 47.99714,143.87183 	
		"/>
	<polygon fill="#FFFFFF" points="142.38734,6.9607 110.53423,6.9607 110.53423,12.2852 142.38734,12.2852 142.38734,138.5472 
		110.53423,138.5472 110.53423,143.87183 142.38734,143.87183 147.71198,143.87183 147.71198,138.5472 147.71198,12.2852 
		147.71198,6.9607 	"/>
</g>
<path fill="#FFFFFF" d="M78.92507,52.04092l20.62592,49.12383l-18.22387-9.21221l-2.40205-1.21426l-2.40219,1.21426
	l-18.2236,9.21217L78.92507,52.04092 M78.92507,38.2871l-31.13665,74.15718l31.13665-15.73979l31.13679,15.73979L78.92507,38.2871
	L78.92507,38.2871z"/>
<g>
	<path fill="#FFFFFF" d="M187.95471,17.61551v115.6111h-6.53105V17.61551H187.95471z M192.3824,94.76194h0.07237l22.35266-38.6094
		h7.62038l-22.20793,38.6094l25.18352,38.46467h-7.40231L192.3824,94.76194z"/>
	<path fill="#FFFFFF" d="M255.45361,134.533c-10.67604,0-22.78876-14.1524-22.78876-39.84343
		c0-25.692,11.46432-39.91581,22.78876-39.91581c11.32153,0,22.78781,14.2238,22.78781,39.91581
		C278.24142,120.38061,266.34003,134.533,255.45361,134.533z M255.45361,128.00098c8.8689,0,15.82159-12.7003,15.82159-33.3114
		s-6.96814-33.38474-15.82159-33.38474c-9.16316,0-15.82158,12.77364-15.82158,33.38474S247.00926,128.00098,255.45361,128.00098z"
		/>
	<path fill="#FFFFFF" d="M285.50385,133.22661l33.23904-70.97815h-28.37717v-6.09591h38.31995l-33.31238,70.97815h32.22403v6.09592
		H285.50385z"/>
	<path fill="#FFFFFF" d="M378.47476,96.57682l-35.56143-0.07333l0.36276,3.55643
		c1.66919,17.70788,10.95877,27.94106,20.24832,27.94106c3.77451,0,7.40329-1.16071,10.23318-2.53947l2.17767,5.73314
		c-3.91922,1.88724-9.14484,3.33836-13.93436,3.33836c-14.08002,0-26.05478-17.56314-26.05478-42.16582
		c0-25.25588,12.62796-37.59341,24.60269-37.59341C375.42874,54.77377,381.95883,72.84443,378.47476,96.57682z M360.25842,61.30483
		c-9.72473,0-15.6759,9.57999-16.90994,25.11116l-0.28946,3.99158h29.31982l0.36279-5.15325
		C373.32248,70.08689,368.75006,61.30483,360.25842,61.30483z"/>
	<path fill="#FFFFFF" d="M387.91388,108.76865c0-13.35351,10.16083-24.67504,30.77191-25.69103l3.12033-0.14569
		c-0.14471-16.03868-5.80548-21.62709-15.31311-21.62709c-3.55643,0-7.98315,1.81488-11.24918,3.33838l-2.25003-6.60439
		c5.00854-1.95961,11.03207-3.26505,15.09604-3.26505c12.04709,0,20.24832,7.98316,20.24832,23.00586v54.57571l-6.96719-3.26505
		l-1.5968,1.30544c-3.04797,2.46809-6.96719,3.91922-11.39392,3.91922C397.27582,134.31496,387.91388,124.08273,387.91388,108.76865
		z M421.80612,122.19549V89.60964h-3.19269c-13.20877,0-23.73239,4.86091-23.73239,20.82819
		c0,10.88639,6.38635,17.34605,15.02271,17.34605C414.89975,127.78389,418.82281,125.1788,421.80612,122.19549z"/>
</g>
<g>
	<path fill="#FFFFFF" d="M346.99609,154.49512v1.74316l-3.37012,0.39844c0.30957,0.3877,0.58691,0.89453,0.83008,1.51953
		s0.36523,1.33105,0.36523,2.11621c0,1.78223-0.6084,3.2041-1.82617,4.2666s-2.88867,1.59375-5.01367,1.59375
		c-0.54199,0-1.05176-0.04395-1.52734-0.13281c-1.17285,0.62012-1.75977,1.40039-1.75977,2.34082
		c0,0.49805,0.20508,0.86621,0.61426,1.10352c0.40918,0.23828,1.1123,0.35742,2.1084,0.35742h3.2207
		c1.96973,0,3.4834,0.41504,4.54102,1.24512c1.05664,0.83008,1.58496,2.03613,1.58496,3.61914
		c0,2.01465-0.80762,3.5498-2.42383,4.60645c-1.61621,1.05762-3.97363,1.58594-7.07227,1.58594
		c-2.37988,0-4.21387-0.44238-5.50293-1.32813c-1.29004-0.88574-1.93457-2.13574-1.93457-3.75195
		c0-1.10645,0.35449-2.06445,1.0625-2.87207s1.7041-1.35547,2.98828-1.64355c-0.46484-0.20996-0.85449-0.53711-1.1709-0.97949
		c-0.31445-0.44238-0.47266-0.95703-0.47266-1.54395c0-0.66406,0.17676-1.24512,0.53125-1.74316s0.91309-0.97949,1.67676-1.44434
		c-0.94043-0.3877-1.70703-1.0459-2.2998-1.97559c-0.5918-0.92969-0.8877-1.99219-0.8877-3.1875
		c0-1.99219,0.59766-3.52734,1.79297-4.60645s2.88867-1.61914,5.08008-1.61914c0.95215,0,1.80957,0.11133,2.57324,0.33203H346.99609
		z M332.48633,175.74512c0,0.98535,0.41504,1.73242,1.24512,2.24121s2.01953,0.76367,3.56934,0.76367
		c2.31348,0,4.02637-0.3457,5.1377-1.03809c1.11328-0.69141,1.66895-1.62891,1.66895-2.81348
		c0-0.98535-0.30469-1.66895-0.91309-2.0498c-0.6084-0.38281-1.75391-0.57324-3.43652-0.57324h-3.30371
		c-1.25098,0-2.22461,0.29883-2.92188,0.89648S332.48633,174.62695,332.48633,175.74512z M333.98047,160.32227
		c0,1.27246,0.35938,2.23535,1.0791,2.88867s1.7207,0.97949,3.00488,0.97949c2.68945,0,4.03418-1.30566,4.03418-3.91797
		c0-2.7334-1.36133-4.10059-4.08398-4.10059c-1.29492,0-2.29102,0.34863-2.98828,1.0459S333.98047,158.9502,333.98047,160.32227z"/>
	<path fill="#FFFFFF" d="M360.73242,154.16309c0.80762,0,1.5332,0.06641,2.1748,0.19922l-0.38184,2.55664
		c-0.75293-0.16602-1.41699-0.24902-1.99219-0.24902c-1.47168,0-2.73047,0.59766-3.77734,1.79297
		c-1.04492,1.19531-1.56836,2.68359-1.56836,4.46582v9.76172h-2.75586v-18.19531h2.27441l0.31543,3.37012h0.13281
		c0.6748-1.18359,1.48828-2.09668,2.44043-2.73926C358.54688,154.48438,359.59277,154.16309,360.73242,154.16309z"/>
	<path fill="#FFFFFF" d="M383.71582,163.57617c0,2.96582-0.74707,5.28223-2.24121,6.94824
		c-1.49414,1.66504-3.55859,2.49805-6.19238,2.49805c-1.62695,0-3.07129-0.38184-4.33301-1.14551s-2.23535-1.85938-2.92188-3.28711
		s-1.0293-3.09863-1.0293-5.01367c0-2.96582,0.74121-5.27637,2.22461-6.93066s3.54199-2.48242,6.17578-2.48242
		c2.5459,0,4.56836,0.84668,6.06738,2.54004C382.96582,158.39648,383.71582,160.6875,383.71582,163.57617z M369.85352,163.57617
		c0,2.32422,0.46484,4.09473,1.39453,5.3125s2.29688,1.82617,4.10059,1.82617s3.17383-0.60645,4.10938-1.81738
		c0.93457-1.21289,1.40234-2.98633,1.40234-5.32129c0-2.31348-0.46777-4.06934-1.40234-5.27051
		c-0.93555-1.20117-2.31641-1.80176-4.14258-1.80176c-1.80371,0-3.16504,0.59277-4.08398,1.77637
		C370.3125,159.46484,369.85352,161.22949,369.85352,163.57617z"/>
	<path fill="#FFFFFF" d="M392.83594,154.49512v11.80371c0,1.4834,0.33789,2.58984,1.0127,3.32031s1.73242,1.0957,3.1709,1.0957
		c1.90332,0,3.29492-0.52051,4.17578-1.56055c0.87891-1.04004,1.31934-2.73926,1.31934-5.09668v-9.5625h2.75586v18.19531h-2.27441
		l-0.39844-2.44043h-0.14941c-0.56445,0.89648-1.34766,1.58301-2.34863,2.05859c-1.00195,0.47559-2.14453,0.71387-3.42871,0.71387
		c-2.21387,0-3.87109-0.52539-4.97168-1.57715c-1.10156-1.05176-1.65234-2.7334-1.65234-5.04688v-11.90332H392.83594z"/>
	<path fill="#FFFFFF" d="M421.28125,173.02246c-1.18457,0-2.26563-0.21875-3.24609-0.65625
		c-0.97852-0.43652-1.80078-1.10938-2.46484-2.0166h-0.19922c0.13281,1.0625,0.19922,2.06934,0.19922,3.02148v7.4873h-2.75586
		v-26.36328h2.24121l0.38184,2.49023h0.13281c0.70801-0.99609,1.5332-1.71484,2.47363-2.1582
		c0.94043-0.44238,2.01953-0.66406,3.2373-0.66406c2.41309,0,4.27539,0.8252,5.58594,2.47363
		c1.3125,1.64941,1.96777,3.96191,1.96777,6.93945c0,2.98828-0.66699,5.30957-2.00098,6.96387
		C425.50098,172.19531,423.64941,173.02246,421.28125,173.02246z M420.88281,156.50391c-1.85938,0-3.2041,0.51465-4.03418,1.54395
		s-1.25586,2.66699-1.27832,4.91406v0.61426c0,2.55664,0.42578,4.38574,1.27832,5.4873
		c0.85254,1.10059,2.21875,1.65137,4.10059,1.65137c1.57129,0,2.80273-0.63672,3.69336-1.90918
		c0.8916-1.27246,1.33691-3.02734,1.33691-5.2627c0-2.26855-0.44531-4.00879-1.33691-5.2207
		C423.75195,157.11035,422.49902,156.50391,420.88281,156.50391z"/>
</g>
<rect x="238.81996" y="154.90337" fill="#007BB8" width="10.85392" height="10.85392"/>
<rect x="254.34807" y="154.90337" fill="#F79B2D" width="10.85392" height="10.85392"/>
<rect x="269.91443" y="154.90337" fill="#E53D4D" width="10.85392" height="10.85392"/>
<rect x="285.47687" y="154.90337" fill="#6D5E84" width="10.85392" height="10.85392"/>
<rect x="301.04504" y="154.83701" fill="#51BFB7" width="10.85392" height="10.85392"/>
</svg>
