<?xml version="1.0" encoding="utf-8"?>
<!-- Generator: Adobe Illustrator 19.2.1, SVG Export Plug-In . SVG Version: 6.00 Build 0)  -->
<svg version="1.1" id="Calque_1" xmlns="http://www.w3.org/2000/svg" xmlns:xlink="http://www.w3.org/1999/xlink" x="0px" y="0px"
	 viewBox="0 0 1464 288" enable-background="new 0 0 1464 288" xml:space="preserve">
<path fill="#E8443A" d="M265.72864,119.88086c-0.01355-0.08131-0.02859-0.16261-0.04535-0.24353l-0.37057-1.8135
	c-1.82684-8.95834-3.716-18.22155-8.84146-28.58574c-7.64825-15.46555-18.72459-29.58396-32.92111-41.96264
	c-20.18279-17.59823-42.89499-24.91094-58.39421-27.94624c-16.40561-3.21371-28.30664-2.46994-29.33046-2.39654
	C65.46379,21.21949,14.0104,72.79427,10.69026,142.36589c-1.5901,33.31898,12.70437,60.69159,13.74041,62.62628
	c15.82237,30.80275,42.61137,53.67397,75.43914,64.4044c13.23481,4.32596,26.82701,6.47256,40.35616,6.47256
	c17.83951,0,35.56807-3.73596,52.22173-11.12659c2.79919,1.86395,6.13976,2.9523,9.72704,2.9523
	c9.82744,0,17.82257-8.13965,17.82257-18.14438s-7.99513-18.14439-17.82257-18.14439c-9.82726,0-17.82237,8.13966-17.82237,18.14439
	c0,1.44481,0.17163,2.84879,0.48659,4.19687c-55.50385,23.15164-120.78158-0.22792-148.77768-54.79414
	c-0.02202-0.04253-0.04442-0.08543-0.06738-0.12759c-0.13682-0.25256-13.65619-25.6118-12.21382-55.83488
	C26.77094,80.32116,73.18903,33.86204,136.66089,30.01071c0.0322-0.00188,0.06456-0.00414,0.09674-0.00677
	c0.43268-0.03199,43.6922-2.92275,78.18008,27.14902c12.88702,11.23668,22.90849,23.98613,29.78665,37.8945
	c4.3717,8.83939,6.01169,16.88119,7.74783,25.39499l0.34515,1.68816c0.23601,1.51916,2.93932,19.96053-1.80371,36.81461
	c-5.24156,18.62431-22.28687,41.00847-53.07492,42.79939c-18.50725,1.08026-32.6059-2.61411-41.90242-10.97058
	c-6.94731-6.24429-11.09592-15.11267-12.37755-26.38831c8.04848-0.86705,14.59879-3.38686,19.5173-7.53441
	c5.3526-4.51418,7.22069-9.72733,7.9238-11.68988c0.04742-0.13249,0.08714-0.24617,0.12271-0.33763
	c0.32239-0.82056,1.30328-3.31834,4.35382-32.54208l3.03209-32.67797c0.11745-1.06258,0.47803-5.70811-1.43182-10.90282
	c-1.51595-4.12347-4.66078-9.19415-11.16441-12.55823c0.00208-2.86177-2.11443-5.35054-5.02806-5.73089l-6.97969-0.91108
	c-0.25388-0.03312-0.50616-0.04931-0.75552-0.04931c-2.86008,0-5.34546,2.12158-5.72562,5.03379l-1.06165,8.13308
	c-0.19846,1.52047,0.21521,3.0575,1.15001,4.2729c0.93478,1.21559,2.3141,2.0098,3.83458,2.20834l6.97978,0.91108
	c0.24945,0.03256,0.49957,0.04855,0.74838,0.04855c1.0446,0,2.06841-0.28738,2.96547-0.82394
	c1.15103,0.99577,2.01242,2.20025,2.59575,3.62417c1.10417,2.6954,0.85143,5.2681,0.8486,5.2937l0.01016-0.08168l-0.02805,0.24956
	l-3.02815,32.63957c-1.30817,12.52962-3.00027,26.76509-3.61456,29.33891c-0.04932,0.13249-0.10257,0.28004-0.16054,0.44153
	c-0.96312,2.68787-3.89415,10.86781-21.63908,10.8855c-17.74493-0.01768-20.67615-8.19763-21.63927-10.8855
	c-0.05797-0.16148-0.11122-0.30904-0.16053-0.44189c-0.61429-2.57458-2.30659-16.81119-3.61495-29.34118l-3.02777-32.63694
	l-0.02804-0.24956l0.01016,0.08168c-0.00263-0.0256-0.25539-2.5983,0.84879-5.2937c0.84972-2.07434,2.28973-3.68251,4.35693-4.8582
	c0.18651,0.20364,0.38299,0.39899,0.59933,0.57571c1.03689,0.84727,2.33067,1.30441,3.65777,1.30441
	c0.19271,0,0.38599-0.0096,0.57956-0.02917l7.00359-0.70538c1.52564-0.15357,2.92774-0.90713,3.89791-2.09448
	c0.97008-1.18755,1.42882-2.71159,1.27515-4.23733l-0.82196-8.16074c-0.30019-2.97997-2.81313-5.20261-5.74548-5.20261
	c-0.19385,0-0.38929,0.00978-0.58633,0.02955l-7.0035,0.70537c-2.53468,0.25539-4.51662,2.11311-5.05374,4.46656
	c-8.87797,3.18454-12.83855,9.25587-14.6002,14.04783c-1.90854,5.19094-1.54984,9.83347-1.43221,10.90056l3.02494,32.60532
	l0.00734,0.07491c3.05054,29.22374,4.03144,31.72153,4.35345,32.54134c0.03595,0.09221,0.07566,0.20589,0.12309,0.33838
	c0.70312,1.96255,2.57119,7.1757,7.9238,11.68988c4.89565,4.12817,11.40823,6.6429,19.40495,7.52142
	c1.41866,15.24309,7.05873,27.39273,16.79895,36.14781c11.9938,10.78049,29.29544,15.59277,51.42403,14.30698
	c37.6698-2.19139,58.51974-29.56061,64.92853-52.33209C269.33813,142.20593,265.87863,120.78309,265.72864,119.88086z
	 M202.17473,244.51085c2.6015,0,4.7178,2.26067,4.7178,5.03963s-2.1163,5.03963-4.7178,5.03963
	c-2.6013,0-4.71762-2.26067-4.71762-5.03963S199.57343,244.51085,202.17473,244.51085z M137.12604,160.42616l-0.00395,0.00018
	l0.00197-2.24748L137.12604,160.42616z"/>
<g>
	<path fill="#3F3F3F" d="M315.74557,52.04873h18.21606l59.61621,120.33643l59.34009-120.33643H471.686v193.20068h-23.18408
		l0.82813-138.82861l-49.4043,99.36035H386.1257l-48.02417-97.42822l0.82813,136.89648h-23.18408V52.04873z"/>
	<path fill="#3F3F3F" d="M562.48853,248.00967c-34.50024,0-56.02835-21.25195-56.02835-56.85645V155.8251
		c0-35.60449,21.52811-56.85645,56.02835-56.85645c34.77612,0,56.02808,21.25195,56.02808,56.85645v24.28809h-89.97632v8.28027
		c0,26.49609,12.42017,39.74414,34.22412,39.74414c17.94019,0,32.29224-5.7959,43.33228-13.24805l9.38403,15.73145
		C603.88867,239.7294,585.67261,248.00967,562.48853,248.00967z M596.43652,162.44913v-3.86426
		c0-25.94385-11.86792-39.46777-33.948-39.46777c-21.8042,0-33.94824,13.24805-33.94824,39.46777v3.86426H596.43652z"/>
	<path fill="#3F3F3F" d="M745.19995,231.72549c-9.93604,9.38379-24.01221,16.28418-40.84814,16.28418
		c-33.396,0-50.78418-21.25195-50.78418-56.85645v-37.25977c0-35.05273,16.56006-54.9248,49.12817-54.9248
		c13.24805,0,26.21997,2.20801,39.46802,8.00391V38.24893h22.08008v207.00049h-17.11182L745.19995,231.72549z M742.16382,127.121
		c-12.14404-5.7959-24.56396-8.00391-36.70801-8.00391c-21.52808,0-30.08398,13.24805-30.08398,38.36426v30.63574
		c0,26.22021,9.10791,39.74414,30.91211,39.74414c16.56006,0,28.15186-6.62402,35.87988-17.93994V127.121z"/>
	<path fill="#3F3F3F" d="M847.3186,228.68936c21.8042,0,32.29199-11.31641,32.29199-23.18408
		c0-13.80029-9.65991-19.59619-30.91211-23.18408c-25.66797-4.13965-49.68018-8.83203-49.68018-43.05615
		c0-22.90771,15.73218-40.29639,49.68018-40.29639c22.08008,0,36.70825,7.17627,50.5083,17.1123l-9.10791,15.45605
		c-11.86816-7.45215-24.01221-13.24805-41.12427-13.24805c-20.69995,0-27.87622,9.1084-27.87622,20.97607
		c0,17.66406,13.52417,20.14795,33.12012,23.18408c24.84033,3.86426,46.92041,9.93604,47.19629,42.50391
		c0.27588,23.18457-19.04395,43.05664-53.54419,43.05664c-23.18408,0-41.67603-8.28027-53.54419-17.1123l9.10791-15.73242
		C814.47437,222.6171,829.37866,228.68936,847.3186,228.68936z"/>
	<path fill="#3F3F3F" d="M942.81274,76.33682c-9.10791,0-15.73193-5.52002-15.73193-15.17969
		c0-9.66016,6.62402-15.45605,15.73193-15.45605c9.38428,0,16.0083,5.7959,16.0083,15.45605
		C958.82104,70.8168,952.19702,76.33682,942.81274,76.33682z M954.40503,101.72891v143.52051h-22.08008V101.72891H954.40503z"/>
	<path fill="#3F3F3F" d="M993.04077,120.77335h-15.73193v-19.04443h16.28418l5.52002-27.32373h16.00781v27.32373h44.43628v19.04443
		h-44.43628v76.72754c-0.27588,23.46045,3.86426,32.29248,23.73633,32.29248c5.52002,0,15.73193-0.82764,20.97607-2.20801
		l3.58789,17.66406c-6.34814,1.65576-18.76807,3.86377-25.94409,3.86377c-32.56812,0-44.43628-13.52344-44.43628-48.85156V120.77335
		z"/>
	<path fill="#3F3F3F" d="M1138.4895,248.00967c-34.50024,0-56.02832-21.25195-56.02832-56.85645V155.8251
		c0-35.60449,21.52808-56.85645,56.02832-56.85645c34.77588,0,56.02808,21.25195,56.02808,56.85645v24.28809h-89.97632v8.28027
		c0,26.49609,12.41992,39.74414,34.22412,39.74414c17.93994,0,32.29199-5.7959,43.33203-13.24805l9.38428,15.73145
		C1179.8894,239.7294,1161.67358,248.00967,1138.4895,248.00967z M1172.4375,162.44913v-3.86426
		c0-25.94385-11.86792-39.46777-33.948-39.46777c-21.8042,0-33.94824,13.24805-33.94824,39.46777v3.86426H1172.4375z"/>
	<path fill="#3F3F3F" d="M1237.02075,248.00967c-9.38428,0-15.73218-5.52051-15.73218-15.45605
		c0-9.38428,6.3479-15.18066,15.73218-15.18066c9.38379,0,16.00781,5.79639,16.00781,15.18066
		C1253.02856,242.48917,1246.40454,248.00967,1237.02075,248.00967z"/>
	<path fill="#3F3F3F" d="M1282.55786,120.77335h-17.1123v-19.04443h17.1123V85.99698c0-33.39649,17.93994-49.4043,49.95605-49.4043
		c8.00391,0,16.00781,1.37988,22.08008,3.31201l-3.58789,17.66406c-4.96826-1.104-11.59229-1.65576-16.83643-1.65576
		c-20.42383,0-29.53174,9.93555-29.53174,30.08399v15.73193h43.88379v19.04443h-43.88379l0.27588,124.47607h-22.08008
		L1282.55786,120.77335z"/>
	<path fill="#3F3F3F" d="M1377.77563,101.72891h18.76807l2.48389,17.93994c10.76416-13.24805,25.94434-20.7002,41.95215-20.7002
		l1.65625,20.7002c-17.66406,0-32.84424,9.38379-42.78027,23.18457v102.396h-22.08008V101.72891z"/>
</g>
</svg>
