<svg id="Calque_1" data-name="Calque 1" xmlns="http://www.w3.org/2000/svg" viewBox="0 0 50 50"><defs><style>.cls-1{fill:#ff960b;}</style></defs><path class="cls-1" d="M29.55,11.44c-4.85,0-10,1.6-10,4.56v3.64a.91.91,0,0,0,1.82,0v-.95c1.93,1.22,5.12,1.86,8.19,1.86s6.27-.64,8.2-1.86v.95c0,.89-2.24,2.31-6.45,2.66a.92.92,0,0,0-.83,1,.9.9,0,0,0,.9.83h.08a14.7,14.7,0,0,0,6.3-1.81v1c0,.78-1.65,1.9-4.71,2.44a.91.91,0,0,0,.15,1.81l.16,0A12,12,0,0,0,37.75,26v1c0,.77-1.65,1.89-4.71,2.43a.91.91,0,0,0,.15,1.81.41.41,0,0,0,.16,0,12.18,12.18,0,0,0,4.4-1.53v.95c0,.78-1.65,1.89-4.71,2.44a.91.91,0,0,0,.15,1.8h.16a12.17,12.17,0,0,0,4.4-1.54v1c0,.89-2.24,2.31-6.45,2.66a.92.92,0,0,0-.83,1,.9.9,0,0,0,.9.83h.08c4-.34,8.12-1.85,8.12-4.48V16C39.57,13,34.41,11.44,29.55,11.44Zm0,7.29c-5,0-8.19-1.62-8.19-2.73s3.19-2.73,8.19-2.73,8.2,1.61,8.2,2.73S34.56,18.73,29.55,18.73Z"/><path class="cls-1" d="M20.45,22.37c-4.86,0-10,1.6-10,4.56v7.28c0,3,5.16,4.55,10,4.55s10-1.59,10-4.55V26.93C30.46,24,25.3,22.37,20.45,22.37Zm8.19,11.84c0,1.11-3.19,2.73-8.19,2.73s-8.2-1.62-8.2-2.73v-1c1.93,1.22,5.12,1.86,8.2,1.86s6.26-.64,8.19-1.86Zm0-3.64c0,1.11-3.19,2.73-8.19,2.73s-8.2-1.62-8.2-2.73v-.95c1.93,1.22,5.12,1.86,8.2,1.86s6.26-.64,8.19-1.86Zm-8.19-.91c-5,0-8.2-1.62-8.2-2.73s3.19-2.74,8.2-2.74,8.19,1.62,8.19,2.74S25.45,29.66,20.45,29.66Z"/></svg>