<svg id="Calque_1" data-name="Calque 1" xmlns="http://www.w3.org/2000/svg" viewBox="0 0 50 50"><defs><style>.cls-1{fill:#ff960b;}.cls-2{fill:#000e51;}</style></defs><polygon class="cls-1" points="5.72 13.75 8.61 13.75 13.75 15.12 15.01 17.77 11.34 28.2 6.64 28.2 5.72 13.75"/><polygon class="cls-1" points="43.48 15.37 40.58 15.37 35.44 16.74 34.19 19.39 37.86 29.81 42.55 29.81 43.48 15.37"/><path class="cls-2" d="M36.17,29.48c-.76-1.58-3.47-3.77-6.08-5.89-1.46-1.18-2.84-2.29-3.72-3.17a.8.8,0,0,0-.84-.19c-.54.19-.88.35-1.14.46a2.75,2.75,0,0,1-1.08.3.8.8,0,0,0-.59.35c-1.13,1.7-2.31,1.55-3.09,1.29-.25-.08-.3-.19-.32-.29-.17-.71.67-2.35,1.77-3.45,2.61-2.61,4-3.26,6.8-2,3.23,1.44,6.46,2.57,6.5,2.58a.8.8,0,0,0,1-.49.82.82,0,0,0-.49-1s-3.21-1.12-6.37-2.53c-3.68-1.65-5.7-.57-8.59,2.32-1.1,1.1-2.59,3.33-2.21,5a2,2,0,0,0,1.38,1.45,4,4,0,0,0,4.72-1.62,4.09,4.09,0,0,0,1.21-.38l.56-.24c.92.86,2.16,1.86,3.47,2.92,2.36,1.91,5,4.08,5.64,5.33a.94.94,0,0,1-.24,1.21.88.88,0,0,1-1,.19.81.81,0,0,0-.87,0,.79.79,0,0,0-.38.78,1,1,0,0,1-.62.9,1.22,1.22,0,0,1-1.25,0,.81.81,0,0,0-.84-.16.8.8,0,0,0-.51.67A1.52,1.52,0,0,1,28.07,35a.83.83,0,0,1-.92-.14.82.82,0,0,0-1.3.32c0,.08-.1.27-.85.27a4.63,4.63,0,0,1-2-.67c-.56-.37-4.1-3-7.15-5.57-.43-.36-1.18-1.13-1.83-1.82S12.94,26.22,12.66,26a.81.81,0,0,0-1,1.23c.25.21.74.72,1.27,1.27.71.75,1.45,1.53,1.95,2,3,2.5,6.59,5.21,7.31,5.68a6.12,6.12,0,0,0,2.85.93,2.73,2.73,0,0,0,1.82-.54,2.51,2.51,0,0,0,1.83,0A3.2,3.2,0,0,0,30.32,35a3.09,3.09,0,0,0,2-.29,2.72,2.72,0,0,0,1.34-1.4,2.66,2.66,0,0,0,1.85-.66A2.56,2.56,0,0,0,36.17,29.48Z"/><path class="cls-2" d="M21.79,16.16H14.56a.81.81,0,1,0,0,1.61h7.23a.81.81,0,0,0,0-1.61Z"/><path class="cls-2" d="M38.52,27.77a.8.8,0,0,0-1.11-.22l-2.35,1.57a.81.81,0,0,0-.22,1.12.82.82,0,0,0,.67.36.79.79,0,0,0,.44-.14l2.35-1.58A.8.8,0,0,0,38.52,27.77Z"/><path class="cls-2" d="M33.53,31.6c-.57-.45-3.14-3.09-4.73-4.75A.81.81,0,0,0,27.64,28c.41.43,4.05,4.22,4.9,4.89A.75.75,0,0,0,33,33a.8.8,0,0,0,.5-1.43Z"/><path class="cls-2" d="M30.32,33.21c-1-.77-3.38-3.34-3.92-3.93a.81.81,0,0,0-1.19,1.09s2.92,3.14,4.11,4.1a.86.86,0,0,0,.5.17.8.8,0,0,0,.5-1.43Z"/><path class="cls-2" d="M27.13,34.83c-1.15-1-3.49-3.46-3.95-3.95a.81.81,0,0,0-1.14,0A.82.82,0,0,0,22,32c.66.7,2.91,3.08,4.09,4.08a.78.78,0,0,0,.52.19.79.79,0,0,0,.61-.29A.81.81,0,0,0,27.13,34.83Z"/><path class="cls-2" d="M15.11,14.78C13.73,13.47,8.22,13.05,6.57,13a.78.78,0,0,0-.6.22.79.79,0,0,0-.25.58V28.21a.8.8,0,0,0,.8.81h4.82a.8.8,0,0,0,.76-.56c.12-.36,2.89-8.85,3.26-13A.78.78,0,0,0,15.11,14.78ZM10.75,27.41H7.32V14.61a24.82,24.82,0,0,1,6.39,1.14A84.58,84.58,0,0,1,10.75,27.41Z"/><path class="cls-2" d="M43.48,14.55c-6.31,0-9.81,1.62-10,1.69a.81.81,0,0,0-.42.5.78.78,0,0,0,.08.65c1,1.6,4.11,10.48,4.7,12.64a.81.81,0,0,0,.78.59h4.82a.8.8,0,0,0,.8-.8V15.36A.8.8,0,0,0,43.48,14.55ZM42.68,29H39.26c-.76-2.48-3-8.95-4.27-11.63a26.44,26.44,0,0,1,7.69-1.22Z"/></svg>