<svg id="Calque_1" data-name="Calque 1" xmlns="http://www.w3.org/2000/svg" viewBox="0 0 50 50"><defs><style>.cls-1{fill:#ff960b;}</style></defs><path class="cls-1" d="M38.79,28.26a.73.73,0,0,0-1-.2l-7.89,5.39L28.13,31.1a.73.73,0,0,0-.82-.25.72.72,0,0,0-.46.92l1.43,4.32a1.46,1.46,0,0,0,.27.46,1.28,1.28,0,0,0,1.82.09l.1-.08,8.2-7.35a.7.7,0,0,0,.12-.95Z"/><path class="cls-1" d="M25.56,34.05h-13V14.47H31.61v15a.73.73,0,0,0,1.45,0V13.75a.73.73,0,0,0-.73-.73H11.8a.73.73,0,0,0-.72.73v21a.72.72,0,0,0,.72.72H25.56a.73.73,0,0,0,0-1.45Z"/><path class="cls-1" d="M27.91,17.57H16.22a.72.72,0,0,0,0,1.44H27.91a.72.72,0,1,0,0-1.44Z"/><path class="cls-1" d="M27.91,20.69H16.22a.72.72,0,0,0,0,1.44H27.91a.72.72,0,0,0,0-1.44Z"/><path class="cls-1" d="M27.91,23.81H16.22a.72.72,0,0,0-.72.72.73.73,0,0,0,.72.73H27.91a.73.73,0,0,0,.72-.73A.72.72,0,0,0,27.91,23.81Z"/><path class="cls-1" d="M28.63,27.67a.73.73,0,0,0-.72-.73H16.22a.73.73,0,0,0,0,1.45H27.91A.72.72,0,0,0,28.63,27.67Z"/><path class="cls-1" d="M16.22,29.91a.72.72,0,0,0,0,1.44h5.85a.72.72,0,1,0,0-1.44Z"/></svg>