<svg id="Calque_1" data-name="Calque 1" xmlns="http://www.w3.org/2000/svg" viewBox="0 0 50 50"><defs><style>.cls-1{fill:#ff960b;}</style></defs><path class="cls-1" d="M11.64,24.09h3.7c.23.23.45.48.68.73l.4.44c.43.49.87,1,1.33,1.42.21.25.43.47.68.72l.37.36a2.08,2.08,0,0,0,.54.41,3.55,3.55,0,0,0,1.22.4l.49.06a3.5,3.5,0,0,1,.45.07,1.48,1.48,0,0,1,.56.17l.24.15.13.13a.47.47,0,0,0,.09.1l.18-.17-.13.24a4.67,4.67,0,0,1,.55.84l.07.13h1.95l-.35-.65a6.79,6.79,0,0,0-.91-1.46,1.3,1.3,0,0,1-.15-.18l-.05-.07-.07,0-.12-.13a2.75,2.75,0,0,0-.45-.35L23,27.38a3.18,3.18,0,0,0-1.2-.41c-.34,0-.63-.09-.89-.11h-.07a1.69,1.69,0,0,1-.61-.18,1.73,1.73,0,0,1-.2-.15l-.3-.34c-.21-.21-.43-.45-.64-.7L18.62,25c-.3-.32-.6-.65-.89-.94l0,0h2.37a.84.84,0,0,0,.84-.83.86.86,0,0,0-.84-.84H11.64a.85.85,0,0,0-.84.84A.88.88,0,0,0,11.64,24.09Z"/><path class="cls-1" d="M17.9,27.81l-.5-.51-.64-.66-.07-.07H9a.85.85,0,0,0-.83.83.84.84,0,0,0,.83.84h9.36Z"/><path class="cls-1" d="M41.87,33.24a4,4,0,0,0-.51-1.4l0-.09a2.29,2.29,0,0,0-.44-.53l-.13-.14L40.47,31a2,2,0,0,0-.35-.14A10.48,10.48,0,0,0,39,30.56a4.25,4.25,0,0,1-.53-.07l-.38,0c-.85-.11-1.55-.17-2.12-.23l-.56-.05h-.16c0-.1,0-.17-.06-.25l0-.1a11.21,11.21,0,0,0-.53-1.51c-.22-.52-.46-1.11-.74-1.75-.11-.29-.26-.62-.42-1a1.92,1.92,0,0,1-.08-.37.85.85,0,0,1,0-.23c0-.09,0-.19,0-.26a20.17,20.17,0,0,1-.06-2.44c0-.4,0-.81.06-1.28l0-.35a2.72,2.72,0,0,1,0-.31l.09-.48v-.19a1.07,1.07,0,0,0-.12-.48,1.71,1.71,0,0,0-.57-.65,1.66,1.66,0,0,0-.65-.25,2.58,2.58,0,0,0-1.17,0,1.4,1.4,0,0,1-.25.1l-.59.31-.33.18a3.9,3.9,0,0,0-.35.19c-.44.2-.89.41-1.32.56l-.08,0a2.26,2.26,0,0,1-.53.09h-.08s0,0-.2,0a1.12,1.12,0,0,1-.35-.06,5.85,5.85,0,0,1-1.41-.44l-.33-.15a2.59,2.59,0,0,0-.39-.24,2,2,0,0,1-.5-.38,3.56,3.56,0,0,1-.73-1.23.75.75,0,0,1,0-.16.83.83,0,0,1,0-.13v-.25c0-.22.05-.47.07-.72l0-.17a6,6,0,0,0,0-1,1.33,1.33,0,0,0,0-.37l0-.09a.81.81,0,0,0,0-.11l0-.09,0,0,0,0a.42.42,0,0,0-.07-.13,1.58,1.58,0,0,0-.53-.56,2.68,2.68,0,0,0-1.3-.47,2.35,2.35,0,0,0-.65,0,1.07,1.07,0,0,0-.41.09l-.28.11-.22.1h0l-.33.16a4.62,4.62,0,0,0-.43.28l-.66.47-.16.13c-.24.2-.5.4-.75.59l-.75.61-.75.59-.75.6c-.13.09-.25.19-.38.3l-.37.29-.37.31-.4.31a4.39,4.39,0,0,0-.82.91,2.59,2.59,0,0,0-.4,1.36A2.94,2.94,0,0,0,13,21.53a3.19,3.19,0,0,0,.2.33l.08.11h2.35L15,21.31a4.59,4.59,0,0,1-.46-.6,1,1,0,0,1-.15-.49.85.85,0,0,1,.15-.46,2,2,0,0,1,.48-.53,2.83,2.83,0,0,1,.31-.26l.41-.32.37-.29c.14-.11.27-.21.39-.32l.75-.59.76-.6c.49-.4,1-.8,1.48-1.18a6.14,6.14,0,0,1,.72-.54L20.4,15a.61.61,0,0,0,.16-.11h0l.08.08L21,14.8l.06,0,.09,0h.07a.93.93,0,0,1,.24,0,.6.6,0,0,1,.34.11.36.36,0,0,0,.09.08l0,.12a3,3,0,0,1,0,.73c0,.28-.06.59-.09,1l0,.63a3.16,3.16,0,0,0,.13.55A5,5,0,0,0,23,19.75a4.7,4.7,0,0,0,.89.69l.19.1.18.09a1.53,1.53,0,0,0,.44.24,8.85,8.85,0,0,0,1.86.58,1.88,1.88,0,0,1,.31,0H27a3.18,3.18,0,0,0,.62,0,4.35,4.35,0,0,0,1-.19,8,8,0,0,0,1.62-.67l.7-.36.19-.1.15-.09.19-.08a.83.83,0,0,1,.22,0l0,.16c0,.13,0,.26,0,.38s0,.24,0,.42c0,.44-.06.9-.06,1.35A19.89,19.89,0,0,0,31.6,25c0,.16.06.34.08.52v.09a2.21,2.21,0,0,0,.21.74c.15.34.3.67.42,1l.52,1.27.19.44c.06.19.13.38.2.55s.21.58.29.83a.22.22,0,0,1,0,.08v.06l0,.05a2.37,2.37,0,0,1-.39.39,2.58,2.58,0,0,0-.21.18.76.76,0,0,0-.14.87.75.75,0,0,0,1,.34,1.18,1.18,0,0,0,.25-.13,3.19,3.19,0,0,0,.53-.38l.46,0,.72.07c.56,0,1.26.11,2.08.23.27,0,.54.06.83.12l.14,0c.23,0,.47.1.72.18l.11,0a1.22,1.22,0,0,1,.2.25,2,2,0,0,1,.27.78.53.53,0,0,1,0,.28L40,34l0,0a.48.48,0,0,0-.15.11l-.06,0-.12.08-.23.12-.26.14a7.9,7.9,0,0,1-2.41.71,13.69,13.69,0,0,1-2.88.06,17.14,17.14,0,0,1-3.09-.39,9.26,9.26,0,0,1-2.92-1.07l-.1-.06a3.34,3.34,0,0,1-.51-.37L27,33.18l-.27-.33c-.08-.09-.17-.2-.25-.31l-.11-.16h1.14a.85.85,0,0,0,.83-.83.83.83,0,0,0-.83-.83H15.69a.85.85,0,0,0-.83.83.83.83,0,0,0,.83.83h8.64l0,0a9,9,0,0,0,.54.83l.26.34a2.43,2.43,0,0,0,.21.29l.06.07,0,.06.36.37.2.18.18.17a8.88,8.88,0,0,0,.84.61,11.24,11.24,0,0,0,3.45,1.29,22,22,0,0,0,3.36.43c.42,0,.83,0,1.26,0h.41c.51,0,1-.06,1.54-.12a9.28,9.28,0,0,0,3-.86l.73-.42a2.22,2.22,0,0,0,.29-.22,1.1,1.1,0,0,0,.14-.11l.21-.21h0l.07-.06.07-.12.05-.09,0-.09h0a1.2,1.2,0,0,0,.2-.52l-.25-.06.25.06a2.87,2.87,0,0,0,0-.41,2.49,2.49,0,0,1,.07-.51v-.09Z"/></svg>