<svg id="Calque_1" data-name="Calque 1" xmlns="http://www.w3.org/2000/svg" viewBox="0 0 50 50"><defs><style>.cls-1{fill:#ff960b;}.cls-2{fill:#000e51;}</style></defs><rect class="cls-1" x="14.38" y="23.35" width="7.85" height="10.35"/><path class="cls-2" d="M37.54,9.9H12.46a3.85,3.85,0,0,0-3.84,3.84V36.26a3.85,3.85,0,0,0,3.84,3.84H37.54a3.85,3.85,0,0,0,3.84-3.84V13.74A3.85,3.85,0,0,0,37.54,9.9ZM12.46,12.46H37.54a1.29,1.29,0,0,1,1.28,1.28v3.84H11.18V13.74A1.29,1.29,0,0,1,12.46,12.46ZM37.54,37.54H12.46a1.29,1.29,0,0,1-1.28-1.28V20.14H38.82V36.26A1.29,1.29,0,0,1,37.54,37.54ZM13.1,15a1.28,1.28,0,1,1,1.28,1.28A1.28,1.28,0,0,1,13.1,15Zm4.48,0a1.28,1.28,0,1,1,1.28,1.28A1.28,1.28,0,0,1,17.58,15ZM13.74,35h10V22.7h-10Zm2.56-9.72h4.86v7.16H16.3Zm10,2.3h10v2.56h-10Zm0,4.86h10V35h-10Zm0-9.72h10v2.56h-10Z"/></svg>