<svg id="Calque_1" data-name="Calque 1" xmlns="http://www.w3.org/2000/svg" viewBox="0 0 50 50"><defs><style>.cls-1{fill:#ff960b;}.cls-2{fill:#000e51;}</style></defs><polygon class="cls-1" points="13.98 22.84 25 27.31 25 42.37 13.98 37.78 13.41 33.55 15.18 31.68 15.18 28.84 13.41 27.2 13.98 22.84"/><polygon class="cls-1" points="35.91 23.54 24.89 28.01 24.89 43.07 35.91 38.48 36.48 34.25 34.72 32.38 34.72 29.54 36.48 27.89 35.91 23.54"/><path class="cls-2" d="M40.28,30.26a3.55,3.55,0,0,0-2.84-3.48V22.94a1.06,1.06,0,0,0-1.44-1l-2,.76a12.44,12.44,0,0,0-4.74-3.07,7.11,7.11,0,1,0-8.44,0A12.44,12.44,0,0,0,16,22.7l-2-.76a1.06,1.06,0,0,0-1.44,1v3.84a3.55,3.55,0,0,0,0,7v4.12a1.06,1.06,0,0,0,.7,1l11.37,4.27a1,1,0,0,0,.74,0l11.37-4.27a1.06,1.06,0,0,0,.7-1V33.74A3.55,3.55,0,0,0,40.28,30.26ZM20,13.91a5,5,0,1,1,5,5A5,5,0,0,1,20,13.91ZM25,21a10.24,10.24,0,0,1,6.74,2.52L25,26.06l-6.74-2.52A10.24,10.24,0,0,1,25,21ZM11.85,30.26a1.43,1.43,0,0,1,1.42-1.42H14v2.84h-.71A1.43,1.43,0,0,1,11.85,30.26Zm2.85,3.52A1.79,1.79,0,0,0,16.12,32V28.48a1.78,1.78,0,0,0-1.42-1.74V24.48l9.23,3.46V40.59L14.7,37.12Zm11.37,6.81V27.94l9.23-3.46v2.26a1.78,1.78,0,0,0-1.42,1.74V32a1.79,1.79,0,0,0,1.42,1.74v3.34Zm10.66-8.91H36V28.84h.71a1.42,1.42,0,0,1,0,2.84Z"/></svg>