<svg id="Calque_1" data-name="Calque 1" xmlns="http://www.w3.org/2000/svg" viewBox="0 0 50 50"><defs><style>.cls-1{fill:#ff960b;}</style></defs><path class="cls-1" d="M26.58,12a.78.78,0,0,0-.77.77V23.47a.77.77,0,0,0,.77.77H37.26a.77.77,0,0,0,.77-.77A11.5,11.5,0,0,0,26.58,12Zm.76,10.74V13.53a10,10,0,0,1,9.13,9.18Z"/><path class="cls-1" d="M28,36.32l-3.7-9.93V15.84a.76.76,0,0,0-.77-.76,11.48,11.48,0,1,0,4,22.22A.76.76,0,0,0,28,36.32Zm-4.47.18a9.95,9.95,0,0,1-.76-19.87v9.9a.75.75,0,0,0,0,.26l3.47,9.32A9.79,9.79,0,0,1,23.52,36.5Z"/><path class="cls-1" d="M37.26,25.76H26.58a.78.78,0,0,0-.63.33.76.76,0,0,0-.09.7l3.75,10.06a.77.77,0,0,0,1,.45A11.55,11.55,0,0,0,38,26.53.77.77,0,0,0,37.26,25.76Zm-6.49,9.81-3.09-8.29h8.79A10,10,0,0,1,30.77,35.57Z"/></svg>