<svg id="Calque_1" data-name="Calque 1" xmlns="http://www.w3.org/2000/svg" viewBox="0 0 50 50"><defs><style>.cls-1{fill:#006fff;}</style></defs><path class="cls-1" d="M33.88,17.44,36,17.8,39.75,14l-3.13-.53-.54-3.13L32.3,14.13l.36,2.09-.91.9A13.1,13.1,0,1,0,33,18.35Zm1.06-3.51.18,1,1.05.18-.79.79-1.05-.18-.17-1Zm-.49,13a11.24,11.24,0,1,1-3.93-8.53l-2.45,2.46A7.77,7.77,0,1,0,29.29,22l2.45-2.45a11.16,11.16,0,0,1,2.71,7.3Zm-5.19,0A6.05,6.05,0,1,1,26.84,22l-2.51,2.5a2.63,2.63,0,0,0-1.12-.25,2.6,2.6,0,1,0,2.6,2.59,2.42,2.42,0,0,0-.26-1.11l2.51-2.51a6,6,0,0,1,1.2,3.62Zm-5.18,0a.87.87,0,1,1-.87-.86A.87.87,0,0,1,24.08,26.88Z"/></svg>