<svg id="Calque_1" data-name="Calque 1" xmlns="http://www.w3.org/2000/svg" viewBox="0 0 50 50"><defs><style>.cls-1{fill:#006fff;}</style></defs><path class="cls-1" d="M36.53,17.13l-5.6-5.49a.79.79,0,0,0-.56-.23H16.23a3,3,0,0,0-3,3V35.79a3,3,0,0,0,3,3H33.77a3,3,0,0,0,3-3V17.7A.82.82,0,0,0,36.53,17.13Zm-5.36-3L34,16.9H31.43a.26.26,0,0,1-.26-.25Zm2.6,23.06H16.23a1.39,1.39,0,0,1-1.39-1.39V14.4A1.39,1.39,0,0,1,16.23,13H29.57v3.64a1.86,1.86,0,0,0,1.86,1.86h3.73V35.79A1.39,1.39,0,0,1,33.77,37.18Z"/><path class="cls-1" d="M30.57,24.13H19.26a.81.81,0,0,0,0,1.61H30.57a.81.81,0,0,0,0-1.61Z"/><path class="cls-1" d="M19.26,29h9.22a.81.81,0,0,0,0-1.61H19.26a.81.81,0,0,0,0,1.61Z"/><path class="cls-1" d="M29.59,30.55H19.26a.81.81,0,0,0,0,1.61H29.59a.81.81,0,1,0,0-1.61Z"/></svg>