<svg id="Calque_1" data-name="Calque 1" xmlns="http://www.w3.org/2000/svg" viewBox="0 0 50 50"><defs><style>.cls-1{fill:#006fff;}</style></defs><path class="cls-1" d="M37.85,25.34a.87.87,0,0,1,0-.77L39,22.31a2.57,2.57,0,0,0-1.11-3.42l-2.22-1.18a.87.87,0,0,1-.45-.62l-.44-2.48a2.56,2.56,0,0,0-2.9-2.11l-2.49.35a.85.85,0,0,1-.73-.24L26.8,10.86a2.59,2.59,0,0,0-3.6,0l-1.81,1.75a.85.85,0,0,1-.73.24l-2.49-.35a2.56,2.56,0,0,0-2.9,2.11l-.44,2.48a.87.87,0,0,1-.45.62l-2.22,1.18a2.57,2.57,0,0,0-1.11,3.42l1.1,2.26a.87.87,0,0,1,0,.77l-1.1,2.26A2.56,2.56,0,0,0,12.16,31l2.22,1.18a.89.89,0,0,1,.45.62l.44,2.48a2.56,2.56,0,0,0,2.53,2.14l.37,0,2.49-.36a.89.89,0,0,1,.73.24L23.2,39a2.58,2.58,0,0,0,3.6,0l1.81-1.75a.89.89,0,0,1,.73-.24l2.49.36a2.58,2.58,0,0,0,2.9-2.12l.44-2.48a.89.89,0,0,1,.45-.62L37.84,31A2.56,2.56,0,0,0,39,27.6ZM37,29.5l-2.22,1.18a2.55,2.55,0,0,0-1.33,1.84L33.05,35a.86.86,0,0,1-1,.71l-2.49-.35a2.56,2.56,0,0,0-2.16.7l-1.81,1.75a.88.88,0,0,1-1.22,0l-1.81-1.75a2.55,2.55,0,0,0-1.79-.73l-.37,0-2.49.35A.86.86,0,0,1,17,35l-.44-2.48a2.55,2.55,0,0,0-1.33-1.84L13,29.5a.86.86,0,0,1-.38-1.15l1.11-2.26a2.58,2.58,0,0,0,0-2.27l-1.11-2.26A.87.87,0,0,1,13,20.4l2.22-1.18a2.55,2.55,0,0,0,1.33-1.84L17,14.9a.87.87,0,0,1,1-.71l2.49.35a2.56,2.56,0,0,0,2.16-.7l1.81-1.75a.88.88,0,0,1,1.22,0l1.81,1.75a2.56,2.56,0,0,0,2.16.7l2.49-.35a.87.87,0,0,1,1,.71l.44,2.48a2.55,2.55,0,0,0,1.33,1.84L37,20.4a.87.87,0,0,1,.38,1.16l-1.11,2.26a2.58,2.58,0,0,0,0,2.27l1.11,2.26A.86.86,0,0,1,37,29.5Z"/><path class="cls-1" d="M31.25,18.71a.85.85,0,0,0-1.21,0L18.75,30a.86.86,0,0,0,0,1.21.9.9,0,0,0,.61.25.86.86,0,0,0,.6-.25L31.25,19.91A.85.85,0,0,0,31.25,18.71Z"/><path class="cls-1" d="M21.58,17.26a3.14,3.14,0,1,0,3.14,3.13A3.13,3.13,0,0,0,21.58,17.26Zm0,4.56A1.43,1.43,0,1,1,23,20.39,1.43,1.43,0,0,1,21.58,21.82Z"/><path class="cls-1" d="M28.42,26.38a3.13,3.13,0,1,0,3.13,3.13A3.14,3.14,0,0,0,28.42,26.38Zm0,4.55a1.42,1.42,0,1,1,1.42-1.42A1.42,1.42,0,0,1,28.42,30.93Z"/></svg>