<svg id="Calque_1" data-name="Calque 1" xmlns="http://www.w3.org/2000/svg" viewBox="0 0 50 50"><defs><style>.cls-1{fill:#006fff;}</style></defs><path class="cls-1" d="M32.35,39.7H17.65a4.54,4.54,0,0,1-4.53-4.53v-.65A12,12,0,0,1,23,22.81a6.4,6.4,0,1,1,4,0,12,12,0,0,1,9.89,11.71v.65A4.54,4.54,0,0,1,32.35,39.7ZM24.66,24.65a10,10,0,0,0-9.54,9.87v.65a2.54,2.54,0,0,0,2.53,2.53h14.7a2.54,2.54,0,0,0,2.53-2.53v-.65a10,10,0,0,0-9.54-9.87C25.12,24.66,24.88,24.66,24.66,24.65ZM25,12.3a4.41,4.41,0,0,0-.26,8.82h.57A4.42,4.42,0,0,0,25,12.3Z"/></svg>