<svg id="Calque_1" data-name="Calque 1" xmlns="http://www.w3.org/2000/svg" viewBox="0 0 50 50"><defs><style>.cls-1{fill:#f41e1e;}.cls-2{fill:none;}.cls-3{fill:#000e51;}</style></defs><rect class="cls-1" x="22.39" y="7.84" width="8.15" height="35.53" transform="translate(-10.36 26.07) rotate(-44.77)"/><line class="cls-2" x1="19.14" y1="12.44" x2="16.6" y2="14.96"/><line class="cls-2" x1="22.47" y1="15.79" x2="19.92" y2="18.32"/><line class="cls-2" x1="25.8" y1="19.15" x2="23.25" y2="21.68"/><line class="cls-2" x1="29.13" y1="22.51" x2="26.58" y2="25.03"/><line class="cls-2" x1="32.46" y1="25.86" x2="29.91" y2="28.39"/><line class="cls-2" x1="35.79" y1="29.22" x2="33.24" y2="31.74"/><line class="cls-2" x1="39.12" y1="32.57" x2="36.57" y2="35.1"/><path class="cls-3" d="M42.46,34.77l-9.31-9.38,7.68-7.62a3.42,3.42,0,0,0,0-4.81l-2.12-2.14a3.42,3.42,0,0,0-2.41-1,3.37,3.37,0,0,0-2.39,1l-7.68,7.62L17.43,9.54a.83.83,0,0,0-1.17,0l-5.78,5.74a.79.79,0,0,0-.25.58.87.87,0,0,0,.24.59l8.81,8.88-7.54,7.48a.94.94,0,0,0-.24.5l-.68,6.19a.81.81,0,0,0,.23.67.93.93,0,0,0,.65.25L18.17,40a.84.84,0,0,0,.53-.24l7.49-7.44,9.31,9.38a.8.8,0,0,0,.59.25.84.84,0,0,0,.58-.24l5.79-5.74A.83.83,0,0,0,42.46,34.77ZM30.28,22.49l6.14-6.08,1.7,1.71L32,24.21ZM35.09,12a1.77,1.77,0,0,1,1.23-.5,1.7,1.7,0,0,1,1.23.51l2.13,2.14a1.75,1.75,0,0,1,0,2.46L39.3,17l-4.57-4.6Zm-1.54,1.53,1.7,1.72-6.13,6.09L27.41,19.6ZM13.78,38.61l-1.07-1.08.38-3.45,4.25,4.28Zm.35-5.83,6.32-6.27,1.7,1.71L15.83,34.5Zm4.57,4.61L17,35.67l6.32-6.27L25,31.12Zm17.39,2.53-8.72-8.79,0,0-1.18-1.17,0,0-1.7-1.72h0l-1.17-1.17h0l-1.7-1.72h0l-2-2h0l-7.4-7.46,4.61-4.57L18,12.43l-2,2a.83.83,0,0,0,0,1.17.84.84,0,0,0,1.17,0l2-1.94,2.16,2.18-2,1.94a.82.82,0,0,0,0,1.17.84.84,0,0,0,1.17,0l2-1.94,2.16,2.18h0l.42.42-1.9,1.9a.85.85,0,0,0,0,1.2.82.82,0,0,0,.6.25.85.85,0,0,0,.6-.25l1.9-1.91L27.44,22l.5.5L26,24.38a.85.85,0,0,0,.6,1.45.89.89,0,0,0,.6-.25l1.9-1.9,1.66,1.66-1.9,1.9a.85.85,0,0,0,0,1.2.82.82,0,0,0,.6.25.85.85,0,0,0,.6-.25l1.9-1.9,1.78,1.78,0,0,.86.86-2,1.94a.83.83,0,0,0-.25.59.87.87,0,0,0,.24.59.85.85,0,0,0,1.17,0l2-1.94,2.16,2.18L36,34.51a.82.82,0,0,0-.25.59.83.83,0,0,0,.24.58.84.84,0,0,0,1.17,0l2-1.95,1.59,1.6Z"/></svg>