<svg id="Calque_1" data-name="Calque 1" xmlns="http://www.w3.org/2000/svg" viewBox="0 0 50 50"><defs><style>.cls-1{fill:#f41e1e;}</style></defs><path class="cls-1" d="M43.48,14.55c-6.31,0-9.81,1.62-10,1.69a.82.82,0,0,0-.38,1.07c-1.21-.46-2.91-1.12-4.6-1.88-2.9-1.3-4.77-.9-6.84.73H15.27c0-.25.07-.5.09-.73a.78.78,0,0,0-.25-.65C13.73,13.47,8.22,13.05,6.57,13a.78.78,0,0,0-.6.22.79.79,0,0,0-.25.58V28.21a.8.8,0,0,0,.8.81h4.82a.8.8,0,0,0,.76-.56c0-.05.09-.25.19-.58l.6.61c.71.75,1.45,1.53,1.95,2,3,2.5,6.59,5.21,7.31,5.68a6.12,6.12,0,0,0,2.85.93,2.73,2.73,0,0,0,1.82-.54,2.51,2.51,0,0,0,1.83,0A3.2,3.2,0,0,0,30.32,35a3.09,3.09,0,0,0,2-.29,2.72,2.72,0,0,0,1.34-1.4,2.66,2.66,0,0,0,1.85-.66,2.56,2.56,0,0,0,.87-2.44l1.27-.85q.13.44.21.72a.81.81,0,0,0,.78.59h4.82a.8.8,0,0,0,.8-.8V15.36A.8.8,0,0,0,43.48,14.55ZM7.32,27.41V14.61a24.82,24.82,0,0,1,6.39,1.14,84.58,84.58,0,0,1-3,11.66Zm27.16,4a.91.91,0,0,1-1,.21c-.6-.48-3.14-3.09-4.72-4.74A.81.81,0,0,0,27.64,28c.37.38,3.37,3.52,4.58,4.61a1.15,1.15,0,0,1-.6.64,1.22,1.22,0,0,1-1.25,0l-.05,0c-1-.77-3.38-3.34-3.92-3.93a.81.81,0,0,0-1.19,1.09s2.39,2.57,3.72,3.76a1.55,1.55,0,0,1-.86.86.83.83,0,0,1-.92-.14h0l0,0c-1.15-1-3.49-3.46-3.95-3.95a.81.81,0,0,0-1.14,0A.82.82,0,0,0,22,32c.55.58,2.17,2.3,3.38,3.44a2.06,2.06,0,0,1-.38,0,4.63,4.63,0,0,1-2-.67c-.56-.37-4.1-3-7.15-5.57-.43-.36-1.18-1.13-1.83-1.82-.48-.5-.93-1-1.22-1.24.67-2.21,1.64-5.61,2.18-8.37h4.92c-1.09,1.1-2.57,3.31-2.19,4.94a2,2,0,0,0,1.38,1.45,4,4,0,0,0,4.72-1.62,4.09,4.09,0,0,0,1.21-.38l.56-.24c.92.86,2.16,1.86,3.47,2.92,2.36,1.91,5,4.08,5.64,5.33A.94.94,0,0,1,34.48,31.38Zm1.21-2.68a37.1,37.1,0,0,0-5.6-5.11c-1.46-1.18-2.84-2.29-3.72-3.17a.8.8,0,0,0-.84-.19c-.54.19-.88.35-1.14.46a2.75,2.75,0,0,1-1.08.3.8.8,0,0,0-.59.35c-1.13,1.7-2.31,1.55-3.09,1.29-.25-.08-.3-.19-.32-.29-.17-.71.67-2.35,1.77-3.45,2.61-2.61,4-3.26,6.8-2s5.39,2.19,6.23,2.49c.94,2.29,2.22,5.85,3,8.33Zm7,.32H39.26c-.76-2.48-3-8.95-4.27-11.63a26.44,26.44,0,0,1,7.69-1.22Z"/></svg>