<svg id="Calque_1" data-name="Calque 1" xmlns="http://www.w3.org/2000/svg" viewBox="0 0 50 50"><defs><style>.cls-1{fill:#f41e1e;}.cls-2{fill:#000e51;}</style></defs><rect class="cls-1" x="13.94" y="19.33" width="13.96" height="4.21" transform="translate(-8.72 25.74) rotate(-53.97)"/><path class="cls-2" d="M8.4,32.51a3.35,3.35,0,0,0,.88.28l-.48.68a1.08,1.08,0,0,0-.18.46l-.71,4.76A1.08,1.08,0,0,0,9.49,39.8l4-2.16a3.24,3.24,0,0,0,2.83,1.67,3.21,3.21,0,0,0,2.15-.82,3.24,3.24,0,0,0,5.39-2.41v-.41a14.9,14.9,0,0,0,13.07,0v2.6a1.07,1.07,0,0,0,.51.92,1.09,1.09,0,0,0,1,.05L42.79,37a1.07,1.07,0,0,0,.59-1V23.15a1.07,1.07,0,0,0-1.07-1.07H34.87l-7.6-3.72,2.89-4.12a1.08,1.08,0,0,0-.27-1.5l-3.52-2.48a1.08,1.08,0,0,0-1.5.27L21.05,16a3.25,3.25,0,0,0-2.62-.17l-4.1,1.78a3.31,3.31,0,0,0-1.44,1.23L7,28.08A3.23,3.23,0,0,0,8.4,32.51Zm2,4.37.35-2.38,1-1.38a4.33,4.33,0,0,0,1.63,1.43l-.83,1.18Zm5.95.28a1.09,1.09,0,0,1-1.08-1.08v-.53l.39-.55h1.77v1.08A1.09,1.09,0,0,1,16.31,37.16Zm4.31,0a1.09,1.09,0,0,1-1.08-1.08V35H21.7v1.08A1.09,1.09,0,0,1,20.62,37.16Zm20.61-1.75-2.16,1.08V24.23h2.16ZM34.15,24.12a1.12,1.12,0,0,0,.47.11h2.3v9A14.23,14.23,0,0,1,30.31,35a14.47,14.47,0,0,1-7-2,1.09,1.09,0,0,0-.49-.11H15.23A2.14,2.14,0,0,1,13.1,31a1.06,1.06,0,0,0,0-.47,2.16,2.16,0,0,1,2.14-1.94h6.65a8.38,8.38,0,0,0,6-2.47,1.07,1.07,0,0,0-1.52-1.52,6.27,6.27,0,0,1-4.44,1.84h-.23L26,20.15ZM23.54,16.18l1.77,1.23-6.29,9H16.39ZM26,12.65l1.77,1.23-1.24,1.77-1.76-1.24ZM8.86,29.18,14.71,20a1.13,1.13,0,0,1,.48-.41l4-1.76a1.23,1.23,0,0,1,.54,0l-6.27,9A4.31,4.31,0,0,0,11,30a1.24,1.24,0,0,1-1.61.55A1.08,1.08,0,0,1,8.86,29.18Z"/></svg>