<svg id="Calque_1" data-name="Calque 1" xmlns="http://www.w3.org/2000/svg" viewBox="0 0 50 50"><defs><style>.cls-1{fill:#f41e1e;}.cls-2{fill:#000e51;}</style></defs><circle class="cls-1" cx="39.64" cy="16.61" r="3.95"/><circle class="cls-1" cx="12.05" cy="36.27" r="3.95"/><path class="cls-2" d="M39.64,11.3a5.31,5.31,0,1,0,5.3,5.31,5.31,5.31,0,0,0-5.3-5.31Zm0,8.39a3.09,3.09,0,1,1,3.08-3.08A3.09,3.09,0,0,1,39.64,19.69Z"/><path class="cls-2" d="M8.43,18.44a1.1,1.1,0,0,0,1.57,0l2.89-2.88,2.88,2.88a1.11,1.11,0,0,0,.79.33,1.08,1.08,0,0,0,.78-.33,1.1,1.1,0,0,0,0-1.57L14.46,14l2.88-2.89a1.11,1.11,0,0,0-1.57-1.57l-2.88,2.88L10,9.53a1.1,1.1,0,0,0-1.57,0,1.12,1.12,0,0,0,0,1.57L11.32,14,8.43,16.87A1.12,1.12,0,0,0,8.43,18.44Z"/><path class="cls-2" d="M32,31.56a1.1,1.1,0,0,0-1.57,0l-2.89,2.88-2.88-2.88a1.11,1.11,0,1,0-1.57,1.57L26,36,23.12,38.9a1.1,1.1,0,0,0,0,1.57,1.08,1.08,0,0,0,.78.33,1.11,1.11,0,0,0,.79-.33l2.88-2.88,2.89,2.88a1.1,1.1,0,0,0,1.57,0,1.12,1.12,0,0,0,0-1.57L29.14,36,32,33.13a1.12,1.12,0,0,0,0-1.57Z"/><path class="cls-2" d="M32.12,16l-4.48-3.9a1.11,1.11,0,1,0-1.46,1.68l2.38,2.06a19.41,19.41,0,0,0-13.47,7.68,21.35,21.35,0,0,0-3.35,6.71,5.3,5.3,0,1,0,2.26.22,19.25,19.25,0,0,1,2.92-5.67,17,17,0,0,1,12-6.74l-2.21,2.54a1.1,1.1,0,0,0,.11,1.57A1.11,1.11,0,0,0,28.33,22l3.9-4.48A1.11,1.11,0,0,0,32.12,16ZM15.45,35.49a3.09,3.09,0,1,1-3.09-3.09A3.1,3.1,0,0,1,15.45,35.49Z"/></svg>