<svg id="Calque_1" data-name="Calque 1" xmlns="http://www.w3.org/2000/svg" viewBox="0 0 50 50"><defs><style>.cls-1{fill:#000e51;}.cls-2{fill:#f41e1e;}</style></defs><path class="cls-1" d="M37.86,8.73H12.14a4.88,4.88,0,0,0-4.87,4.88V29.35a4.87,4.87,0,0,0,4.86,4.87v7.15l10.26-7.15H37.86a4.87,4.87,0,0,0,4.87-4.87V13.61A4.88,4.88,0,0,0,37.86,8.73Zm2.8,20.62a2.81,2.81,0,0,1-2.8,2.8H21.74L14.2,37.39V32.15H12.14a2.81,2.81,0,0,1-2.8-2.8V13.61a2.81,2.81,0,0,1,2.8-2.8H37.86a2.81,2.81,0,0,1,2.8,2.8Z"/><path class="cls-2" d="M16.76,16.08H33.24v2.08H16.76Z"/><path class="cls-2" d="M16.76,20.51H33.24v2.08H16.76Z"/><path class="cls-2" d="M16.76,24.94H33.24V27H16.76Z"/></svg>