<svg id="Calque_1" data-name="Calque 1" xmlns="http://www.w3.org/2000/svg" viewBox="0 0 50 50"><defs><style>.cls-1{fill:#f41e1e;}</style></defs><path class="cls-1" d="M10.51,35.16a4.33,4.33,0,0,0,4.33,4.33H35.16a4.33,4.33,0,0,0,4.33-4.33V14.84a4.33,4.33,0,0,0-4.33-4.33H14.84a4.33,4.33,0,0,0-4.33,4.33Zm2.41-20.32a1.93,1.93,0,0,1,1.92-1.92H35.16a1.92,1.92,0,0,1,1.92,1.92V35.16a1.93,1.93,0,0,1-1.92,1.92H14.84a1.93,1.93,0,0,1-1.92-1.92Z"/><path class="cls-1" d="M31.85,19.75a1.56,1.56,0,0,0-2.17,0L22.44,27l-2.12-2.12a1.55,1.55,0,0,0-1.08-.44A1.5,1.5,0,0,0,17.71,26a1.51,1.51,0,0,0,.45,1.08l3.19,3.2a1.57,1.57,0,0,0,2.17,0l8.33-8.33A1.55,1.55,0,0,0,31.85,19.75Z"/></svg>