<svg id="Calque_1" data-name="Calque 1" xmlns="http://www.w3.org/2000/svg" viewBox="0 0 50 50"><defs><style>.cls-1{fill:#f41e1e;}</style></defs><path class="cls-1" d="M38.59,17.14c0-.88,0-1.71,0-2.51a1.13,1.13,0,0,0-1.13-1.13c-4.85,0-8.55-1.39-11.63-4.39a1.13,1.13,0,0,0-1.58,0c-3.08,3-6.78,4.39-11.63,4.39a1.13,1.13,0,0,0-1.13,1.13c0,.81,0,1.63,0,2.51-.15,8.14-.36,19.3,13.22,24a1.15,1.15,0,0,0,.37.06,1.19,1.19,0,0,0,.37-.06C39,36.44,38.74,25.28,38.59,17.14ZM25,38.87c-11.65-4.23-11.47-13.5-11.32-21.69,0-.49,0-1,0-1.43A17.55,17.55,0,0,0,25,11.47a17.55,17.55,0,0,0,11.29,4.28c0,.46,0,.94,0,1.43C36.47,25.37,36.65,34.64,25,38.87Z"/><path class="cls-1" d="M28.91,21.06l-5.48,5.47L21.09,24.2a1.13,1.13,0,0,0-1.6,1.6l3.14,3.14a1.13,1.13,0,0,0,1.6,0l6.28-6.28a1.13,1.13,0,0,0-1.6-1.6Z"/></svg>