<svg id="Calque_1" data-name="Calque 1" xmlns="http://www.w3.org/2000/svg" xmlns:xlink="http://www.w3.org/1999/xlink" viewBox="0 0 139.66 37.5"><defs><style>.cls-1{fill:#000e51;}.cls-2{fill:url(#Dégradé_sans_nom_44);}</style><linearGradient id="Dégradé_sans_nom_44" x1="2.35" y1="5.59" x2="25.73" y2="32.34" gradientUnits="userSpaceOnUse"><stop offset="0" stop-color="#006fff"/><stop offset="1" stop-color="#00adff"/></linearGradient></defs><polygon class="cls-1" points="43.89 15.25 41.12 15.25 37.51 19.29 37.35 19.29 37.35 11.9 34.98 11.9 34.98 25.3 37.35 25.3 37.35 21.92 38.21 21 41.28 25.3 44.12 25.3 39.99 19.59 43.89 15.25"/><path class="cls-1" d="M51.05,15.77a5.33,5.33,0,0,0-5.1,0,4.33,4.33,0,0,0-1.67,1.82,5.89,5.89,0,0,0-.59,2.72A5.9,5.9,0,0,0,44.28,23,4.36,4.36,0,0,0,46,24.85a5.33,5.33,0,0,0,5.1,0A4.36,4.36,0,0,0,52.72,23a5.9,5.9,0,0,0,.59-2.73,5.89,5.89,0,0,0-.59-2.72A4.33,4.33,0,0,0,51.05,15.77Zm-.4,6.2a2.67,2.67,0,0,1-.8,1.19,2.06,2.06,0,0,1-1.34.44,2.09,2.09,0,0,1-1.35-.44A2.69,2.69,0,0,1,46.35,22a5.46,5.46,0,0,1,0-3.33,2.72,2.72,0,0,1,.81-1.2A2.09,2.09,0,0,1,48.51,17a2.06,2.06,0,0,1,1.34.44,2.71,2.71,0,0,1,.8,1.2,5.46,5.46,0,0,1,0,3.33Z"/><polygon class="cls-1" points="57.41 23.25 62.34 16.87 62.34 15.25 54.43 15.25 54.43 17.21 59.45 17.21 59.45 17.3 54.26 23.79 54.26 25.3 62.51 25.3 62.51 23.34 57.41 23.34 57.41 23.25"/><path class="cls-1" d="M71.08,16.34a4,4,0,0,0-1.47-.92,5.07,5.07,0,0,0-1.75-.3,4.68,4.68,0,0,0-2.51.66,4.53,4.53,0,0,0-1.66,1.83,6,6,0,0,0-.59,2.72,6,6,0,0,0,.59,2.74,4.18,4.18,0,0,0,1.69,1.79,5.14,5.14,0,0,0,2.6.64,5.6,5.6,0,0,0,2.08-.36,3.83,3.83,0,0,0,1.5-1,3.4,3.4,0,0,0,.79-1.53l-2.21-.24a1.82,1.82,0,0,1-.46.71,2,2,0,0,1-.73.43,2.75,2.75,0,0,1-.93.15,2.65,2.65,0,0,1-1.35-.33,2.29,2.29,0,0,1-.9-.95,3.41,3.41,0,0,1-.32-1.45h7V20.2a6.26,6.26,0,0,0-.37-2.28A4.28,4.28,0,0,0,71.08,16.34Zm-5.62,3a2.58,2.58,0,0,1,.3-1.1,2.35,2.35,0,0,1,.86-.91A2.24,2.24,0,0,1,67.89,17a2.31,2.31,0,0,1,1.19.3,2.25,2.25,0,0,1,.81.84,2.56,2.56,0,0,1,.29,1.22Z"/><path class="cls-1" d="M80.41,15.85a4.08,4.08,0,0,0-1.32-.56,6.44,6.44,0,0,0-1.44-.17,5.62,5.62,0,0,0-1.93.31,3.85,3.85,0,0,0-1.47.93,3.49,3.49,0,0,0-.86,1.53l2.21.32a1.89,1.89,0,0,1,.68-.9,2.28,2.28,0,0,1,1.38-.38,1.78,1.78,0,0,1,1.26.41,1.48,1.48,0,0,1,.44,1.14v0a.55.55,0,0,1-.25.5,2.05,2.05,0,0,1-.8.24l-1.44.17a9,9,0,0,0-1.41.25,4.23,4.23,0,0,0-1.23.5,2.53,2.53,0,0,0-.86.89,2.83,2.83,0,0,0-.31,1.41,3,3,0,0,0,.44,1.66,2.84,2.84,0,0,0,1.2,1,4.16,4.16,0,0,0,1.72.34,3.79,3.79,0,0,0,1.37-.22,2.86,2.86,0,0,0,1-.58,2.72,2.72,0,0,0,.6-.78h.08V25.3h2.28V18.57a3.34,3.34,0,0,0-.37-1.66A2.88,2.88,0,0,0,80.41,15.85Zm-1,5.84a1.93,1.93,0,0,1-.29,1,2.05,2.05,0,0,1-.81.76,2.54,2.54,0,0,1-1.23.28,2.09,2.09,0,0,1-1.22-.33,1.12,1.12,0,0,1-.48-1,1.16,1.16,0,0,1,.24-.75,1.72,1.72,0,0,1,.67-.45,4,4,0,0,1,.94-.24l.56-.08.65-.1c.22,0,.41-.09.59-.14a1.14,1.14,0,0,0,.38-.17Z"/><path class="cls-1" d="M94.63,17.17h-.12a4.84,4.84,0,0,0-.58-.93,2.89,2.89,0,0,0-1-.8,3.15,3.15,0,0,0-1.53-.33,3.76,3.76,0,0,0-2.18.65,4.24,4.24,0,0,0-1.45,1.81,6.41,6.41,0,0,0-.52,2.68,6.17,6.17,0,0,0,.53,2.65,4.08,4.08,0,0,0,1.47,1.7,3.84,3.84,0,0,0,2.13.59,3.46,3.46,0,0,0,1.52-.3,3.16,3.16,0,0,0,1-.75,4.45,4.45,0,0,0,.58-.91h.1v2.26a2.49,2.49,0,0,1-.82,2.07,3.25,3.25,0,0,1-2.15.67A3.8,3.8,0,0,1,90.18,28a2.88,2.88,0,0,1-1-.61,3.53,3.53,0,0,1-.58-.75l-1,.63a3.49,3.49,0,0,0,.83,1,4,4,0,0,0,1.3.72,6,6,0,0,0,3.92-.13,3.17,3.17,0,0,0,1.48-1.22,3.77,3.77,0,0,0,.55-2.1V15.25H94.63Zm-.38,5.15a3,3,0,0,1-1.06,1.34,3.12,3.12,0,0,1-3.34,0,3,3,0,0,1-1-1.37,5.33,5.33,0,0,1-.36-2,5.8,5.8,0,0,1,.35-2.05,3.38,3.38,0,0,1,1-1.46,2.9,2.9,0,0,1,3.37,0,3.24,3.24,0,0,1,1,1.44,5.65,5.65,0,0,1,.36,2.09A5.5,5.5,0,0,1,94.25,22.32Z"/><path class="cls-1" d="M101.9,15.1a3.15,3.15,0,0,0-1.7.47,2.5,2.5,0,0,0-1,1.23h-.09V15.25H97.93V25.3H99.1V18.81a2.46,2.46,0,0,1,1.31-2.24,2.92,2.92,0,0,1,1.4-.33,3,3,0,0,1,.43,0l.27,0V15.12h-.61Z"/><path class="cls-1" d="M109.46,15.78a4.29,4.29,0,0,0-4.59,0,4.38,4.38,0,0,0-1.56,1.83,6.18,6.18,0,0,0-.56,2.72,6.09,6.09,0,0,0,.56,2.7,4.38,4.38,0,0,0,1.56,1.83,4.34,4.34,0,0,0,4.6,0A4.52,4.52,0,0,0,111,23a6.23,6.23,0,0,0,.56-2.7,6.11,6.11,0,0,0-.57-2.71A4.38,4.38,0,0,0,109.46,15.78Zm.58,6.6a3.44,3.44,0,0,1-1.1,1.5,3.08,3.08,0,0,1-3.54,0,3.46,3.46,0,0,1-1.11-1.5,5.47,5.47,0,0,1-.37-2.06,5.56,5.56,0,0,1,.37-2.07,3.55,3.55,0,0,1,1.11-1.51,2.8,2.8,0,0,1,1.77-.57,2.76,2.76,0,0,1,1.77.57,3.53,3.53,0,0,1,1.1,1.51,5.56,5.56,0,0,1,.38,2.07A5.47,5.47,0,0,1,110,22.38Z"/><path class="cls-1" d="M119.61,21.46A2.74,2.74,0,0,1,119.2,23a2.7,2.7,0,0,1-1,1,2.77,2.77,0,0,1-1.31.33,2.38,2.38,0,0,1-1.78-.72,2.62,2.62,0,0,1-.69-1.89V15.25h-1.16v6.51a4.39,4.39,0,0,0,.42,2A3.05,3.05,0,0,0,114.82,25a3.44,3.44,0,0,0,1.71.42,3.29,3.29,0,0,0,1.87-.51,3.14,3.14,0,0,0,1.12-1.29h.09V25.3h1.16v-10h-1.16Z"/><path class="cls-1" d="M130.89,17.58a4.33,4.33,0,0,0-1.46-1.81,3.68,3.68,0,0,0-2.18-.66,3,3,0,0,0-2.5,1.13,5.3,5.3,0,0,0-.57.93H124V15.25h-1.13V29.07h1.17V23.43h.1a4.61,4.61,0,0,0,.58.94,3.15,3.15,0,0,0,1,.81,3.21,3.21,0,0,0,1.53.33,3.64,3.64,0,0,0,2.16-.66A4.28,4.28,0,0,0,130.88,23a6.61,6.61,0,0,0,.53-2.73A6.77,6.77,0,0,0,130.89,17.58Zm-1,4.81a3.47,3.47,0,0,1-1.06,1.5,2.62,2.62,0,0,1-1.69.55,2.66,2.66,0,0,1-1.66-.53,3.35,3.35,0,0,1-1-1.47,6,6,0,0,1-.36-2.16,5.87,5.87,0,0,1,.36-2.13,3.2,3.2,0,0,1,1-1.45,2.9,2.9,0,0,1,3.37,0,3.39,3.39,0,0,1,1,1.48,5.67,5.67,0,0,1,.35,2.08A6.06,6.06,0,0,1,129.88,22.39Z"/><path class="cls-2" d="M27.3,27.13,19.09,9a1.35,1.35,0,0,0-1.25-.81A1.37,1.37,0,0,0,16.58,9L8.38,27.13a1.38,1.38,0,0,0,1.25,1.95,1.4,1.4,0,0,0,.51-.1l7.2-2.81a1.43,1.43,0,0,1,1,0L25.54,29a1.32,1.32,0,0,0,.51.1A1.38,1.38,0,0,0,27.3,27.13Zm-8.41-2.36a2.86,2.86,0,0,0-2.1,0l-6.91,2.7,8-17.62,8,17.62Z"/></svg>