<svg id="Calque_1" data-name="Calque 1" xmlns="http://www.w3.org/2000/svg" viewBox="0 0 156.13 50"><defs><style>.cls-1,.cls-2{fill:#fff;}.cls-2{opacity:0.7;}</style></defs><path class="cls-1" d="M40,30.68V16.13h2.58V30.68Zm2.35-3.42v-3.1h.41l3.93-4.39h3L44.9,25.14h-.54Zm4.5,3.42-3.55-5,1.73-1.81L50,30.68Z"/><path class="cls-1" d="M54.73,30.9A5.28,5.28,0,0,1,52,30.19a4.64,4.64,0,0,1-1.81-2,6.45,6.45,0,0,1-.65-3,6.45,6.45,0,0,1,.65-3,4.69,4.69,0,0,1,1.81-2,5.83,5.83,0,0,1,5.54,0,4.78,4.78,0,0,1,1.82,2,6.45,6.45,0,0,1,.64,3,6.45,6.45,0,0,1-.64,3,4.73,4.73,0,0,1-1.82,2A5.26,5.26,0,0,1,54.73,30.9Zm0-2.06a2.22,2.22,0,0,0,1.45-.48,3,3,0,0,0,.87-1.29,6,6,0,0,0,0-3.62,3,3,0,0,0-.87-1.3,2.22,2.22,0,0,0-1.45-.48,2.25,2.25,0,0,0-1.48.48,2.88,2.88,0,0,0-.87,1.3,5.79,5.79,0,0,0,0,3.62,2.85,2.85,0,0,0,.87,1.29A2.25,2.25,0,0,0,54.75,28.84Z"/><path class="cls-1" d="M61,30.68V29.05l5.63-7v-.1H61.18V19.77h8.59v1.76l-5.36,6.93v.09H70v2.13Z"/><path class="cls-1" d="M75.89,30.9a5.55,5.55,0,0,1-2.83-.69,4.63,4.63,0,0,1-1.83-1.94,6.51,6.51,0,0,1-.64-3,6.48,6.48,0,0,1,.64-3,4.84,4.84,0,0,1,1.81-2,5.1,5.1,0,0,1,2.72-.71,5.7,5.7,0,0,1,1.9.32,4.55,4.55,0,0,1,1.6,1,4.74,4.74,0,0,1,1.09,1.72,7,7,0,0,1,.39,2.47v.79H71.8V24.2h6.48A2.86,2.86,0,0,0,78,22.88a2.31,2.31,0,0,0-.87-.91,2.43,2.43,0,0,0-1.3-.34,2.53,2.53,0,0,0-1.38.38,2.7,2.7,0,0,0-.93,1,2.93,2.93,0,0,0-.34,1.34v1.52a3.57,3.57,0,0,0,.35,1.63,2.5,2.5,0,0,0,1,1,3,3,0,0,0,1.47.35,2.93,2.93,0,0,0,1-.16,2,2,0,0,0,.79-.47,2.16,2.16,0,0,0,.51-.77l2.4.27a3.69,3.69,0,0,1-.87,1.66,4.18,4.18,0,0,1-1.62,1.09A6.12,6.12,0,0,1,75.89,30.9Z"/><path class="cls-1" d="M85.06,30.91a4.49,4.49,0,0,1-1.87-.38,3.06,3.06,0,0,1-1.31-1.1,3.31,3.31,0,0,1-.47-1.81,3.09,3.09,0,0,1,.34-1.53,2.52,2.52,0,0,1,.93-1A4.54,4.54,0,0,1,84,24.58a11,11,0,0,1,1.54-.28c.64-.06,1.16-.12,1.55-.18a2.27,2.27,0,0,0,.87-.25.6.6,0,0,0,.28-.55v0A1.6,1.6,0,0,0,87.77,22a1.91,1.91,0,0,0-1.37-.44,2.49,2.49,0,0,0-1.5.41,2.08,2.08,0,0,0-.74,1l-2.4-.34A3.78,3.78,0,0,1,82.7,21a4,4,0,0,1,1.6-1,6,6,0,0,1,2.09-.34,7,7,0,0,1,1.57.18,4.62,4.62,0,0,1,1.42.61,3,3,0,0,1,1,1.15,3.67,3.67,0,0,1,.4,1.81v7.3H88.35V29.19h-.09a2.84,2.84,0,0,1-.66.84,3,3,0,0,1-1,.64A4.23,4.23,0,0,1,85.06,30.91Zm.67-1.9a2.85,2.85,0,0,0,1.34-.3,2.32,2.32,0,0,0,.88-.82,2.22,2.22,0,0,0,.31-1.12V25.48a1.31,1.31,0,0,1-.41.19,5.21,5.21,0,0,1-.65.15l-.7.11-.6.09a4.2,4.2,0,0,0-1,.25,1.69,1.69,0,0,0-.72.5,1.2,1.2,0,0,0-.27.81,1.24,1.24,0,0,0,.52,1.07A2.29,2.29,0,0,0,85.73,29Z"/><path class="cls-1" d="M101.56,35a6.08,6.08,0,0,1-2-.28,4.35,4.35,0,0,1-1.41-.79,3.61,3.61,0,0,1-.9-1.11l1-.69a3.29,3.29,0,0,0,.63.81,2.86,2.86,0,0,0,1,.66,4,4,0,0,0,1.56.27,3.54,3.54,0,0,0,2.34-.73,2.71,2.71,0,0,0,.9-2.25V28.43h-.12a4.2,4.2,0,0,1-.63,1,3.12,3.12,0,0,1-1.08.82,3.66,3.66,0,0,1-1.64.33A4.14,4.14,0,0,1,99,29.92a4.26,4.26,0,0,1-1.59-1.85,6.5,6.5,0,0,1-.58-2.87,7.13,7.13,0,0,1,.56-2.91,4.63,4.63,0,0,1,1.58-2,4.07,4.07,0,0,1,2.37-.71A3.55,3.55,0,0,1,103,20a3.3,3.3,0,0,1,1.06.87,5.5,5.5,0,0,1,.63,1h.13V19.77h1.24V31a4.11,4.11,0,0,1-.59,2.28,3.48,3.48,0,0,1-1.61,1.32A5.84,5.84,0,0,1,101.56,35Zm-.08-5.59a3.14,3.14,0,0,0,1.79-.5,3.24,3.24,0,0,0,1.15-1.47,5.93,5.93,0,0,0,.4-2.26,6.17,6.17,0,0,0-.39-2.27,3.53,3.53,0,0,0-1.14-1.56,2.82,2.82,0,0,0-1.81-.58,2.93,2.93,0,0,0-1.85.59A3.74,3.74,0,0,0,98.49,23a6.32,6.32,0,0,0-.38,2.23,5.76,5.76,0,0,0,.39,2.2,3.35,3.35,0,0,0,1.14,1.5A3.17,3.17,0,0,0,101.48,29.41Z"/><path class="cls-1" d="M108.42,30.68V19.77h1.23v1.68h.09a2.76,2.76,0,0,1,1.14-1.33,3.41,3.41,0,0,1,1.85-.51h.66v1.29l-.29-.05a3.48,3.48,0,0,0-.47,0,3.12,3.12,0,0,0-1.51.36,2.64,2.64,0,0,0-1.05,1,2.73,2.73,0,0,0-.38,1.45v7Z"/><path class="cls-1" d="M118.45,30.91a4.38,4.38,0,0,1-2.49-.72,4.78,4.78,0,0,1-1.7-2,6.64,6.64,0,0,1-.61-2.93,6.7,6.7,0,0,1,.61-3,4.75,4.75,0,0,1,1.7-2,4.68,4.68,0,0,1,5,0,4.86,4.86,0,0,1,1.69,2,6.7,6.7,0,0,1,.62,3,6.79,6.79,0,0,1-.61,2.93,4.85,4.85,0,0,1-1.7,2A4.39,4.39,0,0,1,118.45,30.91Zm0-1.16a3,3,0,0,0,1.93-.61,3.9,3.9,0,0,0,1.2-1.62,6.5,6.5,0,0,0,0-4.49,4,4,0,0,0-1.2-1.64,3.3,3.3,0,0,0-3.85,0,3.79,3.79,0,0,0-1.2,1.64,6.35,6.35,0,0,0,0,4.49,3.73,3.73,0,0,0,1.2,1.62A3,3,0,0,0,118.45,29.75Z"/><path class="cls-1" d="M132,26.51V19.77h1.26V30.68H132V28.87h-.1a3.34,3.34,0,0,1-1.22,1.4,3.56,3.56,0,0,1-2,.56,3.76,3.76,0,0,1-1.85-.46A3.19,3.19,0,0,1,125.5,29a4.65,4.65,0,0,1-.47-2.18V19.77h1.27v7a2.84,2.84,0,0,0,.75,2.06,2.57,2.57,0,0,0,1.93.78,3,3,0,0,0,1.43-.36,2.93,2.93,0,0,0,1.12-1A3.1,3.1,0,0,0,132,26.51Z"/><path class="cls-1" d="M135.55,34.78v-15h1.23v2.08h.16a5,5,0,0,1,.61-1,3.16,3.16,0,0,1,1.06-.87,3.43,3.43,0,0,1,1.66-.36,4,4,0,0,1,2.36.71,4.58,4.58,0,0,1,1.58,2,7.17,7.17,0,0,1,.57,3,7.2,7.2,0,0,1-.57,3,4.62,4.62,0,0,1-1.58,2,4,4,0,0,1-2.34.71,3.58,3.58,0,0,1-1.66-.35,3.35,3.35,0,0,1-1.07-.88,4.72,4.72,0,0,1-.62-1h-.12v6.12Zm1.25-9.54a6.31,6.31,0,0,0,.4,2.34,3.51,3.51,0,0,0,1.14,1.59,2.79,2.79,0,0,0,1.79.58,2.85,2.85,0,0,0,1.84-.6,3.66,3.66,0,0,0,1.15-1.62,6.4,6.4,0,0,0,.39-2.29,6.25,6.25,0,0,0-.39-2.27,3.66,3.66,0,0,0-1.14-1.6,3.13,3.13,0,0,0-3.66,0,3.49,3.49,0,0,0-1.13,1.57A6.37,6.37,0,0,0,136.8,25.24Z"/><path class="cls-2" d="M29.25,35.61a1.41,1.41,0,0,1-.49-.09l-7.64-3.06-7.63,3a1.36,1.36,0,0,1-1.73-1.85l8.13-18a1.36,1.36,0,0,1,1.24-.8h.35l.06.07a1.34,1.34,0,0,1,.82.74l8.13,18a1.37,1.37,0,0,1-1.24,1.93Zm-.19-1.27Zm-15.87,0h0Zm7.93-17.56L13.4,33.86l7.72-3.1,7.72,3.1Zm.2-.44h0Z"/></svg>