<svg id="Calque_1" data-name="Calque 1" xmlns="http://www.w3.org/2000/svg" viewBox="0 0 50 50"><defs><style>.cls-1{fill:#00d563;}</style></defs><path class="cls-1" d="M16.34,23.16,20,25.08a2.17,2.17,0,0,0,3.15-2.29l-.69-4.07a0,0,0,0,1,0,0l3-2.89a2.18,2.18,0,0,0-1.21-3.71l-4.09-.59h0L18.28,7.79a2.17,2.17,0,0,0-3.9,0L12.55,11.5h0l-4.09.59a2.18,2.18,0,0,0-1.2,3.71l3,2.89v0l-.7,4.07a2.18,2.18,0,0,0,3.16,2.29l3.66-1.92Zm-4.68,0h0v0l.7-4.07a2.17,2.17,0,0,0-.63-1.93l-3-2.88h0v0h0l4.09-.6a2.16,2.16,0,0,0,1.64-1.19l1.83-3.7h0l1.83,3.7a2.18,2.18,0,0,0,1.64,1.19l4.09.6h0s0,0,0,0h0l-3,2.88a2.19,2.19,0,0,0-.62,1.93l.7,4.07h0l0,0h0l-3.66-1.92a2.18,2.18,0,0,0-2,0Z"/><path class="cls-1" d="M41.89,17.86l-2.43-.36-1.09-2.2a1.78,1.78,0,0,0-3.2,0l-1.08,2.2-2.44.36a1.79,1.79,0,0,0-1,3l1.76,1.71L32,25a1.79,1.79,0,0,0,2.59,1.88l2.17-1.15L39,26.92A1.79,1.79,0,0,0,41.54,25l-.42-2.43,1.76-1.71a1.78,1.78,0,0,0-1-3Zm-2.42,3.35A1.78,1.78,0,0,0,39,22.79l.32,1.86-1.68-.88a1.8,1.8,0,0,0-1.66,0l-1.67.88.32-1.86a1.82,1.82,0,0,0-.52-1.58l-1.36-1.33,1.88-.27a1.77,1.77,0,0,0,1.34-1l.84-1.7.84,1.7a1.77,1.77,0,0,0,1.35,1l1.87.27Z"/><path class="cls-1" d="M32,31.44l-3.57-.52-1.6-3.24a2,2,0,0,0-3.68,0l-1.6,3.24L18,31.44a2,2,0,0,0-1.14,3.5l2.59,2.52L18.82,41a2.05,2.05,0,0,0,3,2.16L25,41.5l3.2,1.68a2.05,2.05,0,0,0,3-2.16l-.62-3.56,2.59-2.52A2,2,0,0,0,32,31.44ZM29,36a2,2,0,0,0-.59,1.82l.58,3.4L26,39.57a2,2,0,0,0-1.92,0L21,41.17l.58-3.4A2,2,0,0,0,21,36l-2.47-2.41,3.42-.49a2,2,0,0,0,1.54-1.13L25,28.83l1.53,3.09a2.07,2.07,0,0,0,1.54,1.13l3.42.49Z"/></svg>