<svg id="Calque_1" data-name="Calque 1" xmlns="http://www.w3.org/2000/svg" viewBox="0 0 50 50"><defs><style>.cls-1{fill:#00d563;}.cls-2{fill:#000e51;}</style></defs><polygon class="cls-1" points="14.34 13.79 43.67 13.79 38.72 29.82 17.92 29.82 14.34 13.79"/><path class="cls-2" d="M18,30.84H39A1.16,1.16,0,0,0,40.14,30l4.65-16.27a1.16,1.16,0,0,0-1.12-1.48H15.27l-.83-3.74A1.17,1.17,0,0,0,13.3,7.6h-7a1.17,1.17,0,0,0,0,2.33h6c.15.66,4,17.89,4.2,18.88A3.48,3.48,0,0,0,18,35.49H39a1.16,1.16,0,0,0,0-2.32H18A1.16,1.16,0,0,1,16.79,32,1.18,1.18,0,0,1,18,30.84ZM42.13,14.58l-4,13.94H18.88l-3.1-13.94Z"/><path class="cls-2" d="M16.79,39a3.49,3.49,0,1,0,3.48-3.49A3.48,3.48,0,0,0,16.79,39Zm3.48-1.16A1.16,1.16,0,1,1,19.11,39,1.16,1.16,0,0,1,20.27,37.82Z"/><path class="cls-2" d="M33.21,39a3.49,3.49,0,1,0,3.49-3.49A3.49,3.49,0,0,0,33.21,39Zm3.49-1.16A1.16,1.16,0,1,1,35.54,39,1.16,1.16,0,0,1,36.7,37.82Z"/></svg>