<svg id="Calque_1" data-name="Calque 1" xmlns="http://www.w3.org/2000/svg" viewBox="0 0 50 50"><defs><style>.cls-1{fill:#00d563;}.cls-2{fill:#000e51;}</style></defs><polygon class="cls-1" points="18.25 16.33 42.49 16.33 42.49 41.52 41.45 42.59 31.5 42.59 31.74 26.23 18.25 25.07 18.25 16.33"/><path class="cls-2" d="M42.55,15.31H37l0-2.33a6.55,6.55,0,1,0-13.1,0v0l0,2.31H18.3a1.09,1.09,0,0,0-1.09,1.1v7.64H7.45a1.09,1.09,0,0,0-1.09,1.09V40.43a3.28,3.28,0,0,0,3.28,3.28H40.36a3.28,3.28,0,0,0,3.28-3.28v-24A1.09,1.09,0,0,0,42.55,15.31ZM30.39,8.62A4.37,4.37,0,0,1,34.76,13v0l0,2.31H26.05L26,13A4.37,4.37,0,0,1,30.39,8.62Zm.14,31.81a1.09,1.09,0,0,1-1.09,1.09H9.64a1.09,1.09,0,0,1-1.09-1.09V26.23h22Zm10.92,0a1.09,1.09,0,0,1-1.09,1.09H32.53a3.29,3.29,0,0,0,.19-1.09V25.14a1.09,1.09,0,0,0-1.09-1.09H19.39V17.5h4.5l0,1.1A1.09,1.09,0,0,0,25,19.68h0a1.09,1.09,0,0,0,1.08-1.1V17.5h8.73l0,1.1a1.09,1.09,0,0,0,1.09,1.08h0A1.09,1.09,0,0,0,37,18.58V17.5h4.45Z"/><path class="cls-2" d="M25,28.42a1.09,1.09,0,0,0-1.09,1.09V30.6a4.37,4.37,0,0,1-8.74,0V29.51a1.09,1.09,0,0,0-2.18,0V30.6a6.55,6.55,0,0,0,13.1,0V29.51A1.09,1.09,0,0,0,25,28.42Z"/></svg>