<svg id="Calque_1" data-name="Calque 1" xmlns="http://www.w3.org/2000/svg" viewBox="0 0 50 50"><defs><style>.cls-1{fill:#000e51;}.cls-2{fill:#00d563;}</style></defs><path class="cls-1" d="M40.34,14.26,32.89,7a1.06,1.06,0,0,0-.75-.31H13.33a4,4,0,0,0-4,4V39.09a4,4,0,0,0,4,4H36.67a4,4,0,0,0,4-4V15A1.07,1.07,0,0,0,40.34,14.26Zm-7.13-4L37,14H33.55a.34.34,0,0,1-.34-.34Zm3.46,30.69H13.33a1.85,1.85,0,0,1-1.85-1.85V10.62a1.85,1.85,0,0,1,1.85-1.84H31.08v4.83a2.48,2.48,0,0,0,2.47,2.48h5v23A1.85,1.85,0,0,1,36.67,40.94Z"/><path class="cls-2" d="M32.41,23.58h-15a1.07,1.07,0,0,0,0,2.13h15a1.07,1.07,0,1,0,0-2.13Z"/><path class="cls-2" d="M17.36,30H29.63a1.07,1.07,0,1,0,0-2.13H17.36a1.07,1.07,0,0,0,0,2.13Z"/><path class="cls-2" d="M31.11,32.12H17.36a1.07,1.07,0,0,0,0,2.13H31.11a1.07,1.07,0,1,0,0-2.13Z"/></svg>