<svg id="Calque_1" data-name="Calque 1" xmlns="http://www.w3.org/2000/svg" viewBox="0 0 50 50"><defs><style>.cls-1{fill:#00d563;}</style></defs><path class="cls-1" d="M37.34,22h-.08V20a12,12,0,1,0-24.1,0V22h-.5a3.45,3.45,0,0,0-3.3,3.55v5.29a3.34,3.34,0,0,0,3.25,3.42h3.18a.8.8,0,0,0,.76-.84V23.06c0-.51-.3-1-.76-1h-.93V20a10.36,10.36,0,1,1,20.71,0V22h-.93c-.47,0-.76.51-.76,1V33.41a.81.81,0,0,0,.71.89h1l-.08.13a6.7,6.7,0,0,1-5.37,2.66,4.19,4.19,0,0,0-8.29.8,4.24,4.24,0,0,0,4.23,4.19,4.35,4.35,0,0,0,3-1.31,3.79,3.79,0,0,0,1-2,8.38,8.38,0,0,0,6.72-3.34l.8-1.19a2.87,2.87,0,0,0,3-2.91V26C40.64,24.2,39.29,22,37.34,22ZM14.86,32.61h-2.2a1.65,1.65,0,0,1-1.61-1.69V25.59a1.76,1.76,0,0,1,1.61-1.86h2.2Zm13.06,7a2.52,2.52,0,0,1-1.82.81,2.59,2.59,0,0,1-2.54-2.5,2.5,2.5,0,0,1,5,0h0A2.21,2.21,0,0,1,27.92,39.58ZM39,31.3c0,1.14-1.1,1.31-1.61,1.31H35.57V23.73h1.77C38.27,23.73,39,25,39,26Z"/></svg>