<svg id="Calque_1" data-name="Calque 1" xmlns="http://www.w3.org/2000/svg" viewBox="0 0 50 50"><defs><style>.cls-1{fill:#00d563;}.cls-2{fill:#000e51;}</style></defs><rect class="cls-1" x="13.82" y="21.23" width="11.58" height="10.57"/><path class="cls-2" d="M37.66,13.31a1,1,0,1,0-1-1A1,1,0,0,0,37.66,13.31Z"/><path class="cls-2" d="M33.88,13.31a1,1,0,1,0,0-2.06,1,1,0,1,0,0,2.06Z"/><path class="cls-2" d="M41.12,7.87H8.88a1,1,0,0,0-1,1V41.12a1,1,0,0,0,1,1H41.12a1,1,0,0,0,1-1V8.88A1,1,0,0,0,41.12,7.87Zm-31.24,2H40.12v4.8H9.88ZM40.12,40.12H9.88V16.69H40.12Z"/><path class="cls-2" d="M29.17,23.24h7a1,1,0,0,0,0-2h-7a1,1,0,0,0,0,2Z"/><path class="cls-2" d="M29.17,27.35h7a1,1,0,0,0,0-2h-7a1,1,0,0,0,0,2Z"/><path class="cls-2" d="M29.17,31.46h7a1,1,0,0,0,0-2h-7a1,1,0,0,0,0,2Z"/><path class="cls-2" d="M13.82,35.57H36.18a1,1,0,0,0,0-2H13.82a1,1,0,0,0,0,2Z"/><path class="cls-2" d="M13.82,31.8H25.4a1,1,0,0,0,1-1V22.24a1,1,0,0,0-1-1H13.82a1,1,0,0,0-1,1v8.55A1,1,0,0,0,13.82,31.8Zm1-8.56H24.4v6.55H14.82Z"/></svg>