<svg id="Calque_1" data-name="Calque 1" xmlns="http://www.w3.org/2000/svg" viewBox="0 0 50 50"><defs><style>.cls-1{fill:#00d563;}</style></defs><path class="cls-1" d="M15.59,23.81H7.88A1.19,1.19,0,0,0,6.69,25V40.43a1.19,1.19,0,0,0,1.19,1.19h7.71a1.19,1.19,0,0,0,1.2-1.19V25A1.19,1.19,0,0,0,15.59,23.81ZM14.4,39.23H9.08v-13H14.4Z"/><path class="cls-1" d="M28.86,8.38H21.14A1.19,1.19,0,0,0,20,9.57V40.43a1.19,1.19,0,0,0,1.19,1.19h7.72a1.19,1.19,0,0,0,1.19-1.19V9.57A1.19,1.19,0,0,0,28.86,8.38Zm-1.2,30.85H22.34V10.77h5.32Z"/><path class="cls-1" d="M42.12,16.09H34.41a1.2,1.2,0,0,0-1.2,1.2V40.43a1.19,1.19,0,0,0,1.2,1.19h7.71a1.19,1.19,0,0,0,1.19-1.19V17.29A1.19,1.19,0,0,0,42.12,16.09Zm-1.2,23.14H35.6V18.48h5.32Z"/></svg>