<svg id="Calque_1" data-name="Calque 1" xmlns="http://www.w3.org/2000/svg" viewBox="0 0 50 50"><defs><style>.cls-1{fill:#00d563;}</style></defs><path class="cls-1" d="M37.14,13.79a1,1,0,1,0-1-1A1,1,0,0,0,37.14,13.79Z"/><path class="cls-1" d="M33.52,13.79a1,1,0,1,0-1-1A1,1,0,0,0,33.52,13.79Z"/><path class="cls-1" d="M40.46,8.57H9.54a1,1,0,0,0-1,1V40.46a1,1,0,0,0,1,1H40.46a1,1,0,0,0,1-1V9.54A1,1,0,0,0,40.46,8.57Zm-30,1.93h29v4.6h-29Zm29,29h-29V17h29Z"/><path class="cls-1" d="M29,23.31h6.72a1,1,0,1,0,0-1.92H29a1,1,0,1,0,0,1.92Z"/><path class="cls-1" d="M29,27.25h6.72a1,1,0,1,0,0-1.92H29a1,1,0,0,0,0,1.92Z"/><path class="cls-1" d="M29,31.2h6.72a1,1,0,1,0,0-1.93H29a1,1,0,0,0,0,1.93Z"/><path class="cls-1" d="M14.28,35.14H35.72a1,1,0,1,0,0-1.92H14.28a1,1,0,1,0,0,1.92Z"/><path class="cls-1" d="M14.28,31.52h11.1a1,1,0,0,0,1-1V22.35a1,1,0,0,0-1-1H14.28a1,1,0,0,0-1,1v8.21A1,1,0,0,0,14.28,31.52Zm1-8.21h9.18v6.28H15.24Z"/></svg>