<svg id="Calque_1" data-name="Calque 1" xmlns="http://www.w3.org/2000/svg" viewBox="0 0 50 50"><defs><style>.cls-1{fill:#00d563;}</style></defs><path class="cls-1" d="M42.5,21.57l-4.11-5.05L41,10.36A1,1,0,0,0,39.68,9l-6.2,2.62-5-4.11a1,1,0,0,0-1.7.81v6.63l-6.07,3a1,1,0,0,0,.18,1.92l4.21,1.21L8.31,37A3.33,3.33,0,1,0,13,41.7L29,24.88l1.14,3.75a1,1,0,0,0,1.91.19l3-5.55h6.65a1,1,0,0,0,.81-1.7Zm-31,18.7A1.25,1.25,0,1,1,9.73,38.5l2.36-2.24,1.65,1.65Zm3.67-3.87L13.6,34.83,27.37,21.77l.71.2.18.63ZM34.42,21.19a1,1,0,0,0-.91.54l-2.14,3.93L29.9,20.83a1,1,0,0,0-.71-.7L24,18.64l4.27-2.13a1,1,0,0,0,.57-.93V10.49l3.85,3.13a1,1,0,0,0,1.06.15l4.39-1.86-1.87,4.37a1,1,0,0,0,.15,1.06l3.12,3.85Z"/></svg>