<svg id="Calque_1" data-name="Calque 1" xmlns="http://www.w3.org/2000/svg" viewBox="0 0 50 50"><defs><style>.cls-1{fill:#00d563;}</style></defs><path class="cls-1" d="M38.39,28.22A3.12,3.12,0,0,0,37,27.4a3.12,3.12,0,0,0-.83-2.95,3,3,0,0,0-1.43-.81,3.09,3.09,0,0,0-.83-2.95,3,3,0,0,0-.95-.65l3.22-3.22a3.13,3.13,0,0,0-4.42-4.42l-10,10-.59-2.54a4.13,4.13,0,0,0-6.94-2h0a1,1,0,0,0-.29.71l0,12.37L11,33.88a1,1,0,0,0,0,1.41l6.39,6.39a1,1,0,0,0,.71.29h9.25a4.16,4.16,0,0,0,3-1.23l8.1-8.1a3.12,3.12,0,0,0,0-4.42Zm-5.27-2.36a1.14,1.14,0,0,1,1.61,1.61l-2.26,2.26a1.14,1.14,0,0,1-1.61-1.61Zm-3.66.85a1.13,1.13,0,0,1-1.61-1.6l3-3a1.14,1.14,0,0,1,1.61,1.61h0l-3,3Zm-.57,12.63a2.22,2.22,0,0,1-1.56.64H18.49l-5.4-5.4,2.49-2.49a1,1,0,0,0,.3-.7l0-12.32a2.13,2.13,0,0,1,3.3,1.27l1,4.29a1,1,0,0,0,.27.48l.75.75a4.34,4.34,0,0,1,0,6.13,1,1,0,0,0,0,1.4,1,1,0,0,0,1.41,0,6.34,6.34,0,0,0,0-8.94l0-.05L33.12,13.81a1.14,1.14,0,0,1,1.61,1.61L26.44,23.7a3.13,3.13,0,0,0,0,4.42,3.09,3.09,0,0,0,2.1.91,3.08,3.08,0,0,0,.92,2.1,3,3,0,0,0,2.1.91,3.06,3.06,0,0,0,.91,2.11,3.21,3.21,0,0,0,1,.65ZM37,31.23h0l-1.51,1.51a1.13,1.13,0,1,1-1.6-1.61l1.5-1.5A1.13,1.13,0,0,1,37,31.23Z"/><path class="cls-1" d="M21.27,14.27a1,1,0,0,0,1-1V9a1,1,0,0,0-2,0v4.26A1,1,0,0,0,21.27,14.27Z"/><path class="cls-1" d="M16.31,14a1,1,0,0,0,1.4-1.4l-1.06-1.07a1,1,0,0,0-1.41,1.41Z"/><path class="cls-1" d="M26.24,14l1.06-1.06a1,1,0,0,0-1.41-1.41l-1.06,1.07a1,1,0,0,0,0,1.4A1,1,0,0,0,26.24,14Z"/></svg>