<svg id="Calque_1" data-name="Calque 1" xmlns="http://www.w3.org/2000/svg" viewBox="0 0 50 50"><defs><style>.cls-1{fill:#000e51;}</style></defs><path class="cls-1" d="M12.77,36.65a1.08,1.08,0,0,1-1.33-.09l-.72-.91a1.08,1.08,0,0,1,.35-1.37c1.3-1.08,2.25-1.91,2.84-2.51a13.8,13.8,0,0,0,2.58-3.65c.13-.28-.2-.46-.37-.52q-6.41-2.1-6.41-7.4a6.63,6.63,0,0,1,2.08-5.08,7.25,7.25,0,0,1,5.2-2,6.35,6.35,0,0,1,4.93,2.54A7.72,7.72,0,0,1,24,20.88Q24,29,12.77,36.65Zm16.27,0a1.08,1.08,0,0,1-1.33-.09L27,35.65a1.08,1.08,0,0,1,.35-1.37c1.3-1.08,2.25-1.91,2.84-2.51a13.8,13.8,0,0,0,2.58-3.65c.13-.28-.2-.46-.37-.52Q26,25.5,26,20.2a6.65,6.65,0,0,1,2.07-5.08,7.29,7.29,0,0,1,5.21-2,6.35,6.35,0,0,1,4.93,2.54,7.72,7.72,0,0,1,2.1,5.18Q40.29,29,29,36.65Z"/></svg>