<svg id="Calque_1" data-name="Calque 1" xmlns="http://www.w3.org/2000/svg" viewBox="0 0 50 50"><defs><style>.cls-1{fill:#00d563;}</style></defs><path class="cls-1" d="M42.26,15.39h-5.5l0-2.31a6.46,6.46,0,1,0-12.91,0h0l0,2.29H18.36a1.07,1.07,0,0,0-1.07,1.07V24H7.67A1.07,1.07,0,0,0,6.6,25.07V40.14a3.23,3.23,0,0,0,3.23,3.23H40.11a3.23,3.23,0,0,0,3.22-3.23V16.46A1.07,1.07,0,0,0,42.26,15.39Zm-12-6.61a4.31,4.31,0,0,1,4.3,4.31h0l0,2.29H26l0-2.31A4.31,4.31,0,0,1,30.28,8.78Zm.14,31.36a1.08,1.08,0,0,1-1.08,1.08H9.83a1.08,1.08,0,0,1-1.08-1.08v-14H30.42Zm10.76,0a1.08,1.08,0,0,1-1.07,1.08H32.39a3.22,3.22,0,0,0,.18-1.08V25.07A1.07,1.07,0,0,0,31.5,24H19.44V17.54h4.44v1.09A1.08,1.08,0,0,0,25,19.69h0A1.08,1.08,0,0,0,26,18.6V17.54h8.61v1.09a1.08,1.08,0,0,0,1.08,1.06h0A1.07,1.07,0,0,0,36.8,18.6V17.54h4.39Z"/><path class="cls-1" d="M25,28.3a1.08,1.08,0,0,0-1.08,1.08v1.07a4.31,4.31,0,1,1-8.61,0V29.38a1.08,1.08,0,1,0-2.15,0v1.07a6.46,6.46,0,1,0,12.91,0V29.38A1.07,1.07,0,0,0,25,28.3Z"/></svg>