<svg id="Calque_1" data-name="Calque 1" xmlns="http://www.w3.org/2000/svg" viewBox="0 0 50 50"><defs><style>.cls-1{fill:#ff960b;}</style></defs><path class="cls-1" d="M35.75,25.36a1.49,1.49,0,1,0-1.49,1.49A1.5,1.5,0,0,0,35.75,25.36ZM23.81,17.89a6,6,0,1,0-6-6A6,6,0,0,0,23.81,17.89Zm0-9a3,3,0,1,1-3,3A3,3,0,0,1,23.81,8.93Zm6,12h-12v3h12Zm11.13,3A13.14,13.14,0,0,0,38.74,20V11.92H37.25a7.46,7.46,0,0,0-6.83,4.46l-.6,1.36L32.55,19l.6-1.37a4.51,4.51,0,0,1,2.6-2.42v5.92l.37.42a10.25,10.25,0,0,1,2.24,4.23l.29,1.12h2.48v6H37.72l-.44.75a10.4,10.4,0,0,1-3.77,3.77l-.74.44v3.41h-3V38.8H19.33a10.16,10.16,0,0,1-2.62-.38l-1.86-.48v3.25h-3V35.53l-.37-.42a10.21,10.21,0,0,1-2.62-6.77,10.49,10.49,0,0,1,5.23-9l1.29-.75L13.9,16l-1.3.74A13.46,13.46,0,0,0,5.89,28.34a13.12,13.12,0,0,0,3,8.3v7.53h9V41.69a12.83,12.83,0,0,0,1.5.09h7.46v2.39h9V39.46a13.49,13.49,0,0,0,3.65-3.65h4.71v-12Z"/></svg>