<svg id="Calque_1" data-name="Calque 1" xmlns="http://www.w3.org/2000/svg" viewBox="0 0 50 50"><defs><style>.cls-1{fill:#f41e1e;}</style></defs><path class="cls-1" d="M39.44,28.34a1.12,1.12,0,0,0-1.57,0,1.1,1.1,0,0,0,0,1.57l2.24,2.24a1.08,1.08,0,0,0,.78.33,1.11,1.11,0,0,0,.79-.33,1.12,1.12,0,0,0,0-1.57Z"/><path class="cls-1" d="M38.65,19.16a1.11,1.11,0,0,0,.79-.33l2.24-2.24A1.11,1.11,0,0,0,40.11,15l-2.24,2.24a1.1,1.1,0,0,0,0,1.57,1.08,1.08,0,0,0,.78.33Z"/><path class="cls-1" d="M42.84,22.48H39.67a1.11,1.11,0,0,0,0,2.22h3.17a1.11,1.11,0,0,0,0-2.22Z"/><path class="cls-1" d="M35.6,7.8a1.1,1.1,0,0,0-1.12,0L21.77,15.61H16.12a4.31,4.31,0,0,0-3.23,1.18,4.58,4.58,0,0,0-.82,1.05H9.27a3.23,3.23,0,0,0-3.22,3.22v5.05a3.22,3.22,0,0,0,3.22,3.22h2.79A4.86,4.86,0,0,0,14,31.23l-3.87,6.7a1.14,1.14,0,0,0-.1.85,1.06,1.06,0,0,0,.52.67l4.9,2.75a1.06,1.06,0,0,0,.54.14,1.13,1.13,0,0,0,1-.55l5.52-9.57,12,7.14a1.17,1.17,0,0,0,.57.16,1.08,1.08,0,0,0,.55-.15,1.13,1.13,0,0,0,.56-1V8.77a1.12,1.12,0,0,0-.57-1ZM9.27,27.11a1,1,0,0,1-1-1V21.06a1,1,0,0,1,1-1h2.2v7.05Zm4.42-7a2.33,2.33,0,0,1,.72-1.7A2.13,2.13,0,0,1,16,17.83H21V29.58H16.13a2.58,2.58,0,0,1-2.44-2.52Zm1.89,19.62-3-1.66,3.55-6.15.06-.12h3.93ZM34,36.45,23.19,30.06V17.34L34,10.75Z"/></svg>