<svg id="Calque_1" data-name="Calque 1" xmlns="http://www.w3.org/2000/svg" viewBox="0 0 50 50"><defs><style>.cls-1{fill:#00d563;}</style></defs><path class="cls-1" d="M27.28,16.79,23.1,24.11l-2.21-3.67-5.47,9.12H34.58ZM21,27.74H18.64L20.89,24l1.17,1.95Zm2.11,0,4.15-7.27,4.15,7.27Z"/><path class="cls-1" d="M28.65,36.86h-7.3a.92.92,0,0,0,0,1.83h7.3a.92.92,0,0,0,0-1.83Z"/><path class="cls-1" d="M32.3,33.21H17.7a.92.92,0,0,0,0,1.83H32.3a.92.92,0,0,0,0-1.83Z"/><path class="cls-1" d="M38.69,7.66H36.86V5.84H31.39V7.66H18.61V5.84H13.14V7.66H9.49v36.5h31V7.66Zm-5.48,0H35V9.49H33.21ZM15,7.66h1.83V9.49H15ZM38.69,42.33H11.31V9.49h1.83v1.82h5.47V9.49H31.39v1.82h5.47V9.49h1.83Z"/></svg>