<?xml version="1.0" encoding="utf-8"?>
<!-- Generator: Adobe Illustrator 19.2.1, SVG Export Plug-In . SVG Version: 6.00 Build 0)  -->
<svg version="1.1" xmlns="http://www.w3.org/2000/svg" xmlns:xlink="http://www.w3.org/1999/xlink" x="0px" y="0px"
	 viewBox="0 0 105 105" enable-background="new 0 0 105 105" xml:space="preserve">
<g id="border_centrale_bkgd">
</g>
<g id="Repères" display="none">
</g>
<g id="Calque_3">
</g>
<g id="footer">
</g>
<g id="what_x27_s_new">
</g>
<g id="équipe">
</g>
<g id="chiffres">
	<path fill="none" stroke="#1C1C1C" stroke-width="2" stroke-miterlimit="10" d="M58.81362,26.70843l-3.36527-4.75459
		c2.97593-1.44917,5.07731-4.95273,5.07731-9.0515c0-5.39437-3.63603-9.76742-8.12122-9.76742s-8.12123,4.37305-8.12123,9.76742
		c0,4.05727,2.05749,7.53537,4.98548,9.01103l-3.66853,4.66336l-0.92187,4.52155l9.30648,4.74104l7.90173-4.78494L58.81362,26.70843
		z"/>
	<path fill="none" stroke="#1C1C1C" stroke-width="2" stroke-miterlimit="10" d="M60.55198,102.04069H44.93966
		c-0.91472,0-1.65625-0.74153-1.65625-1.65625v-9.30405c0-0.91472,0.74153-1.65625,1.65625-1.65625h15.61232
		c0.91472,0,1.65625,0.74153,1.65625,1.65625v9.30405C62.20823,101.29916,61.4667,102.04069,60.55198,102.04069z"/>
	
		<rect x="6.48515" y="31.5983" fill="none" stroke="#1C1C1C" stroke-width="2" stroke-miterlimit="10" width="92.52134" height="6.30827"/>
	<polygon fill="none" stroke="#1C1C1C" stroke-width="2" stroke-miterlimit="10" points="40.68353,51.5745 45.95135,89.42414 
		58.76972,89.42414 64.47035,51.5745 	"/>
	
		<polygon fill="#43607C" stroke="#1C1C1C" stroke-width="2" stroke-linecap="round" stroke-linejoin="round" stroke-miterlimit="10" points="
		66.81164,32.00549 66.28485,36.47832 64.47035,51.5745 52.62392,51.5745 52.52996,51.5745 40.68353,51.5745 38.86903,36.47832 
		38.34225,31.94452 37.54248,25.72004 46.41349,25.70242 52.49178,31.7719 57.88009,25.71385 67.50678,25.81433 	"/>
	<polygon fill="none" stroke="#1C1C1C" stroke-width="2" stroke-miterlimit="10" points="40.63963,51.5745 44.06371,74.70483 
		61.15487,74.70483 64.4265,51.5745 	"/>
	
		<line fill="none" stroke="#1C1C1C" stroke-width="2" stroke-miterlimit="10" x1="52.74582" y1="60.51122" x2="52.74582" y2="89.94983"/>
</g>
<g id="petite_histoire">
</g>
<g id="menu">
</g>
</svg>
