<?xml version="1.0" encoding="utf-8"?>
<!-- Generator: Adobe Illustrator 19.2.1, SVG Export Plug-In . SVG Version: 6.00 Build 0)  -->
<svg version="1.1" xmlns="http://www.w3.org/2000/svg" xmlns:xlink="http://www.w3.org/1999/xlink" x="0px" y="0px"
	 viewBox="0 0 31 42.77888" enable-background="new 0 0 31 42.77888" xml:space="preserve">
<g id="Calque_4">
	
		<line opacity="0.15" fill="none" stroke="#000000" stroke-width="0.5" stroke-miterlimit="10" x1="649.51263" y1="-2918.06055" x2="647.48438" y2="2237.29175"/>
</g>
<g id="Repères" display="none">
</g>
<g id="_x31_6_Col_Grid" display="none" opacity="0.1" enable-background="new    ">
	<g display="inline">
		<g>
			<rect x="1078.48438" y="-2922.70825" fill="#FF0000" width="40" height="1020"/>
		</g>
		<g>
			<rect x="1018.48438" y="-2922.70825" fill="#FF0000" width="40" height="1020"/>
		</g>
		<g>
			<rect x="958.48438" y="-2922.70825" fill="#FF0000" width="40" height="1020"/>
		</g>
		<g>
			<rect x="898.48438" y="-2922.70825" fill="#FF0000" width="40" height="1020"/>
		</g>
		<g>
			<rect x="838.48438" y="-2922.70825" fill="#FF0000" width="40" height="1020"/>
		</g>
		<g>
			<rect x="778.48438" y="-2922.70825" fill="#FF0000" width="40" height="1020"/>
		</g>
		<g>
			<rect x="718.48438" y="-2922.70825" fill="#FF0000" width="40" height="1020"/>
		</g>
		<g>
			<rect x="658.48438" y="-2922.70825" fill="#FF0000" width="40" height="1020"/>
		</g>
		<g>
			<rect x="598.48438" y="-2922.70825" fill="#FF0000" width="40" height="1020"/>
		</g>
		<g>
			<rect x="538.48438" y="-2922.70825" fill="#FF0000" width="40" height="1020"/>
		</g>
		<g>
			<rect x="478.48438" y="-2922.70825" fill="#FF0000" width="40" height="1020"/>
		</g>
		<g>
			<rect x="418.48438" y="-2922.70825" fill="#FF0000" width="40" height="1020"/>
		</g>
		<g>
			<rect x="358.48438" y="-2922.70825" fill="#FF0000" width="40" height="1020"/>
		</g>
		<g>
			<rect x="298.48438" y="-2922.70825" fill="#FF0000" width="40" height="1020"/>
		</g>
		<g>
			<rect x="238.48438" y="-2922.70825" fill="#FF0000" width="40" height="1020"/>
		</g>
		<g>
			<rect x="178.48438" y="-2922.70825" fill="#FF0000" width="40" height="1020"/>
		</g>
	</g>
</g>
<g id="Calque_3">
	<polygon opacity="0.39" fill="#EAEAEA" points="623.68561,-529.72943 595.43652,-529.72943 595.43652,-641.64484 
		623.68561,-641.64484 623.68561,-646.3656 595.43652,-646.3656 590.71576,-646.3656 590.71576,-641.64484 590.71576,-529.72943 
		590.71576,-525.00867 595.43652,-525.00867 623.68561,-525.00867 	"/>
	<polygon opacity="0.39" fill="#EAEAEA" points="707.35095,-646.36499 679.11768,-646.36499 679.11768,-641.64417 
		707.35095,-641.64417 707.35095,-529.72882 679.11768,-529.72882 679.11768,-525.01117 707.35095,-525.01117 712.07172,-525.01117 
		712.07172,-529.72882 712.07172,-641.64417 712.07172,-646.36499 	"/>
	<path opacity="0.39" fill="#EAEAEA" d="M651.09924-618.59644l-27.59985,65.72858l27.59985-13.95123l27.59991,13.95123
		L651.09924-618.59644z M651.09924-606.40692l18.28125,43.54279l-16.15088-8.16522l-2.13037-1.07776l-2.13031,1.07776
		l-16.15405,8.16522L651.09924-606.40692z"/>
	<rect x="132.81537" y="-2936.31494" fill="#1A2530" width="1027.28394" height="631.24402"/>
	<polygon fill="#FFFFFF" points="184.15552,-2895.60449 179.04021,-2895.60449 179.04021,-2915.86987 184.15552,-2915.86987 
		184.15552,-2916.72461 179.04021,-2916.72461 178.18536,-2916.72461 178.18536,-2915.86987 178.18536,-2895.60449 
		178.18536,-2894.74951 179.04021,-2894.74951 184.15552,-2894.74951 	"/>
	<polygon fill="#FFFFFF" points="199.30551,-2916.72461 194.19307,-2916.72461 194.19307,-2915.86963 199.30551,-2915.86963 
		199.30551,-2895.60425 194.19307,-2895.60425 194.19307,-2894.75 199.30551,-2894.75 200.16034,-2894.75 200.16034,-2895.60425 
		200.16034,-2915.86963 200.16034,-2916.72461 	"/>
	<path fill="#FFFFFF" d="M189.11954-2911.69629l-4.99776,11.9021l4.99776-2.52637l4.99774,2.52637L189.11954-2911.69629z
		 M189.11954-2909.48901l3.31033,7.88477l-2.92458-1.47876l-0.38576-0.19507l-0.38576,0.19507l-2.92516,1.47876
		L189.11954-2909.48901z"/>
	<path fill="#FFFFFF" d="M207.33015-2902.63208h0.01141l3.58768-6.19727h1.2229l-3.56427,6.19727l4.04192,6.17383h-1.1881
		L207.33015-2902.63208z M206.61913-2896.45825h-1.04828v-18.5564h1.04828V-2896.45825z"/>
	<path fill="#FFFFFF" d="M217.45314-2897.29688c1.42319,0,2.53938-2.03857,2.53938-5.34717c0-3.30811-1.11847-5.3584-2.53938-5.3584
		c-1.47057,0-2.5394,2.05029-2.5394,5.3584C214.91374-2899.33545,216.09784-2897.29688,217.45314-2897.29688 M217.45314-2896.24878
		c-1.71367,0-3.65787-2.27173-3.65787-6.39526s1.84033-6.40649,3.65787-6.40649c1.81694,0,3.65729,2.28296,3.65729,6.40649
		S219.20047-2896.24878,217.45314-2896.24878"/>
	<polygon fill="#FFFFFF" points="222.27632,-2896.45825 227.61133,-2907.85083 223.0564,-2907.85083 223.0564,-2908.82886 
		229.20743,-2908.82886 223.86044,-2897.43701 229.03224,-2897.43701 229.03224,-2896.45825 	"/>
	<path fill="#FFFFFF" d="M234.27452-2908.0022c-1.56073,0-2.51599,1.53784-2.714,4.03052l-0.04623,0.64087h4.70615l0.05765-0.82739
		C236.37166-2906.59277,235.6378-2908.0022,234.27452-2908.0022 M237.19853-2902.34082l-5.70764-0.01196l0.05821,0.57129
		c0.26764,2.8418,1.75873,4.48413,3.24985,4.48413c0.60603,0,1.1881-0.18604,1.64232-0.40747l0.34982,0.92041
		c-0.62943,0.30298-1.46773,0.53589-2.23695,0.53589c-2.25978,0-4.18172-2.81909-4.18172-6.76782
		c0-4.05396,2.02695-6.03418,3.94888-6.03418C236.70947-2909.05054,237.75777-2906.1499,237.19853-2902.34082"/>
	<path fill="#FFFFFF" d="M244.15353-2898.22852v-5.23071h-0.51244c-2.11996,0-3.80908,0.78003-3.80908,3.34351
		c0,1.74683,1.02489,2.78369,2.411,2.78369C243.04477-2897.33203,243.67477-2897.74976,244.15353-2898.22852 M238.71355-2900.38403
		c0-2.14331,1.63091-3.96021,4.93896-4.12354l0.50102-0.02319c-0.02339-2.57422-0.93185-3.47144-2.45778-3.47144
		c-0.57123,0-1.28168,0.29175-1.80553,0.53589l-0.36124-1.05957c0.80406-0.31519,1.77074-0.52466,2.42299-0.52466
		c1.93335,0,3.24985,1.28174,3.24985,3.69287v8.75928l-1.11848-0.52368l-0.25621,0.20947
		c-0.48904,0.396-1.1179,0.62866-1.82837,0.62866C240.21606-2896.28394,238.71355-2897.92627,238.71355-2900.38403"/>
	<path fill="#FFFFFF" d="M232.55344-2892.96729c0,0.19238,0.05821,0.34131,0.17519,0.44751
		c0.11641,0.1062,0.27278,0.15918,0.46794,0.15918c0.20714,0,0.36693-0.05249,0.47705-0.15796
		c0.11072-0.10498,0.16606-0.25757,0.16606-0.45776c0-0.21167-0.05649-0.37085-0.17062-0.47705
		c-0.11356-0.1062-0.2722-0.15918-0.47705-0.15918c-0.19859,0-0.35439,0.05713-0.46794,0.17065
		S232.55344-2893.16968,232.55344-2892.96729 M232.3634-2890.83398c0,0.3418,0.25452,0.51245,0.76239,0.51245
		c0.65283,0,0.97981-0.2085,0.97981-0.62451c0-0.14941-0.05136-0.25781-0.15408-0.3252
		c-0.10214-0.06665-0.26762-0.10034-0.49646-0.10034h-0.40744C232.59167-2891.37158,232.3634-2891.19238,232.3634-2890.83398
		 M234.37781-2893.74268v0.15747l-0.51474,0.03247c0.13696,0.17065,0.20544,0.3584,0.20544,0.56274
		c0,0.23975-0.0799,0.43359-0.23911,0.58252s-0.3732,0.22314-0.64198,0.22314c-0.11241,0-0.19231-0.00439-0.23796-0.01367
		c-0.09016,0.04736-0.15863,0.10278-0.20543,0.16724c-0.04794,0.06396-0.07133,0.13184-0.07133,0.20386
		c0,0.07861,0.03024,0.13672,0.09016,0.17334s0.16148,0.05542,0.30359,0.05542h0.43427c0.27049,0,0.47707,0.0542,0.62029,0.16309
		c0.14323,0.10962,0.21513,0.27051,0.21513,0.48462c0,0.26196-0.10612,0.46436-0.31898,0.60718
		c-0.21284,0.14307-0.51643,0.21387-0.91019,0.21387c-0.31271,0-0.55467-0.05981-0.72643-0.18018
		c-0.17178-0.12109-0.25737-0.28882-0.25737-0.50391c0-0.17065,0.05307-0.31274,0.15921-0.42529
		c0.10614-0.11353,0.24994-0.19043,0.43083-0.23169c-0.07419-0.03198-0.13409-0.0769-0.17917-0.13623
		c-0.04453-0.05835-0.06735-0.12549-0.06735-0.20215c0-0.1665,0.10558-0.31274,0.31786-0.43994
		c-0.14494-0.05933-0.25793-0.15283-0.33896-0.28003c-0.08046-0.12744-0.12099-0.27344-0.12099-0.43848
		c0-0.24878,0.07875-0.44775,0.2374-0.59839c0.1575-0.15015,0.37035-0.22485,0.63913-0.22485
		c0.16321,0,0.28989,0.01538,0.38005,0.04785H234.37781z"/>
	<path fill="#FFFFFF" d="M236.10146-2893.79077c0.10558,0,0.21799,0.01025,0.33896,0.03198l-0.04337,0.21729
		c-0.10385-0.02563-0.21114-0.03882-0.32242-0.03882c-0.21228,0-0.38634,0.0896-0.52272,0.27002
		c-0.1358,0.18018-0.20258,0.40747-0.20258,0.68188v1.37354h-0.22711v-2.48804h0.19174l0.02339,0.44849h0.0154
		c0.10272-0.18311,0.21172-0.31152,0.32813-0.38574C235.79672-2893.75366,235.9371-2893.79077,236.10146-2893.79077"/>
	<path fill="#FFFFFF" d="M237.2746-2892.50244c0,0.3418,0.07532,0.6084,0.2254,0.80005
		c0.14951,0.19116,0.36293,0.28711,0.63684,0.28711c0.27505,0,0.48734-0.09595,0.63799-0.28711
		c0.15009-0.19165,0.2254-0.45825,0.2254-0.80005c0-0.34302-0.07588-0.60938-0.22826-0.79883
		c-0.15179-0.18945-0.36464-0.28369-0.63969-0.28369c-0.27391,0-0.48563,0.09424-0.63513,0.28247
		C237.34879-2893.11401,237.2746-2892.84717,237.2746-2892.50244 M239.2382-2892.50244c0,0.40576-0.09872,0.72241-0.29561,0.95068
		c-0.19687,0.22827-0.46793,0.34253-0.81488,0.34253c-0.21799,0-0.41029-0.05249-0.57635-0.1582
		c-0.16663-0.10498-0.29388-0.2561-0.38234-0.45313c-0.08846-0.19678-0.13239-0.42383-0.13239-0.68188
		c0-0.40576,0.09814-0.72192,0.29503-0.94824c0.19687-0.22729,0.46736-0.34033,0.80974-0.34033
		c0.34183,0,0.61003,0.11475,0.80463,0.34424C239.14061-2893.2168,239.2382-2892.90234,239.2382-2892.50244"/>
	<path fill="#FFFFFF" d="M240.35793-2893.74268v1.61084c0,0.25,0.05251,0.43213,0.1575,0.54614
		c0.10558,0.11353,0.26935,0.17017,0.49019,0.17017c0.29617,0,0.51358-0.07471,0.6534-0.22363
		c0.1398-0.15015,0.20943-0.39331,0.20943-0.73047v-1.37305h0.22426v2.48755h-0.19231l-0.04108-0.34302h-0.0137
		c-0.1615,0.25952-0.44968,0.38916-0.86339,0.38916c-0.56552,0-0.84856-0.30298-0.84856-0.90918v-1.62451H240.35793z"/>
	<path fill="#FFFFFF" d="M244.21945-2891.41064c0.25508,0,0.45253-0.09473,0.59235-0.28418
		c0.13866-0.18896,0.20885-0.45361,0.20885-0.7937c0-0.7312-0.26364-1.09644-0.79205-1.09644
		c-0.28932,0-0.50218,0.07935-0.63799,0.23926c-0.1364,0.15967-0.2043,0.4187-0.2043,0.77881v0.07373
		c0,0.38916,0.06563,0.6665,0.1963,0.83301C243.71272-2891.4939,243.925-2891.41064,244.21945-2891.41064 M244.22403-2891.20923
		c-0.38234,0-0.66196-0.14331-0.83772-0.43018h-0.01541l0.00629,0.19214c0.00627,0.11255,0.00912,0.23633,0.00912,0.37036v0.948
		h-0.22655v-3.61401h0.19231l0.04395,0.35449h0.0137c0.17062-0.26831,0.44395-0.40234,0.81888-0.40234
		c0.33554,0,0.59177,0.11011,0.76808,0.33081c0.17635,0.22046,0.26479,0.54102,0.26479,0.96216
		c0,0.40869-0.093,0.72583-0.27847,0.95068C244.79753-2891.32178,244.54472-2891.20923,244.22403-2891.20923"/>
	<rect x="217.26328" y="-2893.34033" fill="#007BB8" width="1.74219" height="1.74219"/>
	<rect x="219.75586" y="-2893.34033" fill="#F49A2F" width="1.74219" height="1.74219"/>
	<rect x="222.25417" y="-2893.34033" fill="#E53C4C" width="1.74219" height="1.74219"/>
	<rect x="224.75191" y="-2893.34033" fill="#6E5F84" width="1.74219" height="1.74219"/>
	<rect x="227.25078" y="-2893.34033" fill="#56BCB5" width="1.74219" height="1.74219"/>
	<g>
		<rect x="343.15103" y="886.38135" fill="none" width="610" height="43.66667"/>
		<text transform="matrix(1 0 0 1 539.39331 914.66083)" fill="#1A2530" font-family="'Hind-Bold'" font-size="40px">Suivez-nous</text>
	</g>
	
		<image overflow="visible" width="640" height="640" xlink:href="../../../../Images/Capture d&apos;écran de 2016-04-04 14-44-05.png"  transform="matrix(0.36719 0 0 0.36719 648.48334 1000.94556)">
	</image>
	
		<image overflow="visible" width="606" height="606" xlink:href="../../../../Images/Capture d&apos;écran de 2016-04-04 14-44-07.png"  transform="matrix(0.38779 0 0 0.38779 413.48364 1000.94373)">
	</image>
	
		<image overflow="visible" width="640" height="640" xlink:href="../../../../Images/Capture d&apos;écran de 2016-04-04 14-44-12.png"  transform="matrix(0.36719 0 0 0.36719 178.48438 1000.94556)">
	</image>
	<rect x="883.48297" y="1000.95453" fill="#D3D3D3" width="235" height="234.99106"/>
	<g>
		<rect x="952.5246" y="1142.32739" fill="none" width="96.16666" height="18.24362"/>
		<text transform="matrix(1 0 0 1 967.69788 1157.52747)" fill="#FFFFFF" font-family="'OpenSansLight-Italic'" font-size="20px">@kozea</text>
	</g>
	<g>
		<path fill="#FFFFFF" d="M406.38217,1021.63171h-11.79559c-0.97684,0-1.76886-0.7923-1.76886-1.76984v-11.79462
			c0-0.97693,0.79202-1.76886,1.76886-1.76886h11.79559c0.97696,0,1.76886,0.79193,1.76886,1.76886v11.79462
			C408.15103,1020.83942,407.35913,1021.63171,406.38217,1021.63171L406.38217,1021.63171z M400.48431,1011.01617
			c-1.62866,0-2.94873,1.31995-2.94873,2.94861c0,1.62842,1.32007,2.94904,2.94873,2.94904s2.94901-1.32062,2.94901-2.94904
			C403.43332,1012.33612,402.11298,1011.01617,400.48431,1011.01617L400.48431,1011.01617z M406.38217,1008.65692
			c0-0.3255-0.26413-0.58966-0.59033-0.58966h-1.76886c-0.32578,0-0.58966,0.26416-0.58966,0.58966v1.76959
			c0,0.3255,0.26389,0.58966,0.58966,0.58966h1.76886c0.3262,0,0.59033-0.26416,0.59033-0.58966V1008.65692z M406.38217,1012.78491
			h-1.33484c0.09726,0.3775,0.15469,0.77197,0.15469,1.17987c0,2.60602-2.11212,4.71802-4.71771,4.71802
			c-2.60547,0-4.71774-2.112-4.71774-4.71802c0-0.4079,0.05771-0.80237,0.15497-1.17987h-1.33496v6.48773
			c0,0.32526,0.26413,0.58923,0.59033,0.58923h10.61493c0.3262,0,0.59033-0.26398,0.59033-0.58923V1012.78491z"/>
	</g>
	<g>
		<path fill="#FFFFFF" d="M640.04883,1021.63171h-11.79559c-0.97681,0-1.76886-0.7923-1.76886-1.76984v-11.79462
			c0-0.97693,0.79205-1.76886,1.76886-1.76886h11.79559c0.97699,0,1.76886,0.79193,1.76886,1.76886v11.79462
			C641.81769,1020.83942,641.02582,1021.63171,640.04883,1021.63171L640.04883,1021.63171z M634.151,1011.01617
			c-1.62866,0-2.94873,1.31995-2.94873,2.94861c0,1.62842,1.32007,2.94904,2.94873,2.94904
			c1.6286,0,2.94897-1.32062,2.94897-2.94904C637.09998,1012.33612,635.7796,1011.01617,634.151,1011.01617L634.151,1011.01617z
			 M640.04883,1008.65692c0-0.3255-0.26416-0.58966-0.59033-0.58966h-1.76886c-0.32581,0-0.58966,0.26416-0.58966,0.58966v1.76959
			c0,0.3255,0.26385,0.58966,0.58966,0.58966h1.76886c0.32617,0,0.59033-0.26416,0.59033-0.58966V1008.65692z M640.04883,1012.78491
			h-1.33484c0.09729,0.3775,0.15472,0.77197,0.15472,1.17987c0,2.60602-2.11212,4.71802-4.71771,4.71802
			c-2.60553,0-4.71777-2.112-4.71777-4.71802c0-0.4079,0.05774-0.80237,0.15497-1.17987h-1.33496v6.48773
			c0,0.32526,0.26416,0.58923,0.59033,0.58923h10.61493c0.32617,0,0.59033-0.26398,0.59033-0.58923V1012.78491z"/>
	</g>
	<g>
		<path fill="#FFFFFF" d="M876.71552,1021.63171h-11.79559c-0.97681,0-1.76886-0.7923-1.76886-1.76984v-11.79462
			c0-0.97693,0.79205-1.76886,1.76886-1.76886h11.79559c0.97693,0,1.76886,0.79193,1.76886,1.76886v11.79462
			C878.48438,1020.83942,877.69244,1021.63171,876.71552,1021.63171L876.71552,1021.63171z M870.81763,1011.01617
			c-1.62866,0-2.94873,1.31995-2.94873,2.94861c0,1.62842,1.32007,2.94904,2.94873,2.94904s2.94904-1.32062,2.94904-2.94904
			C873.76666,1012.33612,872.44629,1011.01617,870.81763,1011.01617L870.81763,1011.01617z M876.71552,1008.65692
			c0-0.3255-0.26416-0.58966-0.59033-0.58966h-1.76886c-0.32581,0-0.58966,0.26416-0.58966,0.58966v1.76959
			c0,0.3255,0.26385,0.58966,0.58966,0.58966h1.76886c0.32617,0,0.59033-0.26416,0.59033-0.58966V1008.65692z M876.71552,1012.78491
			h-1.33484c0.09723,0.3775,0.15472,0.77197,0.15472,1.17987c0,2.60602-2.11212,4.71802-4.71777,4.71802
			c-2.60547,0-4.71771-2.112-4.71771-4.71802c0-0.4079,0.05768-0.80237,0.15497-1.17987h-1.33496v6.48773
			c0,0.32526,0.26416,0.58923,0.59033,0.58923h10.61493c0.32617,0,0.59033-0.26398,0.59033-0.58923V1012.78491z"/>
	</g>
	<g>
		<polygon fill="#FFFFFF" points="991.69952,1129.56592 980.70337,1129.56592 980.70337,1086.00378 991.69952,1086.00378 
			991.69952,1084.16675 980.70337,1084.16675 978.86627,1084.16675 978.86627,1086.00378 978.86627,1129.56592 
			978.86627,1131.40295 980.70337,1131.40295 991.69952,1131.40295 		"/>
		<polygon fill="#FFFFFF" points="1024.26538,1084.16675 1013.27563,1084.16675 1013.27563,1086.00378 1024.26538,1086.00378 
			1024.26538,1129.56592 1013.27563,1129.56592 1013.27563,1131.40295 1024.26538,1131.40295 1026.10242,1131.40295 
			1026.10242,1129.56592 1026.10242,1086.00378 1026.10242,1084.16675 		"/>
	</g>
	<path fill="#FFFFFF" d="M1002.37006,1099.72009l7.11621,16.94836l-6.28748-3.17834l-0.82874-0.41895l-0.8288,0.41895
		l-6.28735,3.17834L1002.37006,1099.72009 M1002.37006,1094.97473l-10.74255,25.58533l10.74255-5.43042l10.74261,5.43042
		L1002.37006,1094.97473L1002.37006,1094.97473z"/>
	<rect x="138.58081" y="1394.56104" fill="#007BB8" width="225.13538" height="3.36701"/>
	<rect x="363.71619" y="1394.56104" fill="#F49A2F" width="190.55972" height="3.36701"/>
	<rect x="552.36084" y="1394.56104" fill="#E53C4C" width="190.55968" height="3.36701"/>
	<rect x="742.92657" y="1394.56104" fill="#6E5F84" width="190.55971" height="3.36701"/>
	<rect x="933.48022" y="1394.56104" fill="#56BCB5" width="225.13541" height="3.36701"/>
	<rect x="194.48438" y="1316.625" fill="none" width="175" height="22"/>
	
		<text transform="matrix(1 0 0 1 194.48438 1323.46472)" opacity="0.27" fill="#1A2530" font-family="'OpenSans-Light'" font-size="9px">Adresse</text>
	<rect x="429.48438" y="1316.625" fill="none" width="175" height="14"/>
	
		<text transform="matrix(1 0 0 1 429.48438 1323.46472)" opacity="0.27" fill="#1A2530" font-family="'OpenSans-Light'" font-size="9px">Contact</text>
	<rect x="662.81769" y="1317.29163" fill="none" width="175" height="22"/>
	
		<text transform="matrix(1 0 0 1 662.81769 1324.13147)" opacity="0.27" fill="#1A2530" font-family="'OpenSans-Light'" font-size="9px">Suivez-nous</text>
	<rect x="898.81769" y="1372.625" fill="none" width="200" height="25"/>
	<text transform="matrix(1 0 0 1 898.81769 1378.70496)" fill="#1C1C1C" font-family="'OpenSans-Light'" font-size="8px">Mentions légales  -  @2016 Made by Kozea with </text>
	<rect x="194.48438" y="1336.95837" fill="none" width="227" height="51"/>
	<text transform="matrix(1 0 0 1 194.48438 1343.79822)"><tspan x="0" y="0" fill="#1C1C1C" font-family="'OpenSans-Light'" font-size="9px">107 Boulevard Stalingrad</tspan><tspan x="0" y="18" fill="#1C1C1C" font-family="'OpenSans-Light'" font-size="9px">69100</tspan><tspan x="0" y="36" fill="#1C1C1C" font-family="'OpenSans-Light'" font-size="9px">VIlleurbanne</tspan></text>
	<rect x="429.48438" y="1336.95837" fill="none" width="227" height="15"/>
	<text transform="matrix(1 0 0 1 429.48438 1343.79822)" fill="#1C1C1C" font-family="'OpenSans-Light'" font-size="9px">+33 4 78 84 19 28</text>
	<rect x="429.48438" y="1356.95837" fill="none" width="227" height="15"/>
	<text transform="matrix(1 0 0 1 429.48438 1363.79822)" fill="#1C1C1C" font-family="'OpenSans-Light'" font-size="9px">contact@kozea.fr</text>
	<rect x="662.81769" y="1336.95837" fill="none" width="57.33333" height="47.66667"/>
	<text transform="matrix(1 0 0 1 662.81769 1343.79822)"><tspan x="0" y="0" fill="#1C1C1C" font-family="'OpenSans-Light'" font-size="9px">Facebook</tspan><tspan x="0" y="18" fill="#1C1C1C" font-family="'OpenSans-Light'" font-size="9px">Instagram</tspan><tspan x="0" y="36" fill="#1C1C1C" font-family="'OpenSans-Light'" font-size="9px">Twitter</tspan></text>
	<rect x="781.48438" y="1336.95837" fill="none" width="57.33333" height="47.66667"/>
	<text transform="matrix(1 0 0 1 781.48438 1343.79822)"><tspan x="0" y="0" fill="#1C1C1C" font-family="'OpenSans-Light'" font-size="9px">Linkedin</tspan><tspan x="0" y="18" fill="#1C1C1C" font-family="'OpenSans-Light'" font-size="9px">Youtube</tspan><tspan x="0" y="36" fill="#1C1C1C" font-family="'OpenSans-Light'" font-size="9px">Github</tspan></text>
	<path fill="#1C1C1C" d="M1078.94312,1374.02698c-0.98535-1.47803-2.45874,0.26465-2.45874,0.26465
		s-1.47339-1.74268-2.45874-0.26465c-1.11768,1.67627,2.45874,4.35889,2.45874,4.35889S1080.06079,1375.70325,1078.94312,1374.02698
		z"/>
	
		<line opacity="0.15" fill="none" stroke="#000000" stroke-width="0.5" stroke-miterlimit="10" x1="413.44272" y1="1297.26074" x2="413.44272" y2="1531.91663"/>
	
		<line opacity="0.15" fill="none" stroke="#000000" stroke-width="0.5" stroke-miterlimit="10" x1="883.48956" y1="1297.94275" x2="883.48956" y2="1532.59863"/>
	<g>
		<polygon fill="#EAEAEA" points="911.12604,1358.79114 901.47809,1358.79114 901.47809,1320.57007 911.12604,1320.57007 
			911.12604,1318.95837 901.47809,1318.95837 899.86627,1318.95837 899.86627,1320.57007 899.86627,1358.79114 
			899.86627,1360.40295 901.47809,1360.40295 911.12604,1360.40295 		"/>
		<polygon fill="#EAEAEA" points="939.6991,1318.95837 930.05676,1318.95837 930.05676,1320.57007 939.6991,1320.57007 
			939.6991,1358.79114 930.05676,1358.79114 930.05676,1360.40295 939.6991,1360.40295 941.31091,1360.40295 941.31091,1358.79114 
			941.31091,1320.57007 941.31091,1318.95837 		"/>
	</g>
	<path fill="#EAEAEA" d="M920.48828,1332.60461l6.24371,14.87036l-5.5166-2.78857l-0.72711-0.36755l-0.72717,0.36755
		l-5.51648,2.78857L920.48828,1332.60461 M920.48828,1328.44116l-9.42542,22.44824l9.42542-4.76453l9.42548,4.76453
		L920.48828,1328.44116L920.48828,1328.44116z"/>
	<rect x="446.87494" y="-1323.99438" fill="none" width="407.88721" height="50.8926"/>
	<text transform="matrix(1 0 0 1 491.07269 -1308.79456)"><tspan x="0" y="0" fill="#1C1C1C" font-family="'OpenSans-Light'" font-size="20px">Kozea group se compose de quatre </tspan><tspan x="14.90723" y="27" fill="#1C1C1C" font-family="'OpenSans-Light'" font-size="20px">structures au service de la santé</tspan></text>
	<rect x="419.73438" y="-1386.9519" fill="none" width="462" height="49"/>
	<text transform="matrix(1 0 0 1 527.11719 -1358.67273)" fill="#1A2530" font-family="'Hind-Bold'" font-size="40px">Notre activité</text>
	<rect x="416.73438" y="-2220.9519" fill="none" width="462" height="49"/>
	<text transform="matrix(1 0 0 1 580.99561 -2192.67261)" fill="#1A2530" font-family="'Hind-Bold'" font-size="40px">K.O.Z.E</text>
	<rect x="297.23438" y="-2168.70825" fill="none" width="703" height="118.16629"/>
	<text transform="matrix(1 0 0 1 307.83105 -2153.50854)"><tspan x="0" y="0" fill="#1C1C1C" font-family="'OpenSans-Light'" font-size="20px">Kozea group a été fondée en 2007 avec la volonté de se positionner comme </tspan><tspan x="139.24316" y="27" fill="#1C1C1C" font-family="'OpenSans-Light'" font-size="20px">un </tspan><tspan x="168.03223" y="27" fill="#1C1C1C" font-family="'OpenSans'" font-size="20px">expert du web pour les acteurs de santé </tspan><tspan x="19.63867" y="54" fill="#1C1C1C" font-family="'OpenSans-Light'" font-size="20px">(pharmaciens, médecins généralistes et spécialistes, cliniques, hôpitaux, </tspan><tspan x="193.0957" y="81" fill="#1C1C1C" font-family="'OpenSans-Light'" font-size="20px">laboratoires pharmaceutiques...).</tspan></text>
	<rect x="297.1521" y="-1957.02124" fill="#F9F9F9" width="351.40518" height="343.85712"/>
	<g>
		<rect x="329.20206" y="-1913.59436" fill="none" width="293.89291" height="271.88947"/>
		<text transform="matrix(1 0 0 1 329.20212 -1900.67395)"><tspan x="0" y="0" fill="#1C1C1C" font-family="'OpenSans-Light'" font-size="17px">Kozea group a réussi à faire évoluer </tspan><tspan x="0" y="27" fill="#1C1C1C" font-family="'OpenSans-Light'" font-size="17px">des offres spécifiques pour répondre </tspan><tspan x="0" y="54" fill="#1C1C1C" font-family="'OpenSans-Light'" font-size="17px">au plus près aux besoins de leurs </tspan><tspan x="0" y="81" fill="#1C1C1C" font-family="'OpenSans-Light'" font-size="17px">clients.</tspan><tspan x="0" y="135" fill="#1C1C1C" font-family="'OpenSans-Light'" font-size="17px">Elle a su proposer des services </tspan><tspan x="0" y="162" fill="#1C1C1C" font-family="'OpenSans-Light'" font-size="17px">adaptés et des nouveaux leviers de </tspan><tspan x="0" y="189" fill="#1C1C1C" font-family="'OpenSans-Light'" font-size="17px">croissance à une population exigeante </tspan><tspan x="0" y="216" fill="#1C1C1C" font-family="'OpenSans-Light'" font-size="17px">avec des contraintes réglementaires </tspan><tspan x="0" y="243" fill="#1C1C1C" font-family="'OpenSans-Light'" font-size="17px">poussées.</tspan></text>
	</g>
	
		<image overflow="visible" width="471" height="442" xlink:href="banner-whitebook.jpg"  transform="matrix(0.99926 0 0 0.99926 648.21661 -118.10549)">
	</image>
	
		<line fill="#007BB8" stroke="#007BB8" stroke-width="3" stroke-miterlimit="10" x1="648.36456" y1="-118.8177" x2="1117.88306" y2="-118.8005"/>
	<rect x="138.48433" y="-2305.94849" fill="#007BB8" width="225.12769" height="2.22012"/>
	<rect x="363.61203" y="-2305.94849" fill="#F49A2F" width="190.55324" height="2.22012"/>
	<rect x="552.25024" y="-2305.94849" fill="#E53C4C" width="190.55318" height="2.22012"/>
	<rect x="742.80951" y="-2305.94849" fill="#6E5F84" width="190.55321" height="2.22012"/>
	<rect x="933.35663" y="-2305.94849" fill="#56BCB5" width="225.12772" height="2.22012"/>
	<rect x="582.96295" y="-2045.375" fill="none" width="134" height="17"/>
	<text transform="matrix(1 0 0 1 613.32288 -2034.73499)" fill="#69737C" font-family="'OpenSans-Light'" font-size="14px">[ à propos ]</text>
	<g opacity="0.8">
		<defs>
			<rect id="SVGID_1_" x="178.65802" y="-896.60883" opacity="0.8" width="470" height="308"/>
		</defs>
		<clipPath id="SVGID_2_">
			<use xlink:href="#SVGID_1_"  overflow="visible"/>
		</clipPath>
		<g clip-path="url(#SVGID_2_)">
			
				<image overflow="visible" width="1000" height="607" xlink:href="9576477C.jpg"  transform="matrix(0.51633 0 0 0.51633 176.44411 -900.58331)">
			</image>
		</g>
	</g>
	<g opacity="0.8">
		<defs>
			<rect id="SVGID_3_" x="178.65802" y="-1204.60889" opacity="0.8" width="470" height="308"/>
		</defs>
		<clipPath id="SVGID_4_">
			<use xlink:href="#SVGID_3_"  overflow="visible"/>
		</clipPath>
		<g clip-path="url(#SVGID_4_)">
			
				<image overflow="visible" width="1000" height="667" xlink:href="9576477D.jpg"  transform="matrix(0.47388 0 0 0.47388 176.27744 -1211.58337)">
			</image>
		</g>
	</g>
	<g opacity="0.8">
		<defs>
			<rect id="SVGID_5_" x="648.81427" y="-896.60883" opacity="0.8" width="470" height="308"/>
		</defs>
		<clipPath id="SVGID_6_">
			<use xlink:href="#SVGID_5_"  overflow="visible"/>
		</clipPath>
		<g transform="matrix(1 0 0 1 0 0)" clip-path="url(#SVGID_6_)">
			
				<image overflow="visible" width="1000" height="667" xlink:href="95764773.jpg"  transform="matrix(0.4735 0 0 0.4735 646.93365 -898.08331)">
			</image>
		</g>
	</g>
	<g opacity="0.8">
		<defs>
			<rect id="SVGID_7_" x="648.81427" y="-1204.60889" opacity="0.8" width="470" height="308"/>
		</defs>
		<clipPath id="SVGID_8_">
			<use xlink:href="#SVGID_7_"  overflow="visible"/>
		</clipPath>
		<g clip-path="url(#SVGID_8_)">
			
				<image overflow="visible" width="1000" height="886" xlink:href="95764774.jpg"  transform="matrix(0.47291 0 0 0.47291 647.60034 -1239.58337)">
			</image>
		</g>
	</g>
	<polygon fill="#FFFFFF" points="621.68561,-2588.06274 593.43652,-2588.06274 593.43652,-2699.97803 621.68561,-2699.97803 
		621.68561,-2704.69897 593.43652,-2704.69897 588.71576,-2704.69897 588.71576,-2699.97803 588.71576,-2588.06274 
		588.71576,-2583.34204 593.43652,-2583.34204 621.68561,-2583.34204 	"/>
	<polygon fill="#FFFFFF" points="705.35095,-2704.69824 677.11768,-2704.69824 677.11768,-2699.97754 705.35095,-2699.97754 
		705.35095,-2588.06226 677.11768,-2588.06226 677.11768,-2583.34448 705.35095,-2583.34448 710.07172,-2583.34448 
		710.07172,-2588.06226 710.07172,-2699.97754 710.07172,-2704.69824 	"/>
	<path fill="#FFFFFF" d="M649.09924-2676.92969l-27.59985,65.72852l27.59985-13.95117l27.59991,13.95117L649.09924-2676.92969z
		 M649.09924-2664.74023l18.28125,43.54272l-16.15088-8.16528l-2.13037-1.07764l-2.13031,1.07764l-16.15405,8.16528
		L649.09924-2664.74023z"/>
	<rect x="558.44159" y="-1256.04163" fill="none" width="185.04282" height="24.33333"/>
	<text transform="matrix(1 0 0 1 574.02405 -1245.40198)" fill="#69737C" font-family="'OpenSans-Light'" font-size="14px">[ Notre activité en détail]</text>
	<rect x="294.92819" y="-397.98398" fill="none" width="703.88721" height="50.8926"/>
	<text transform="matrix(1 0 0 1 321.43256 -382.78427)"><tspan x="0" y="0" fill="#1C1C1C" font-family="'OpenSans-Light'" font-size="20px">Kozea group est aussi présent ailleurs que sur le web, et parfois on parle </tspan><tspan x="257.85645" y="27" fill="#1C1C1C" font-family="'OpenSans-Light'" font-size="20px">même de nous</tspan></text>
	<rect x="347.12094" y="-460.94162" fill="none" width="599.33331" height="49"/>
	<text transform="matrix(1 0 0 1 520.31006 -432.66245)" fill="#1A2530" font-family="'Hind-Bold'" font-size="40px">Nos actualités</text>
	<rect x="294.92819" y="512.01605" fill="none" width="703.88721" height="103.89261"/>
	<text transform="matrix(1 0 0 1 325.97845 527.21576)"><tspan x="0" y="0" fill="#1C1C1C" font-family="'OpenSans-Light'" font-size="20px">Kozea group fait partie d’associations traitant des sujets du web et de la </tspan><tspan x="3.99414" y="27" fill="#1C1C1C" font-family="'OpenSans-Light'" font-size="20px">e-santé. Nous souhaitons élargir notre horizon et pouvoir envisager de </tspan><tspan x="110.71289" y="54" fill="#1C1C1C" font-family="'OpenSans-Light'" font-size="20px">nouvelles perspectives avec ces collaborations.</tspan></text>
	<rect x="347.12094" y="449.05838" fill="none" width="599.33331" height="49"/>
	<text transform="matrix(1 0 0 1 497.87061 477.33755)" fill="#1A2530" font-family="'Hind-Bold'" font-size="40px">Nos partenariats</text>
	<rect x="583.96295" y="943.625" fill="none" width="134" height="17"/>
	<text transform="matrix(1 0 0 1 614.32288 954.26532)" fill="#69737C" font-family="'OpenSans-Light'" font-size="14px">[ à propos ]</text>
	
		<image overflow="visible" width="4705" height="3137" xlink:href="95764777.jpg"  transform="matrix(0.09989 0 0 0.09989 178.03101 -318.87442)">
	</image>
	<g>
		<rect x="177.23322" y="-44.69552" fill="none" width="471.57788" height="33.95594"/>
		<text transform="matrix(1 0 0 1 302.4043 -31.97005)" fill="#FFFFFF" font-family="'Hind-Bold'" font-size="18px">Communiqués de presse</text>
	</g>
	<rect x="750.85565" y="-1126.20837" fill="#E53C4C" width="264.12872" height="158.33482"/>
	<g>
		<rect x="783.63251" y="-1056.68005" fill="none" width="196" height="54.26665"/>
		<text transform="matrix(1 0 0 1 783.63269 -1043.76038)"><tspan x="0" y="0" fill="#FFFFFF" font-family="'OpenSans-Semibold'" font-size="17px">Régie publicitaire pour </tspan><tspan x="0" y="22" fill="#FFFFFF" font-family="'OpenSans-Semibold'" font-size="17px">Kozea platform</tspan></text>
	</g>
	<rect x="785.0697" y="-1003.85535" fill="none" width="185.04282" height="24.33333"/>
	<text transform="matrix(1 0 0 1 785.06927 -993.21564)" fill="#FFFFFF" font-family="'OpenSans-Light'" font-size="14px">[ En savoir plus ]</text>
	<polygon fill="#FFFFFF" points="791.73315,-1073.85669 785.26611,-1073.85669 785.26611,-1099.47729 791.73315,-1099.47729 
		791.73315,-1100.55798 785.26611,-1100.55798 784.18536,-1100.55798 784.18536,-1099.47729 784.18536,-1073.85669 
		784.18536,-1072.77588 785.26611,-1072.77588 791.73315,-1072.77588 	"/>
	<polygon fill="#FFFFFF" points="810.88654,-1100.55786 804.4231,-1100.55786 804.4231,-1099.47717 810.88654,-1099.47717 
		810.88654,-1073.85657 804.4231,-1073.85657 804.4231,-1072.77649 810.88654,-1072.77649 811.96722,-1072.77649 
		811.96722,-1073.85657 811.96722,-1099.47717 811.96722,-1100.55786 	"/>
	<path fill="#FFFFFF" d="M798.00891-1094.20093l-6.31842,15.04724l6.31842-3.19385l6.31842,3.19385L798.00891-1094.20093z
		 M798.00891-1091.41028l4.18506,9.96814l-3.69739-1.86926l-0.48767-0.2467l-0.48773,0.2467l-3.69812,1.86926L798.00891-1091.41028z
		"/>
	<path fill="#FFFFFF" d="M821.03168-1082.74146h0.01447l4.53571-7.83484h1.54608l-4.50616,7.83484l5.10999,7.8053h-1.50201
		L821.03168-1082.74146z M820.13275-1074.93616h-1.32526v-23.45996h1.32526V-1074.93616z"/>
	<path fill="#FFFFFF" d="M833.82971-1075.99658c1.79926,0,3.21039-2.5769,3.21039-6.75989c0-4.18225-1.414-6.77441-3.21039-6.77441
		c-1.85919,0-3.21045,2.59216-3.21045,6.77441C830.61926-1078.57349,832.11627-1075.99658,833.82971-1075.99658
		 M833.82971-1074.67126c-2.1665,0-4.62451-2.87207-4.62451-8.08521s2.32666-8.09961,4.62451-8.09961
		c2.29706,0,4.62372,2.88647,4.62372,8.09961S836.03876-1074.67126,833.82971-1074.67126"/>
	<polygon fill="#FFFFFF" points="839.92743,-1074.93628 846.67218,-1089.33923 840.91364,-1089.33923 840.91364,-1090.57581 
		848.69006,-1090.57581 841.93011,-1076.17358 848.46857,-1076.17358 848.46857,-1074.93628 	"/>
	<path fill="#FFFFFF" d="M855.09613-1089.53064c-1.97314,0-3.18085,1.94434-3.43121,5.09558l-0.05841,0.81018h5.94977
		l0.07288-1.04602C857.74744-1087.74866,856.81964-1089.53064,855.09613-1089.53064 M858.79285-1082.37317l-7.21594-0.01514
		l0.07361,0.72217c0.33838,3.59277,2.22351,5.66907,4.10864,5.66907c0.76617,0,1.50201-0.23511,2.07629-0.51501l0.44226,1.1637
		c-0.79578,0.38306-1.85559,0.67737-2.82806,0.67737c-2.85693,0-5.28674-3.56396-5.28674-8.55627
		c0-5.12524,2.56256-7.62866,4.99237-7.62866C858.17456-1090.85596,859.49982-1087.18884,858.79285-1082.37317"/>
	<path fill="#FFFFFF" d="M867.58569-1077.17432v-6.61279h-0.64783c-2.68018,0-4.81567,0.98621-4.81567,4.22693
		c0,2.20837,1.29572,3.51917,3.0481,3.51917C866.18396-1076.04102,866.98041-1076.56909,867.58569-1077.17432 M860.70819-1079.89929
		c0-2.70972,2.06189-5.00684,6.24408-5.21313l0.63342-0.02954c-0.0296-3.25452-1.1781-4.38855-3.10724-4.38855
		c-0.72217,0-1.62036,0.36865-2.28265,0.67737l-0.45667-1.33972c1.01648-0.39819,2.23865-0.66296,3.06323-0.66296
		c2.44427,0,4.10864,1.62036,4.10864,4.66846v11.07422l-1.41406-0.66235l-0.32391,0.26477
		c-0.61829,0.50073-1.41333,0.79504-2.31152,0.79504C862.60773-1074.7157,860.70819-1076.79199,860.70819-1079.89929"/>
	<rect x="843.60889" y="-1073.05005" fill="none" width="25.82491" height="7.45635"/>
	<text transform="matrix(1 0 0 1 851.7666 -1068.22498)" fill="#FFFFFF" font-family="'OpenSans-Light'" font-size="6.34871px">media</text>
	
		<image overflow="visible" width="1632" height="916" xlink:href="9A185413.jpg"  transform="matrix(0.21575 0 0 0.21575 648.17554 -318.87885)">
	</image>
	<rect x="665.89807" y="-300.15689" opacity="0.45" fill="#1A2530" width="316.66666" height="160.18744"/>
	<g>
		<rect x="674.98145" y="-195.47983" fill="none" width="298.5" height="18.83333"/>
		<text transform="matrix(1 0 0 1 686.51459 -182.75423)" fill="#FFFFFF" font-family="'Hind-Bold'" font-size="18px">Télécharger notre brochure</text>
	</g>
	
		<line fill="none" stroke="#FFFFFF" stroke-width="2" stroke-miterlimit="10" x1="815.5" y1="-208.42708" x2="832.5" y2="-208.42708"/>
	
		<line fill="none" stroke="#FFFFFF" stroke-width="3" stroke-miterlimit="10" x1="404.3555" y1="-58.23958" x2="421.68884" y2="-58.23958"/>
	
		<polygon fill="none" stroke="#FFFFFF" stroke-width="3" stroke-linecap="round" stroke-linejoin="round" stroke-miterlimit="10" points="
		428.36044,-128.34554 382.87939,-104.29114 376.92468,-114.01427 417.43384,-144.71509 	"/>
	<path fill="none" stroke="#FFFFFF" stroke-width="3" stroke-linecap="round" stroke-linejoin="round" stroke-miterlimit="10" d="
		M387.35516-78.47679v-1.7374c0-1.67224,1.36819-3.04044,3.04044-3.04044h44.84659c1.67224,0,3.04044,1.3682,3.04044,3.04044v1.7374
		H387.35516z"/>
	<path fill="none" stroke="#FFFFFF" stroke-width="3" stroke-linecap="round" stroke-linejoin="round" stroke-miterlimit="10" d="
		M379.69974-109.28846c0,0-10.83157,1.71025-12.54184,9.28423c-1.71024,7.57397,2.76898,13.03048,5.53796,20.76733
		s-0.73297,10.42439-0.73297,10.42439"/>
	
		<polygon fill="none" stroke="#FFFFFF" stroke-width="3" stroke-linecap="round" stroke-linejoin="round" stroke-miterlimit="10" points="
		406.90088,-116.91857 406.90088,-83.36325 416.89093,-83.36325 416.89093,-122.20219 	"/>
	<path fill="none" stroke="#FFFFFF" stroke-width="3" stroke-linecap="round" stroke-linejoin="round" stroke-miterlimit="10" d="
		M433.31473-160.54169c-8.87552,0-15.84113,6.77589-16.12521,15.58229l0.05429,0.05429l10.88409,16.30583
		c1.63174,0.54433,3.37207,0.85099,5.18683,0.85099c9.05563,0,16.39673-7.3411,16.39673-16.39674
		C449.71146-153.20067,442.37036-160.54169,433.31473-160.54169z"/>
	
		<line fill="none" stroke="#FFFFFF" stroke-width="3" stroke-linecap="round" stroke-linejoin="round" stroke-miterlimit="10" x1="424.20975" y1="-157.14481" x2="442.27319" y2="-130.54443"/>
	<g>
		
			<polygon fill="none" stroke="#FFFFFF" stroke-width="2" stroke-linecap="round" stroke-linejoin="round" stroke-miterlimit="10" points="
			831.5,-231.51674 809.5,-227.8158 809.5,-260.30182 831.5,-264.00278 		"/>
		
			<line fill="none" stroke="#FFFFFF" stroke-width="2" stroke-linecap="round" stroke-linejoin="round" stroke-miterlimit="10" x1="818.90912" y1="-223.4234" x2="831.65802" y2="-231.45016"/>
		
			<polyline fill="none" stroke="#FFFFFF" stroke-width="2" stroke-linecap="round" stroke-linejoin="round" stroke-miterlimit="10" points="
			818.5,-229.42708 818.5,-223.22388 838.5,-226.92485 838.5,-259.41092 831.83636,-258.16562 		"/>
	</g>
	
		<image overflow="visible" width="587" height="310" xlink:href="images/atelier-france-ehealthtech.jpg"  transform="matrix(0.31643 0 0 0.31643 202.61234 639.6145)">
	</image>
	
		<image overflow="visible" width="500" height="186" xlink:href="images/cuisine-du-web.jpg"  transform="matrix(0.35774 0 0 0.35774 441.03232 655.3916)">
	</image>
	
		<image overflow="visible" width="1181" height="1168" xlink:href="images/minalogic.jpg"  transform="matrix(0.07537 0 0 0.07537 720.47327 644.64545)">
	</image>
	
		<image overflow="visible" width="787" height="207" xlink:href="9A185412.jpg"  transform="matrix(0.21507 0 0 0.21507 916.51337 666.40106)">
	</image>
	<rect x="525.48438" y="-2907.20825" fill="none" width="593" height="19"/>
	<text transform="matrix(1 0 0 1 722.56641 -2899.60815)" fill="#FFFFFF" font-family="'OpenSans-Light'" font-size="10px">Accueil       à propos       Notre activité       Notre Expertise       Nos références       Contact</text>
	
		<image overflow="visible" width="300" height="250" xlink:href="9A185411.png"  transform="matrix(1.56847 0 0 1.56847 648.36328 -1925.49304)">
	</image>
	<rect x="836.73438" y="-1548.95837" opacity="0.12" fill="#1A2530" width="24.5" height="2.5"/>
	<rect x="871.38409" y="-1548.95837" opacity="0.12" fill="#1A2530" width="24.5" height="2.5"/>
	<rect x="906.23438" y="-1548.95837" opacity="0.12" fill="#1A2530" width="24.5" height="2.5"/>
	<rect x="93.48455" y="1576.82397" fill="#007BB8" width="438.99896" height="21.23513"/>
	<rect x="532.48352" y="1576.82397" fill="#F49A2F" width="371.57877" height="21.23513"/>
	<rect x="900.328" y="1576.82397" fill="#E53C4C" width="371.57867" height="21.23513"/>
	<rect x="1271.91858" y="1576.82397" fill="#6E5F84" width="371.5787" height="21.23513"/>
	<rect x="1643.48535" y="1576.82397" fill="#56BCB5" width="438.99902" height="21.23513"/>
	<g>
		<polygon fill="#EAEAEA" points="792.98486,1542.51855 770.65405,1542.51855 770.65405,1454.05347 792.98486,1454.05347 
			792.98486,1450.32288 770.65405,1450.32288 766.9234,1450.32288 766.9234,1454.05347 766.9234,1542.51855 766.9234,1546.24927 
			770.65405,1546.24927 792.98486,1546.24927 		"/>
		<polygon fill="#EAEAEA" points="859.11902,1450.32288 836.80127,1450.32288 836.80127,1454.05347 859.11902,1454.05347 
			859.11902,1542.51855 836.80127,1542.51855 836.80127,1546.24927 859.11902,1546.24927 862.84973,1546.24927 
			862.84973,1542.51855 862.84973,1454.05347 862.84973,1450.32288 		"/>
	</g>
	<path fill="#EAEAEA" d="M814.65442,1481.9082l14.45148,34.41846l-12.76849-6.45447l-1.68298-0.85083l-1.68311,0.85083
		l-12.76831,6.45447L814.65442,1481.9082 M814.65442,1472.27161l-21.8158,51.95801l21.8158-11.02795l21.81586,11.02795
		L814.65442,1472.27161L814.65442,1472.27161z"/>
	<polygon fill="#FFFFFF" points="-240.21242,-2586.19727 -268.46152,-2586.19727 -268.46152,-2698.11255 -240.21242,-2698.11255 
		-240.21242,-2702.83325 -268.46152,-2702.83325 -273.18228,-2702.83325 -273.18228,-2698.11255 -273.18228,-2586.19727 
		-273.18228,-2581.47632 -268.46152,-2581.47632 -240.21242,-2581.47632 	"/>
	<polygon fill="#FFFFFF" points="-156.54707,-2702.83276 -184.78038,-2702.83276 -184.78038,-2698.11182 -156.54707,-2698.11182 
		-156.54707,-2586.19653 -184.78038,-2586.19653 -184.78038,-2581.479 -156.54707,-2581.479 -151.82631,-2581.479 
		-151.82631,-2586.19653 -151.82631,-2698.11182 -151.82631,-2702.83276 	"/>
	<path fill="#FFFFFF" d="M-212.79878-2675.06421l-27.5999,65.72852l27.5999-13.95117l27.59987,13.95117L-212.79878-2675.06421z
		 M-212.79878-2662.87451l18.2812,43.54272l-16.15088-8.16528l-2.13033-1.07788l-2.13034,1.07788l-16.15404,8.16528
		L-212.79878-2662.87451z"/>
	<polygon fill="#FFFFFF" points="36.15551,-2877.60449 31.04021,-2877.60449 31.04021,-2897.86987 36.15551,-2897.86987 
		36.15551,-2898.72461 31.04021,-2898.72461 30.18537,-2898.72461 30.18537,-2897.86987 30.18537,-2877.60449 30.18537,-2876.74951 
		31.04021,-2876.74951 36.15551,-2876.74951 	"/>
	<polygon fill="#FFFFFF" points="51.30552,-2898.72461 46.19307,-2898.72461 46.19307,-2897.86963 51.30552,-2897.86963 
		51.30552,-2877.60425 46.19307,-2877.60425 46.19307,-2876.75 51.30552,-2876.75 52.16034,-2876.75 52.16034,-2877.60425 
		52.16034,-2897.86963 52.16034,-2898.72461 	"/>
	<path fill="#FFFFFF" d="M41.11953-2893.69629l-4.99775,11.9021l4.99775-2.52637l4.99775,2.52637L41.11953-2893.69629z
		 M41.11953-2891.48901l3.31033,7.88477l-2.92458-1.47876l-0.38576-0.19507l-0.38576,0.19507l-2.92515,1.47876L41.11953-2891.48901z
		"/>
	<path fill="#FFFFFF" d="M59.33016-2884.63208h0.01141l3.58767-6.19727h1.2229l-3.56428,6.19727l4.04192,6.17383h-1.18809
		L59.33016-2884.63208z M58.61913-2878.45825h-1.04829v-18.5564h1.04829V-2878.45825z"/>
	<path fill="#FFFFFF" d="M69.45314-2879.29688c1.42319,0,2.53939-2.03857,2.53939-5.34717c0-3.30811-1.11848-5.3584-2.53939-5.3584
		c-1.47057,0-2.5394,2.05029-2.5394,5.3584C66.91374-2881.33545,68.09785-2879.29688,69.45314-2879.29688 M69.45314-2878.24878
		c-1.71367,0-3.65787-2.27173-3.65787-6.39526s1.84034-6.40649,3.65787-6.40649c1.81694,0,3.65729,2.28296,3.65729,6.40649
		S71.20046-2878.24878,69.45314-2878.24878"/>
	<polygon fill="#FFFFFF" points="74.27633,-2878.45825 79.61133,-2889.85083 75.0564,-2889.85083 75.0564,-2890.82886 
		81.20744,-2890.82886 75.86044,-2879.43701 81.03224,-2879.43701 81.03224,-2878.45825 	"/>
	<path fill="#FFFFFF" d="M86.27452-2890.0022c-1.56073,0-2.51599,1.53784-2.71401,4.03052l-0.04623,0.64087h4.70615l0.05763-0.82739
		C88.37166-2888.59277,87.6378-2890.0022,86.27452-2890.0022 M89.19853-2884.34082l-5.70765-0.01196l0.05821,0.57129
		c0.26764,2.8418,1.75874,4.48413,3.24986,4.48413c0.60603,0,1.1881-0.18604,1.64233-0.40747l0.34981,0.92041
		c-0.62943,0.30298-1.46771,0.53589-2.23695,0.53589c-2.25977,0-4.18172-2.81909-4.18172-6.76782
		c0-4.05396,2.02695-6.03418,3.94889-6.03418C88.70948-2891.05054,89.75777-2888.1499,89.19853-2884.34082"/>
	<path fill="#FFFFFF" d="M96.15354-2880.22852v-5.23071H95.6411c-2.11996,0-3.80908,0.78003-3.80908,3.34351
		c0,1.74683,1.02489,2.78369,2.411,2.78369C95.04477-2879.33203,95.67477-2879.74976,96.15354-2880.22852 M90.71355-2882.38403
		c0-2.14331,1.63091-3.96021,4.93897-4.12354l0.50102-0.02319c-0.0234-2.57422-0.93187-3.47144-2.45779-3.47144
		c-0.57122,0-1.28168,0.29175-1.80553,0.53589l-0.36123-1.05957c0.80405-0.31519,1.77074-0.52466,2.42298-0.52466
		c1.93336,0,3.24986,1.28174,3.24986,3.69287v8.75928l-1.11848-0.52368l-0.25622,0.20947
		c-0.48905,0.396-1.1179,0.62866-1.82837,0.62866C92.21606-2878.28394,90.71355-2879.92627,90.71355-2882.38403"/>
	<path fill="#FFFFFF" d="M84.55344-2874.96729c0,0.19238,0.0582,0.34131,0.17519,0.44751
		c0.11642,0.1062,0.27277,0.15918,0.46793,0.15918c0.20715,0,0.36693-0.05249,0.47707-0.15796
		c0.1107-0.10498,0.16605-0.25757,0.16605-0.45776c0-0.21167-0.05649-0.37085-0.17062-0.47705
		c-0.11356-0.1062-0.27221-0.15918-0.47707-0.15918c-0.19859,0-0.35438,0.05713-0.46793,0.17065
		S84.55344-2875.16968,84.55344-2874.96729 M84.3634-2872.83398c0,0.3418,0.25451,0.51245,0.7624,0.51245
		c0.65282,0,0.9798-0.2085,0.9798-0.62451c0-0.14941-0.05136-0.25781-0.15408-0.3252
		c-0.10214-0.06665-0.26763-0.10034-0.49646-0.10034h-0.40745C84.59167-2873.37158,84.3634-2873.19238,84.3634-2872.83398
		 M86.37781-2875.74268v0.15747l-0.51473,0.03247c0.13696,0.17065,0.20544,0.3584,0.20544,0.56274
		c0,0.23975-0.0799,0.43359-0.23911,0.58252s-0.3732,0.22314-0.64198,0.22314c-0.11241,0-0.19231-0.00439-0.23796-0.01367
		c-0.09016,0.04736-0.15864,0.10278-0.20543,0.16724c-0.04794,0.06396-0.07133,0.13184-0.07133,0.20386
		c0,0.07861,0.03024,0.13672,0.09016,0.17334s0.16149,0.05542,0.30359,0.05542h0.43427c0.27048,0,0.47706,0.0542,0.62029,0.16309
		c0.14323,0.10962,0.21513,0.27051,0.21513,0.48462c0,0.26196-0.10614,0.46436-0.31899,0.60718
		c-0.21285,0.14307-0.51643,0.21387-0.91019,0.21387c-0.31271,0-0.55467-0.05981-0.72643-0.18018
		c-0.17177-0.12109-0.25736-0.28882-0.25736-0.50391c0-0.17065,0.05307-0.31274,0.1592-0.42529
		c0.10615-0.11353,0.24995-0.19043,0.43085-0.23169c-0.07419-0.03198-0.1341-0.0769-0.17918-0.13623
		c-0.04451-0.05835-0.06734-0.12549-0.06734-0.20215c0-0.1665,0.10558-0.31274,0.31786-0.43994
		c-0.14494-0.05933-0.25793-0.15283-0.33896-0.28003c-0.08047-0.12744-0.12098-0.27344-0.12098-0.43848
		c0-0.24878,0.07874-0.44775,0.23739-0.59839c0.1575-0.15015,0.37035-0.22485,0.63912-0.22485
		c0.16322,0,0.28989,0.01538,0.38005,0.04785H86.37781z"/>
	<path fill="#FFFFFF" d="M88.10146-2875.79077c0.10557,0,0.21798,0.01025,0.33897,0.03198l-0.04337,0.21729
		c-0.10385-0.02563-0.21114-0.03882-0.32242-0.03882c-0.21228,0-0.38633,0.0896-0.52271,0.27002
		c-0.13581,0.18018-0.20258,0.40747-0.20258,0.68188v1.37354h-0.22711v-2.48804h0.19173l0.0234,0.44849h0.0154
		c0.10272-0.18311,0.21171-0.31152,0.32812-0.38574C87.79672-2875.75366,87.9371-2875.79077,88.10146-2875.79077"/>
	<path fill="#FFFFFF" d="M89.27459-2874.50244c0,0.3418,0.07533,0.6084,0.22541,0.80005
		c0.14951,0.19116,0.36293,0.28711,0.63684,0.28711c0.27505,0,0.48734-0.09595,0.63799-0.28711
		c0.15009-0.19165,0.22541-0.45825,0.22541-0.80005c0-0.34302-0.0759-0.60938-0.22826-0.79883
		c-0.15179-0.18945-0.36465-0.28369-0.6397-0.28369c-0.27392,0-0.48562,0.09424-0.63513,0.28247
		C89.34878-2875.11401,89.27459-2874.84717,89.27459-2874.50244 M91.2382-2874.50244c0,0.40576-0.09873,0.72241-0.2956,0.95068
		c-0.19688,0.22827-0.46794,0.34253-0.8149,0.34253c-0.21798,0-0.41029-0.05249-0.57635-0.1582
		c-0.16663-0.10498-0.29388-0.2561-0.38233-0.45313c-0.08845-0.19678-0.13239-0.42383-0.13239-0.68188
		c0-0.40576,0.09814-0.72192,0.29502-0.94824c0.19688-0.22729,0.46736-0.34033,0.80975-0.34033
		c0.34182,0,0.61002,0.11475,0.80462,0.34424C91.14062-2875.2168,91.2382-2874.90234,91.2382-2874.50244"/>
	<path fill="#FFFFFF" d="M92.35793-2875.74268v1.61084c0,0.25,0.0525,0.43213,0.15749,0.54614
		c0.10558,0.11353,0.26934,0.17017,0.49019,0.17017c0.29617,0,0.51358-0.07471,0.6534-0.22363
		c0.13981-0.15015,0.20942-0.39331,0.20942-0.73047v-1.37305h0.22427v2.48755h-0.19231l-0.04108-0.34302h-0.01369
		c-0.1615,0.25952-0.44968,0.38916-0.8634,0.38916c-0.56551,0-0.84855-0.30298-0.84855-0.90918v-1.62451H92.35793z"/>
	<path fill="#FFFFFF" d="M96.21946-2873.41064c0.25508,0,0.45252-0.09473,0.59234-0.28418
		c0.13866-0.18896,0.20885-0.45361,0.20885-0.7937c0-0.7312-0.26364-1.09644-0.79206-1.09644
		c-0.28932,0-0.50217,0.07935-0.63799,0.23926c-0.13639,0.15967-0.20429,0.4187-0.20429,0.77881v0.07373
		c0,0.38916,0.06562,0.6665,0.1963,0.83301C95.71272-2873.4939,95.925-2873.41064,96.21946-2873.41064 M96.22403-2873.20923
		c-0.38235,0-0.66196-0.14331-0.83772-0.43018H95.3709l0.00628,0.19214c0.00627,0.11255,0.00913,0.23633,0.00913,0.37036v0.948
		h-0.22655v-3.61401h0.19231l0.04395,0.35449h0.01369c0.17062-0.26831,0.44397-0.40234,0.81889-0.40234
		c0.33554,0,0.59177,0.11011,0.76809,0.33081c0.17633,0.22046,0.26479,0.54102,0.26479,0.96216
		c0,0.40869-0.09302,0.72583-0.27848,0.95068C96.79752-2873.32178,96.54473-2873.20923,96.22403-2873.20923"/>
	<rect x="69.26327" y="-2875.34033" fill="#007BB8" width="1.74219" height="1.74219"/>
	<rect x="71.75587" y="-2875.34033" fill="#F49A2F" width="1.74219" height="1.74219"/>
	<rect x="74.25417" y="-2875.34033" fill="#E53C4C" width="1.74219" height="1.74219"/>
	<rect x="76.75191" y="-2875.34033" fill="#6E5F84" width="1.74219" height="1.74219"/>
	<rect x="79.25078" y="-2875.34033" fill="#56BCB5" width="1.74219" height="1.74219"/>
	
		<polygon fill="none" stroke="#FFFFFF" stroke-width="3" stroke-linecap="round" stroke-linejoin="round" stroke-miterlimit="10" points="
		26.95389,-137.85168 -18.52716,-113.79728 -24.48189,-123.52042 16.02728,-154.22122 	"/>
	<path fill="none" stroke="#FFFFFF" stroke-width="3" stroke-linecap="round" stroke-linejoin="round" stroke-miterlimit="10" d="
		M-14.05141-87.98294v-1.7374c0-1.67224,1.3682-3.04044,3.04044-3.04044h44.84658c1.67225,0,3.04044,1.3682,3.04044,3.04044v1.7374
		H-14.05141z"/>
	<path fill="none" stroke="#FFFFFF" stroke-width="3" stroke-linecap="round" stroke-linejoin="round" stroke-miterlimit="10" d="
		M-21.70682-118.7946c0,0-10.83159,1.71025-12.54184,9.28422s2.76898,13.03048,5.53796,20.76733s-0.73296,10.42439-0.73296,10.42439
		"/>
	
		<polygon fill="none" stroke="#FFFFFF" stroke-width="3" stroke-linecap="round" stroke-linejoin="round" stroke-miterlimit="10" points="
		5.49431,-126.42472 5.49431,-92.8694 15.48438,-92.8694 15.48438,-131.70833 	"/>
	<path fill="none" stroke="#FFFFFF" stroke-width="3" stroke-linecap="round" stroke-linejoin="round" stroke-miterlimit="10" d="
		M31.90816-170.04784c-8.87551,0-15.84111,6.77589-16.12519,15.58229l0.05429,0.05429l10.88408,16.30583
		c1.63175,0.54433,3.37207,0.851,5.18682,0.851c9.05564,0,16.39674-7.34109,16.39674-16.39674S40.9638-170.04784,31.90816-170.04784
		z"/>
	
		<line fill="none" stroke="#FFFFFF" stroke-width="3" stroke-linecap="round" stroke-linejoin="round" stroke-miterlimit="10" x1="22.8032" y1="-166.65096" x2="40.86664" y2="-140.05058"/>
	<g>
		
			<polygon fill="none" stroke="#FFFFFF" stroke-width="2" stroke-linecap="round" stroke-linejoin="round" stroke-miterlimit="10" points="
			23,33.48602 1,37.18696 1,4.70094 23,1 		"/>
		
			<line fill="none" stroke="#FFFFFF" stroke-width="2" stroke-linecap="round" stroke-linejoin="round" stroke-miterlimit="10" x1="10.40912" y1="41.57936" x2="23.15802" y2="33.5526"/>
		
			<polyline fill="none" stroke="#FFFFFF" stroke-width="2" stroke-linecap="round" stroke-linejoin="round" stroke-miterlimit="10" points="
			10,35.57568 10,41.77888 30,38.07791 30,5.59186 23.33637,6.83714 		"/>
	</g>
</g>
</svg>
