<?xml version="1.0" encoding="utf-8"?>
<!-- Generator: Adobe Illustrator 19.2.1, SVG Export Plug-In . SVG Version: 6.00 Build 0)  -->
<svg version="1.1" id="Calque_1" xmlns="http://www.w3.org/2000/svg" xmlns:xlink="http://www.w3.org/1999/xlink" x="0px" y="0px"
	 viewBox="0 0 35.86517 42.125" enable-background="new 0 0 35.86517 42.125" xml:space="preserve">
<g>
	<polygon fill="#1C1C1C" points="-885.3877,68.50553 -917.25934,68.50553 -917.25934,-57.75647 -885.3877,-57.75647 
		-885.3877,-63.08096 -917.25934,-63.08096 -922.58398,-63.08096 -922.58398,-57.75647 -922.58398,68.50553 -922.58398,73.83015 
		-917.25934,73.83015 -885.3877,73.83015 	"/>
	<polygon fill="#1C1C1C" points="-790.9975,-63.08096 -822.85059,-63.08096 -822.85059,-57.75647 -790.9975,-57.75647 
		-790.9975,68.50553 -822.85059,68.50553 -822.85059,73.83015 -790.9975,73.83015 -785.67285,73.83015 -785.67285,68.50553 
		-785.67285,-57.75647 -785.67285,-63.08096 	"/>
</g>
<path fill="#1C1C1C" d="M-854.45978-18.00075l20.62592,49.12383l-18.22388-9.21221l-2.40204-1.21426l-2.40216,1.21426
	l-18.22363,9.21217L-854.45978-18.00075 M-854.45978-31.75457l-31.13666,74.15717l31.13666-15.73979L-823.323,42.4026
	L-854.45978-31.75457L-854.45978-31.75457z"/>
<g>
	<path fill="#1C1C1C" d="M-745.43011-52.42616v115.6111h-6.53107v-115.6111H-745.43011z M-741.00244,24.72027h0.07239
		l22.35266-38.6094h7.62036l-22.20795,38.6094l25.18353,38.46467h-7.40228L-741.00244,24.72027z"/>
	<path fill="#1C1C1C" d="M-677.93121,64.49135c-10.67603,0-22.78876-14.15241-22.78876-39.84344
		c0-25.692,11.46429-39.9158,22.78876-39.9158c11.32153,0,22.78778,14.2238,22.78778,39.9158
		C-655.14343,50.33894-667.0448,64.49135-677.93121,64.49135z M-677.93121,57.95932c8.8689,0,15.82159-12.70031,15.82159-33.31141
		s-6.96814-33.38474-15.82159-33.38474c-9.16315,0-15.82159,12.77364-15.82159,33.38474S-686.37555,57.95932-677.93121,57.95932z"/>
	<path fill="#1C1C1C" d="M-647.88098,63.18494l33.23901-70.97815h-28.37714v-6.09592h38.31995l-33.31238,70.97815h32.224v6.09592
		H-647.88098z"/>
	<path fill="#1C1C1C" d="M-554.9101,26.53515l-35.5614-0.07333l0.36279,3.55643
		c1.66919,17.70787,10.95874,27.94106,20.24829,27.94106c3.77448,0,7.40326-1.16071,10.23322-2.53948l2.17761,5.73314
		c-3.91919,1.88724-9.14484,3.33838-13.93433,3.33838c-14.08002,0-26.05475-17.56315-26.05475-42.16583
		c0-25.25589,12.62793-37.59341,24.60266-37.59341C-557.95612-15.2679-551.42603,2.80276-554.9101,26.53515z M-573.1264-8.73683
		c-9.72473,0-15.6759,9.57999-16.90997,25.11116l-0.28943,3.99158h29.31982l0.36279-5.15326
		C-560.06238,0.04522-564.63477-8.73683-573.1264-8.73683z"/>
	<path fill="#1C1C1C" d="M-545.47095,38.72698c0-13.35351,10.16083-24.67505,30.77191-25.69103l3.12033-0.14569
		c-0.14471-16.03868-5.80551-21.62709-15.31314-21.62709c-3.5564,0-7.98315,1.81488-11.24915,3.33838l-2.25006-6.60439
		c5.00854-1.95961,11.0321-3.26505,15.09607-3.26505c12.04706,0,20.24829,7.98316,20.24829,23.00586v54.57572l-6.96716-3.26505
		l-1.5968,1.30544c-3.04797,2.46808-6.96722,3.91922-11.39392,3.91922C-536.10901,64.27329-545.47095,54.04107-545.47095,38.72698z
		 M-511.5787,52.15382V19.56798h-3.19266c-13.2088,0-23.73242,4.86091-23.73242,20.8282
		c0,10.88639,6.38635,17.34605,15.02271,17.34605C-518.48511,57.74223-514.56201,55.13713-511.5787,52.15382z"/>
</g>
<rect x="-607.72241" y="76.80943" fill="none" width="105.06509" height="26.82574"/>
<text transform="matrix(1 0 0 1 -604.20264 102.64893)" fill="#1C1C1C" font-family="'OpenSans'" font-size="34px" letter-spacing="1">group</text>
<rect x="-690.98157" y="84.94504" fill="#007BB8" width="10.85392" height="10.85392"/>
<rect x="-675.45343" y="84.94504" fill="#F79B2D" width="10.85392" height="10.85392"/>
<rect x="-659.88708" y="84.94504" fill="#E53D4D" width="10.85392" height="10.85392"/>
<rect x="-644.32465" y="84.94504" fill="#6D5E84" width="10.85392" height="10.85392"/>
<rect x="-628.75647" y="84.87867" fill="#51BFB7" width="10.85392" height="10.85392"/>
<rect x="-347.38483" y="-25.625" fill="#1A2530" width="132.86244" height="127.92275"/>
<g>
	<polygon fill="#FFFFFF" points="-299.43497,71.48305 -316.16907,71.48305 -316.16907,5.18963 -299.43497,5.18963 
		-299.43497,2.39403 -316.16907,2.39403 -318.96475,2.39403 -318.96475,5.18963 -318.96475,71.48305 -318.96475,74.27872 
		-316.16907,74.27872 -299.43497,74.27872 	"/>
	<polygon fill="#FFFFFF" points="-249.87572,2.39403 -266.60007,2.39403 -266.60007,5.18963 -249.87572,5.18963 
		-249.87572,71.48305 -266.60007,71.48305 -266.60007,74.27872 -249.87572,74.27872 -247.08005,74.27872 -247.08005,71.48305 
		-247.08005,5.18963 -247.08005,2.39403 	"/>
</g>
<path fill="#FFFFFF" d="M-283.02243,26.08979l10.82956,25.79229l-9.56836-4.83683l-1.2612-0.63755l-1.26126,0.63755
	l-9.56824,4.83682L-283.02243,26.08979 M-283.02243,18.8684l-16.34818,38.93596l16.34818-8.26412l16.34827,8.26412
	L-283.02243,18.8684L-283.02243,18.8684z"/>
<rect x="469.84283" y="-455.60153" fill="#1A2530" width="1073.56702" height="1073.56702"/>
<g>
	<polygon fill="#FFFFFF" points="866.41589,364.34967 723.45868,364.34967 723.45868,-201.98628 866.41589,-201.98628 
		866.41589,-225.86879 723.45868,-225.86879 699.57556,-225.86879 699.57556,-201.98628 699.57556,364.34967 699.57556,388.23279 
		723.45868,388.23279 866.41589,388.23279 	"/>
	<polygon fill="#FFFFFF" points="1289.79407,-225.86879 1146.91992,-225.86879 1146.91992,-201.98628 1289.79407,-201.98628 
		1289.79407,364.34967 1146.91992,364.34967 1146.91992,388.23279 1289.79407,388.23279 1313.67712,388.23279 1313.67712,364.34967 
		1313.67712,-201.98628 1313.67712,-225.86879 	"/>
</g>
<path fill="#FFFFFF" d="M1006.62604-23.43898l92.51556,220.34016l-81.74139-41.32047l-10.77417-5.44646l-10.77478,5.44646
	l-81.74017,41.32031L1006.62604-23.43898 M1006.62604-85.13041L866.96558,247.4944l139.66046-70.5993l139.66107,70.5993
	L1006.62604-85.13041L1006.62604-85.13041z"/>
<g>
	<polygon fill="#1C1C1C" points="1952.52454,364.34967 1809.56726,364.34967 1809.56726,-201.98628 1952.52454,-201.98628 
		1952.52454,-225.86879 1809.56726,-225.86879 1785.6842,-225.86879 1785.6842,-201.98628 1785.6842,364.34967 1785.6842,388.23279 
		1809.56726,388.23279 1952.52454,388.23279 	"/>
	<polygon fill="#1C1C1C" points="2375.90259,-225.86879 2233.02856,-225.86879 2233.02856,-201.98628 2375.90259,-201.98628 
		2375.90259,364.34967 2233.02856,364.34967 2233.02856,388.23279 2375.90259,388.23279 2399.78564,388.23279 2399.78564,364.34967 
		2399.78564,-201.98628 2399.78564,-225.86879 	"/>
</g>
<path fill="#1C1C1C" d="M2092.73462-23.43898l92.51563,220.34016l-81.74146-41.32047l-10.77417-5.44646l-10.77466,5.44646
	l-81.74023,41.32031L2092.73462-23.43898 M2092.73462-85.13041l-139.6604,332.62482l139.6604-70.5993l139.66113,70.5993
	L2092.73462-85.13041L2092.73462-85.13041z"/>
<g>
	<polygon fill="#1C1C1C" points="-162.18495,71.48305 -178.91907,71.48305 -178.91907,5.18963 -162.18495,5.18963 
		-162.18495,2.39403 -178.91907,2.39403 -181.71474,2.39403 -181.71474,5.18963 -181.71474,71.48305 -181.71474,74.27872 
		-178.91907,74.27872 -162.18495,74.27872 	"/>
	<polygon fill="#1C1C1C" points="-112.62572,2.39403 -129.35008,2.39403 -129.35008,5.18963 -112.62572,5.18963 
		-112.62572,71.48305 -129.35008,71.48305 -129.35008,74.27872 -112.62572,74.27872 -109.83004,74.27872 -109.83004,71.48305 
		-109.83004,5.18963 -109.83004,2.39403 	"/>
</g>
<path fill="#1C1C1C" d="M-145.77243,26.08979l10.82957,25.79229l-9.56837-4.83683l-1.2612-0.63755l-1.26126,0.63755
	l-9.56824,4.83682L-145.77243,26.08979 M-145.77243,18.8684l-16.34819,38.93596l16.34819-8.26412l16.34827,8.26412
	L-145.77243,18.8684L-145.77243,18.8684z"/>
<path fill="#FFFFFF" d="M18.00703,33.39584L7.1622,7.56719l9.58186,4.84365l1.26297,0.63844l1.26304-0.63844l9.58172-4.84364
	L18.00703,33.39584 M18.00703,40.62741L34.37826,1.63657L18.00703,9.91234L1.63573,1.63657L18.00703,40.62741L18.00703,40.62741z"/>
<g>
	<polygon fill="#1C1C1C" points="111.94629,71.45039 95.1886,71.45039 95.1886,5.06353 111.94629,5.06353 111.94629,2.26398 
		95.1886,2.26398 92.38898,2.26398 92.38898,5.06353 92.38898,71.45039 92.38898,74.25 95.1886,74.25 111.94629,74.25 	"/>
	<polygon fill="#1C1C1C" points="161.57538,2.26398 144.82745,2.26398 144.82745,5.06353 161.57538,5.06353 161.57538,71.45039 
		144.82745,71.45039 144.82745,74.25 161.57538,74.25 164.375,74.25 164.375,71.45039 164.375,5.06353 164.375,2.26398 	"/>
</g>
<path fill="#1C1C1C" d="M128.38196,25.99315l10.84483,25.82864l-9.58186-4.84365l-1.26297-0.63844l-1.26304,0.63844
	l-9.58173,4.84364L128.38196,25.99315 M128.38196,18.76157l-16.37123,38.99084l16.37123-8.27577l16.37131,8.27577
	L128.38196,18.76157L128.38196,18.76157z"/>
<g>
	<polygon fill="#FFFFFF" points="-886.3877,519.17218 -918.25934,519.17218 -918.25934,392.91019 -886.3877,392.91019 
		-886.3877,387.58569 -918.25934,387.58569 -923.58398,387.58569 -923.58398,392.91019 -923.58398,519.17218 -923.58398,524.49683 
		-918.25934,524.49683 -886.3877,524.49683 	"/>
	<polygon fill="#FFFFFF" points="-791.9975,387.58569 -823.85059,387.58569 -823.85059,392.91019 -791.9975,392.91019 
		-791.9975,519.17218 -823.85059,519.17218 -823.85059,524.49683 -791.9975,524.49683 -786.67285,524.49683 -786.67285,519.17218 
		-786.67285,392.91019 -786.67285,387.58569 	"/>
</g>
<path fill="#FFFFFF" d="M-855.45978,432.66592l20.62592,49.12381l-18.22388-9.21219l-2.40204-1.21426l-2.40216,1.21426
	l-18.22363,9.21216L-855.45978,432.66592 M-855.45978,418.91211l-31.13666,74.15717l31.13666-15.73981l31.13678,15.73981
	L-855.45978,418.91211L-855.45978,418.91211z"/>
<g>
	<path fill="#FFFFFF" d="M-746.43011,398.24051v115.61111h-6.53107V398.24051H-746.43011z M-742.00244,475.38693h0.07239
		l22.35266-38.60941h7.62036l-22.20795,38.60941l25.18353,38.46469h-7.40228L-742.00244,475.38693z"/>
	<path fill="#FFFFFF" d="M-678.93121,515.15802c-10.67603,0-22.78876-14.1524-22.78876-39.84344
		c0-25.69199,11.46429-39.9158,22.78876-39.9158c11.32153,0,22.78778,14.22382,22.78778,39.9158
		C-656.14343,501.00562-668.0448,515.15802-678.93121,515.15802z M-678.93121,508.62598
		c8.8689,0,15.82159-12.70029,15.82159-33.3114s-6.96814-33.38474-15.82159-33.38474
		c-9.16315,0-15.82159,12.77362-15.82159,33.38474S-687.37555,508.62598-678.93121,508.62598z"/>
	<path fill="#FFFFFF" d="M-648.88098,513.85162l33.23901-70.97818h-28.37714v-6.09592h38.31995l-33.31238,70.97815h32.224v6.09595
		H-648.88098z"/>
	<path fill="#FFFFFF" d="M-555.9101,477.20181l-35.5614-0.07333l0.36279,3.55646
		c1.66919,17.70786,10.95874,27.94104,20.24829,27.94104c3.77448,0,7.40326-1.16071,10.23322-2.53949l2.17761,5.73315
		c-3.91919,1.88727-9.14484,3.33838-13.93433,3.33838c-14.08002,0-26.05475-17.56314-26.05475-42.16583
		c0-25.25589,12.62793-37.59341,24.60266-37.59341C-558.95612,435.39877-552.42603,453.46942-555.9101,477.20181z
		 M-574.1264,441.92984c-9.72473,0-15.6759,9.57999-16.90997,25.11115l-0.28943,3.99158h29.31982l0.36279-5.15326
		C-561.06238,450.71188-565.63477,441.92984-574.1264,441.92984z"/>
	<path fill="#FFFFFF" d="M-546.47095,489.39365c0-13.35352,10.16083-24.67505,30.77191-25.69104l3.1203-0.14569
		c-0.14471-16.03867-5.80548-21.62708-15.31311-21.62708c-3.5564,0-7.98315,1.81488-11.24915,3.33838l-2.25006-6.6044
		c5.00854-1.95959,11.0321-3.26505,15.09607-3.26505c12.04706,0,20.24829,7.98315,20.24829,23.00586v54.57571l-6.96716-3.26505
		l-1.5968,1.30545c-3.04797,2.46808-6.96722,3.91919-11.39392,3.91919
		C-537.10901,514.93994-546.47095,504.70773-546.47095,489.39365z M-512.57874,502.8205v-32.58585h-3.19263
		c-13.2088,0-23.73242,4.8609-23.73242,20.82819c0,10.88638,6.38635,17.34607,15.02271,17.34607
		C-519.48511,508.40891-515.56201,505.8038-512.57874,502.8205z"/>
</g>
<rect x="-662.72241" y="527.47607" fill="none" width="159.06508" height="26.82574"/>
<text transform="matrix(1 0 0 1 -653.46722 553.31653)" fill="#FFFFFF" font-family="'OpenSans'" font-size="34px" letter-spacing="1">platform</text>
<g>
	<polygon fill="#FFFFFF" points="-886.3877,785.17218 -918.25934,785.17218 -918.25934,658.91022 -886.3877,658.91022 
		-886.3877,653.58569 -918.25934,653.58569 -923.58398,653.58569 -923.58398,658.91022 -923.58398,785.17218 -923.58398,790.49683 
		-918.25934,790.49683 -886.3877,790.49683 	"/>
	<polygon fill="#FFFFFF" points="-791.9975,653.58569 -823.85059,653.58569 -823.85059,658.91022 -791.9975,658.91022 
		-791.9975,785.17218 -823.85059,785.17218 -823.85059,790.49683 -791.9975,790.49683 -786.67285,790.49683 -786.67285,785.17218 
		-786.67285,658.91022 -786.67285,653.58569 	"/>
</g>
<path fill="#FFFFFF" d="M-855.45978,698.66589l20.62592,49.12384l-18.22388-9.21222l-2.40204-1.21423l-2.40216,1.21423
	l-18.22363,9.21222L-855.45978,698.66589 M-855.45978,684.91211l-31.13666,74.15717l31.13666-15.73981l31.13678,15.73981
	L-855.45978,684.91211L-855.45978,684.91211z"/>
<g>
	<path fill="#FFFFFF" d="M-746.43011,664.24048v115.61115h-6.53107V664.24048H-746.43011z M-742.00244,741.38696h0.07239
		l22.35266-38.60944h7.62036l-22.20795,38.60944l25.18353,38.46466h-7.40228L-742.00244,741.38696z"/>
	<path fill="#FFFFFF" d="M-678.93121,781.15802c-10.67603,0-22.78876-14.1524-22.78876-39.84344
		c0-25.69202,11.46429-39.91583,22.78876-39.91583c11.32153,0,22.78778,14.22382,22.78778,39.91583
		C-656.14343,767.00562-668.0448,781.15802-678.93121,781.15802z M-678.93121,774.62598
		c8.8689,0,15.82159-12.70032,15.82159-33.3114s-6.96814-33.38477-15.82159-33.38477
		c-9.16315,0-15.82159,12.77368-15.82159,33.38477S-687.37555,774.62598-678.93121,774.62598z"/>
	<path fill="#FFFFFF" d="M-648.88098,779.85162l33.23901-70.97815h-28.37714v-6.09595h38.31995l-33.31238,70.97815h32.224v6.09595
		H-648.88098z"/>
	<path fill="#FFFFFF" d="M-555.9101,743.20184l-35.5614-0.07336l0.36279,3.55646
		c1.66919,17.70789,10.95874,27.94104,20.24829,27.94104c3.77448,0,7.40326-1.16071,10.23322-2.53949l2.17761,5.73315
		c-3.91919,1.88727-9.14484,3.33838-13.93433,3.33838c-14.08002,0-26.05475-17.56317-26.05475-42.16583
		c0-25.25592,12.62793-37.59344,24.60266-37.59344C-558.95612,701.39874-552.42603,719.46942-555.9101,743.20184z
		 M-574.1264,707.92981c-9.72473,0-15.6759,9.58002-16.90997,25.11121l-0.28943,3.99158h29.31982l0.36279-5.15326
		C-561.06238,716.71191-565.63477,707.92981-574.1264,707.92981z"/>
	<path fill="#FFFFFF" d="M-546.47095,755.39368c0-13.35352,10.16083-24.67505,30.77191-25.69104l3.1203-0.14569
		c-0.14471-16.0387-5.80548-21.62714-15.31311-21.62714c-3.5564,0-7.98315,1.81488-11.24915,3.33838l-2.25006-6.60437
		c5.00854-1.95959,11.0321-3.26508,15.09607-3.26508c12.04706,0,20.24829,7.98322,20.24829,23.00586v54.57574l-6.96716-3.26508
		l-1.5968,1.30548c-3.04797,2.46808-6.96722,3.91919-11.39392,3.91919C-537.10901,780.93994-546.47095,770.7077-546.47095,755.39368
		z M-512.57874,768.8205v-32.58588h-3.19263c-13.2088,0-23.73242,4.86096-23.73242,20.82825
		c0,10.88635,6.38635,17.34601,15.02271,17.34601C-519.48511,774.40887-515.56201,771.80377-512.57874,768.8205z"/>
</g>
<rect x="-662.72241" y="793.47607" fill="none" width="159.06508" height="26.82574"/>
<text transform="matrix(1 0 0 1 -564.67133 819.31653)" fill="#FFFFFF" font-family="'OpenSans'" font-size="34px" letter-spacing="1">link</text>
<g>
	<polygon fill="#F79B2D" points="-376.3877,785.17218 -408.25937,785.17218 -408.25937,658.91022 -376.3877,658.91022 
		-376.3877,653.58569 -408.25937,653.58569 -413.58398,653.58569 -413.58398,658.91022 -413.58398,785.17218 -413.58398,790.49683 
		-408.25937,790.49683 -376.3877,790.49683 	"/>
	<polygon fill="#F79B2D" points="-281.9975,653.58569 -313.85062,653.58569 -313.85062,658.91022 -281.9975,658.91022 
		-281.9975,785.17218 -313.85062,785.17218 -313.85062,790.49683 -281.9975,790.49683 -276.67285,790.49683 -276.67285,785.17218 
		-276.67285,658.91022 -276.67285,653.58569 	"/>
</g>
<path fill="#F79B2D" d="M-345.45978,698.66589l20.62595,49.12384l-18.22388-9.21222l-2.40207-1.21423l-2.40216,1.21423
	l-18.2236,9.21222L-345.45978,698.66589 M-345.45978,684.91211l-31.13663,74.15717l31.13663-15.73981l31.13681,15.73981
	L-345.45978,684.91211L-345.45978,684.91211z"/>
<g>
	<path fill="#1C1C1C" d="M-236.43011,664.24048v115.61115h-6.53107V664.24048H-236.43011z M-232.00243,741.38696h0.07236
		l22.35266-38.60944h7.62038l-22.20793,38.60944l25.18353,38.46466h-7.40233L-232.00243,741.38696z"/>
	<path fill="#1C1C1C" d="M-168.93121,781.15802c-10.67606,0-22.78877-14.1524-22.78877-39.84344
		c0-25.69202,11.46434-39.91583,22.78877-39.91583c11.32153,0,22.7878,14.22382,22.7878,39.91583
		C-146.14342,767.00562-158.04482,781.15802-168.93121,781.15802z M-168.93121,774.62598
		c8.8689,0,15.82159-12.70032,15.82159-33.3114s-6.96814-33.38477-15.82159-33.38477
		c-9.16318,0-15.82159,12.77368-15.82159,33.38477S-177.37556,774.62598-168.93121,774.62598z"/>
	<path fill="#1C1C1C" d="M-138.881,779.85162l33.23905-70.97815h-28.37717v-6.09595h38.31995l-33.31238,70.97815h32.22402v6.09595
		H-138.881z"/>
	<path fill="#1C1C1C" d="M-45.91008,743.20184l-35.56144-0.07336l0.36279,3.55646
		c1.66918,17.70789,10.95875,27.94104,20.24832,27.94104c3.77449,0,7.40329-1.16071,10.23319-2.53949l2.17766,5.73315
		c-3.91922,1.88727-9.14484,3.33838-13.93435,3.33838c-14.08004,0-26.05478-17.56317-26.05478-42.16583
		c0-25.25592,12.62794-37.59344,24.60269-37.59344C-48.9561,701.39874-42.42601,719.46942-45.91008,743.20184z M-64.12643,707.92981
		c-9.72471,0-15.6759,9.58002-16.90994,25.11121l-0.28945,3.99158h29.31983l0.36278-5.15326
		C-51.06237,716.71191-55.63479,707.92981-64.12643,707.92981z"/>
	<path fill="#1C1C1C" d="M-36.47096,755.39368c0-13.35352,10.16083-24.67505,30.77193-25.69104l3.12032-0.14569
		c-0.14473-16.0387-5.8055-21.62714-15.31312-21.62714c-3.55643,0-7.98316,1.81488-11.24917,3.33838l-2.25003-6.60437
		c5.00853-1.95959,11.03208-3.26508,15.09603-3.26508c12.0471,0,20.24832,7.98322,20.24832,23.00586v54.57574l-6.96717-3.26508
		l-1.59683,1.30548c-3.04796,2.46808-6.96717,3.91919-11.3939,3.91919C-27.10903,780.93994-36.47096,770.7077-36.47096,755.39368z
		 M-2.57871,768.8205v-32.58588h-3.19269c-13.20878,0-23.73239,4.86096-23.73239,20.82825
		c0,10.88635,6.38634,17.34601,15.0227,17.34601C-9.4851,774.40887-5.56202,771.80377-2.57871,768.8205z"/>
</g>
<rect x="-152.72241" y="793.47607" fill="none" width="159.06508" height="26.82574"/>
<text transform="matrix(1 0 0 1 -54.67133 819.31653)" fill="#F79B2D" font-family="'OpenSans'" font-size="34px" letter-spacing="1">link</text>
<g>
	<polygon fill="#1C1C1C" points="-1423.89026,210.18765 -1455.76196,210.18765 -1455.76196,83.92564 -1423.89026,83.92564 
		-1423.89026,78.60115 -1455.76196,78.60115 -1461.08667,78.60115 -1461.08667,83.92564 -1461.08667,210.18765 
		-1461.08667,215.51227 -1455.76196,215.51227 -1423.89026,215.51227 	"/>
	<polygon fill="#1C1C1C" points="-1329.50012,78.60115 -1361.35327,78.60115 -1361.35327,83.92564 -1329.50012,83.92564 
		-1329.50012,210.18765 -1361.35327,210.18765 -1361.35327,215.51227 -1329.50012,215.51227 -1324.17554,215.51227 
		-1324.17554,210.18765 -1324.17554,83.92564 -1324.17554,78.60115 	"/>
</g>
<path fill="#1C1C1C" d="M-1392.9624,123.68137l20.62598,49.12383l-18.22388-9.2122l-2.4021-1.21426l-2.40222,1.21426
	l-18.22351,9.21217L-1392.9624,123.68137 M-1392.9624,109.92755l-31.1366,74.15717l31.1366-15.73979l31.13684,15.73979
	L-1392.9624,109.92755L-1392.9624,109.92755z"/>
<g>
	<path fill="#1C1C1C" d="M-1283.93274,89.25596v115.61109h-6.53101V89.25596H-1283.93274z M-1279.505,166.40239h0.07227
		l22.35266-38.6094h7.62048l-22.20801,38.6094l25.18359,38.46466h-7.40234L-1279.505,166.40239z"/>
	<path fill="#1C1C1C" d="M-1216.43384,206.17346c-10.67603,0-22.78882-14.1524-22.78882-39.84344
		c0-25.69199,11.46436-39.91579,22.78882-39.91579c11.32153,0,22.78784,14.22381,22.78784,39.91579
		C-1193.646,192.02106-1205.54749,206.17346-1216.43384,206.17346z M-1216.43384,199.64143
		c8.8689,0,15.82153-12.7003,15.82153-33.31142s-6.96814-33.38474-15.82153-33.38474
		c-9.16321,0-15.82153,12.77364-15.82153,33.38474S-1224.87817,199.64143-1216.43384,199.64143z"/>
	<path fill="#1C1C1C" d="M-1186.38367,204.86705l33.23914-70.97815h-28.3772v-6.09591h38.31995l-33.31238,70.97814h32.224v6.09592
		H-1186.38367z"/>
	<path fill="#1C1C1C" d="M-1093.41272,168.21727l-35.5614-0.07333l0.36279,3.55644
		c1.66919,17.70787,10.95874,27.94106,20.24829,27.94106c3.77454,0,7.40332-1.16072,10.23315-2.53949l2.17773,5.73314
		c-3.91919,1.88724-9.1449,3.33838-13.93433,3.33838c-14.08008,0-26.05481-17.56314-26.05481-42.16583
		c0-25.25589,12.62793-37.59341,24.60266-37.59341C-1096.45874,126.41422-1089.92859,144.48488-1093.41272,168.21727z
		 M-1111.62903,132.94528c-9.72473,0-15.6759,9.57999-16.90991,25.11116l-0.28955,3.99158h29.31982l0.36279-5.15326
		C-1098.56494,141.72734-1103.13745,132.94528-1111.62903,132.94528z"/>
	<path fill="#1C1C1C" d="M-1083.97363,180.4091c0-13.35352,10.16089-24.67505,30.77197-25.69104l3.12036-0.14569
		c-0.14478-16.03868-5.80554-21.62709-15.31311-21.62709c-3.55652,0-7.98315,1.81488-11.24927,3.33838l-2.25-6.60439
		c5.00854-1.95962,11.0321-3.26505,15.09607-3.26505c12.04712,0,20.24829,7.98316,20.24829,23.00585v54.57573l-6.96716-3.26506
		l-1.5968,1.30545c-3.04797,2.46808-6.96716,3.9192-11.39392,3.9192C-1074.61169,205.9554-1083.97363,195.72318-1083.97363,180.4091
		z M-1050.0813,193.83594v-32.58585h-3.19275c-13.20874,0-23.7323,4.86092-23.7323,20.8282
		c0,10.88638,6.38623,17.34605,15.02258,17.34605C-1056.98767,199.42435-1053.0647,196.81924-1050.0813,193.83594z"/>
</g>
<rect x="-1146.22498" y="218.49155" fill="none" width="105.06509" height="26.82574"/>
<text transform="matrix(1 0 0 1 -1142.70532 244.33105)" fill="#1C1C1C" font-family="'OpenSans'" font-size="34px" letter-spacing="1">group</text>
<rect x="-1233.0675" y="226.54382" fill="#007BB8" width="10.85392" height="10.85392"/>
<rect x="-1217.53943" y="226.54382" fill="#F79B2D" width="10.85392" height="10.85392"/>
<rect x="-1201.97302" y="226.54382" fill="#E53D4D" width="10.85392" height="10.85392"/>
<rect x="-1186.41064" y="226.54382" fill="#6D5E84" width="10.85392" height="10.85392"/>
<rect x="-1170.84241" y="226.47745" fill="#51BFB7" width="10.85392" height="10.85392"/>
<g>
	<polygon fill="#FFFFFF" points="-886.3877,1049.17224 -918.25934,1049.17224 -918.25934,922.91022 -886.3877,922.91022 
		-886.3877,917.58569 -918.25934,917.58569 -923.58398,917.58569 -923.58398,922.91022 -923.58398,1049.17224 
		-923.58398,1054.49683 -918.25934,1054.49683 -886.3877,1054.49683 	"/>
	<polygon fill="#FFFFFF" points="-791.9975,917.58569 -823.85059,917.58569 -823.85059,922.91022 -791.9975,922.91022 
		-791.9975,1049.17224 -823.85059,1049.17224 -823.85059,1054.49683 -791.9975,1054.49683 -786.67285,1054.49683 
		-786.67285,1049.17224 -786.67285,922.91022 -786.67285,917.58569 	"/>
</g>
<path fill="#FFFFFF" d="M-855.45978,962.66589l20.62592,49.12384l-18.22388-9.21222l-2.40204-1.21423l-2.40216,1.21423
	l-18.22363,9.21222L-855.45978,962.66589 M-855.45978,948.91211l-31.13666,74.15717l31.13666-15.73981l31.13678,15.73981
	L-855.45978,948.91211L-855.45978,948.91211z"/>
<g>
	<path fill="#FFFFFF" d="M-746.43011,928.24048v115.61108h-6.53107V928.24048H-746.43011z M-742.00244,1005.38696h0.07239
		l22.35266-38.60944h7.62036l-22.20795,38.60944l25.18353,38.4646h-7.40228L-742.00244,1005.38696z"/>
	<path fill="#FFFFFF" d="M-678.93121,1045.15796c-10.67603,0-22.78876-14.15234-22.78876-39.84338
		c0-25.69202,11.46429-39.91583,22.78876-39.91583c11.32153,0,22.78778,14.22382,22.78778,39.91583
		C-656.14343,1031.00562-668.0448,1045.15796-678.93121,1045.15796z M-678.93121,1038.62598
		c8.8689,0,15.82159-12.70032,15.82159-33.3114s-6.96814-33.38477-15.82159-33.38477
		c-9.16315,0-15.82159,12.77368-15.82159,33.38477S-687.37555,1038.62598-678.93121,1038.62598z"/>
	<path fill="#FFFFFF" d="M-648.88098,1043.85156l33.23901-70.97809h-28.37714v-6.09595h38.31995l-33.31238,70.97821h32.224v6.09583
		H-648.88098z"/>
	<path fill="#FFFFFF" d="M-555.9101,1007.20184l-35.5614-0.07336l0.36279,3.55646
		c1.66919,17.70789,10.95874,27.94104,20.24829,27.94104c3.77448,0,7.40326-1.16077,10.23322-2.53943l2.17761,5.73303
		c-3.91919,1.88733-9.14484,3.33838-13.93433,3.33838c-14.08002,0-26.05475-17.56311-26.05475-42.16577
		c0-25.25592,12.62793-37.59344,24.60266-37.59344C-558.95612,965.39874-552.42603,983.46942-555.9101,1007.20184z
		 M-574.1264,971.92981c-9.72473,0-15.6759,9.58002-16.90997,25.11121l-0.28943,3.99158h29.31982l0.36279-5.15326
		C-561.06238,980.71191-565.63477,971.92981-574.1264,971.92981z"/>
	<path fill="#FFFFFF" d="M-546.47095,1019.39368c0-13.35352,10.16083-24.67505,30.77191-25.69104l3.1203-0.14569
		c-0.14471-16.0387-5.80548-21.62714-15.31311-21.62714c-3.5564,0-7.98315,1.81488-11.24915,3.33838l-2.25006-6.60437
		c5.00854-1.95959,11.0321-3.26508,15.09607-3.26508c12.04706,0,20.24829,7.98322,20.24829,23.00586v54.57574l-6.96716-3.26501
		l-1.5968,1.30542c-3.04797,2.46802-6.96722,3.91919-11.39392,3.91919
		C-537.10901,1044.93994-546.47095,1034.70776-546.47095,1019.39368z M-512.57874,1032.82043v-32.58582h-3.19263
		c-13.2088,0-23.73242,4.86096-23.73242,20.82825c0,10.88635,6.38635,17.34607,15.02271,17.34607
		C-519.48511,1038.40894-515.56201,1035.80383-512.57874,1032.82043z"/>
</g>
<rect x="-631.72241" y="1057.47607" fill="none" width="128.06508" height="26.82574"/>
<text transform="matrix(1 0 0 1 -609.50244 1083.31665)" fill="#FFFFFF" font-family="'OpenSans'" font-size="34px" letter-spacing="1">media</text>
<g>
	<polygon fill="#FFFFFF" points="-886.3877,1335.17224 -918.25934,1335.17224 -918.25934,1208.91016 -886.3877,1208.91016 
		-886.3877,1203.58569 -918.25934,1203.58569 -923.58398,1203.58569 -923.58398,1208.91016 -923.58398,1335.17224 
		-923.58398,1340.49683 -918.25934,1340.49683 -886.3877,1340.49683 	"/>
	<polygon fill="#FFFFFF" points="-791.9975,1203.58569 -823.85059,1203.58569 -823.85059,1208.91016 -791.9975,1208.91016 
		-791.9975,1335.17224 -823.85059,1335.17224 -823.85059,1340.49683 -791.9975,1340.49683 -786.67285,1340.49683 
		-786.67285,1335.17224 -786.67285,1208.91016 -786.67285,1203.58569 	"/>
</g>
<path fill="#FFFFFF" d="M-855.45978,1248.66589l20.62592,49.1239l-18.22388-9.21228l-2.40204-1.21423l-2.40216,1.21423
	l-18.22363,9.21216L-855.45978,1248.66589 M-855.45978,1234.91211l-31.13666,74.1571l31.13666-15.73975l31.13678,15.73975
	L-855.45978,1234.91211L-855.45978,1234.91211z"/>
<g>
	<path fill="#FFFFFF" d="M-746.43011,1214.24048v115.61108h-6.53107v-115.61108H-746.43011z M-742.00244,1291.38696h0.07239
		l22.35266-38.60938h7.62036l-22.20795,38.60938l25.18353,38.4646h-7.40228L-742.00244,1291.38696z"/>
	<path fill="#FFFFFF" d="M-678.93121,1331.15796c-10.67603,0-22.78876-14.15234-22.78876-39.84338
		c0-25.69202,11.46429-39.91577,22.78876-39.91577c11.32153,0,22.78778,14.22375,22.78778,39.91577
		C-656.14343,1317.00562-668.0448,1331.15796-678.93121,1331.15796z M-678.93121,1324.62598
		c8.8689,0,15.82159-12.70032,15.82159-33.3114s-6.96814-33.38477-15.82159-33.38477
		c-9.16315,0-15.82159,12.77368-15.82159,33.38477S-687.37555,1324.62598-678.93121,1324.62598z"/>
	<path fill="#FFFFFF" d="M-648.88098,1329.85156l33.23901-70.97815h-28.37714v-6.09583h38.31995l-33.31238,70.97815h32.224v6.09583
		H-648.88098z"/>
	<path fill="#FFFFFF" d="M-555.9101,1293.20178l-35.5614-0.07324l0.36279,3.5564
		c1.66919,17.70789,10.95874,27.94104,20.24829,27.94104c3.77448,0,7.40326-1.16077,10.23322-2.53943l2.17761,5.73303
		c-3.91919,1.88733-9.14484,3.33838-13.93433,3.33838c-14.08002,0-26.05475-17.56311-26.05475-42.16577
		c0-25.25586,12.62793-37.59338,24.60266-37.59338C-558.95612,1251.3988-552.42603,1269.46948-555.9101,1293.20178z
		 M-574.1264,1257.92981c-9.72473,0-15.6759,9.57996-16.90997,25.11121l-0.28943,3.99158h29.31982l0.36279-5.15332
		C-561.06238,1266.71191-565.63477,1257.92981-574.1264,1257.92981z"/>
	<path fill="#FFFFFF" d="M-546.47095,1305.39368c0-13.35352,10.16083-24.67505,30.77191-25.69104l3.1203-0.14575
		c-0.14471-16.0387-5.80548-21.62708-15.31311-21.62708c-3.5564,0-7.98315,1.81494-11.24915,3.33838l-2.25006-6.60437
		c5.00854-1.95959,11.0321-3.26501,15.09607-3.26501c12.04706,0,20.24829,7.98315,20.24829,23.00586v54.57568l-6.96716-3.26501
		l-1.5968,1.30542c-3.04797,2.46802-6.96722,3.91919-11.39392,3.91919
		C-537.10901,1330.93994-546.47095,1320.70776-546.47095,1305.39368z M-512.57874,1318.82043v-32.58582h-3.19263
		c-13.2088,0-23.73242,4.86096-23.73242,20.82825c0,10.88635,6.38635,17.34607,15.02271,17.34607
		C-519.48511,1324.40894-515.56201,1321.80383-512.57874,1318.82043z"/>
</g>
<rect x="-706.72241" y="1343.47607" fill="none" width="203.06508" height="26.82574"/>
<text transform="matrix(1 0 0 1 -696.70361 1369.31665)" fill="#FFFFFF" font-family="'OpenSans'" font-size="34px" letter-spacing="1">community</text>
<g>
	<polygon fill="#007BB8" points="-380.91296,519.17218 -412.78464,519.17218 -412.78464,392.91019 -380.91296,392.91019 
		-380.91296,387.58569 -412.78464,387.58569 -418.10925,387.58569 -418.10925,392.91019 -418.10925,519.17218 -418.10925,524.49683 
		-412.78464,524.49683 -380.91296,524.49683 	"/>
	<polygon fill="#007BB8" points="-286.52277,387.58569 -318.37589,387.58569 -318.37589,392.91019 -286.52277,392.91019 
		-286.52277,519.17218 -318.37589,519.17218 -318.37589,524.49683 -286.52277,524.49683 -281.19815,524.49683 -281.19815,519.17218 
		-281.19815,392.91019 -281.19815,387.58569 	"/>
</g>
<path fill="#007BB8" d="M-349.98505,432.66592l20.62595,49.12381l-18.22388-9.21219l-2.40207-1.21426l-2.40219,1.21426
	l-18.2236,9.21216L-349.98505,432.66592 M-349.98505,418.91211l-31.13666,74.15717l31.13666-15.73981l31.13681,15.73981
	L-349.98505,418.91211L-349.98505,418.91211z"/>
<g>
	<path fill="#1C1C1C" d="M-240.9554,398.24051v115.61111h-6.53105V398.24051H-240.9554z M-236.52769,475.38693h0.07236
		l22.35266-38.60941h7.62038l-22.20793,38.60941l25.18352,38.46469h-7.40231L-236.52769,475.38693z"/>
	<path fill="#1C1C1C" d="M-173.45648,515.15802c-10.67606,0-22.78877-14.1524-22.78877-39.84344
		c0-25.69199,11.46434-39.9158,22.78877-39.9158c11.32153,0,22.7878,14.22382,22.7878,39.9158
		C-150.66869,501.00562-162.5701,515.15802-173.45648,515.15802z M-173.45648,508.62598
		c8.86888,0,15.82159-12.70029,15.82159-33.3114s-6.96814-33.38474-15.82159-33.38474
		c-9.16318,0-15.82159,12.77362-15.82159,33.38474S-181.90085,508.62598-173.45648,508.62598z"/>
	<path fill="#1C1C1C" d="M-143.40627,513.85162l33.23904-70.97818h-28.37717v-6.09592h38.31994l-33.31237,70.97815h32.22402v6.09595
		H-143.40627z"/>
	<path fill="#1C1C1C" d="M-50.43535,477.20181l-35.56144-0.07333l0.36279,3.55646
		c1.66919,17.70786,10.95876,27.94104,20.24832,27.94104c3.77449,0,7.40329-1.16071,10.23318-2.53949l2.17767,5.73315
		c-3.91922,1.88727-9.14484,3.33838-13.93435,3.33838c-14.08004,0-26.05478-17.56314-26.05478-42.16583
		c0-25.25589,12.62794-37.59341,24.60268-37.59341C-53.48138,435.39877-46.95128,453.46942-50.43535,477.20181z M-68.6517,441.92984
		c-9.72472,0-15.6759,9.57999-16.90994,25.11115l-0.28946,3.99158h29.31983l0.36279-5.15326
		C-55.58764,450.71188-60.16006,441.92984-68.6517,441.92984z"/>
	<path fill="#1C1C1C" d="M-40.99623,489.39365c0-13.35352,10.16083-24.67505,30.77193-25.69104l3.12032-0.14569
		c-0.14473-16.03867-5.8055-21.62708-15.31312-21.62708c-3.55643,0-7.98316,1.81488-11.24917,3.33838l-2.25003-6.6044
		c5.00853-1.95959,11.03208-3.26505,15.09603-3.26505c12.0471,0,20.24832,7.98315,20.24832,23.00586v54.57571l-6.96717-3.26505
		l-1.59683,1.30545c-3.04796,2.46808-6.96717,3.91919-11.3939,3.91919C-31.6343,514.93994-40.99623,504.70773-40.99623,489.39365z
		 M-7.10398,502.8205v-32.58585h-3.19269c-13.20878,0-23.73239,4.8609-23.73239,20.82819
		c0,10.88638,6.38634,17.34607,15.0227,17.34607C-14.01037,508.40891-10.08729,505.8038-7.10398,502.8205z"/>
</g>
<rect x="-157.24768" y="527.47607" fill="none" width="159.06508" height="26.82574"/>
<text transform="matrix(1 0 0 1 -147.99257 553.31659)" fill="#007BB8" font-family="'OpenSans'" font-size="34px" letter-spacing="1">platform</text>
<g>
	<polygon fill="#E53D4D" points="-380.91296,1049.17224 -412.78464,1049.17224 -412.78464,922.91022 -380.91296,922.91022 
		-380.91296,917.58569 -412.78464,917.58569 -418.10925,917.58569 -418.10925,922.91022 -418.10925,1049.17224 
		-418.10925,1054.49683 -412.78464,1054.49683 -380.91296,1054.49683 	"/>
	<polygon fill="#E53D4D" points="-286.52277,917.58569 -318.37589,917.58569 -318.37589,922.91022 -286.52277,922.91022 
		-286.52277,1049.17224 -318.37589,1049.17224 -318.37589,1054.49683 -286.52277,1054.49683 -281.19815,1054.49683 
		-281.19815,1049.17224 -281.19815,922.91022 -281.19815,917.58569 	"/>
</g>
<path fill="#E53D4D" d="M-349.98505,962.66589l20.62595,49.12384l-18.22388-9.21222l-2.40207-1.21423l-2.40219,1.21423
	l-18.2236,9.21222L-349.98505,962.66589 M-349.98505,948.91211l-31.13666,74.15717l31.13666-15.73981l31.13681,15.73981
	L-349.98505,948.91211L-349.98505,948.91211z"/>
<g>
	<path fill="#1C1C1C" d="M-240.9554,928.24048v115.61108h-6.53105V928.24048H-240.9554z M-236.52769,1005.38696h0.07236
		l22.35266-38.60944h7.62038l-22.20793,38.60944l25.18352,38.4646h-7.40231L-236.52769,1005.38696z"/>
	<path fill="#1C1C1C" d="M-173.45648,1045.15796c-10.67606,0-22.78877-14.15234-22.78877-39.84338
		c0-25.69202,11.46434-39.91583,22.78877-39.91583c11.32153,0,22.7878,14.22382,22.7878,39.91583
		C-150.66869,1031.00562-162.5701,1045.15796-173.45648,1045.15796z M-173.45648,1038.62598
		c8.86888,0,15.82159-12.70032,15.82159-33.3114s-6.96814-33.38477-15.82159-33.38477
		c-9.16318,0-15.82159,12.77368-15.82159,33.38477S-181.90085,1038.62598-173.45648,1038.62598z"/>
	<path fill="#1C1C1C" d="M-143.40627,1043.85156l33.23904-70.97809h-28.37717v-6.09595h38.31994l-33.31237,70.97821h32.22402
		v6.09583H-143.40627z"/>
	<path fill="#1C1C1C" d="M-50.43535,1007.20184l-35.56144-0.07336l0.36279,3.55646
		c1.66919,17.70789,10.95876,27.94104,20.24832,27.94104c3.77449,0,7.40329-1.16077,10.23318-2.53943l2.17767,5.73303
		c-3.91922,1.88733-9.14484,3.33838-13.93435,3.33838c-14.08004,0-26.05478-17.56311-26.05478-42.16577
		c0-25.25592,12.62794-37.59344,24.60268-37.59344C-53.48138,965.39874-46.95128,983.46942-50.43535,1007.20184z
		 M-68.6517,971.92981c-9.72472,0-15.6759,9.58002-16.90994,25.11121l-0.28946,3.99158h29.31983l0.36279-5.15326
		C-55.58764,980.71191-60.16006,971.92981-68.6517,971.92981z"/>
	<path fill="#1C1C1C" d="M-40.99623,1019.39368c0-13.35352,10.16083-24.67505,30.77193-25.69104l3.12032-0.14569
		c-0.14473-16.0387-5.8055-21.62714-15.31312-21.62714c-3.55643,0-7.98316,1.81488-11.24917,3.33838l-2.25003-6.60437
		c5.00853-1.95959,11.03208-3.26508,15.09603-3.26508c12.0471,0,20.24832,7.98322,20.24832,23.00586v54.57574l-6.96717-3.26501
		l-1.59683,1.30542c-3.04796,2.46802-6.96717,3.91919-11.3939,3.91919C-31.6343,1044.93994-40.99623,1034.70776-40.99623,1019.39368
		z M-7.10398,1032.82043v-32.58582h-3.19269c-13.20878,0-23.73239,4.86096-23.73239,20.82825
		c0,10.88635,6.38634,17.34607,15.0227,17.34607C-14.01037,1038.40894-10.08729,1035.80383-7.10398,1032.82043z"/>
</g>
<rect x="-126.24768" y="1057.47607" fill="none" width="128.06508" height="26.82574"/>
<text transform="matrix(1 0 0 1 -104.02772 1083.31665)" fill="#E53D4D" font-family="'OpenSans'" font-size="34px" letter-spacing="1">media</text>
<g>
	<polygon fill="#6D5E84" points="-380.91296,1335.17224 -412.78464,1335.17224 -412.78464,1208.91016 -380.91296,1208.91016 
		-380.91296,1203.58569 -412.78464,1203.58569 -418.10925,1203.58569 -418.10925,1208.91016 -418.10925,1335.17224 
		-418.10925,1340.49683 -412.78464,1340.49683 -380.91296,1340.49683 	"/>
	<polygon fill="#6D5E84" points="-286.52277,1203.58569 -318.37589,1203.58569 -318.37589,1208.91016 -286.52277,1208.91016 
		-286.52277,1335.17224 -318.37589,1335.17224 -318.37589,1340.49683 -286.52277,1340.49683 -281.19815,1340.49683 
		-281.19815,1335.17224 -281.19815,1208.91016 -281.19815,1203.58569 	"/>
</g>
<path fill="#6D5E84" d="M-349.98505,1248.66589l20.62595,49.1239l-18.22388-9.21228l-2.40207-1.21423l-2.40219,1.21423
	l-18.2236,9.21216L-349.98505,1248.66589 M-349.98505,1234.91211l-31.13666,74.1571l31.13666-15.73975l31.13681,15.73975
	L-349.98505,1234.91211L-349.98505,1234.91211z"/>
<g>
	<path fill="#1C1C1C" d="M-240.9554,1214.24048v115.61108h-6.53105v-115.61108H-240.9554z M-236.52769,1291.38696h0.07236
		l22.35266-38.60938h7.62038l-22.20793,38.60938l25.18352,38.4646h-7.40231L-236.52769,1291.38696z"/>
	<path fill="#1C1C1C" d="M-173.45648,1331.15796c-10.67606,0-22.78877-14.15234-22.78877-39.84338
		c0-25.69202,11.46434-39.91577,22.78877-39.91577c11.32153,0,22.7878,14.22375,22.7878,39.91577
		C-150.66869,1317.00562-162.5701,1331.15796-173.45648,1331.15796z M-173.45648,1324.62598
		c8.86888,0,15.82159-12.70032,15.82159-33.3114s-6.96814-33.38477-15.82159-33.38477
		c-9.16318,0-15.82159,12.77368-15.82159,33.38477S-181.90085,1324.62598-173.45648,1324.62598z"/>
	<path fill="#1C1C1C" d="M-143.40627,1329.85156l33.23904-70.97815h-28.37717v-6.09583h38.31994l-33.31237,70.97815h32.22402
		v6.09583H-143.40627z"/>
	<path fill="#1C1C1C" d="M-50.43535,1293.20178l-35.56144-0.07324l0.36279,3.5564
		c1.66919,17.70789,10.95876,27.94104,20.24832,27.94104c3.77449,0,7.40329-1.16077,10.23318-2.53943l2.17767,5.73303
		c-3.91922,1.88733-9.14484,3.33838-13.93435,3.33838c-14.08004,0-26.05478-17.56311-26.05478-42.16577
		c0-25.25586,12.62794-37.59338,24.60268-37.59338C-53.48138,1251.3988-46.95128,1269.46948-50.43535,1293.20178z
		 M-68.6517,1257.92981c-9.72472,0-15.6759,9.57996-16.90994,25.11121l-0.28946,3.99158h29.31983l0.36279-5.15332
		C-55.58764,1266.71191-60.16006,1257.92981-68.6517,1257.92981z"/>
	<path fill="#1C1C1C" d="M-40.99623,1305.39368c0-13.35352,10.16083-24.67505,30.77193-25.69104l3.12032-0.14575
		c-0.14473-16.0387-5.8055-21.62708-15.31312-21.62708c-3.55643,0-7.98316,1.81494-11.24917,3.33838l-2.25003-6.60437
		c5.00853-1.95959,11.03208-3.26501,15.09603-3.26501c12.0471,0,20.24832,7.98315,20.24832,23.00586v54.57568l-6.96717-3.26501
		l-1.59683,1.30542c-3.04796,2.46802-6.96717,3.91919-11.3939,3.91919C-31.6343,1330.93994-40.99623,1320.70776-40.99623,1305.39368
		z M-7.10398,1318.82043v-32.58582h-3.19269c-13.20878,0-23.73239,4.86096-23.73239,20.82825
		c0,10.88635,6.38634,17.34607,15.0227,17.34607C-14.01037,1324.40894-10.08729,1321.80383-7.10398,1318.82043z"/>
</g>
<rect x="-201.24768" y="1343.47607" fill="none" width="203.06508" height="26.82574"/>
<text transform="matrix(1 0 0 1 -191.2289 1369.31665)" fill="#6D5E84" font-family="'OpenSans'" font-size="34px" letter-spacing="1">community</text>
</svg>
