<?xml version="1.0" encoding="utf-8"?>
<!-- Generator: Adobe Illustrator 19.2.1, SVG Export Plug-In . SVG Version: 6.00 Build 0)  -->
<svg version="1.1" xmlns="http://www.w3.org/2000/svg" xmlns:xlink="http://www.w3.org/1999/xlink" x="0px" y="0px"
	 viewBox="0 0 218.66667 215.33333" enable-background="new 0 0 218.66667 215.33333" xml:space="preserve">
<g id="border_centrale_bkgd">
</g>
<g id="Repères" display="none">
</g>
<g id="Calque_3">
</g>
<g id="Footer">
</g>
<g id="vos_objectifs">
</g>
<g id="Nos_compétences">
</g>
<g id="Nos_missions">
	<g>
		<rect x="123" y="31.33333" fill="#FFFFFF" width="85" height="149"/>
		<path fill="#1D1D1D" d="M209,180.33333h-86v-150h86V180.33333z M124,179.33333h84v-148h-84V179.33333z"/>
	</g>
	<g>
		<rect x="123" y="30.33333" fill="#FFFFFF" width="86" height="149"/>
		<path fill="#1D1D1D" d="M210,180.33333h-88v-151h88V180.33333z M124,178.33333h84v-147h-84V178.33333z"/>
	</g>
	<g>
		<rect x="10" y="30.33333" fill="#FFFFFF" width="86" height="149"/>
		<path fill="#1D1D1D" d="M97,180.33333H9v-151h88V180.33333z M11,178.33333h84v-147H11V178.33333z"/>
	</g>
	<g>
		<path fill="#1D1D1D" d="M96,179.33333H9v-149h87V179.33333z M10,178.33333h85v-147H10V178.33333z"/>
	</g>
	<g>
		<rect x="123" y="68.33334" fill="#1D1D1D" width="86" height="2"/>
	</g>
	<g>
		<rect x="10" y="139.33333" fill="#1D1D1D" width="86" height="2"/>
	</g>
	<g>
		<path fill="#1D1D1D" d="M53.62891,24.94271c-0.31934,0-0.63184-0.15234-0.82617-0.43506
			c-0.31152-0.45605-0.19531-1.07764,0.25977-1.39014c0.4043-0.27686,40.98242-27.42188,89.36816-4.31006
			c0.49902,0.23779,0.70996,0.83496,0.47168,1.3335c-0.23828,0.49756-0.83691,0.70898-1.33301,0.47119
			C94.24414-1.99284,54.58789,24.4974,54.19238,24.7679C54.02051,24.88607,53.82324,24.94271,53.62891,24.94271z"/>
	</g>
	<g>
		<polygon fill="#1D1D1D" points="152.28928,24.96336 140.86995,13.33134 141.53882,19.82941 136.06491,23.39094 		"/>
	</g>
	<g>
		<path fill="#1D1D1D" d="M155.35352,43.82943h3.44531c1.61816,0,2.78906,0.2417,3.51172,0.72559
			c0.72363,0.48389,1.08496,1.24854,1.08496,2.29443c0,0.72266-0.20215,1.31934-0.60449,1.78906
			c-0.40332,0.47021-0.99219,0.7749-1.76465,0.91357v0.0835c1.85156,0.31689,2.77832,1.29053,2.77832,2.91992
			c0,1.08984-0.36914,1.94092-1.10547,2.55273c-0.7373,0.61182-1.76758,0.91748-3.09082,0.91748h-4.25488V43.82943z
			 M156.77148,49.05159h2.33594c1.00098,0,1.72168-0.15723,2.16113-0.47119c0.43848-0.31445,0.6582-0.84424,0.6582-1.58936
			c0-0.68408-0.24414-1.17773-0.7334-1.48096c-0.48926-0.30273-1.26855-0.45459-2.33594-0.45459h-2.08594V49.05159z
			 M156.77148,50.25277v4.56348h2.54492c0.98438,0,1.72559-0.19043,2.22266-0.57178
			c0.49805-0.38086,0.74707-0.97705,0.74707-1.78906c0-0.75635-0.25488-1.3125-0.76367-1.66846s-1.2832-0.53418-2.32324-0.53418
			H156.77148z"/>
		<path fill="#1D1D1D" d="M177.00977,49.91097c0,1.95215-0.49316,3.48682-1.48047,4.60498
			c-0.9873,1.11768-2.35938,1.67676-4.11719,1.67676c-1.7959,0-3.18262-0.54932-4.1582-1.64795
			c-0.97559-1.09814-1.46387-2.64844-1.46387-4.65039c0-1.98584,0.48926-3.5249,1.46777-4.61768
			c0.97949-1.09277,2.36914-1.63916,4.17188-1.63916c1.75098,0,3.11914,0.55615,4.10352,1.66846
			S177.00977,47.95345,177.00977,49.91097z M167.29102,49.91097c0,1.65186,0.35254,2.9043,1.05566,3.7583
			c0.70313,0.85352,1.72559,1.28027,3.06543,1.28027c1.35156,0,2.37207-0.42529,3.0625-1.27637
			c0.68945-0.85107,1.03418-2.10498,1.03418-3.76221c0-1.64063-0.34375-2.88525-1.03027-3.7334
			c-0.6875-0.84814-1.70313-1.27197-3.04883-1.27197c-1.35156,0-2.37988,0.42676-3.08301,1.28027
			C167.64355,47.03988,167.29102,48.28157,167.29102,49.91097z"/>
	</g>
	<g>
		<path fill="#1D1D1D" d="M157.89746,131.0638h-1.41797v-12.19628h6.79883v1.25977h-5.38086v4.46289h5.05566v1.25977h-5.05566
			V131.0638z"/>
		<path fill="#1D1D1D" d="M175.88281,124.94906c0,1.95215-0.49316,3.48681-1.48047,4.60497
			c-0.9873,1.11768-2.35938,1.67676-4.11719,1.67676c-1.7959,0-3.18262-0.54932-4.1582-1.64795
			c-0.97559-1.09814-1.46387-2.64843-1.46387-4.65038c0-1.98584,0.48926-3.5249,1.46777-4.61768
			c0.97949-1.09277,2.36914-1.63916,4.17188-1.63916c1.75098,0,3.11914,0.55615,4.10352,1.66846
			S175.88281,122.99154,175.88281,124.94906z M166.16406,124.94906c0,1.65186,0.35254,2.9043,1.05566,3.75829
			c0.70313,0.85352,1.72559,1.28027,3.06543,1.28027c1.35156,0,2.37207-0.42529,3.0625-1.27637
			c0.68945-0.85107,1.03418-2.10497,1.03418-3.7622c0-1.64063-0.34375-2.88525-1.03027-3.7334
			c-0.6875-0.84814-1.70313-1.27197-3.04883-1.27197c-1.35156,0-2.37988,0.42676-3.08301,1.28027
			C166.5166,122.07796,166.16406,123.31966,166.16406,124.94906z"/>
	</g>
	<g>
		<path fill="#1D1D1D" d="M44.91504,166.76888h-1.41797v-12.19629h6.79883v1.25977h-5.38086v4.46289h5.05566v1.25977h-5.05566
			V166.76888z"/>
		<path fill="#1D1D1D" d="M62.90039,160.65413c0,1.95215-0.49316,3.48682-1.48047,4.60498
			c-0.9873,1.11768-2.35938,1.67676-4.11719,1.67676c-1.7959,0-3.18262-0.54932-4.1582-1.64795
			c-0.97559-1.09814-1.46387-2.64844-1.46387-4.65039c0-1.98584,0.48926-3.5249,1.46777-4.61768
			c0.97949-1.09277,2.36914-1.63916,4.17188-1.63916c1.75098,0,3.11914,0.55615,4.10352,1.66846
			S62.90039,158.69661,62.90039,160.65413z M53.18164,160.65413c0,1.65186,0.35254,2.9043,1.05566,3.7583
			c0.70313,0.85352,1.72559,1.28027,3.06543,1.28027c1.35156,0,2.37207-0.42529,3.0625-1.27637
			c0.68945-0.85107,1.03418-2.10498,1.03418-3.76221c0-1.64063-0.34375-2.88525-1.03027-3.7334
			c-0.6875-0.84814-1.70313-1.27197-3.04883-1.27197c-1.35156,0-2.37988,0.42676-3.08301,1.28027
			C53.53418,157.78304,53.18164,159.02473,53.18164,160.65413z"/>
	</g>
	<g>
		<path fill="#1D1D1D" d="M42.37109,79.75326h3.44531c1.61816,0,2.78906,0.2417,3.51172,0.72559
			c0.72363,0.48389,1.08496,1.24854,1.08496,2.29443c0,0.72266-0.20215,1.31934-0.60449,1.78906
			c-0.40332,0.47021-0.99219,0.7749-1.76465,0.91357v0.0835c1.85156,0.31689,2.77832,1.29053,2.77832,2.91992
			c0,1.08984-0.36914,1.94092-1.10547,2.55273c-0.7373,0.61182-1.76758,0.91748-3.09082,0.91748h-4.25488V79.75326z
			 M43.78906,84.97543H46.125c1.00098,0,1.72168-0.15723,2.16113-0.47119c0.43848-0.31445,0.6582-0.84424,0.6582-1.58936
			c0-0.68408-0.24414-1.17773-0.7334-1.48096c-0.48926-0.30273-1.26855-0.45459-2.33594-0.45459h-2.08594V84.97543z
			 M43.78906,86.1766v4.56348h2.54492c0.98438,0,1.72559-0.19043,2.22266-0.57178c0.49805-0.38086,0.74707-0.97705,0.74707-1.78906
			c0-0.75635-0.25488-1.3125-0.76367-1.66846s-1.2832-0.53418-2.32324-0.53418H43.78906z"/>
		<path fill="#1D1D1D" d="M64.02734,85.8348c0,1.95215-0.49316,3.48682-1.48047,4.60498
			c-0.9873,1.11768-2.35938,1.67676-4.11719,1.67676c-1.7959,0-3.18262-0.54932-4.1582-1.64795
			c-0.97559-1.09814-1.46387-2.64844-1.46387-4.65039c0-1.98584,0.48926-3.5249,1.46777-4.61768
			c0.97949-1.09277,2.36914-1.63916,4.17188-1.63916c1.75098,0,3.11914,0.55615,4.10352,1.66846S64.02734,83.87728,64.02734,85.8348
			z M54.30859,85.8348c0,1.65186,0.35254,2.9043,1.05566,3.7583c0.70313,0.85352,1.72559,1.28027,3.06543,1.28027
			c1.35156,0,2.37207-0.42529,3.0625-1.27637c0.68945-0.85107,1.03418-2.10498,1.03418-3.76221
			c0-1.64063-0.34375-2.88525-1.03027-3.7334c-0.6875-0.84814-1.70313-1.27197-3.04883-1.27197
			c-1.35156,0-2.37988,0.42676-3.08301,1.28027C54.66113,82.96371,54.30859,84.20541,54.30859,85.8348z"/>
	</g>
	<g>
		<path fill="#1D1D1D" d="M25.13184,205.95784h-0.63086l1.89941-8.95654h4.33691l-0.12207,0.57568h-3.7002l-0.82129,3.79834h3.49219
			l-0.12891,0.58203h-3.48535L25.13184,205.95784z"/>
		<path fill="#1D1D1D" d="M38.48145,200.37679c0,1.0415-0.19238,2.0249-0.57617,2.94971
			c-0.38379,0.92529-0.89844,1.61523-1.54395,2.0708s-1.39063,0.68311-2.23633,0.68311c-1.02051,0-1.80664-0.3042-2.3584-0.91309
			c-0.55176-0.6084-0.82715-1.48633-0.82715-2.63428c0-1.06982,0.19043-2.04492,0.56934-2.92529
			c0.37988-0.87988,0.90137-1.55615,1.5625-2.02783c0.66211-0.47168,1.42383-0.70752,2.28516-0.70752
			c1.00879,0,1.78223,0.30322,2.31934,0.90967S38.48145,199.25374,38.48145,200.37679z M35.27051,197.44807
			c-0.70996,0-1.34082,0.20654-1.88965,0.61914c-0.5498,0.4126-0.9873,1.021-1.31445,1.82568
			c-0.32617,0.80469-0.49023,1.65625-0.49023,2.55469c0,1.00049,0.22363,1.76221,0.6709,2.28516
			c0.44727,0.52246,1.09961,0.78418,1.95801,0.78418c0.68945,0,1.30273-0.20117,1.83789-0.60352s0.96387-1.01514,1.28613-1.83789
			c0.32324-0.82324,0.48438-1.70215,0.48438-2.6377c0-0.97998-0.21387-1.72314-0.64063-2.22998
			C36.74609,197.70149,36.1123,197.44807,35.27051,197.44807z"/>
		<path fill="#1D1D1D" d="M42.73828,205.62093c0-0.22852,0.05176-0.40967,0.15625-0.54199
			c0.10449-0.13281,0.24609-0.19922,0.42578-0.19922c0.26563,0,0.39844,0.14697,0.39844,0.44092
			c0,0.22461-0.05273,0.40527-0.15625,0.54248c-0.10449,0.13672-0.24023,0.20508-0.4082,0.20508
			C42.87695,206.06819,42.73828,205.91927,42.73828,205.62093z M43.70605,199.89876c0-0.23291,0.05176-0.41455,0.15625-0.54492
			c0.10449-0.13086,0.24414-0.19629,0.41992-0.19629c0.26953,0,0.4043,0.14697,0.4043,0.44092
			c0,0.2251-0.05176,0.40674-0.15332,0.54541c-0.10254,0.13916-0.23926,0.2085-0.41016,0.2085
			C43.84473,200.35237,43.70605,200.201,43.70605,199.89876z"/>
		<path fill="#1D1D1D" d="M47.54102,208.972c-0.19629,0-0.4043-0.03906-0.625-0.11621v-0.55176
			c0.2168,0.06543,0.4209,0.09814,0.61328,0.09814c0.35938,0,0.63281-0.1084,0.82031-0.32471
			c0.18848-0.21631,0.34082-0.59619,0.45996-1.13965l1.50684-7.14307h-1.25586l0.08594-0.41064l1.25586-0.08545l0.21387-0.98047
			c0.14355-0.68604,0.38086-1.18457,0.71387-1.49463c0.33301-0.31055,0.79785-0.46582,1.39355-0.46582
			c0.29883,0,0.6377,0.06348,1.01758,0.18994l-0.15332,0.49023c-0.35547-0.11035-0.65527-0.16553-0.90039-0.16553
			c-0.39258,0-0.70605,0.10938-0.94043,0.32764c-0.23535,0.21875-0.40723,0.58301-0.51758,1.09375l-0.21484,1.00488h1.51953
			l-0.09766,0.49609h-1.51953l-1.54395,7.29053c-0.13477,0.65723-0.34766,1.13623-0.6377,1.43652S48.04785,208.972,47.54102,208.972
			z"/>
		<path fill="#1D1D1D" d="M56.25293,199.18196c0.28223,0,0.5332,0.02881,0.75391,0.08594l-0.12891,0.56982
			c-0.19238-0.06152-0.42285-0.0918-0.69238-0.0918c-0.38379,0-0.75,0.13037-1.09668,0.39209
			c-0.34766,0.26123-0.65918,0.65332-0.9375,1.17627c-0.27734,0.52246-0.48145,1.08838-0.6123,1.69678l-0.61328,2.94678h-0.59961
			l1.41504-6.65918h0.49023l-0.17773,1.24951h0.03613c0.29883-0.38379,0.5498-0.66064,0.75391-0.83008
			s0.42188-0.30127,0.65234-0.39502C55.72656,199.22884,55.97949,199.18196,56.25293,199.18196z"/>
		<path fill="#1D1D1D" d="M60.46777,199.16975c0.73535,0,1.30469,0.22168,1.70703,0.66455
			c0.40137,0.44336,0.60352,1.05518,0.60352,1.83496c0,0.80469-0.14648,1.55713-0.43848,2.25781
			c-0.29199,0.7002-0.69141,1.23438-1.19727,1.60205c-0.50684,0.36768-1.09082,0.55127-1.75293,0.55127
			c-0.75098,0-1.32227-0.22363-1.71191-0.6709c-0.39063-0.44727-0.58496-1.0874-0.58496-1.92041
			c0-0.78027,0.14844-1.51123,0.44727-2.19336c0.29785-0.68213,0.7002-1.20703,1.20703-1.57471
			C59.25293,199.35384,59.82715,199.16975,60.46777,199.16975z M60.41895,199.69661c-0.50586,0-0.96191,0.16064-1.36621,0.48096
			c-0.4043,0.3208-0.72656,0.78027-0.96777,1.37842c-0.24121,0.59863-0.36133,1.23242-0.36133,1.90234
			c0,1.39697,0.57617,2.09521,1.72754,2.09521c0.51855,0,0.97949-0.1582,1.38184-0.47461
			c0.40234-0.31689,0.72266-0.78223,0.96191-1.39697c0.23828-0.61475,0.3584-1.28955,0.3584-2.0249
			c0-0.62891-0.14941-1.11279-0.44727-1.45166C61.40723,199.86604,60.97852,199.69661,60.41895,199.69661z"/>
		<path fill="#1D1D1D" d="M68.05859,205.95784l0.91309-4.23926c0.08496-0.37598,0.12793-0.69434,0.12793-0.95605
			c0-0.32666-0.08887-0.58203-0.2666-0.76563c-0.17676-0.18359-0.45215-0.27588-0.82324-0.27588
			c-0.45801,0-0.8877,0.13721-1.29004,0.41064s-0.74121,0.65674-1.0166,1.14844c-0.27637,0.49268-0.4873,1.07764-0.63477,1.75537
			l-0.62402,2.92236h-0.60059l1.41504-6.65918h0.50195l-0.22656,1.35352h0.03711c0.66992-0.97168,1.51953-1.45801,2.54883-1.45801
			c0.53027,0,0.92871,0.13086,1.19434,0.39209c0.26563,0.26172,0.39844,0.63721,0.39844,1.12744
			c0,0.28613-0.04883,0.65771-0.14746,1.11475l-0.90625,4.12939H68.05859z"/>
		<path fill="#1D1D1D" d="M74.63281,199.29866l-0.11035,0.49609h-1.73438l-0.82617,3.89014
			c-0.09082,0.4043-0.13477,0.73926-0.13477,1.00488c0,0.56787,0.25684,0.85156,0.77148,0.85156
			c0.27734,0,0.58789-0.05322,0.93164-0.15918v0.52686c-0.41309,0.11426-0.75977,0.17139-1.04199,0.17139
			c-0.4043,0-0.7168-0.11133-0.9375-0.33398s-0.33105-0.5459-0.33105-0.97119c0-0.29785,0.05957-0.71875,0.17773-1.26172
			l0.79102-3.71875h-1.11523l0.08594-0.41064l1.12695-0.104l0.59473-1.5498h0.33691l-0.33691,1.56836H74.63281z"/>
		<path fill="#1D1D1D" d="M81.38867,199.16975c0.73535,0,1.30469,0.22168,1.70703,0.66455
			c0.40137,0.44336,0.60352,1.05518,0.60352,1.83496c0,0.80469-0.14648,1.55713-0.43848,2.25781
			c-0.29199,0.7002-0.69141,1.23438-1.19727,1.60205c-0.50684,0.36768-1.09082,0.55127-1.75293,0.55127
			c-0.75098,0-1.32227-0.22363-1.71191-0.6709c-0.39063-0.44727-0.58496-1.0874-0.58496-1.92041
			c0-0.78027,0.14844-1.51123,0.44727-2.19336c0.29785-0.68213,0.7002-1.20703,1.20703-1.57471
			C80.17383,199.35384,80.74805,199.16975,81.38867,199.16975z M81.33984,199.69661c-0.50586,0-0.96191,0.16064-1.36621,0.48096
			c-0.4043,0.3208-0.72656,0.78027-0.96777,1.37842c-0.24121,0.59863-0.36133,1.23242-0.36133,1.90234
			c0,1.39697,0.57617,2.09521,1.72754,2.09521c0.51855,0,0.97949-0.1582,1.38184-0.47461
			c0.40234-0.31689,0.72266-0.78223,0.96191-1.39697c0.23828-0.61475,0.3584-1.28955,0.3584-2.0249
			c0-0.62891-0.14941-1.11279-0.44727-1.45166C82.32813,199.86604,81.89941,199.69661,81.33984,199.69661z"/>
		<path fill="#1D1D1D" d="M83.39258,208.972c-0.19629,0-0.40527-0.03906-0.625-0.11621v-0.55176
			c0.21582,0.06543,0.41992,0.09814,0.6123,0.09814c0.35938,0,0.63281-0.1084,0.82129-0.32471
			c0.1875-0.21631,0.34082-0.59619,0.45898-1.13965l1.50684-7.14307h-1.25586l0.08594-0.41064l1.25586-0.08545l0.21484-0.98047
			c0.14258-0.68604,0.38086-1.18457,0.71387-1.49463c0.33203-0.31055,0.79688-0.46582,1.39355-0.46582
			c0.29785,0,0.63672,0.06348,1.0166,0.18994l-0.15332,0.49023c-0.35449-0.11035-0.65527-0.16553-0.90039-0.16553
			c-0.3916,0-0.70508,0.10938-0.94043,0.32764c-0.23438,0.21875-0.40723,0.58301-0.51758,1.09375l-0.21387,1.00488h2.92188
			l0.21484-0.98047c0.14258-0.68604,0.37988-1.18457,0.71289-1.49463c0.33301-0.31055,0.79785-0.46582,1.39453-0.46582
			c0.29785,0,0.63672,0.06348,1.0166,0.18994l-0.14746,0.49023c-0.35449-0.11035-0.65723-0.16553-0.90625-0.16553
			c-0.39648,0-0.71191,0.11133-0.94629,0.33398c-0.23535,0.22266-0.40332,0.58496-0.50586,1.0874l-0.21387,1.00488h1.51855
			l-0.10352,0.49609h-1.51953l-1.54395,7.29053c-0.13867,0.67383-0.35449,1.15674-0.64648,1.44873s-0.6875,0.43799-1.18555,0.43799
			c-0.19531,0-0.4043-0.03906-0.625-0.11621v-0.55176c0.2168,0.06543,0.4209,0.09814,0.61328,0.09814
			c0.35938,0,0.63281-0.1084,0.82031-0.32471c0.18848-0.21631,0.3418-0.59619,0.45996-1.13965l1.49512-7.14307h-2.92285
			l-1.54395,7.29053c-0.13477,0.65723-0.34668,1.13623-0.63672,1.43652S83.89844,208.972,83.39258,208.972z M92.35547,205.95784
			h-0.60059l1.41504-6.65918h0.58789L92.35547,205.95784z M93.43359,197.58919c0-0.22461,0.04492-0.4043,0.13477-0.53906
			s0.21191-0.20215,0.36719-0.20215c0.23242,0,0.34961,0.14697,0.34961,0.44092c0,0.23291-0.04492,0.4165-0.13477,0.55127
			s-0.20703,0.20264-0.34961,0.20264c-0.11816,0-0.20898-0.04004-0.27246-0.11963S93.43359,197.73225,93.43359,197.58919z"/>
		<path fill="#1D1D1D" d="M97.12109,206.0804c-0.70996,0-1.27051-0.22559-1.68164-0.67676
			c-0.41016-0.45166-0.61523-1.07764-0.61523-1.87793c0-0.78809,0.15039-1.52637,0.4502-2.21484
			c0.2998-0.68799,0.70508-1.21289,1.21582-1.57422c0.51074-0.36182,1.10254-0.54248,1.77734-0.54248
			c0.54688,0,1.03906,0.08789,1.47559,0.26367l-0.1709,0.55127c-0.4375-0.19189-0.88281-0.28809-1.33594-0.28809
			c-0.52637,0-1.00195,0.15723-1.42383,0.47168c-0.42285,0.31494-0.75488,0.76807-0.99609,1.36035s-0.36133,1.24561-0.36133,1.96045
			c0,0.64551,0.15039,1.14258,0.4502,1.4917c0.30078,0.34912,0.72656,0.52393,1.27734,0.52393
			c0.29004,0,0.55859-0.02686,0.80566-0.07959c0.24707-0.05322,0.51563-0.14746,0.80566-0.28223v0.56396
			C98.32031,205.96419,97.7627,206.0804,97.12109,206.0804z"/>
		<path fill="#1D1D1D" d="M102.50684,206.0804c-0.70605,0-1.25781-0.22363-1.6543-0.6709
			c-0.39551-0.44727-0.59375-1.0708-0.59375-1.87158c0-0.73926,0.14453-1.44775,0.43457-2.12598
			c0.29004-0.67773,0.68945-1.2168,1.19824-1.61719c0.50781-0.40039,1.06836-0.60059,1.68164-0.60059
			c0.46582,0,0.83691,0.125,1.11523,0.37402c0.27734,0.24902,0.41602,0.58789,0.41602,1.0166
			c0,0.73926-0.33398,1.30322-1.00195,1.69092c-0.66699,0.38818-1.65918,0.58203-2.97363,0.58203h-0.20215
			c-0.02441,0.17969-0.03711,0.37988-0.03711,0.60059c0,0.67383,0.15137,1.1875,0.45313,1.54053
			c0.30273,0.35352,0.7373,0.53027,1.30566,0.53027c0.53906,0,1.10254-0.14941,1.69043-0.44727v0.57568
			C103.7666,205.93929,103.15625,206.0804,102.50684,206.0804z M103.5,199.72102c-0.53516,0-1.0332,0.23584-1.49219,0.70752
			c-0.45996,0.47217-0.79102,1.10205-0.99512,1.89014h0.2998c2.11133,0,3.16699-0.55127,3.16699-1.65381
			c0-0.27393-0.08887-0.49951-0.2666-0.67725S103.79785,199.72102,103.5,199.72102z"/>
		<path fill="#1D1D1D" d="M106.85059,204.49983l0.0498,0.14063c-0.13965,0.37598-0.37207,0.85303-0.69922,1.43066
			c-0.32617,0.57813-0.65332,1.0791-0.97949,1.50391h-0.4541c0.32324-0.53906,0.61133-1.09229,0.86426-1.66016
			c0.25293-0.56738,0.43262-1.03906,0.53906-1.41504H106.85059z"/>
		<path fill="#1D1D1D" d="M113.86523,197.0013h2.32129c0.77637,0,1.36914,0.17139,1.78027,0.51416
			c0.41016,0.34326,0.61523,0.83545,0.61523,1.47656c0,0.625-0.18359,1.1333-0.55078,1.52539
			c-0.36816,0.39209-0.88672,0.64551-1.55664,0.75977v0.02441c0.51074,0.12695,0.89551,0.3584,1.15527,0.69531
			c0.25879,0.3374,0.38867,0.75488,0.38867,1.25293c0,0.8374-0.28711,1.49805-0.86035,1.98193
			c-0.57422,0.48389-1.37207,0.72607-2.39258,0.72607h-2.7998L113.86523,197.0013z M113.53418,201.54085l-0.82715,3.86572h2.09473
			c0.82129,0,1.45313-0.17871,1.89648-0.53613s0.66504-0.88135,0.66504-1.57129c0-0.59229-0.18359-1.0332-0.55176-1.32324
			c-0.36719-0.29004-0.92871-0.43506-1.68457-0.43506H113.53418z M113.65039,200.98958h1.70313
			c0.8418,0,1.48047-0.16553,1.91797-0.49658c0.43652-0.33057,0.65527-0.81689,0.65527-1.45801
			c0-0.48584-0.15918-0.85449-0.47754-1.10596c-0.31934-0.25098-0.78711-0.37646-1.40332-0.37646h-1.66602L113.65039,200.98958z"/>
		<path fill="#1D1D1D" d="M127.30078,200.37679c0,1.0415-0.19238,2.0249-0.57617,2.94971
			c-0.38379,0.92529-0.89844,1.61523-1.54395,2.0708s-1.39063,0.68311-2.23633,0.68311c-1.02051,0-1.80664-0.3042-2.3584-0.91309
			c-0.55176-0.6084-0.82715-1.48633-0.82715-2.63428c0-1.06982,0.19043-2.04492,0.56934-2.92529
			c0.37988-0.87988,0.90137-1.55615,1.5625-2.02783c0.66211-0.47168,1.42383-0.70752,2.28516-0.70752
			c1.00879,0,1.78223,0.30322,2.31934,0.90967S127.30078,199.25374,127.30078,200.37679z M124.08984,197.44807
			c-0.70996,0-1.34082,0.20654-1.88965,0.61914c-0.5498,0.4126-0.9873,1.021-1.31445,1.82568
			c-0.32617,0.80469-0.49023,1.65625-0.49023,2.55469c0,1.00049,0.22363,1.76221,0.6709,2.28516
			c0.44727,0.52246,1.09961,0.78418,1.95801,0.78418c0.68945,0,1.30273-0.20117,1.83789-0.60352s0.96387-1.01514,1.28613-1.83789
			c0.32324-0.82324,0.48438-1.70215,0.48438-2.6377c0-0.97998-0.21387-1.72314-0.64063-2.22998
			C125.56543,197.70149,124.93164,197.44807,124.08984,197.44807z"/>
		<path fill="#1D1D1D" d="M131.55762,205.62093c0-0.22852,0.05176-0.40967,0.15625-0.54199
			c0.10449-0.13281,0.24609-0.19922,0.42578-0.19922c0.26563,0,0.39844,0.14697,0.39844,0.44092
			c0,0.22461-0.05273,0.40527-0.15625,0.54248c-0.10449,0.13672-0.24023,0.20508-0.4082,0.20508
			C131.69629,206.06819,131.55762,205.91927,131.55762,205.62093z M132.52539,199.89876c0-0.23291,0.05176-0.41455,0.15625-0.54492
			c0.10449-0.13086,0.24414-0.19629,0.41992-0.19629c0.26953,0,0.4043,0.14697,0.4043,0.44092
			c0,0.2251-0.05176,0.40674-0.15332,0.54541c-0.10254,0.13916-0.23926,0.2085-0.41016,0.2085
			C132.66406,200.35237,132.52539,200.201,132.52539,199.89876z"/>
		<path fill="#1D1D1D" d="M140.22656,206.05598c-0.46191,0-0.8418-0.12061-1.13965-0.36182
			c-0.29785-0.24072-0.49609-0.57959-0.59473-1.0166h-0.03613l-0.33691,1.28027h-0.49023l2.00293-9.53271h0.58203
			c-0.53516,2.56494-0.86621,4.09863-0.99219,4.60107h0.03711c0.37891-0.63721,0.78613-1.10596,1.21875-1.40625
			c0.43262-0.2998,0.9043-0.4502,1.41504-0.4502c1.14746,0,1.72168,0.76563,1.72168,2.29736
			c0,0.8291-0.15527,1.60498-0.46582,2.32813c-0.31055,0.72266-0.7207,1.28027-1.23145,1.67236
			S140.84277,206.05598,140.22656,206.05598z M141.75781,199.72102c-0.37207,0-0.73926,0.12598-1.10254,0.37695
			s-0.69141,0.59717-0.9834,1.03857c-0.29199,0.44092-0.50977,0.9209-0.65234,1.43945
			c-0.14355,0.51904-0.21484,0.93945-0.21484,1.26221c0,0.52686,0.13086,0.94043,0.39258,1.24072
			c0.26074,0.2998,0.60059,0.4502,1.0166,0.4502c0.50684,0,0.96387-0.16943,1.37207-0.50879
			c0.40918-0.33887,0.74414-0.83936,1.00488-1.50098c0.26172-0.66162,0.39258-1.3252,0.39258-1.99072
			c0-0.62109-0.10059-1.07715-0.30078-1.36963C142.48242,199.86702,142.1748,199.72102,141.75781,199.72102z"/>
		<path fill="#1D1D1D" d="M148.22754,199.19417c0.94727,0,1.51758,0.44727,1.70898,1.3418h0.03711l0.36133-1.2373h0.49023
			l-1.40332,6.65918h-0.50195l0.27539-1.67871h-0.03613c-0.34375,0.58008-0.72559,1.02539-1.14551,1.33545
			c-0.4209,0.31055-0.90527,0.46582-1.45215,0.46582c-1.14844,0-1.72168-0.76367-1.72168-2.2915
			c0-0.8042,0.15332-1.57227,0.45898-2.30322c0.30664-0.73096,0.71582-1.2959,1.22852-1.69385
			C147.04004,199.39339,147.60645,199.19417,148.22754,199.19417z M146.70215,205.52913c0.36328,0,0.72559-0.12646,1.08789-0.37988
			c0.36133-0.25342,0.68555-0.59229,0.97363-1.01709s0.50781-0.89453,0.6582-1.40918
			c0.15137-0.51465,0.22754-0.94922,0.22754-1.30469c0-0.32275-0.05371-0.61182-0.16016-0.86719
			c-0.10547-0.25488-0.2627-0.45703-0.47168-0.60645c-0.20801-0.14893-0.46777-0.22363-0.77734-0.22363
			c-0.50684,0-0.96387,0.16748-1.37305,0.50244c-0.4082,0.33496-0.74316,0.83643-1.00391,1.50391
			c-0.26172,0.66797-0.39258,1.33252-0.39258,1.99414c0,0.62109,0.10254,1.07764,0.30664,1.36963
			S146.29004,205.52913,146.70215,205.52913z"/>
		<path fill="#1D1D1D" d="M154.07813,206.0804c-0.70996,0-1.27051-0.22559-1.68164-0.67676
			c-0.41016-0.45166-0.61523-1.07764-0.61523-1.87793c0-0.78809,0.15039-1.52637,0.4502-2.21484
			c0.2998-0.68799,0.70508-1.21289,1.21582-1.57422c0.51074-0.36182,1.10254-0.54248,1.77734-0.54248
			c0.54688,0,1.03906,0.08789,1.47559,0.26367l-0.1709,0.55127c-0.4375-0.19189-0.88281-0.28809-1.33594-0.28809
			c-0.52637,0-1.00195,0.15723-1.42383,0.47168c-0.42285,0.31494-0.75488,0.76807-0.99609,1.36035s-0.36133,1.24561-0.36133,1.96045
			c0,0.64551,0.15039,1.14258,0.4502,1.4917c0.30078,0.34912,0.72656,0.52393,1.27734,0.52393
			c0.29004,0,0.55859-0.02686,0.80566-0.07959c0.24707-0.05322,0.51563-0.14746,0.80566-0.28223v0.56396
			C155.27734,205.96419,154.71973,206.0804,154.07813,206.0804z"/>
		<path fill="#1D1D1D" d="M158.24512,203.03548l3.73047-3.73682h0.7666l-2.9043,2.87305l1.81934,3.78613h-0.64941l-1.61719-3.4248
			l-1.25586,1.15186l-0.49023,2.27295h-0.58789l2.02148-9.53271h0.58789l-1.0166,4.77881l-0.42871,1.83154H158.24512z"/>
		<path fill="#1D1D1D" d="M169.6084,199.16975c0.73535,0,1.30469,0.22168,1.70703,0.66455
			c0.40137,0.44336,0.60352,1.05518,0.60352,1.83496c0,0.80469-0.14648,1.55713-0.43848,2.25781
			c-0.29199,0.7002-0.69141,1.23438-1.19727,1.60205c-0.50684,0.36768-1.09082,0.55127-1.75293,0.55127
			c-0.75098,0-1.32227-0.22363-1.71191-0.6709c-0.39063-0.44727-0.58496-1.0874-0.58496-1.92041
			c0-0.78027,0.14844-1.51123,0.44727-2.19336c0.29785-0.68213,0.7002-1.20703,1.20703-1.57471
			C168.39355,199.35384,168.96777,199.16975,169.6084,199.16975z M169.55957,199.69661c-0.50586,0-0.96191,0.16064-1.36621,0.48096
			c-0.4043,0.3208-0.72656,0.78027-0.96777,1.37842c-0.24121,0.59863-0.36133,1.23242-0.36133,1.90234
			c0,1.39697,0.57617,2.09521,1.72754,2.09521c0.51855,0,0.97949-0.1582,1.38184-0.47461
			c0.40234-0.31689,0.72266-0.78223,0.96191-1.39697c0.23828-0.61475,0.3584-1.28955,0.3584-2.0249
			c0-0.62891-0.14941-1.11279-0.44727-1.45166C170.54785,199.86604,170.11914,199.69661,169.55957,199.69661z"/>
		<path fill="#1D1D1D" d="M171.6123,208.972c-0.19629,0-0.40527-0.03906-0.625-0.11621v-0.55176
			c0.21582,0.06543,0.41992,0.09814,0.6123,0.09814c0.35938,0,0.63281-0.1084,0.82129-0.32471
			c0.1875-0.21631,0.34082-0.59619,0.45898-1.13965l1.50684-7.14307h-1.25586l0.08594-0.41064l1.25586-0.08545l0.21484-0.98047
			c0.14258-0.68604,0.38086-1.18457,0.71387-1.49463c0.33203-0.31055,0.79688-0.46582,1.39355-0.46582
			c0.29785,0,0.63672,0.06348,1.0166,0.18994l-0.15332,0.49023c-0.35449-0.11035-0.65527-0.16553-0.90039-0.16553
			c-0.3916,0-0.70508,0.10938-0.94043,0.32764c-0.23438,0.21875-0.40723,0.58301-0.51758,1.09375l-0.21387,1.00488h2.92188
			l0.21484-0.98047c0.14258-0.68604,0.37988-1.18457,0.71289-1.49463c0.33301-0.31055,0.79785-0.46582,1.39453-0.46582
			c0.29785,0,0.63672,0.06348,1.0166,0.18994l-0.14746,0.49023c-0.35449-0.11035-0.65723-0.16553-0.90625-0.16553
			c-0.39648,0-0.71191,0.11133-0.94629,0.33398c-0.23535,0.22266-0.40332,0.58496-0.50586,1.0874l-0.21387,1.00488h1.51855
			l-0.10352,0.49609h-1.51953l-1.54395,7.29053c-0.13867,0.67383-0.35449,1.15674-0.64648,1.44873s-0.6875,0.43799-1.18555,0.43799
			c-0.19531,0-0.4043-0.03906-0.625-0.11621v-0.55176c0.2168,0.06543,0.4209,0.09814,0.61328,0.09814
			c0.35938,0,0.63281-0.1084,0.82031-0.32471c0.18848-0.21631,0.3418-0.59619,0.45996-1.13965l1.49512-7.14307h-2.92285
			l-1.54395,7.29053c-0.13477,0.65723-0.34668,1.13623-0.63672,1.43652S172.11816,208.972,171.6123,208.972z M180.5752,205.95784
			h-0.60059l1.41504-6.65918h0.58789L180.5752,205.95784z M181.65332,197.58919c0-0.22461,0.04492-0.4043,0.13477-0.53906
			s0.21191-0.20215,0.36719-0.20215c0.23242,0,0.34961,0.14697,0.34961,0.44092c0,0.23291-0.04492,0.4165-0.13477,0.55127
			s-0.20703,0.20264-0.34961,0.20264c-0.11816,0-0.20898-0.04004-0.27246-0.11963S181.65332,197.73225,181.65332,197.58919z"/>
		<path fill="#1D1D1D" d="M185.34082,206.0804c-0.70996,0-1.27051-0.22559-1.68164-0.67676
			c-0.41016-0.45166-0.61523-1.07764-0.61523-1.87793c0-0.78809,0.15039-1.52637,0.4502-2.21484
			c0.2998-0.68799,0.70508-1.21289,1.21582-1.57422c0.51074-0.36182,1.10254-0.54248,1.77734-0.54248
			c0.54688,0,1.03906,0.08789,1.47559,0.26367l-0.1709,0.55127c-0.4375-0.19189-0.88281-0.28809-1.33594-0.28809
			c-0.52637,0-1.00195,0.15723-1.42383,0.47168c-0.42285,0.31494-0.75488,0.76807-0.99609,1.36035s-0.36133,1.24561-0.36133,1.96045
			c0,0.64551,0.15039,1.14258,0.4502,1.4917c0.30078,0.34912,0.72656,0.52393,1.27734,0.52393
			c0.29004,0,0.55859-0.02686,0.80566-0.07959c0.24707-0.05322,0.51563-0.14746,0.80566-0.28223v0.56396
			C186.54004,205.96419,185.98242,206.0804,185.34082,206.0804z"/>
		<path fill="#1D1D1D" d="M190.72656,206.0804c-0.70605,0-1.25781-0.22363-1.6543-0.6709
			c-0.39551-0.44727-0.59375-1.0708-0.59375-1.87158c0-0.73926,0.14453-1.44775,0.43457-2.12598
			c0.29004-0.67773,0.68945-1.2168,1.19824-1.61719c0.50781-0.40039,1.06836-0.60059,1.68164-0.60059
			c0.46582,0,0.83691,0.125,1.11523,0.37402c0.27734,0.24902,0.41602,0.58789,0.41602,1.0166
			c0,0.73926-0.33398,1.30322-1.00195,1.69092c-0.66699,0.38818-1.65918,0.58203-2.97363,0.58203h-0.20215
			c-0.02441,0.17969-0.03711,0.37988-0.03711,0.60059c0,0.67383,0.15137,1.1875,0.45313,1.54053
			c0.30273,0.35352,0.7373,0.53027,1.30566,0.53027c0.53906,0,1.10254-0.14941,1.69043-0.44727v0.57568
			C191.98633,205.93929,191.37598,206.0804,190.72656,206.0804z M191.71973,199.72102c-0.53516,0-1.0332,0.23584-1.49219,0.70752
			c-0.45996,0.47217-0.79102,1.10205-0.99512,1.89014h0.2998c2.11133,0,3.16699-0.55127,3.16699-1.65381
			c0-0.27393-0.08887-0.49951-0.2666-0.67725S192.01758,199.72102,191.71973,199.72102z"/>
	</g>
</g>
<g id="Menu">
</g>
</svg>
