<?xml version="1.0" encoding="utf-8"?>
<!-- Generator: Adobe Illustrator 19.2.1, SVG Export Plug-In . SVG Version: 6.00 Build 0)  -->
<svg version="1.1" xmlns="http://www.w3.org/2000/svg" xmlns:xlink="http://www.w3.org/1999/xlink" x="0px" y="0px"
	 viewBox="0 0 71.66666 71.66666" enable-background="new 0 0 71.66666 71.66666" xml:space="preserve">
<g id="border_centrale_bkgd">
</g>
<g id="Repères" display="none">
</g>
<g id="Calque_3">
</g>
<g id="Footer">
</g>
<g id="vos_objectifs">
</g>
<g id="Nos_compétences">
	<g>
		<g>
			<g>
				<path fill="#FFFFFF" stroke="#FFFFFF" stroke-miterlimit="10" d="M26.63242,35.66615
					c-0.16695-0.20913-0.47214-0.24368-0.68126-0.07791c-0.20912,0.16695-0.24368,0.47214-0.07791,0.68127
					c0.08552,0.1072,0.18394,0.21029,0.28938,0.31222l5.1701,15.77273c0.06678,0.20444,0.25657,0.33389,0.46042,0.33389
					c0.04979,0,0.10075-0.00761,0.15113-0.0246c0.25481-0.08318,0.39306-0.35616,0.30929-0.61155l-4.77645-14.57305
					c1.15985,0.56528,2.60965,0.82419,3.79293,0.44754c0.25657-0.08142,0.48854-0.18921,0.69825-0.32218
					c0.57758,0.37842,1.2852,0.60394,2.03617,0.60394c0.88804,0,1.7263-0.2841,2.36187-0.79139
					c0.35557,0.18979,0.76679,0.3462,1.22604,0.46218c1.3555,0.34327,2.55459,0.26067,3.55217-0.22787l-4.72022,14.40024
					c-0.08377,0.2554,0.05565,0.52837,0.3087,0.61156c0.05096,0.01699,0.10134,0.0246,0.15172,0.0246
					c0.20385,0,0.39364-0.13004,0.46042-0.3339l5.17889-15.79791c0.04276-0.05155,0.09138-0.09431,0.13414-0.1482
					c0.1646-0.21088,0.12828-0.51607-0.0826-0.68068c-0.21088-0.1646-0.51549-0.12829-0.68009,0.08259
					c-0.93725,1.19616-2.30505,1.57634-4.06532,1.13056c-0.19858-0.05038-0.4862-0.13707-0.78495-0.27238
					c0.2923-0.45867,0.43699-0.97942,0.41415-1.5078c-0.04335-1.05382-0.40184-1.82647-0.98235-2.12111
					c-0.34034-0.1728-0.71582-0.15171-1.0298,0.05741c-0.5108,0.34092-0.75917,1.11415-0.68126,2.12111
					c0.04745,0.61214,0.31398,1.15575,0.7703,1.60211c-0.79139,0.49498-1.98404,0.54829-2.83576,0.09079
					c0.32335-0.45632,0.51139-1.03156,0.54829-1.70345c0.05272-0.94135-0.23783-1.70286-0.77557-2.03676
					c-0.34327-0.21381-0.75624-0.22377-1.10537-0.02519c-0.54829,0.31046-0.85231,1.05499-0.83649,2.04203
					c0.01054,0.6385,0.25716,1.23775,0.66603,1.73157c-0.07088,0.03163-0.1441,0.05916-0.22201,0.08435
					C29.52618,37.4645,27.41444,36.64909,26.63242,35.66615z M35.98616,33.90295c0.00879-0.00645,0.01406-0.01055,0.02167-0.01055
					c0.00762,0,0.01582,0.00352,0.03046,0.01055c0.14117,0.07205,0.41708,0.43523,0.45281,1.2975
					c0.01406,0.32628-0.07674,0.64904-0.25891,0.94077c-0.26946-0.25657-0.46804-0.58461-0.49967-0.99817
					C35.67511,34.3956,35.8526,33.99199,35.98616,33.90295z M31.84645,33.98906c0.01816-0.01055,0.03456-0.01699,0.05272-0.01699
					s0.03807,0.00703,0.06385,0.02285c0.13707,0.08494,0.35909,0.42586,0.31808,1.15926
					c-0.02519,0.46101-0.13824,0.84294-0.33683,1.1452c-0.27239-0.32862-0.43699-0.71875-0.44344-1.12645
					C31.48854,34.39969,31.7129,34.06463,31.84645,33.98906z"/>
			</g>
		</g>
		<g>
			<path fill="#FFFFFF" stroke="#FFFFFF" stroke-miterlimit="10" d="M40.11073,57.55658H28.41897
				c-0.47546,0-0.86448-0.38902-0.86448-0.86448v0c0-0.47546,0.38902-0.86448,0.86448-0.86448h11.69175
				c0.47546,0,0.86448,0.38902,0.86448,0.86448v0C40.9752,57.16756,40.58619,57.55658,40.11073,57.55658z"/>
		</g>
		<g>
			<path fill="#FFFFFF" stroke="#FFFFFF" stroke-miterlimit="10" d="M39.23546,61.20006h-9.94123
				c-0.47546,0-0.86448-0.38902-0.86448-0.86448l0,0c0-0.47546,0.38901-0.86448,0.86448-0.86448h9.94123
				c0.47546,0,0.86448,0.38902,0.86448,0.86448l0,0C40.09994,60.81105,39.71092,61.20006,39.23546,61.20006z"/>
		</g>
		<g>
			<path fill="#FFFFFF" stroke="#FFFFFF" stroke-miterlimit="10" d="M38.56859,64.84354H29.9611
				c-0.47546,0-0.86448-0.38902-0.86448-0.86448l0,0c0-0.47546,0.38902-0.86448,0.86448-0.86448h8.60749
				c0.47546,0,0.86448,0.38902,0.86448,0.86448l0,0C39.43307,64.45453,39.04406,64.84354,38.56859,64.84354z"/>
		</g>
		<g>
			<path fill="#FFFFFF" stroke="#FFFFFF" stroke-miterlimit="10" d="M37.66171,66.99619c0,1.33891-1.52082,2.4243-3.39685,2.4243
				c-1.87603,0-3.39686-1.0854-3.39686-2.4243"/>
		</g>
		<g>
			<path fill="#FFFFFF" stroke="#FFFFFF" stroke-miterlimit="10" d="M34.26498,8.6974c-0.32349,0-0.58578-0.26229-0.58578-0.58578
				V2.8396c0-0.3235,0.26229-0.58578,0.58578-0.58578c0.32378,0,0.58578,0.26229,0.58578,0.58578v5.27203
				C34.85076,8.43512,34.58876,8.6974,34.26498,8.6974z"/>
		</g>
		<g>
			<path fill="#FFFFFF" stroke="#FFFFFF" stroke-miterlimit="10" d="M46.56637,12.55045c-0.11155,0-0.22424-0.03175-0.32435-0.09839
				c-0.26944-0.17934-0.34209-0.54316-0.16246-0.81231l2.92433-4.38678c0.17905-0.26915,0.54173-0.34295,0.81231-0.16246
				c0.26944,0.17934,0.34209,0.54316,0.16246,0.81231l-2.92432,4.38678C46.94164,12.45893,46.75572,12.55045,46.56637,12.55045z"/>
		</g>
		<g>
			<path fill="#FFFFFF" stroke="#FFFFFF" stroke-miterlimit="10" d="M53.37321,21.47102c-0.21681,0-0.42561-0.12099-0.52686-0.32893
				c-0.14187-0.29089-0.02117-0.64156,0.26944-0.78342l4.7383-2.31137c0.29289-0.1413,0.64184-0.02002,0.78314,0.26972
				c0.14187,0.29089,0.02116,0.64156-0.26944,0.78342l-4.7383,2.31137C53.54654,21.45214,53.45901,21.47102,53.37321,21.47102z"/>
		</g>
		<g>
			<path fill="#FFFFFF" stroke="#FFFFFF" stroke-miterlimit="10" d="M59.64174,32.3011c-0.01316,0-0.02574-0.00029-0.0389-0.00114
				l-5.26058-0.34495c-0.32264-0.02117-0.56747-0.30004-0.54631-0.62296c0.02117-0.32321,0.30605-0.56719,0.62296-0.54631
				l5.26059,0.34495c0.32264,0.02117,0.56747,0.30004,0.54631,0.62296C60.20522,32.06341,59.94779,32.3011,59.64174,32.3011z"/>
		</g>
		<g>
			<path fill="#FFFFFF" stroke="#FFFFFF" stroke-miterlimit="10" d="M22.44268,12.55045c-0.18935,0-0.37498-0.09153-0.48796-0.26085
				l-2.92433-4.38678c-0.17934-0.26915-0.10669-0.63297,0.16246-0.81231c0.26886-0.18048,0.63269-0.10669,0.81231,0.16246
				l2.92433,4.38678c0.17934,0.26915,0.10669,0.63297-0.16246,0.81231C22.66721,12.51871,22.55423,12.55045,22.44268,12.55045z"/>
		</g>
		<g>
			<path fill="#FFFFFF" stroke="#FFFFFF" stroke-miterlimit="10" d="M15.63613,21.47102c-0.08638,0-0.1739-0.01888-0.25657-0.05921
				l-4.7383-2.31137c-0.2906-0.14187-0.41159-0.49253-0.26972-0.78342c0.14244-0.29089,0.49368-0.41102,0.78342-0.26972
				l4.7383,2.31137c0.2906,0.14187,0.41159,0.49253,0.26972,0.78342C16.06145,21.35003,15.85293,21.47102,15.63613,21.47102z"/>
		</g>
		<g>
			<path fill="#FFFFFF" stroke="#FFFFFF" stroke-miterlimit="10" d="M9.36702,32.3011c-0.30605,0-0.56376-0.23769-0.58406-0.54745
				c-0.02117-0.32292,0.22339-0.6018,0.54631-0.62296l5.26058-0.34495c0.32292-0.0246,0.6018,0.22338,0.62296,0.54631
				s-0.22339,0.6018-0.54631,0.62296l-5.26058,0.34495C9.39276,32.30081,9.37989,32.3011,9.36702,32.3011z"/>
		</g>
		<g>
			<path fill="#FFFFFF" stroke="#FFFFFF" stroke-miterlimit="10" d="M40.50549,54.02217c-0.07723,0-0.15503-0.01487-0.22997-0.04691
				c-0.29747-0.127-0.43591-0.47137-0.30891-0.76884l7.90804-18.52531c0.03775-0.0921,4.02667-9.99631-0.19621-16.56003
				c-2.35628-3.66199-6.84631-5.64901-13.34768-5.90672c-0.04347,0.00543-0.08752,0.00543-0.13128,0
				c-6.50365,0.25771-10.99511,2.24616-13.35053,5.91043c-4.2246,6.57258-0.23197,16.46421-0.19106,16.56317l7.90518,18.51844
				c0.127,0.29747-0.01144,0.64184-0.30891,0.76884c-0.29775,0.12757-0.64156-0.01144-0.76884-0.30891l-7.90804-18.52531
				c-0.17905-0.43476-4.26579-10.56807,0.28631-17.64978c2.58339-4.01866,7.4155-6.18902,14.36249-6.45045
				c0.01344,0,0.02631-0.00029,0.0389,0c0.01201-0.00057,0.02631-0.00057,0.03833,0
				c6.94699,0.26143,11.77968,2.43179,14.36306,6.45045c4.55182,7.08171,0.46508,17.21503,0.28889,17.64292l-7.9109,18.53217
				C40.9494,53.88888,40.73259,54.02217,40.50549,54.02217z"/>
		</g>
	</g>
</g>
<g id="Nos_missions">
</g>
<g id="Menu">
</g>
</svg>
