<?xml version="1.0" encoding="utf-8"?>
<!-- Generator: Adobe Illustrator 21.1.0, SVG Export Plug-In . SVG Version: 6.00 Build 0)  -->
<svg version="1.1" xmlns="http://www.w3.org/2000/svg" xmlns:xlink="http://www.w3.org/1999/xlink" x="0px" y="0px"
	 viewBox="0 0 88.5 96.5" enable-background="new 0 0 88.5 96.5" xml:space="preserve">
<g id="Calque_4">
</g>
<g id="Repères" display="none">
</g>
<g id="_x31_6_Col_Grid" display="none" opacity="0.1" enable-background="new    ">
</g>
<g id="Calque_3">
	<path fill="none" stroke="#FFFFFF" stroke-width="3" stroke-linecap="round" stroke-linejoin="round" stroke-miterlimit="10" d="
		M11.62501,83.58331h-0.00001c-3.75093,0-6.79166-3.04073-6.79166-6.79166V43.91665h13.58333v32.87501
		C18.41667,80.54258,15.37594,83.58331,11.62501,83.58331z"/>
	<path fill="none" stroke="#FFFFFF" stroke-width="3" stroke-linecap="round" stroke-linejoin="round" stroke-miterlimit="10" d="
		M13.08331,83.42761v0.1557h5.33337h12.66663h47.33335c3.68189,0,6.66665-2.98476,6.66665-6.66665V17.45835
		c0-0.29915-0.24252-0.54167-0.54166-0.54167h-65.5833c-0.29915,0-0.54167,0.24251-0.54167,0.54167v26.45827h0.02081"/>
	
		<rect x="26" y="26.25" fill="none" stroke="#FFFFFF" stroke-width="3" stroke-linecap="round" stroke-linejoin="round" stroke-miterlimit="10" width="29.43036" height="15"/>
	
		<line fill="none" stroke="#FFFFFF" stroke-width="3" stroke-linecap="round" stroke-linejoin="round" stroke-miterlimit="10" x1="62" y1="29.25" x2="76.75" y2="29.25"/>
	
		<line fill="none" stroke="#FFFFFF" stroke-width="3" stroke-linecap="round" stroke-linejoin="round" stroke-miterlimit="10" x1="62" y1="37.25" x2="76.75" y2="37.25"/>
	
		<line fill="none" stroke="#FFFFFF" stroke-width="3" stroke-linecap="round" stroke-linejoin="round" stroke-miterlimit="10" x1="26" y1="47.75" x2="76.75" y2="47.75"/>
	
		<line fill="none" stroke="#FFFFFF" stroke-width="3" stroke-linecap="round" stroke-linejoin="round" stroke-miterlimit="10" x1="26" y1="56.66667" x2="76.75" y2="56.66667"/>
	
		<line fill="none" stroke="#FFFFFF" stroke-width="3" stroke-linecap="round" stroke-linejoin="round" stroke-miterlimit="10" x1="26" y1="65.58334" x2="76.75" y2="65.58334"/>
	
		<line fill="none" stroke="#FFFFFF" stroke-width="3" stroke-linecap="round" stroke-linejoin="round" stroke-miterlimit="10" x1="26" y1="74.5" x2="76.75" y2="74.5"/>
</g>
</svg>
