<?xml version="1.0" encoding="utf-8"?>
<!-- Generator: Adobe Illustrator 19.2.1, SVG Export Plug-In . SVG Version: 6.00 Build 0)  -->
<svg version="1.1" xmlns="http://www.w3.org/2000/svg" xmlns:xlink="http://www.w3.org/1999/xlink" x="0px" y="0px"
	 viewBox="0 0 105 105" enable-background="new 0 0 105 105" xml:space="preserve">
<g id="border_centrale_bkgd">
</g>
<g id="Repères" display="none">
</g>
<g id="Calque_3">
</g>
<g id="footer">
</g>
<g id="what_x27_s_new">
</g>
<g id="équipe">
</g>
<g id="chiffres">
	
		<path fill="#43607C" stroke="#1C1C1C" stroke-width="2" stroke-linecap="round" stroke-linejoin="round" stroke-miterlimit="10" d="
		M77.8762,40.67055l-12.03713,62.93747l3.34145,0.07948l15.11253-64.50804C84.29305,39.17946,80.72292,38.43297,77.8762,40.67055z"
		/>
	
		<path fill="#43607C" stroke="#1C1C1C" stroke-width="2" stroke-linecap="round" stroke-linejoin="round" stroke-miterlimit="10" d="
		M68.42072,40.81729c-4.28661-2.10109-6.9444-2.31478-11.11103,0c-0.012-0.00685-0.02414-0.24848-0.03615-0.25513l-3.20826,63.07077
		h6.96548l7.42324-62.81035C68.24867,40.94485,68.62905,40.67406,68.42072,40.81729z"/>
	
		<path fill="#43607C" stroke="#1C1C1C" stroke-width="2" stroke-linecap="round" stroke-linejoin="round" stroke-miterlimit="10" d="
		M34.21816,40.54204l7.79113,63.09089h6.9644l-3.26255-62.79575c-0.06524,0.03228-0.28668-0.30888-0.35172-0.27199
		C41.2848,38.30155,38.34119,38.56926,34.21816,40.54204z"/>
	
		<path fill="#43607C" stroke="#1C1C1C" stroke-width="2" stroke-linecap="round" stroke-linejoin="round" stroke-miterlimit="10" d="
		M24.99947,41.21905c-0.04951,0.03529,0.01533-0.4662-0.03343-0.4301c-2.87033-2.39122-6.57405-1.60951-6.57405-1.60951
		l11.77014,50.24093l3.39183,14.26713l3.66073-0.07948L24.99947,41.21905z"/>
	<path fill="none" stroke="#1C1C1C" stroke-width="2" stroke-miterlimit="10" d="M77.6727,40.80067
		c-2.36109-1.75929-5.60183-2.59262-9.30548-0.04632c-4.28661-2.10109-6.9444-2.31477-11.11103,0
		c-0.232-0.13163-0.46569-0.22569-0.69851-0.34091c-0.25546-0.13062-0.50923-0.26469-0.77066-0.37604
		c-0.10308-0.043-0.20609-0.07412-0.30924-0.11407c-0.40317-0.15876-0.81041-0.30002-1.22537-0.41185
		c-0.10078-0.02719-0.20101-0.04388-0.30172-0.06815c-0.38513-0.0925-0.77216-0.17219-1.16508-0.22305
		c-0.18399-0.02455-0.36628-0.03262-0.54958-0.04781c-0.29317-0.02306-0.58566-0.04598-0.88189-0.04523
		c-0.29622-0.00074-0.58871,0.02217-0.88188,0.04523c-0.18331,0.01526-0.3656,0.02326-0.54965,0.04781
		c-0.39299,0.05093-0.77996,0.13055-1.16508,0.22305c-0.10071,0.02428-0.20094,0.04096-0.30172,0.06815
		c-0.41497,0.11183-0.8222,0.25309-1.22537,0.41185c-0.10315,0.03994-0.20616,0.07107-0.30924,0.11407
		c-0.26143,0.11135-0.5152,0.24543-0.77066,0.37604c-0.23281,0.11522-0.46651,0.20928-0.69851,0.34091
		c-4.16664-2.31477-6.82436-2.10109-11.11103,0c-3.70365-2.5463-6.94439-1.71297-9.30549,0.04632
		c-2.87033-2.40741-6.57405-1.86644-6.57405-1.86644l15.11254,64.6987h0.04944h35.46137h0.04944l15.11253-64.6987
		C84.24675,38.93423,80.54303,38.39326,77.6727,40.80067z"/>
	
		<ellipse fill="#43607C" stroke="#1C1C1C" stroke-width="2" stroke-linecap="round" stroke-linejoin="round" stroke-miterlimit="10" cx="51.52706" cy="73.36887" rx="23.64566" ry="11.14575"/>
	<g>
		
			<path fill="#43607C" stroke="#1C1C1C" stroke-width="2" stroke-linecap="round" stroke-linejoin="round" stroke-miterlimit="10" d="
			M50.27365,14.14097c0,0,3.54227-0.99342,4.67691,0.53622c1.13546,1.52722-0.31783,5.30736-0.60355,3.91803
			c1.13464,2.22067,0.75259,4.01963-0.09963,4.2962c-0.84975,0.27738-1.71267,0.28948-1.71267,0.28948
			s0.014,1.79331-1.40472,1.51512c-1.41872-0.27658-2.20259-0.84827-1.91687-1.95942
			c0.28654-1.11034-1.91441,1.54415-3.47475-1.2329c-1.55952-2.77866,0.9922-3.61242,0.9922-3.61242
			s-1.03007-0.23223-1.36931-1.14259c-0.30219-0.8136-0.22644-2.36904,1.51011-2.4408
			c2.70487-0.11611,2.71969,0.96197,2.71969,0.96197L50.27365,14.14097z"/>
	</g>
	<g>
		
			<path fill="#43607C" stroke="#1C1C1C" stroke-width="2" stroke-linecap="round" stroke-linejoin="round" stroke-miterlimit="10" d="
			M56.6669,28.18294c0,0,2.04949-3.61322,4.23105-3.27474c2.18344,0.33848,4.13551,4.55253,2.75201,3.6545
			c2.75576,0.89803,3.936,2.6574,3.47327,3.55635c-0.46178,0.89987-1.14932,1.59426-1.14932,1.59426s1.4931,1.44199,0.11521,2.34185
			c-1.37881,0.90078-2.48318,1.05764-3.17259-0.06604c-0.68847-1.12552-0.27258,2.76748-3.83577,1.75662
			c-3.55757-1.01269-2.1825-3.71412-2.1825-3.71412s-1.02662,0.62926-2.05511,0.16145
			c-0.91703-0.42104-2.14222-1.74011-0.79619-3.17476c2.09632-2.24095,2.99555-1.37961,2.99555-1.37961L56.6669,28.18294z"/>
	</g>
	<g>
		
			<path fill="#43607C" stroke="#1C1C1C" stroke-width="2" stroke-linecap="round" stroke-linejoin="round" stroke-miterlimit="10" d="
			M54.73013,5.08825c0,0,1.53523-2.70658,3.16939-2.45303c1.63557,0.25355,3.09782,3.4102,2.06147,2.7375
			c2.06428,0.67269,2.94837,1.9906,2.60175,2.66398c-0.34592,0.67407-0.86094,1.19422-0.86094,1.19422
			s1.11845,1.08016,0.08631,1.75423c-1.03284,0.67476-1.8601,0.79225-2.37652-0.04947
			c-0.51572-0.8431-0.20418,2.07305-2.87329,1.31584c-2.6649-0.75858-1.63486-2.78217-1.63486-2.78217
			S54.13442,9.94073,53.364,9.59029c-0.68692-0.31539-1.60469-1.30347-0.59641-2.37814
			c1.57031-1.67865,2.2439-1.03343,2.2439-1.03343L54.73013,5.08825z"/>
	</g>
	<g>
		
			<path fill="#43607C" stroke="#1C1C1C" stroke-width="2" stroke-linecap="round" stroke-linejoin="round" stroke-miterlimit="10" d="
			M63.57774,15.15866c0,0,2.04949-3.61322,4.23105-3.27474c2.18344,0.33848,4.13551,4.55253,2.75201,3.6545
			c2.75576,0.89803,3.936,2.6574,3.47327,3.55635c-0.46178,0.89987-1.14932,1.59426-1.14932,1.59426s1.4931,1.44199,0.11522,2.34185
			c-1.37882,0.90078-2.48318,1.05764-3.17259-0.06604c-0.68847-1.12552-0.27258,2.76747-3.83577,1.75662
			c-3.55757-1.01269-2.1825-3.71412-2.1825-3.71412s-1.02662,0.62926-2.05511,0.16144
			c-0.91703-0.42104-2.14222-1.7401-0.79619-3.17475c2.09632-2.24095,2.99555-1.37961,2.99555-1.37961L63.57774,15.15866z"/>
	</g>
	<g>
		
			<path fill="#43607C" stroke="#1C1C1C" stroke-width="2" stroke-linecap="round" stroke-linejoin="round" stroke-miterlimit="10" d="
			M28.88941,12.66241c0,0,2.14784-3.78842,4.43432-3.43435c2.29022,0.35591,4.33784,4.7736,2.88502,3.83245
			c2.89345,0.9439,4.12896,2.78857,3.64562,3.72972c-0.48521,0.9439-1.20741,1.67131-1.20741,1.67131s1.56616,1.5117,0.12084,2.4556
			c-1.44532,0.9439-2.60589,1.10993-3.32621-0.07063c-0.72219-1.18056-0.28757,2.90415-4.02123,1.84009
			c-3.72992-1.05947-2.28741-3.89116-2.28741-3.89116s-1.07907,0.65953-2.15628,0.16878
			c-0.96199-0.44122-2.24432-1.82358-0.83553-3.32886c2.2003-2.34919,3.14261-1.44566,3.14261-1.44566L28.88941,12.66241z"/>
	</g>
	<g>
		
			<path fill="#43607C" stroke="#1C1C1C" stroke-width="2" stroke-linecap="round" stroke-linejoin="round" stroke-miterlimit="10" d="
			M46.38876,35.01925c-0.07212,0.98518-0.88611,2.56475-2.72672,1.85385c-2.86629-1.11176-2.37077-2.23545-2.37077-2.23545
			l-1.24675,0.86042c0,0-4.15237-0.57698-4.6076-2.67942c-0.4543-2.10519,2.84756-5.37809,2.48787-3.80218
			c-0.12833-2.8271,1.12122-4.52318,2.13754-4.42228c1.01725,0.09907,1.91835,0.47699,1.91835,0.47699
			s0.83741-1.86761,2.17875-0.93472c1.34322,0.93197,1.88557,1.88045,1.06315,2.90598
			c-0.82242,1.02554,2.83257-0.74209,3.0274,2.86287c0.09367,1.75111-0.06182,3.27933-0.53111,3.89116
			C47.25239,34.40741,46.38876,35.01925,46.38876,35.01925"/>
	</g>
	<g>
		
			<path fill="#43607C" stroke="#1C1C1C" stroke-width="2" stroke-linecap="round" stroke-linejoin="round" stroke-miterlimit="10" d="
			M80.9462,35.28505c-0.07213,0.98518-0.88612,2.56476-2.72672,1.85385c-2.86629-1.11176-2.37077-2.23544-2.37077-2.23544
			l-1.24674,0.86042c0,0-4.15237-0.57698-4.6076-2.67941c-0.4543-2.10519,2.84756-5.3781,2.48786-3.80219
			c-0.12833-2.8271,1.12122-4.52318,2.13754-4.42227c1.01725,0.09907,1.91835,0.47699,1.91835,0.47699
			s0.83741-1.86761,2.17876-0.93472c1.34322,0.93197,1.88557,1.88045,1.06315,2.90599
			c-0.82243,1.02553,2.83257-0.74209,3.0274,2.86287c0.09367,1.75112-0.06182,3.27933-0.53111,3.89116
			C81.80983,34.67322,80.9462,35.28505,80.9462,35.28505"/>
	</g>
	<g>
		
			<path fill="#43607C" stroke="#1C1C1C" stroke-width="2" stroke-linecap="round" stroke-linejoin="round" stroke-miterlimit="10" d="
			M22.79576,26.16766c0,0,1.50901-3.23621,3.71025-2.89498c2.20123,0.34123,4.17298,4.59381,2.77637,3.6866
			c2.78293,0.90996,3.97253,2.684,3.50418,3.59029c-0.46648,0.9072-1.15869,1.60802-1.15869,1.60802s1.50433,1.453,0.11615,2.36386
			c-1.38818,0.9072-2.50847,1.0659-3.20069-0.06879c-0.69596-1.13469-0.2782,2.79499-3.86856,1.77129
			c-3.59223-1.02095-2.20405-3.74531-2.20405-3.74531s-1.03692,0.63385-2.07291,0.16328
			c-0.92733-0.42471-2.16283-1.7557-0.80368-3.20502c2.11506-2.26021,3.02365-1.39153,3.02365-1.39153L22.79576,26.16766z"/>
	</g>
</g>
<g id="petite_histoire">
</g>
<g id="menu">
</g>
</svg>
