<?xml version="1.0" encoding="utf-8"?>
<!-- Generator: Adobe Illustrator 19.2.1, SVG Export Plug-In . SVG Version: 6.00 Build 0)  -->
<svg version="1.1" xmlns="http://www.w3.org/2000/svg" xmlns:xlink="http://www.w3.org/1999/xlink" x="0px" y="0px"
	 viewBox="0 0 88.5 96.5" enable-background="new 0 0 88.5 96.5" xml:space="preserve">
<g id="Calque_4">
	
		<line opacity="0.15" fill="none" stroke="#000000" stroke-width="0.5" stroke-miterlimit="10" x1="687.02826" y1="-2745.18555" x2="685" y2="2410.16675"/>
</g>
<g id="Repères" display="none">
</g>
<g id="_x31_6_Col_Grid" display="none" opacity="0.1" enable-background="new    ">
	<g display="inline">
		<g>
			<rect x="1116" y="-2749.83325" fill="#FF0000" width="40" height="1020"/>
		</g>
		<g>
			<rect x="1056" y="-2749.83325" fill="#FF0000" width="40" height="1020"/>
		</g>
		<g>
			<rect x="996" y="-2749.83325" fill="#FF0000" width="40" height="1020"/>
		</g>
		<g>
			<rect x="936" y="-2749.83325" fill="#FF0000" width="40" height="1020"/>
		</g>
		<g>
			<rect x="876" y="-2749.83325" fill="#FF0000" width="40" height="1020"/>
		</g>
		<g>
			<rect x="816" y="-2749.83325" fill="#FF0000" width="40" height="1020"/>
		</g>
		<g>
			<rect x="756" y="-2749.83325" fill="#FF0000" width="40" height="1020"/>
		</g>
		<g>
			<rect x="696" y="-2749.83325" fill="#FF0000" width="40" height="1020"/>
		</g>
		<g>
			<rect x="636" y="-2749.83325" fill="#FF0000" width="40" height="1020"/>
		</g>
		<g>
			<rect x="576" y="-2749.83325" fill="#FF0000" width="40" height="1020"/>
		</g>
		<g>
			<rect x="516" y="-2749.83325" fill="#FF0000" width="40" height="1020"/>
		</g>
		<g>
			<rect x="456" y="-2749.83325" fill="#FF0000" width="40" height="1020"/>
		</g>
		<g>
			<rect x="396" y="-2749.83325" fill="#FF0000" width="40" height="1020"/>
		</g>
		<g>
			<rect x="336" y="-2749.83325" fill="#FF0000" width="40" height="1020"/>
		</g>
		<g>
			<rect x="276" y="-2749.83325" fill="#FF0000" width="40" height="1020"/>
		</g>
		<g>
			<rect x="216" y="-2749.83325" fill="#FF0000" width="40" height="1020"/>
		</g>
	</g>
</g>
<g id="Calque_3">
	<polygon opacity="0.39" fill="#EAEAEA" points="661.20123,-356.85443 632.95215,-356.85443 632.95215,-468.76981 
		661.20123,-468.76981 661.20123,-473.4906 632.95215,-473.4906 628.23138,-473.4906 628.23138,-468.76981 628.23138,-356.85443 
		628.23138,-352.13367 632.95215,-352.13367 661.20123,-352.13367 	"/>
	<polygon opacity="0.39" fill="#EAEAEA" points="744.86658,-473.48999 716.6333,-473.48999 716.6333,-468.7692 744.86658,-468.7692 
		744.86658,-356.85382 716.6333,-356.85382 716.6333,-352.13617 744.86658,-352.13617 749.58734,-352.13617 749.58734,-356.85382 
		749.58734,-468.7692 749.58734,-473.48999 	"/>
	<path opacity="0.39" fill="#EAEAEA" d="M688.61487-445.72147l-27.59985,65.72858l27.59985-13.9512l27.59991,13.9512
		L688.61487-445.72147z M688.61487-433.53189l18.28125,43.54279l-16.15088-8.16525l-2.13037-1.07779l-2.13031,1.07779
		l-16.15405,8.16525L688.61487-433.53189z"/>
	<rect x="170.33099" y="-2763.43994" fill="#1A2530" width="1027.28394" height="631.24402"/>
	<polygon fill="#FFFFFF" points="221.67114,-2722.72949 216.55583,-2722.72949 216.55583,-2742.99487 221.67114,-2742.99487 
		221.67114,-2743.84961 216.55583,-2743.84961 215.70099,-2743.84961 215.70099,-2742.99487 215.70099,-2722.72949 
		215.70099,-2721.87451 216.55583,-2721.87451 221.67114,-2721.87451 	"/>
	<polygon fill="#FFFFFF" points="236.82114,-2743.84961 231.70869,-2743.84961 231.70869,-2742.99463 236.82114,-2742.99463 
		236.82114,-2722.72925 231.70869,-2722.72925 231.70869,-2721.875 236.82114,-2721.875 237.67596,-2721.875 237.67596,-2722.72925 
		237.67596,-2742.99463 237.67596,-2743.84961 	"/>
	<path fill="#FFFFFF" d="M226.63516-2738.82129l-4.99776,11.9021l4.99776-2.52637l4.99774,2.52637L226.63516-2738.82129z
		 M226.63516-2736.61401l3.31033,7.88477l-2.92458-1.47876l-0.38576-0.19507l-0.38576,0.19507l-2.92516,1.47876
		L226.63516-2736.61401z"/>
	<path fill="#FFFFFF" d="M244.84578-2729.75708h0.01141l3.58768-6.19727h1.2229l-3.56427,6.19727l4.04192,6.17383h-1.1881
		L244.84578-2729.75708z M244.13475-2723.58325h-1.04828v-18.5564h1.04828V-2723.58325z"/>
	<path fill="#FFFFFF" d="M254.96877-2724.42188c1.4232,0,2.53938-2.03857,2.53938-5.34717c0-3.30811-1.11847-5.3584-2.53938-5.3584
		c-1.47057,0-2.5394,2.05029-2.5394,5.3584C252.42937-2726.46045,253.61346-2724.42188,254.96877-2724.42188 M254.96877-2723.37378
		c-1.71367,0-3.65787-2.27173-3.65787-6.39526s1.84033-6.40649,3.65787-6.40649c1.81694,0,3.6573,2.28296,3.6573,6.40649
		S256.71609-2723.37378,254.96877-2723.37378"/>
	<polygon fill="#FFFFFF" points="259.79196,-2723.58325 265.12695,-2734.97583 260.57202,-2734.97583 260.57202,-2735.95386 
		266.72305,-2735.95386 261.37607,-2724.56201 266.54785,-2724.56201 266.54785,-2723.58325 	"/>
	<path fill="#FFFFFF" d="M271.79013-2735.1272c-1.5607,0-2.51599,1.53784-2.71399,4.03052l-0.04623,0.64087h4.70615l0.05765-0.82739
		C273.88727-2733.71777,273.15344-2735.1272,271.79013-2735.1272 M274.71414-2729.46582l-5.70764-0.01196l0.05823,0.57129
		c0.26764,2.8418,1.75873,4.48413,3.24985,4.48413c0.60602,0,1.18808-0.18604,1.64233-0.40747l0.34979,0.92041
		c-0.62943,0.30298-1.46771,0.53589-2.23694,0.53589c-2.25977,0-4.18173-2.81909-4.18173-6.76782
		c0-4.05396,2.02695-6.03418,3.94891-6.03418C274.2251-2736.17554,275.27338-2733.2749,274.71414-2729.46582"/>
	<path fill="#FFFFFF" d="M281.66916-2725.35352v-5.23071h-0.51242c-2.11996,0-3.80911,0.78003-3.80911,3.34351
		c0,1.74683,1.0249,2.78369,2.41101,2.78369C280.56039-2724.45703,281.1904-2724.87476,281.66916-2725.35352 M276.22916-2727.50903
		c0-2.14331,1.63092-3.96021,4.939-4.12354l0.50101-0.02319c-0.02338-2.57422-0.93185-3.47144-2.45776-3.47144
		c-0.57123,0-1.28171,0.29175-1.80554,0.53589l-0.36124-1.05957c0.80405-0.31519,1.77072-0.52466,2.42297-0.52466
		c1.93338,0,3.24985,1.28174,3.24985,3.69287v8.75928l-1.11847-0.52368l-0.2562,0.20947
		c-0.48907,0.396-1.11792,0.62866-1.82837,0.62866C277.73169-2723.40894,276.22916-2725.05127,276.22916-2727.50903"/>
	<path fill="#FFFFFF" d="M270.06906-2720.09229c0,0.19238,0.0582,0.34131,0.17517,0.44751
		c0.11642,0.1062,0.2728,0.15918,0.46796,0.15918c0.20715,0,0.36691-0.05249,0.47705-0.15796
		c0.11072-0.10498,0.16608-0.25757,0.16608-0.45776c0-0.21167-0.05652-0.37085-0.17062-0.47705
		c-0.11359-0.1062-0.27222-0.15918-0.47708-0.15918c-0.19858,0-0.35437,0.05713-0.46793,0.17065
		S270.06906-2720.29468,270.06906-2720.09229 M269.87903-2717.95898c0,0.3418,0.25452,0.51245,0.76239,0.51245
		c0.65283,0,0.9798-0.2085,0.9798-0.62451c0-0.14941-0.05133-0.25781-0.15405-0.3252
		c-0.10217-0.06665-0.26764-0.10034-0.49649-0.10034h-0.40744C270.1073-2718.49658,269.87903-2718.31738,269.87903-2717.95898
		 M271.89343-2720.86768v0.15747l-0.51474,0.03247c0.13696,0.17065,0.20544,0.3584,0.20544,0.56274
		c0,0.23975-0.0799,0.43359-0.23911,0.58252s-0.3732,0.22314-0.642,0.22314c-0.1124,0-0.19229-0.00439-0.23795-0.01367
		c-0.09015,0.04736-0.15863,0.10278-0.20544,0.16724c-0.04791,0.06396-0.07132,0.13184-0.07132,0.20386
		c0,0.07861,0.03024,0.13672,0.09018,0.17334c0.05991,0.03662,0.16147,0.05542,0.30356,0.05542h0.43427
		c0.27051,0,0.47708,0.0542,0.6203,0.16309c0.14325,0.10962,0.21515,0.27051,0.21515,0.48462
		c0,0.26196-0.10614,0.46436-0.319,0.60718c-0.21286,0.14307-0.51645,0.21387-0.91019,0.21387
		c-0.31271,0-0.55466-0.05981-0.72644-0.18018c-0.17175-0.12109-0.25735-0.28882-0.25735-0.50391
		c0-0.17065,0.05307-0.31274,0.15921-0.42529c0.10614-0.11353,0.24994-0.19043,0.43085-0.23169
		c-0.07419-0.03198-0.13412-0.0769-0.1792-0.13623c-0.04449-0.05835-0.06732-0.12549-0.06732-0.20215
		c0-0.1665,0.10556-0.31274,0.31784-0.43994c-0.14493-0.05933-0.25793-0.15283-0.33896-0.28003
		c-0.08047-0.12744-0.12097-0.27344-0.12097-0.43848c0-0.24878,0.07874-0.44775,0.23737-0.59839
		c0.1575-0.15015,0.37036-0.22485,0.63913-0.22485c0.16321,0,0.28992,0.01538,0.38007,0.04785H271.89343z"/>
	<path fill="#FFFFFF" d="M273.6171-2720.91577c0.10556,0,0.21796,0.01025,0.33896,0.03198l-0.0434,0.21729
		c-0.10385-0.02563-0.21112-0.03882-0.32242-0.03882c-0.21225,0-0.38632,0.0896-0.52271,0.27002
		c-0.1358,0.18018-0.20258,0.40747-0.20258,0.68188v1.37354h-0.22711v-2.48804h0.19174l0.02338,0.44849h0.01541
		c0.10272-0.18311,0.21173-0.31152,0.32813-0.38574C273.31235-2720.87866,273.45273-2720.91577,273.6171-2720.91577"/>
	<path fill="#FFFFFF" d="M274.79022-2719.62744c0,0.3418,0.07532,0.6084,0.2254,0.80005
		c0.14951,0.19116,0.36295,0.28711,0.63684,0.28711c0.27505,0,0.48734-0.09595,0.638-0.28711
		c0.15005-0.19165,0.2254-0.45825,0.2254-0.80005c0-0.34302-0.0759-0.60938-0.22827-0.79883
		c-0.15179-0.18945-0.36465-0.28369-0.63968-0.28369c-0.27393,0-0.48563,0.09424-0.63516,0.28247
		C274.86441-2720.23901,274.79022-2719.97217,274.79022-2719.62744 M276.75381-2719.62744
		c0,0.40576-0.09872,0.72241-0.29559,0.95068s-0.46793,0.34253-0.81488,0.34253c-0.21799,0-0.41031-0.05249-0.57635-0.1582
		c-0.16663-0.10498-0.29388-0.2561-0.38232-0.45313c-0.08847-0.19678-0.13242-0.42383-0.13242-0.68188
		c0-0.40576,0.09818-0.72192,0.29504-0.94824c0.19687-0.22729,0.46735-0.34033,0.80975-0.34033
		c0.3418,0,0.61002,0.11475,0.8046,0.34424C276.65625-2720.3418,276.75381-2720.02734,276.75381-2719.62744"/>
	<path fill="#FFFFFF" d="M277.87357-2720.86768v1.61084c0,0.25,0.05249,0.43213,0.15747,0.54614
		c0.10559,0.11353,0.26935,0.17017,0.4902,0.17017c0.29617,0,0.51358-0.07471,0.65341-0.22363
		c0.1398-0.15015,0.20941-0.39331,0.20941-0.73047v-1.37305h0.22427v2.48755h-0.19232l-0.04108-0.34302h-0.0137
		c-0.1615,0.25952-0.44968,0.38916-0.8634,0.38916c-0.56549,0-0.84854-0.30298-0.84854-0.90918v-1.62451H277.87357z"/>
	<path fill="#FFFFFF" d="M281.73508-2718.53564c0.2551,0,0.45251-0.09473,0.59235-0.28418
		c0.13867-0.18896,0.20886-0.45361,0.20886-0.7937c0-0.7312-0.26364-1.09644-0.79208-1.09644
		c-0.28931,0-0.50217,0.07935-0.63797,0.23926c-0.13638,0.15967-0.20428,0.4187-0.20428,0.77881v0.07373
		c0,0.38916,0.06561,0.6665,0.19629,0.83301C281.22833-2718.6189,281.44064-2718.53564,281.73508-2718.53564 M281.73965-2718.33423
		c-0.38235,0-0.66196-0.14331-0.83771-0.43018h-0.01541l0.00626,0.19214c0.00629,0.11255,0.00916,0.23633,0.00916,0.37036v0.948
		h-0.22656v-3.61401h0.19229l0.04398,0.35449h0.01367c0.17062-0.26831,0.44397-0.40234,0.81888-0.40234
		c0.33554,0,0.59177,0.11011,0.7681,0.33081c0.17633,0.22046,0.2648,0.54102,0.2648,0.96216
		c0,0.40869-0.09302,0.72583-0.2785,0.95068C282.31314-2718.44678,282.06036-2718.33423,281.73965-2718.33423"/>
	<rect x="254.7789" y="-2720.46533" fill="#007BB8" width="1.74219" height="1.74219"/>
	<rect x="257.27148" y="-2720.46533" fill="#F49A2F" width="1.74219" height="1.74219"/>
	<rect x="259.76981" y="-2720.46533" fill="#E53C4C" width="1.74219" height="1.74219"/>
	<rect x="262.26752" y="-2720.46533" fill="#6E5F84" width="1.74219" height="1.74219"/>
	<rect x="264.76642" y="-2720.46533" fill="#56BCB5" width="1.74219" height="1.74219"/>
	<g>
		<rect x="380.66666" y="1059.25635" fill="none" width="610" height="43.66667"/>
		<text transform="matrix(1 0 0 1 576.90894 1087.53577)" fill="#1A2530" font-family="'Hind-Bold'" font-size="40px">Suivez-nous</text>
	</g>
	
		<image overflow="visible" width="640" height="640" xlink:href="../../../../Images/Capture d&apos;écran de 2016-04-04 14-44-05.png"  transform="matrix(0.36719 0 0 0.36719 685.99896 1173.82056)">
	</image>
	
		<image overflow="visible" width="606" height="606" xlink:href="../../../../Images/Capture d&apos;écran de 2016-04-04 14-44-07.png"  transform="matrix(0.38779 0 0 0.38779 450.99927 1173.81873)">
	</image>
	
		<image overflow="visible" width="640" height="640" xlink:href="../../../../Images/Capture d&apos;écran de 2016-04-04 14-44-12.png"  transform="matrix(0.36719 0 0 0.36719 216 1173.82056)">
	</image>
	<rect x="920.9986" y="1173.82947" fill="#D3D3D3" width="235" height="234.99106"/>
	<g>
		<rect x="990.04022" y="1315.20239" fill="none" width="96.16666" height="18.24362"/>
		<text transform="matrix(1 0 0 1 1005.2135 1330.40247)" fill="#FFFFFF" font-family="'OpenSansLight-Italic'" font-size="20px">@kozea</text>
	</g>
	<g>
		<path fill="#FFFFFF" d="M443.8978,1194.50671H432.1022c-0.97684,0-1.76886-0.79236-1.76886-1.76978v-11.79468
			c0-0.97693,0.79202-1.76892,1.76886-1.76892h11.79559c0.97696,0,1.76886,0.79199,1.76886,1.76892v11.79468
			C445.66666,1193.71436,444.87476,1194.50671,443.8978,1194.50671L443.8978,1194.50671z M437.99994,1183.89111
			c-1.62866,0-2.94873,1.31995-2.94873,2.94873c0,1.6283,1.32007,2.94897,2.94873,2.94897s2.94901-1.32068,2.94901-2.94897
			C440.94894,1185.21106,439.6286,1183.89111,437.99994,1183.89111L437.99994,1183.89111z M443.8978,1181.53198
			c0-0.32556-0.26413-0.58972-0.59033-0.58972h-1.76886c-0.32578,0-0.58966,0.26416-0.58966,0.58972v1.76953
			c0,0.32544,0.26389,0.5896,0.58966,0.5896h1.76886c0.3262,0,0.59033-0.26416,0.59033-0.5896V1181.53198z M443.8978,1185.65991
			h-1.33484c0.09726,0.37756,0.15469,0.77197,0.15469,1.17993c0,2.60596-2.11212,4.71802-4.71771,4.71802
			c-2.60547,0-4.71774-2.11206-4.71774-4.71802c0-0.40796,0.05771-0.80237,0.15497-1.17993h-1.33496v6.48767
			c0,0.32532,0.26413,0.58936,0.59033,0.58936h10.61493c0.3262,0,0.59033-0.26404,0.59033-0.58936V1185.65991z"/>
	</g>
	<g>
		<path fill="#FFFFFF" d="M677.56445,1194.50671h-11.79559c-0.97681,0-1.76886-0.79236-1.76886-1.76978v-11.79468
			c0-0.97693,0.79205-1.76892,1.76886-1.76892h11.79559c0.97699,0,1.76886,0.79199,1.76886,1.76892v11.79468
			C679.33331,1193.71436,678.54144,1194.50671,677.56445,1194.50671L677.56445,1194.50671z M671.66663,1183.89111
			c-1.62866,0-2.94873,1.31995-2.94873,2.94873c0,1.6283,1.32007,2.94897,2.94873,2.94897c1.6286,0,2.94897-1.32068,2.94897-2.94897
			C674.6156,1185.21106,673.29523,1183.89111,671.66663,1183.89111L671.66663,1183.89111z M677.56445,1181.53198
			c0-0.32556-0.26416-0.58972-0.59033-0.58972h-1.76886c-0.32581,0-0.58966,0.26416-0.58966,0.58972v1.76953
			c0,0.32544,0.26385,0.5896,0.58966,0.5896h1.76886c0.32617,0,0.59033-0.26416,0.59033-0.5896V1181.53198z M677.56445,1185.65991
			h-1.33484c0.09729,0.37756,0.15472,0.77197,0.15472,1.17993c0,2.60596-2.11212,4.71802-4.71771,4.71802
			c-2.60553,0-4.71777-2.11206-4.71777-4.71802c0-0.40796,0.05774-0.80237,0.15497-1.17993h-1.33496v6.48767
			c0,0.32532,0.26416,0.58936,0.59033,0.58936h10.61493c0.32617,0,0.59033-0.26404,0.59033-0.58936V1185.65991z"/>
	</g>
	<g>
		<path fill="#FFFFFF" d="M914.23114,1194.50671h-11.79559c-0.97681,0-1.76886-0.79236-1.76886-1.76978v-11.79468
			c0-0.97693,0.79205-1.76892,1.76886-1.76892h11.79559c0.97693,0,1.76886,0.79199,1.76886,1.76892v11.79468
			C916,1193.71436,915.20807,1194.50671,914.23114,1194.50671L914.23114,1194.50671z M908.33325,1183.89111
			c-1.62866,0-2.94873,1.31995-2.94873,2.94873c0,1.6283,1.32007,2.94897,2.94873,2.94897s2.94904-1.32068,2.94904-2.94897
			C911.28229,1185.21106,909.96191,1183.89111,908.33325,1183.89111L908.33325,1183.89111z M914.23114,1181.53198
			c0-0.32556-0.26416-0.58972-0.59033-0.58972h-1.76886c-0.32581,0-0.58966,0.26416-0.58966,0.58972v1.76953
			c0,0.32544,0.26385,0.5896,0.58966,0.5896h1.76886c0.32617,0,0.59033-0.26416,0.59033-0.5896V1181.53198z M914.23114,1185.65991
			h-1.33484c0.09723,0.37756,0.15472,0.77197,0.15472,1.17993c0,2.60596-2.11212,4.71802-4.71777,4.71802
			c-2.60547,0-4.71771-2.11206-4.71771-4.71802c0-0.40796,0.05768-0.80237,0.15497-1.17993h-1.33496v6.48767
			c0,0.32532,0.26416,0.58936,0.59033,0.58936h10.61493c0.32617,0,0.59033-0.26404,0.59033-0.58936V1185.65991z"/>
	</g>
	<g>
		<polygon fill="#FFFFFF" points="1029.21509,1302.44092 1018.21899,1302.44092 1018.21899,1258.87878 1029.21509,1258.87878 
			1029.21509,1257.04175 1018.21899,1257.04175 1016.3819,1257.04175 1016.3819,1258.87878 1016.3819,1302.44092 
			1016.3819,1304.27795 1018.21899,1304.27795 1029.21509,1304.27795 		"/>
		<polygon fill="#FFFFFF" points="1061.78101,1257.04175 1050.79126,1257.04175 1050.79126,1258.87878 1061.78101,1258.87878 
			1061.78101,1302.44092 1050.79126,1302.44092 1050.79126,1304.27795 1061.78101,1304.27795 1063.61804,1304.27795 
			1063.61804,1302.44092 1063.61804,1258.87878 1063.61804,1257.04175 		"/>
	</g>
	<path fill="#FFFFFF" d="M1039.88574,1272.59509l7.11621,16.94836l-6.28748-3.17834l-0.82874-0.41895l-0.82886,0.41895
		l-6.28735,3.17834L1039.88574,1272.59509 M1039.88574,1267.84973l-10.74268,25.58533l10.74268-5.43042l10.74255,5.43042
		L1039.88574,1267.84973L1039.88574,1267.84973z"/>
	<rect x="176.09644" y="1567.43604" fill="#007BB8" width="225.13538" height="3.36701"/>
	<rect x="401.23181" y="1567.43604" fill="#F49A2F" width="190.55972" height="3.36701"/>
	<rect x="589.87646" y="1567.43604" fill="#E53C4C" width="190.55968" height="3.36701"/>
	<rect x="780.4422" y="1567.43604" fill="#6E5F84" width="190.55971" height="3.36701"/>
	<rect x="970.99585" y="1567.43604" fill="#56BCB5" width="225.13541" height="3.36701"/>
	<rect x="232" y="1489.5" fill="none" width="175" height="22"/>
	<text transform="matrix(1 0 0 1 232 1496.33972)" opacity="0.27" fill="#1A2530" font-family="'OpenSans-Light'" font-size="9px">Adresse</text>
	<rect x="467" y="1489.5" fill="none" width="175" height="14"/>
	<text transform="matrix(1 0 0 1 467 1496.33972)" opacity="0.27" fill="#1A2530" font-family="'OpenSans-Light'" font-size="9px">Contact</text>
	<rect x="700.33331" y="1490.16663" fill="none" width="175" height="22"/>
	
		<text transform="matrix(1 0 0 1 700.33331 1497.00647)" opacity="0.27" fill="#1A2530" font-family="'OpenSans-Light'" font-size="9px">Suivez-nous</text>
	<rect x="936.33331" y="1545.5" fill="none" width="200" height="25"/>
	<text transform="matrix(1 0 0 1 936.33331 1551.57996)" fill="#1C1C1C" font-family="'OpenSans-Light'" font-size="8px">Mentions légales  -  @2016 Made by Kozea with </text>
	<rect x="232" y="1509.83337" fill="none" width="227" height="51"/>
	<text transform="matrix(1 0 0 1 232 1516.67322)"><tspan x="0" y="0" fill="#1C1C1C" font-family="'OpenSans-Light'" font-size="9px">107 Boulevard Stalingrad</tspan><tspan x="0" y="18" fill="#1C1C1C" font-family="'OpenSans-Light'" font-size="9px">69100</tspan><tspan x="0" y="36" fill="#1C1C1C" font-family="'OpenSans-Light'" font-size="9px">VIlleurbanne</tspan></text>
	<rect x="467" y="1509.83337" fill="none" width="227" height="15"/>
	<text transform="matrix(1 0 0 1 467 1516.67322)" fill="#1C1C1C" font-family="'OpenSans-Light'" font-size="9px">+33 4 78 84 19 28</text>
	<rect x="467" y="1529.83337" fill="none" width="227" height="15"/>
	<text transform="matrix(1 0 0 1 467 1536.67322)" fill="#1C1C1C" font-family="'OpenSans-Light'" font-size="9px">contact@kozea.fr</text>
	<rect x="700.33331" y="1509.83337" fill="none" width="57.33333" height="47.66667"/>
	<text transform="matrix(1 0 0 1 700.33331 1516.67322)"><tspan x="0" y="0" fill="#1C1C1C" font-family="'OpenSans-Light'" font-size="9px">Facebook</tspan><tspan x="0" y="18" fill="#1C1C1C" font-family="'OpenSans-Light'" font-size="9px">Instagram</tspan><tspan x="0" y="36" fill="#1C1C1C" font-family="'OpenSans-Light'" font-size="9px">Twitter</tspan></text>
	<rect x="819" y="1509.83337" fill="none" width="57.33333" height="47.66667"/>
	<text transform="matrix(1 0 0 1 819 1516.67322)"><tspan x="0" y="0" fill="#1C1C1C" font-family="'OpenSans-Light'" font-size="9px">Linkedin</tspan><tspan x="0" y="18" fill="#1C1C1C" font-family="'OpenSans-Light'" font-size="9px">Youtube</tspan><tspan x="0" y="36" fill="#1C1C1C" font-family="'OpenSans-Light'" font-size="9px">Github</tspan></text>
	<path fill="#1C1C1C" d="M1116.45874,1546.90198c-0.98535-1.47803-2.45874,0.26465-2.45874,0.26465
		s-1.47339-1.74268-2.45874-0.26465c-1.11768,1.67627,2.45874,4.35889,2.45874,4.35889S1117.57642,1548.57825,1116.45874,1546.90198
		z"/>
	
		<line opacity="0.15" fill="none" stroke="#000000" stroke-width="0.5" stroke-miterlimit="10" x1="450.95834" y1="1470.13574" x2="450.95834" y2="1704.79163"/>
	
		<line opacity="0.15" fill="none" stroke="#000000" stroke-width="0.5" stroke-miterlimit="10" x1="921.00519" y1="1470.81775" x2="921.00519" y2="1705.47363"/>
	<g>
		<polygon fill="#EAEAEA" points="948.64166,1531.66614 938.99371,1531.66614 938.99371,1493.44507 948.64166,1493.44507 
			948.64166,1491.83337 938.99371,1491.83337 937.3819,1491.83337 937.3819,1493.44507 937.3819,1531.66614 937.3819,1533.27795 
			938.99371,1533.27795 948.64166,1533.27795 		"/>
		<polygon fill="#EAEAEA" points="977.21472,1491.83337 967.57239,1491.83337 967.57239,1493.44507 977.21472,1493.44507 
			977.21472,1531.66614 967.57239,1531.66614 967.57239,1533.27795 977.21472,1533.27795 978.82654,1533.27795 
			978.82654,1531.66614 978.82654,1493.44507 978.82654,1491.83337 		"/>
	</g>
	<path fill="#EAEAEA" d="M958.00391,1505.47961l6.24371,14.87036l-5.5166-2.78857l-0.72711-0.36755l-0.72717,0.36755
		l-5.51648,2.78857L958.00391,1505.47961 M958.00391,1501.31616l-9.42542,22.44824l9.42542-4.76453l9.42548,4.76453
		L958.00391,1501.31616L958.00391,1501.31616z"/>
	<rect x="484.39056" y="-1151.11938" fill="none" width="407.88721" height="50.8926"/>
	<text transform="matrix(1 0 0 1 528.58832 -1135.91956)"><tspan x="0" y="0" fill="#1C1C1C" font-family="'OpenSans-Light'" font-size="20px">Kozea group se compose de quatre </tspan><tspan x="14.90723" y="27" fill="#1C1C1C" font-family="'OpenSans-Light'" font-size="20px">structures au service de la santé</tspan></text>
	<rect x="457.25" y="-1214.0769" fill="none" width="462" height="49"/>
	<text transform="matrix(1 0 0 1 564.63281 -1185.79773)" fill="#1A2530" font-family="'Hind-Bold'" font-size="40px">Notre activité</text>
	<rect x="454.25" y="-2048.0769" fill="none" width="462" height="49"/>
	<text transform="matrix(1 0 0 1 618.51123 -2019.79773)" fill="#1A2530" font-family="'Hind-Bold'" font-size="40px">K.O.Z.E</text>
	<rect x="334.75" y="-1995.83337" fill="none" width="703" height="118.16629"/>
	<text transform="matrix(1 0 0 1 345.34668 -1980.63367)"><tspan x="0" y="0" fill="#1C1C1C" font-family="'OpenSans-Light'" font-size="20px">Kozea group a été fondée en 2007 avec la volonté de se positionner comme </tspan><tspan x="139.24316" y="27" fill="#1C1C1C" font-family="'OpenSans-Light'" font-size="20px">un </tspan><tspan x="168.03223" y="27" fill="#1C1C1C" font-family="'OpenSans'" font-size="20px">expert du web pour les acteurs de santé </tspan><tspan x="19.63867" y="54" fill="#1C1C1C" font-family="'OpenSans-Light'" font-size="20px">(pharmaciens, médecins généralistes et spécialistes, cliniques, hôpitaux, </tspan><tspan x="193.0957" y="81" fill="#1C1C1C" font-family="'OpenSans-Light'" font-size="20px">laboratoires pharmaceutiques...).</tspan></text>
	<rect x="334.66772" y="-1784.14624" fill="#F9F9F9" width="351.40518" height="343.85712"/>
	<g>
		<rect x="366.71768" y="-1740.71936" fill="none" width="293.89291" height="271.88947"/>
		<text transform="matrix(1 0 0 1 366.71774 -1727.79895)"><tspan x="0" y="0" fill="#1C1C1C" font-family="'OpenSans-Light'" font-size="17px">Kozea group a réussi à faire évoluer </tspan><tspan x="0" y="27" fill="#1C1C1C" font-family="'OpenSans-Light'" font-size="17px">des offres spécifiques pour répondre </tspan><tspan x="0" y="54" fill="#1C1C1C" font-family="'OpenSans-Light'" font-size="17px">au plus près aux besoins de leurs </tspan><tspan x="0" y="81" fill="#1C1C1C" font-family="'OpenSans-Light'" font-size="17px">clients.</tspan><tspan x="0" y="135" fill="#1C1C1C" font-family="'OpenSans-Light'" font-size="17px">Elle a su proposer des services </tspan><tspan x="0" y="162" fill="#1C1C1C" font-family="'OpenSans-Light'" font-size="17px">adaptés et des nouveaux leviers de </tspan><tspan x="0" y="189" fill="#1C1C1C" font-family="'OpenSans-Light'" font-size="17px">croissance à une population exigeante </tspan><tspan x="0" y="216" fill="#1C1C1C" font-family="'OpenSans-Light'" font-size="17px">avec des contraintes réglementaires </tspan><tspan x="0" y="243" fill="#1C1C1C" font-family="'OpenSans-Light'" font-size="17px">poussées.</tspan></text>
	</g>
	
		<image overflow="visible" width="471" height="442" xlink:href="banner-whitebook.jpg"  transform="matrix(0.99926 0 0 0.99926 685.73224 54.76951)">
	</image>
	
		<line fill="#007BB8" stroke="#007BB8" stroke-width="3" stroke-miterlimit="10" x1="685.88019" y1="54.0573" x2="1155.39868" y2="54.0745"/>
	<rect x="175.99995" y="-2133.07349" fill="#007BB8" width="225.12769" height="2.22012"/>
	<rect x="401.12766" y="-2133.07349" fill="#F49A2F" width="190.55324" height="2.22012"/>
	<rect x="589.76587" y="-2133.07349" fill="#E53C4C" width="190.55318" height="2.22012"/>
	<rect x="780.32513" y="-2133.07349" fill="#6E5F84" width="190.55321" height="2.22012"/>
	<rect x="970.87225" y="-2133.07349" fill="#56BCB5" width="225.12772" height="2.22012"/>
	<rect x="620.47858" y="-1872.5" fill="none" width="134" height="17"/>
	<text transform="matrix(1 0 0 1 650.8385 -1861.85999)" fill="#69737C" font-family="'OpenSans-Light'" font-size="14px">[ à propos ]</text>
	<g opacity="0.8">
		<defs>
			<rect id="SVGID_1_" x="216.17365" y="-723.73383" opacity="0.8" width="470" height="308"/>
		</defs>
		<clipPath id="SVGID_2_">
			<use xlink:href="#SVGID_1_"  overflow="visible"/>
		</clipPath>
		<g clip-path="url(#SVGID_2_)">
			
				<image overflow="visible" width="1000" height="607" xlink:href="385DE53C.jpg"  transform="matrix(0.51633 0 0 0.51633 213.95973 -727.70831)">
			</image>
		</g>
	</g>
	<g opacity="0.8">
		<defs>
			<rect id="SVGID_3_" x="216.17365" y="-1031.73389" opacity="0.8" width="470" height="308"/>
		</defs>
		<clipPath id="SVGID_4_">
			<use xlink:href="#SVGID_3_"  overflow="visible"/>
		</clipPath>
		<g clip-path="url(#SVGID_4_)">
			
				<image overflow="visible" width="1000" height="667" xlink:href="385DE53D.jpg"  transform="matrix(0.47388 0 0 0.47388 213.79306 -1038.70837)">
			</image>
		</g>
	</g>
	<g opacity="0.8">
		<defs>
			<rect id="SVGID_5_" x="686.3299" y="-723.73383" opacity="0.8" width="470" height="308"/>
		</defs>
		<clipPath id="SVGID_6_">
			<use xlink:href="#SVGID_5_"  overflow="visible"/>
		</clipPath>
		<g transform="matrix(1 0 0 1 0 0)" clip-path="url(#SVGID_6_)">
			
				<image overflow="visible" width="1000" height="667" xlink:href="385DE533.jpg"  transform="matrix(0.4735 0 0 0.4735 684.44928 -725.20831)">
			</image>
		</g>
	</g>
	<g opacity="0.8">
		<defs>
			<rect id="SVGID_7_" x="686.3299" y="-1031.73389" opacity="0.8" width="470" height="308"/>
		</defs>
		<clipPath id="SVGID_8_">
			<use xlink:href="#SVGID_7_"  overflow="visible"/>
		</clipPath>
		<g clip-path="url(#SVGID_8_)">
			
				<image overflow="visible" width="1000" height="886" xlink:href="385DE534.jpg"  transform="matrix(0.47291 0 0 0.47291 685.11597 -1066.70837)">
			</image>
		</g>
	</g>
	<polygon fill="#FFFFFF" points="659.20123,-2415.18774 630.95215,-2415.18774 630.95215,-2527.10303 659.20123,-2527.10303 
		659.20123,-2531.82397 630.95215,-2531.82397 626.23138,-2531.82397 626.23138,-2527.10303 626.23138,-2415.18774 
		626.23138,-2410.46704 630.95215,-2410.46704 659.20123,-2410.46704 	"/>
	<polygon fill="#FFFFFF" points="742.86658,-2531.82324 714.6333,-2531.82324 714.6333,-2527.10254 742.86658,-2527.10254 
		742.86658,-2415.18726 714.6333,-2415.18726 714.6333,-2410.46948 742.86658,-2410.46948 747.58734,-2410.46948 
		747.58734,-2415.18726 747.58734,-2527.10254 747.58734,-2531.82324 	"/>
	<path fill="#FFFFFF" d="M686.61487-2504.05469l-27.59985,65.72852l27.59985-13.95117l27.59991,13.95117L686.61487-2504.05469z
		 M686.61487-2491.86523l18.28125,43.54272l-16.15088-8.16528l-2.13037-1.07764l-2.13031,1.07764l-16.15405,8.16528
		L686.61487-2491.86523z"/>
	<rect x="595.95721" y="-1083.16663" fill="none" width="185.04282" height="24.33333"/>
	<text transform="matrix(1 0 0 1 611.53967 -1072.52698)" fill="#69737C" font-family="'OpenSans-Light'" font-size="14px">[ Notre activité en détail]</text>
	<rect x="332.44382" y="-225.10898" fill="none" width="703.88721" height="50.8926"/>
	<text transform="matrix(1 0 0 1 358.94818 -209.90926)"><tspan x="0" y="0" fill="#1C1C1C" font-family="'OpenSans-Light'" font-size="20px">Kozea group est aussi présent ailleurs que sur le web, et parfois on parle </tspan><tspan x="257.85645" y="27" fill="#1C1C1C" font-family="'OpenSans-Light'" font-size="20px">même de nous</tspan></text>
	<rect x="384.63657" y="-288.06662" fill="none" width="599.33331" height="49"/>
	<text transform="matrix(1 0 0 1 557.82568 -259.78745)" fill="#1A2530" font-family="'Hind-Bold'" font-size="40px">Nos actualités</text>
	<rect x="332.44382" y="684.89105" fill="none" width="703.88721" height="103.89261"/>
	<text transform="matrix(1 0 0 1 363.49408 700.09076)"><tspan x="0" y="0" fill="#1C1C1C" font-family="'OpenSans-Light'" font-size="20px">Kozea group fait partie d’associations traitant des sujets du web et de la </tspan><tspan x="3.99414" y="27" fill="#1C1C1C" font-family="'OpenSans-Light'" font-size="20px">e-santé. Nous souhaitons élargir notre horizon et pouvoir envisager de </tspan><tspan x="110.71289" y="54" fill="#1C1C1C" font-family="'OpenSans-Light'" font-size="20px">nouvelles perspectives avec ces collaborations.</tspan></text>
	<rect x="384.63657" y="621.93341" fill="none" width="599.33331" height="49"/>
	<text transform="matrix(1 0 0 1 535.38623 650.21259)" fill="#1A2530" font-family="'Hind-Bold'" font-size="40px">Nos partenariats</text>
	<rect x="621.47858" y="1116.5" fill="none" width="134" height="17"/>
	<text transform="matrix(1 0 0 1 651.8385 1127.14026)" fill="#69737C" font-family="'OpenSans-Light'" font-size="14px">[ à propos ]</text>
	
		<image overflow="visible" width="4705" height="3137" xlink:href="385DE537.jpg"  transform="matrix(0.09989 0 0 0.09989 215.54663 -145.99942)">
	</image>
	<g>
		<rect x="214.74884" y="128.17947" fill="none" width="471.57788" height="33.95594"/>
		<text transform="matrix(1 0 0 1 339.91992 140.90495)" fill="#FFFFFF" font-family="'Hind-Bold'" font-size="18px">Communiqués de presse</text>
	</g>
	<rect x="788.37128" y="-953.33331" fill="#E53C4C" width="264.12872" height="158.33482"/>
	<g>
		<rect x="821.14813" y="-883.80499" fill="none" width="196" height="54.26665"/>
		<text transform="matrix(1 0 0 1 821.14832 -870.88531)"><tspan x="0" y="0" fill="#FFFFFF" font-family="'OpenSans-Semibold'" font-size="17px">Régie publicitaire pour </tspan><tspan x="0" y="22" fill="#FFFFFF" font-family="'OpenSans-Semibold'" font-size="17px">Kozea platform</tspan></text>
	</g>
	<rect x="822.58533" y="-830.98035" fill="none" width="185.04282" height="24.33333"/>
	<text transform="matrix(1 0 0 1 822.5849 -820.34064)" fill="#FFFFFF" font-family="'OpenSans-Light'" font-size="14px">[ En savoir plus ]</text>
	<polygon fill="#FFFFFF" points="829.24878,-900.98163 822.78174,-900.98163 822.78174,-926.60229 829.24878,-926.60229 
		829.24878,-927.68304 822.78174,-927.68304 821.70099,-927.68304 821.70099,-926.60229 821.70099,-900.98163 821.70099,-899.90094 
		822.78174,-899.90094 829.24878,-899.90094 	"/>
	<polygon fill="#FFFFFF" points="848.40216,-927.68286 841.93872,-927.68286 841.93872,-926.60217 848.40216,-926.60217 
		848.40216,-900.98151 841.93872,-900.98151 841.93872,-899.90149 848.40216,-899.90149 849.48285,-899.90149 849.48285,-900.98151 
		849.48285,-926.60217 849.48285,-927.68286 	"/>
	<path fill="#FFFFFF" d="M835.52454-921.32587l-6.31842,15.04718l6.31842-3.19385l6.31842,3.19385L835.52454-921.32587z
		 M835.52454-918.53534l4.18506,9.9682l-3.69739-1.86926l-0.48767-0.2467l-0.48773,0.2467l-3.69812,1.86926L835.52454-918.53534z"/>
	<path fill="#FFFFFF" d="M858.5473-909.86646h0.01447l4.53571-7.8349h1.54608l-4.50616,7.8349l5.10999,7.8053h-1.50201
		L858.5473-909.86646z M857.64838-902.06116h-1.32526v-23.4599h1.32526V-902.06116z"/>
	<path fill="#FFFFFF" d="M871.34534-903.12152c1.79926,0,3.21039-2.57703,3.21039-6.75995c0-4.18219-1.414-6.77435-3.21039-6.77435
		c-1.85919,0-3.21045,2.59216-3.21045,6.77435C868.13489-905.69855,869.6319-903.12152,871.34534-903.12152 M871.34534-901.79626
		c-2.1665,0-4.62451-2.87201-4.62451-8.08521c0-5.21313,2.32666-8.09967,4.62451-8.09967c2.29706,0,4.62372,2.88654,4.62372,8.09967
		C875.96906-904.66827,873.55438-901.79626,871.34534-901.79626"/>
	<polygon fill="#FFFFFF" points="877.44305,-902.06128 884.18781,-916.46423 878.42926,-916.46423 878.42926,-917.70074 
		886.20569,-917.70074 879.44574,-903.29858 885.98419,-903.29858 885.98419,-902.06128 	"/>
	<path fill="#FFFFFF" d="M892.61176-916.65558c-1.97314,0-3.18085,1.94427-3.43121,5.09552l-0.05841,0.81018h5.94977
		l0.07288-1.04608C895.26306-914.87366,894.33527-916.65558,892.61176-916.65558 M896.30847-909.49817l-7.21594-0.01514
		l0.07361,0.72217c0.33838,3.59277,2.22351,5.66913,4.10864,5.66913c0.76617,0,1.50201-0.23523,2.07629-0.51514l0.44226,1.1637
		c-0.79578,0.38306-1.85559,0.67743-2.82806,0.67743c-2.85693,0-5.28674-3.5639-5.28674-8.55634
		c0-5.12512,2.56256-7.62854,4.99237-7.62854C895.69019-917.9809,897.01544-914.31378,896.30847-909.49817"/>
	<path fill="#FFFFFF" d="M905.10132-904.29938v-6.61273h-0.64783c-2.68018,0-4.81567,0.98621-4.81567,4.22693
		c0,2.20837,1.29572,3.51923,3.0481,3.51923C903.69958-903.16595,904.49603-903.69409,905.10132-904.29938 M898.22382-907.02423
		c0-2.70978,2.06189-5.00684,6.24408-5.2132l0.63342-0.02954c-0.0296-3.25446-1.1781-4.38855-3.10724-4.38855
		c-0.72217,0-1.62036,0.36865-2.28265,0.67743l-0.45667-1.33972c1.01648-0.39825,2.23865-0.66302,3.06323-0.66302
		c2.44427,0,4.10864,1.62036,4.10864,4.66846v11.07422l-1.41406-0.66229l-0.32391,0.26477
		c-0.61829,0.50067-1.41333,0.79498-2.31152,0.79498C900.12335-901.8407,898.22382-903.91699,898.22382-907.02423"/>
	<rect x="881.12451" y="-900.17511" fill="none" width="25.82491" height="7.45635"/>
	<text transform="matrix(1 0 0 1 889.28223 -895.34991)" fill="#FFFFFF" font-family="'OpenSans-Light'" font-size="6.34871px">media</text>
	
		<image overflow="visible" width="1632" height="916" xlink:href="259220D3.jpg"  transform="matrix(0.21575 0 0 0.21575 685.69116 -146.00385)">
	</image>
	<rect x="703.4137" y="-127.28188" opacity="0.45" fill="#1A2530" width="316.66666" height="160.18744"/>
	<g>
		<rect x="712.49707" y="-22.60483" fill="none" width="298.5" height="18.83333"/>
		<text transform="matrix(1 0 0 1 724.03021 -9.87923)" fill="#FFFFFF" font-family="'Hind-Bold'" font-size="18px">Télécharger notre brochure</text>
	</g>
	
		<line fill="none" stroke="#FFFFFF" stroke-width="2" stroke-miterlimit="10" x1="853.01563" y1="-35.55208" x2="870.01563" y2="-35.55208"/>
	
		<line fill="none" stroke="#FFFFFF" stroke-width="3" stroke-miterlimit="10" x1="441.87112" y1="114.63541" x2="459.20447" y2="114.63541"/>
	
		<polygon fill="none" stroke="#FFFFFF" stroke-width="3" stroke-linecap="round" stroke-linejoin="round" stroke-miterlimit="10" points="
		465.87607,44.52946 420.39502,68.58386 414.44031,58.86073 454.94946,28.15992 	"/>
	<path fill="none" stroke="#FFFFFF" stroke-width="3" stroke-linecap="round" stroke-linejoin="round" stroke-miterlimit="10" d="
		M424.87079,94.39821v-1.7374c0-1.67224,1.36819-3.04044,3.04044-3.04044h44.84659c1.67224,0,3.04044,1.3682,3.04044,3.04044v1.7374
		H424.87079z"/>
	<path fill="none" stroke="#FFFFFF" stroke-width="3" stroke-linecap="round" stroke-linejoin="round" stroke-miterlimit="10" d="
		M417.21536,63.58654c0,0-10.83157,1.71025-12.54184,9.28422c-1.71024,7.57397,2.76898,13.03048,5.53796,20.76733
		s-0.73297,10.42439-0.73297,10.42439"/>
	
		<polygon fill="none" stroke="#FFFFFF" stroke-width="3" stroke-linecap="round" stroke-linejoin="round" stroke-miterlimit="10" points="
		444.4165,55.95642 444.4165,89.51175 454.40656,89.51175 454.40656,50.67281 	"/>
	<path fill="none" stroke="#FFFFFF" stroke-width="3" stroke-linecap="round" stroke-linejoin="round" stroke-miterlimit="10" d="
		M470.83035,12.33331c-8.87552,0-15.84113,6.77589-16.12521,15.58228l0.05429,0.05429l10.88409,16.30584
		c1.63174,0.54432,3.37207,0.85099,5.18683,0.85099c9.05563,0,16.39673-7.3411,16.39673-16.39674
		S479.88599,12.33331,470.83035,12.33331z"/>
	
		<line fill="none" stroke="#FFFFFF" stroke-width="3" stroke-linecap="round" stroke-linejoin="round" stroke-miterlimit="10" x1="461.72537" y1="15.7302" x2="479.78882" y2="42.33057"/>
	<g>
		
			<polygon fill="none" stroke="#FFFFFF" stroke-width="2" stroke-linecap="round" stroke-linejoin="round" stroke-miterlimit="10" points="
			869.01563,-58.64174 847.01563,-54.9408 847.01563,-87.42683 869.01563,-91.12776 		"/>
		
			<line fill="none" stroke="#FFFFFF" stroke-width="2" stroke-linecap="round" stroke-linejoin="round" stroke-miterlimit="10" x1="856.42474" y1="-50.5484" x2="869.17365" y2="-58.57516"/>
		
			<polyline fill="none" stroke="#FFFFFF" stroke-width="2" stroke-linecap="round" stroke-linejoin="round" stroke-miterlimit="10" points="
			856.01563,-56.55208 856.01563,-50.34888 876.01563,-54.04985 876.01563,-86.53591 869.35199,-85.29063 		"/>
	</g>
	
		<image overflow="visible" width="587" height="310" xlink:href="images/atelier-france-ehealthtech.jpg"  transform="matrix(0.31643 0 0 0.31643 240.12796 812.4895)">
	</image>
	
		<image overflow="visible" width="500" height="186" xlink:href="images/cuisine-du-web.jpg"  transform="matrix(0.35774 0 0 0.35774 478.54794 828.2666)">
	</image>
	
		<image overflow="visible" width="1181" height="1168" xlink:href="images/minalogic.jpg"  transform="matrix(0.07537 0 0 0.07537 757.98889 817.52045)">
	</image>
	
		<image overflow="visible" width="787" height="207" xlink:href="259220D2.jpg"  transform="matrix(0.21507 0 0 0.21507 954.02899 839.27606)">
	</image>
	<rect x="563" y="-2734.33325" fill="none" width="593" height="19"/>
	<text transform="matrix(1 0 0 1 760.08203 -2726.73315)" fill="#FFFFFF" font-family="'OpenSans-Light'" font-size="10px">Accueil       à propos       Notre activité       Notre Expertise       Nos références       Contact</text>
	
		<image overflow="visible" width="300" height="250" xlink:href="259220D1.png"  transform="matrix(1.56847 0 0 1.56847 685.87891 -1752.61804)">
	</image>
	<rect x="874.25" y="-1376.08337" opacity="0.12" fill="#1A2530" width="24.5" height="2.5"/>
	<rect x="908.89972" y="-1376.08337" opacity="0.12" fill="#1A2530" width="24.5" height="2.5"/>
	<rect x="943.75" y="-1376.08337" opacity="0.12" fill="#1A2530" width="24.5" height="2.5"/>
	<rect x="131.00018" y="1749.69897" fill="#007BB8" width="438.99896" height="21.23513"/>
	<rect x="569.99915" y="1749.69897" fill="#F49A2F" width="371.57877" height="21.23513"/>
	<rect x="937.84363" y="1749.69897" fill="#E53C4C" width="371.57867" height="21.23513"/>
	<rect x="1309.4342" y="1749.69897" fill="#6E5F84" width="371.5787" height="21.23513"/>
	<rect x="1681.00098" y="1749.69897" fill="#56BCB5" width="438.99902" height="21.23513"/>
	<g>
		<polygon fill="#EAEAEA" points="830.50049,1715.39355 808.16968,1715.39355 808.16968,1626.92847 830.50049,1626.92847 
			830.50049,1623.19788 808.16968,1623.19788 804.43903,1623.19788 804.43903,1626.92847 804.43903,1715.39355 
			804.43903,1719.12427 808.16968,1719.12427 830.50049,1719.12427 		"/>
		<polygon fill="#EAEAEA" points="896.63464,1623.19788 874.31689,1623.19788 874.31689,1626.92847 896.63464,1626.92847 
			896.63464,1715.39355 874.31689,1715.39355 874.31689,1719.12427 896.63464,1719.12427 900.36536,1719.12427 
			900.36536,1715.39355 900.36536,1626.92847 900.36536,1623.19788 		"/>
	</g>
	<path fill="#EAEAEA" d="M852.17004,1654.7832l14.45148,34.41846l-12.76849-6.45447l-1.68298-0.85083l-1.68311,0.85083
		l-12.76831,6.45447L852.17004,1654.7832 M852.17004,1645.14661l-21.8158,51.95801l21.8158-11.02795l21.81586,11.02795
		L852.17004,1645.14661L852.17004,1645.14661z"/>
	<polygon fill="#FFFFFF" points="-202.69679,-2413.32227 -230.94588,-2413.32227 -230.94588,-2525.23755 -202.69679,-2525.23755 
		-202.69679,-2529.95825 -230.94588,-2529.95825 -235.66667,-2529.95825 -235.66667,-2525.23755 -235.66667,-2413.32227 
		-235.66667,-2408.60132 -230.94588,-2408.60132 -202.69679,-2408.60132 	"/>
	<polygon fill="#FFFFFF" points="-119.03145,-2529.95776 -147.26476,-2529.95776 -147.26476,-2525.23682 -119.03145,-2525.23682 
		-119.03145,-2413.32153 -147.26476,-2413.32153 -147.26476,-2408.604 -119.03145,-2408.604 -114.31068,-2408.604 
		-114.31068,-2413.32153 -114.31068,-2525.23682 -114.31068,-2529.95776 	"/>
	<path fill="#FFFFFF" d="M-175.28316-2502.18921l-27.5999,65.72852l27.5999-13.95117l27.59987,13.95117L-175.28316-2502.18921z
		 M-175.28316-2489.99951l18.2812,43.54272l-16.15088-8.16528l-2.13033-1.07788l-2.13034,1.07788l-16.15404,8.16528
		L-175.28316-2489.99951z"/>
	<polygon fill="#FFFFFF" points="73.67113,-2704.72949 68.55583,-2704.72949 68.55583,-2724.99487 73.67113,-2724.99487 
		73.67113,-2725.84961 68.55583,-2725.84961 67.701,-2725.84961 67.701,-2724.99487 67.701,-2704.72949 67.701,-2703.87451 
		68.55583,-2703.87451 73.67113,-2703.87451 	"/>
	<polygon fill="#FFFFFF" points="88.82114,-2725.84961 83.70869,-2725.84961 83.70869,-2724.99463 88.82114,-2724.99463 
		88.82114,-2704.72925 83.70869,-2704.72925 83.70869,-2703.875 88.82114,-2703.875 89.67596,-2703.875 89.67596,-2704.72925 
		89.67596,-2724.99463 89.67596,-2725.84961 	"/>
	<path fill="#FFFFFF" d="M78.63515-2720.82129l-4.99775,11.9021l4.99775-2.52637l4.99775,2.52637L78.63515-2720.82129z
		 M78.63515-2718.61401l3.31034,7.88477l-2.92458-1.47876l-0.38576-0.19507l-0.38576,0.19507l-2.92515,1.47876L78.63515-2718.61401z
		"/>
	<path fill="#FFFFFF" d="M96.84579-2711.75708h0.01141l3.58767-6.19727h1.2229l-3.56428,6.19727l4.04192,6.17383h-1.1881
		L96.84579-2711.75708z M96.13476-2705.58325h-1.04829v-18.5564h1.04829V-2705.58325z"/>
	<path fill="#FFFFFF" d="M106.96877-2706.42188c1.42319,0,2.53939-2.03857,2.53939-5.34717c0-3.30811-1.11848-5.3584-2.53939-5.3584
		c-1.47057,0-2.5394,2.05029-2.5394,5.3584C104.42937-2708.46045,105.61347-2706.42188,106.96877-2706.42188 M106.96877-2705.37378
		c-1.71367,0-3.65787-2.27173-3.65787-6.39526s1.84034-6.40649,3.65787-6.40649c1.81694,0,3.65729,2.28296,3.65729,6.40649
		S108.71609-2705.37378,106.96877-2705.37378"/>
	<polygon fill="#FFFFFF" points="111.79195,-2705.58325 117.12695,-2716.97583 112.57202,-2716.97583 112.57202,-2717.95386 
		118.72306,-2717.95386 113.37607,-2706.56201 118.54787,-2706.56201 118.54787,-2705.58325 	"/>
	<path fill="#FFFFFF" d="M123.79015-2717.1272c-1.56073,0-2.51599,1.53784-2.71401,4.03052l-0.04623,0.64087h4.70615
		l0.05763-0.82739C125.88728-2715.71777,125.15343-2717.1272,123.79015-2717.1272 M126.71416-2711.46582l-5.70765-0.01196
		l0.05821,0.57129c0.26764,2.8418,1.75874,4.48413,3.24986,4.48413c0.60603,0,1.1881-0.18604,1.64233-0.40747l0.34981,0.92041
		c-0.62943,0.30298-1.46771,0.53589-2.23695,0.53589c-2.25977,0-4.18172-2.81909-4.18172-6.76782
		c0-4.05396,2.02695-6.03418,3.94889-6.03418C126.22511-2718.17554,127.27339-2715.2749,126.71416-2711.46582"/>
	<path fill="#FFFFFF" d="M133.66916-2707.35352v-5.23071h-0.51244c-2.11996,0-3.80908,0.78003-3.80908,3.34351
		c0,1.74683,1.02489,2.78369,2.411,2.78369C132.56039-2706.45703,133.1904-2706.87476,133.66916-2707.35352 M128.22917-2709.50903
		c0-2.14331,1.63091-3.96021,4.93896-4.12354l0.50102-0.02319c-0.02339-2.57422-0.93185-3.47144-2.45778-3.47144
		c-0.57123,0-1.28168,0.29175-1.80553,0.53589l-0.36124-1.05957c0.80406-0.31519,1.77074-0.52466,2.42299-0.52466
		c1.93335,0,3.24985,1.28174,3.24985,3.69287v8.75928l-1.11848-0.52368l-0.25621,0.20947
		c-0.48904,0.396-1.1179,0.62866-1.82837,0.62866C129.73169-2705.40894,128.22917-2707.05127,128.22917-2709.50903"/>
	<path fill="#FFFFFF" d="M122.06906-2702.09229c0,0.19238,0.0582,0.34131,0.17519,0.44751
		c0.11642,0.1062,0.27277,0.15918,0.46793,0.15918c0.20715,0,0.36693-0.05249,0.47707-0.15796
		c0.1107-0.10498,0.16605-0.25757,0.16605-0.45776c0-0.21167-0.05649-0.37085-0.17062-0.47705
		c-0.11356-0.1062-0.27221-0.15918-0.47707-0.15918c-0.19859,0-0.35438,0.05713-0.46793,0.17065
		S122.06906-2702.29468,122.06906-2702.09229 M121.87903-2699.95898c0,0.3418,0.25451,0.51245,0.7624,0.51245
		c0.65282,0,0.9798-0.2085,0.9798-0.62451c0-0.14941-0.05136-0.25781-0.15408-0.3252
		c-0.10214-0.06665-0.26763-0.10034-0.49646-0.10034h-0.40745C122.10729-2700.49658,121.87903-2700.31738,121.87903-2699.95898
		 M123.89343-2702.86768v0.15747l-0.51473,0.03247c0.13696,0.17065,0.20544,0.3584,0.20544,0.56274
		c0,0.23975-0.0799,0.43359-0.23911,0.58252s-0.3732,0.22314-0.64198,0.22314c-0.11241,0-0.19231-0.00439-0.23796-0.01367
		c-0.09016,0.04736-0.15864,0.10278-0.20543,0.16724c-0.04794,0.06396-0.07133,0.13184-0.07133,0.20386
		c0,0.07861,0.03024,0.13672,0.09016,0.17334s0.16149,0.05542,0.30359,0.05542h0.43427c0.27048,0,0.47706,0.0542,0.62029,0.16309
		c0.14323,0.10962,0.21513,0.27051,0.21513,0.48462c0,0.26196-0.10614,0.46436-0.31899,0.60718
		c-0.21285,0.14307-0.51643,0.21387-0.91019,0.21387c-0.31271,0-0.55467-0.05981-0.72643-0.18018
		c-0.17177-0.12109-0.25736-0.28882-0.25736-0.50391c0-0.17065,0.05307-0.31274,0.1592-0.42529
		c0.10615-0.11353,0.24995-0.19043,0.43085-0.23169c-0.07419-0.03198-0.1341-0.0769-0.17918-0.13623
		c-0.04451-0.05835-0.06734-0.12549-0.06734-0.20215c0-0.1665,0.10558-0.31274,0.31786-0.43994
		c-0.14494-0.05933-0.25793-0.15283-0.33896-0.28003c-0.08047-0.12744-0.12098-0.27344-0.12098-0.43848
		c0-0.24878,0.07874-0.44775,0.23739-0.59839c0.1575-0.15015,0.37035-0.22485,0.63912-0.22485
		c0.16322,0,0.28989,0.01538,0.38005,0.04785H123.89343z"/>
	<path fill="#FFFFFF" d="M125.61708-2702.91577c0.10557,0,0.21798,0.01025,0.33897,0.03198l-0.04337,0.21729
		c-0.10385-0.02563-0.21114-0.03882-0.32242-0.03882c-0.21228,0-0.38633,0.0896-0.52271,0.27002
		c-0.13581,0.18018-0.20258,0.40747-0.20258,0.68188v1.37354h-0.22711v-2.48804h0.19173l0.0234,0.44849h0.0154
		c0.10272-0.18311,0.21171-0.31152,0.32812-0.38574C125.31235-2702.87866,125.45273-2702.91577,125.61708-2702.91577"/>
	<path fill="#FFFFFF" d="M126.79021-2701.62744c0,0.3418,0.07533,0.6084,0.22541,0.80005
		c0.14951,0.19116,0.36293,0.28711,0.63684,0.28711c0.27505,0,0.48734-0.09595,0.63799-0.28711
		c0.15009-0.19165,0.2254-0.45825,0.2254-0.80005c0-0.34302-0.07588-0.60938-0.22826-0.79883
		c-0.15179-0.18945-0.36464-0.28369-0.63969-0.28369c-0.27392,0-0.48562,0.09424-0.63513,0.28247
		C126.8644-2702.23901,126.79021-2701.97217,126.79021-2701.62744 M128.75383-2701.62744c0,0.40576-0.09872,0.72241-0.29561,0.95068
		c-0.19687,0.22827-0.46793,0.34253-0.81489,0.34253c-0.21798,0-0.41029-0.05249-0.57635-0.1582
		c-0.16663-0.10498-0.29388-0.2561-0.38233-0.45313c-0.08845-0.19678-0.13239-0.42383-0.13239-0.68188
		c0-0.40576,0.09814-0.72192,0.29502-0.94824c0.19688-0.22729,0.46736-0.34033,0.80975-0.34033
		c0.34182,0,0.61003,0.11475,0.80463,0.34424C128.65623-2702.3418,128.75383-2702.02734,128.75383-2701.62744"/>
	<path fill="#FFFFFF" d="M129.87355-2702.86768v1.61084c0,0.25,0.05251,0.43213,0.1575,0.54614
		c0.10558,0.11353,0.26935,0.17017,0.49019,0.17017c0.29617,0,0.51358-0.07471,0.6534-0.22363
		c0.1398-0.15015,0.20943-0.39331,0.20943-0.73047v-1.37305h0.22426v2.48755h-0.19231l-0.04108-0.34302h-0.0137
		c-0.1615,0.25952-0.44968,0.38916-0.86339,0.38916c-0.56552,0-0.84856-0.30298-0.84856-0.90918v-1.62451H129.87355z"/>
	<path fill="#FFFFFF" d="M133.73508-2700.53564c0.25508,0,0.45253-0.09473,0.59235-0.28418
		c0.13866-0.18896,0.20885-0.45361,0.20885-0.7937c0-0.7312-0.26364-1.09644-0.79205-1.09644
		c-0.28932,0-0.50218,0.07935-0.63799,0.23926c-0.1364,0.15967-0.2043,0.4187-0.2043,0.77881v0.07373
		c0,0.38916,0.06563,0.6665,0.1963,0.83301C133.22835-2700.6189,133.44063-2700.53564,133.73508-2700.53564 M133.73965-2700.33423
		c-0.38234,0-0.66196-0.14331-0.83772-0.43018h-0.01541l0.00629,0.19214c0.00627,0.11255,0.00912,0.23633,0.00912,0.37036v0.948
		h-0.22655v-3.61401h0.19231l0.04395,0.35449h0.0137c0.17062-0.26831,0.44395-0.40234,0.81888-0.40234
		c0.33554,0,0.59177,0.11011,0.76808,0.33081c0.17635,0.22046,0.26479,0.54102,0.26479,0.96216
		c0,0.40869-0.093,0.72583-0.27847,0.95068C134.31316-2700.44678,134.06035-2700.33423,133.73965-2700.33423"/>
	<rect x="106.77889" y="-2702.46533" fill="#007BB8" width="1.74219" height="1.74219"/>
	<rect x="109.27149" y="-2702.46533" fill="#F49A2F" width="1.74219" height="1.74219"/>
	<rect x="111.7698" y="-2702.46533" fill="#E53C4C" width="1.74219" height="1.74219"/>
	<rect x="114.26753" y="-2702.46533" fill="#6E5F84" width="1.74219" height="1.74219"/>
	<rect x="116.7664" y="-2702.46533" fill="#56BCB5" width="1.74219" height="1.74219"/>
	
		<polygon fill="none" stroke="#FFFFFF" stroke-width="3" stroke-linecap="round" stroke-linejoin="round" stroke-miterlimit="10" points="
		64.46951,35.02332 18.98846,59.07772 13.03374,49.35458 53.54291,18.65377 	"/>
	<path fill="none" stroke="#FFFFFF" stroke-width="3" stroke-linecap="round" stroke-linejoin="round" stroke-miterlimit="10" d="
		M23.46421,84.89206v-1.7374c0-1.67224,1.3682-3.04044,3.04044-3.04044h44.84659c1.67224,0,3.04044,1.3682,3.04044,3.04044v1.7374
		H23.46421z"/>
	<path fill="none" stroke="#FFFFFF" stroke-width="3" stroke-linecap="round" stroke-linejoin="round" stroke-miterlimit="10" d="
		M15.80881,54.08039c0,0-10.83159,1.71025-12.54184,9.28422S6.03594,76.3951,8.80492,84.13194S8.07196,94.55634,8.07196,94.55634"/>
	
		<polygon fill="none" stroke="#FFFFFF" stroke-width="3" stroke-linecap="round" stroke-linejoin="round" stroke-miterlimit="10" points="
		43.00994,46.45028 43.00994,80.0056 53,80.0056 53,41.16667 	"/>
	<path fill="none" stroke="#FFFFFF" stroke-width="3" stroke-linecap="round" stroke-linejoin="round" stroke-miterlimit="10" d="
		M69.42378,2.82717c-8.8755,0-15.84111,6.77589-16.12519,15.58228l0.05429,0.05429l10.88408,16.30584
		c1.63175,0.54432,3.37207,0.85099,5.18682,0.85099c9.05565,0,16.39674-7.3411,16.39674-16.39674S78.47943,2.82717,69.42378,2.82717
		z"/>
	
		<line fill="none" stroke="#FFFFFF" stroke-width="3" stroke-linecap="round" stroke-linejoin="round" stroke-miterlimit="10" x1="60.31882" y1="6.22405" x2="78.38227" y2="32.82442"/>
	<g>
		
			<polygon fill="none" stroke="#FFFFFF" stroke-width="2" stroke-linecap="round" stroke-linejoin="round" stroke-miterlimit="10" points="
			60.51563,206.36102 38.51563,210.06197 38.51563,177.57594 60.51563,173.875 		"/>
		
			<line fill="none" stroke="#FFFFFF" stroke-width="2" stroke-linecap="round" stroke-linejoin="round" stroke-miterlimit="10" x1="47.92474" y1="214.45436" x2="60.67364" y2="206.4276"/>
		
			<polyline fill="none" stroke="#FFFFFF" stroke-width="2" stroke-linecap="round" stroke-linejoin="round" stroke-miterlimit="10" points="
			47.51563,208.45068 47.51563,214.65388 67.51563,210.95291 67.51563,178.46686 60.85199,179.71214 		"/>
	</g>
</g>
</svg>
