<?xml version="1.0" encoding="utf-8"?>
<!-- Generator: Adobe Illustrator 19.2.1, SVG Export Plug-In . SVG Version: 6.00 Build 0)  -->
<svg version="1.1" xmlns="http://www.w3.org/2000/svg" xmlns:xlink="http://www.w3.org/1999/xlink" x="0px" y="0px"
	 viewBox="0 0 71.66666 71.66666" enable-background="new 0 0 71.66666 71.66666" xml:space="preserve">
<g id="border_centrale_bkgd">
</g>
<g id="Repères" display="none">
</g>
<g id="Calque_3">
</g>
<g id="Footer">
</g>
<g id="vos_objectifs">
</g>
<g id="Nos_compétences">
	<g>
		<path fill="#FFFFFF" d="M24.45421,19.38716c13.83267-1.28698,27.26119,4.09337,36.48928,14.35371l-4.26732,2.82332
			l13.41307,6.69101L69.17915,28.2943l-4.39406,2.9058C54.58232,19.53802,39.53411,13.41033,24.03232,14.8526
			c0,0-1.38305,1.18966-1.16304,2.6626C23.08929,18.98814,24.45421,19.38716,24.45421,19.38716z"/>
		<path fill="#FFFFFF" d="M16.38871,61.55112c6.94391-7.53157,18.226-7.56105,25.15986-0.01966"/>
		<path fill="#FFFFFF" d="M46.18933,52.02825c-6.58138-6.58138-15.99147-8.47847-24.3225-5.93919l-0.0142-0.03495l-1.93204-4.62094
			l-0.03495,0.00437l2.63758-1.10199l-6.51804-20.94553c-0.28942-0.69025-0.75468-1.25926-1.28875-1.75401
			c-0.14307-0.13652-0.29488-0.25011-0.45652-0.37243c-0.47618-0.35823-1.00916-0.64656-1.59237-0.85735
			c-0.14198-0.05352-0.26431-0.12778-0.41175-0.1671c-0.74049-0.21516-1.53886-0.30799-2.36235-0.2796
			c-0.13215,0.00546-0.25447,0.02949-0.38663,0.03932c-0.84752,0.07318-1.70924,0.24574-2.56331,0.59742
			c-3.70571,1.54869-5.66069,5.31228-4.36647,8.40966l10.28163,19.36734l2.59498-1.08452L15.446,43.29531l1.93095,4.63077
			l0.02075,0.03932c-2.01504,1.09216-3.94926,2.38201-5.65086,4.08251c-0.97967,0.97967-0.97967,2.56768,0,3.54844
			c0.48929,0.49038,1.13148,0.73502,1.77367,0.73502s1.28439-0.24574,1.77477-0.73502
			c7.54686-7.53156,19.80858-7.56105,27.34451-0.01966c0.97967,0.97968,2.56877,0.97968,3.54844,0
			C47.1679,54.59701,47.1701,53.00901,46.18933,52.02825z"/>
	</g>
</g>
<g id="Nos_missions">
</g>
<g id="Menu">
</g>
</svg>
