<?xml version="1.0" encoding="utf-8"?>
<!-- Generator: Adobe Illustrator 19.2.1, SVG Export Plug-In . SVG Version: 6.00 Build 0)  -->
<svg version="1.1" xmlns="http://www.w3.org/2000/svg" xmlns:xlink="http://www.w3.org/1999/xlink" x="0px" y="0px"
	 viewBox="0 0 105 105" enable-background="new 0 0 105 105" xml:space="preserve">
<g id="border_centrale_bkgd">
</g>
<g id="Repères" display="none">
</g>
<g id="Calque_3">
</g>
<g id="footer">
</g>
<g id="what_x27_s_new">
</g>
<g id="équipe">
</g>
<g id="chiffres">
	
		<circle fill="#43607C" stroke="#1C1C1C" stroke-width="2" stroke-linecap="round" stroke-linejoin="round" stroke-miterlimit="10" cx="55.9848" cy="31.67104" r="5.16747"/>
	
		<circle fill="#43607C" stroke="#1C1C1C" stroke-width="2" stroke-linecap="round" stroke-linejoin="round" stroke-miterlimit="10" cx="44.26701" cy="19.371" r="4.51244"/>
	
		<circle fill="#43607C" stroke="#1C1C1C" stroke-width="2" stroke-linecap="round" stroke-linejoin="round" stroke-miterlimit="10" cx="54.52917" cy="10.41889" r="3.71185"/>
	<path fill="none" stroke="#FFFFFF" stroke-linecap="round" stroke-linejoin="round" stroke-miterlimit="10" d="M56.44575,28.92961
		c1.17908,0,2.13492,0.95584,2.13492,2.13492"/>
	<path fill="none" stroke="#FFFFFF" stroke-linecap="round" stroke-linejoin="round" stroke-miterlimit="10" d="M44.65517,16.89643
		c1.17908,0,2.13492,0.95584,2.13492,2.13492"/>
	<path fill="none" stroke="#FFFFFF" stroke-linecap="round" stroke-linejoin="round" stroke-miterlimit="10" d="M54.60196,8.4538
		c0.9915,0,1.79527,0.80377,1.79527,1.79527"/>
	<path fill="none" stroke="#1C1C1C" stroke-width="2" stroke-linecap="round" stroke-linejoin="round" stroke-miterlimit="10" d="
		M83.09914,19.24264l-10.2864,82.02721H58.64461h-10.2864H34.19009l-10.2864-82.02721l24.45452-0.00813
		C48.35821,19.23451,83.09914,19.15585,83.09914,19.24264z"/>
	
		<path fill="#43607C" stroke="#1C1C1C" stroke-width="2" stroke-linecap="round" stroke-linejoin="round" stroke-miterlimit="10" d="
		M34.1664,101.16643l39.09506,0.10342l7.29154-62.52107c0,0-14.27302,10.88192-34.38918,1.39625
		c-12.72141-5.99871-19.90952-3.25792-19.90952-3.25792L34.1664,101.16643z"/>
	
		<circle fill="#43607C" stroke="#1C1C1C" stroke-width="2" stroke-linecap="round" stroke-linejoin="round" stroke-miterlimit="10" cx="46.25509" cy="51.1841" r="4.14854"/>
	
		<circle fill="#43607C" stroke="#1C1C1C" stroke-width="2" stroke-linecap="round" stroke-linejoin="round" stroke-miterlimit="10" cx="60.01076" cy="57.8072" r="3.20238"/>
	<path fill="none" stroke="#FFFFFF" stroke-linecap="round" stroke-linejoin="round" stroke-miterlimit="10" d="M46.619,49.41309
		c0.88431,0,1.60119,0.71688,1.60119,1.60119"/>
	<path fill="none" stroke="#FFFFFF" stroke-linecap="round" stroke-linejoin="round" stroke-miterlimit="10" d="M59.91372,56.30305
		c0.77712,0,1.4071,0.62998,1.4071,1.4071"/>
</g>
<g id="petite_histoire">
</g>
<g id="menu">
</g>
</svg>
