<?xml version="1.0" encoding="utf-8"?>
<!-- Generator: Adobe Illustrator 19.2.1, SVG Export Plug-In . SVG Version: 6.00 Build 0)  -->
<svg version="1.1" xmlns="http://www.w3.org/2000/svg" xmlns:xlink="http://www.w3.org/1999/xlink" x="0px" y="0px"
	 viewBox="0 0 83.03125 81.8125" enable-background="new 0 0 83.03125 81.8125" xml:space="preserve">
<g id="border_centrale_bkgd">
</g>
<g id="Repères" display="none">
</g>
<g id="Calque_3">
</g>
<g id="Footer">
</g>
<g id="vos_objectifs">
	<g>
		<g>
			<polygon fill="#1A2530" points="60.02259,0 60.02259,1.99543 81.03049,1.99543 81.03049,79.81707 60.02259,79.81707 
				60.02259,81.8125 83.03125,81.8125 83.03125,0 			"/>
			<polygon fill="#1A2530" points="0,81.8125 23.00866,81.8125 23.00866,79.81707 2.00075,79.81707 2.00075,1.99543 
				23.00866,1.99543 23.00866,0 0,0 			"/>
		</g>
	</g>
	<path fill="none" stroke="#1A2530" stroke-width="2" stroke-linecap="round" stroke-linejoin="round" stroke-miterlimit="10" d="
		M23.57136,37.20137l-1.29129-13.43061c0,0-1.04316-6.22117,6.13736-7.77168"/>
	<path fill="none" stroke="#1A2530" stroke-width="2" stroke-linecap="round" stroke-linejoin="round" stroke-miterlimit="10" d="
		M48.71035,37.20137l1.29129-13.43061c0,0,1.48122-6.22117-5.69931-7.77168"/>
	<g>
		<g>
			<path fill="#1A2530" d="M43.14403,14.55884l0.12683,2.77148l-2.37849,0.10889l-0.12683-2.77148L43.14403,14.55884
				 M43.1441,12.55884c-0.03046,0-0.06099,0.00073-0.09155,0.0022l-2.37849,0.10889
				c-1.10339,0.05029-1.95694,0.98584-1.90643,2.08936l0.12683,2.77148c0.02425,0.52979,0.25801,1.02832,0.64984,1.38574
				c0.36925,0.33691,0.85034,0.52271,1.34799,0.52271c0.03047,0,0.06099-0.00073,0.09155-0.0022l2.37849-0.10889
				c1.10339-0.05029,1.95692-0.98584,1.90643-2.08911l-0.12683-2.77173c-0.02425-0.52979-0.258-1.02832-0.64984-1.38574
				C44.12286,12.74463,43.64175,12.55884,43.1441,12.55884L43.1441,12.55884z"/>
		</g>
	</g>
	<g>
		<g>
			<path fill="#1A2530" d="M29.7471,14.55884l2.37849,0.10889l-0.12682,2.77148l-2.37849-0.10889L29.7471,14.55884
				 M29.74702,12.55884c-0.4977,0-0.97874,0.18555-1.34799,0.52271c-0.39185,0.35742-0.6256,0.85596-0.64984,1.38599
				l-0.12682,2.77148c-0.05049,1.10327,0.80304,2.03882,1.90643,2.08911l2.37849,0.10889
				c0.03053,0.00146,0.06113,0.0022,0.09155,0.0022c0.4977,0,0.97874-0.18555,1.34799-0.52271
				c0.39185-0.35742,0.6256-0.85596,0.64984-1.38599l0.12682-2.77148c0.05049-1.10327-0.80304-2.03882-1.90643-2.08911
				l-2.37849-0.10889C29.80804,12.55957,29.77745,12.55884,29.74702,12.55884L29.74702,12.55884z"/>
		</g>
	</g>
	<path fill="none" stroke="#1A2530" stroke-width="2" stroke-linecap="round" stroke-linejoin="round" stroke-miterlimit="10" d="
		M48.74002,36.83914L47.3942,47.53528c0.05379,0.00227-1.36448,6.32533-10.87723,6.32533
		c-9.75291,0-10.95482-4.73055-11.35117-5.61849s-1.61629-11.13878-1.61629-11.13878"/>
	<path fill="none" stroke="#1A2530" stroke-width="2" stroke-linecap="round" stroke-linejoin="round" stroke-miterlimit="10" d="
		M36.02087,54.16838c0,0-1.21054,11.06019,8.21441,10.95068s6.57153-0.1095,6.57153-0.1095s8.04147,0.76655,8.04147-10.18414
		s-0.05453-14.12636-0.05453-14.12636"/>
	
		<circle fill="none" stroke="#1A2530" stroke-width="2" stroke-linecap="round" stroke-linejoin="round" stroke-miterlimit="10" cx="58.79374" cy="37.46861" r="3.23045"/>
</g>
<g id="Nos_compétences">
</g>
<g id="Nos_missions">
</g>
<g id="Menu">
</g>
</svg>
