<?xml version="1.0" encoding="utf-8"?>
<!-- Generator: Adobe Illustrator 19.2.1, SVG Export Plug-In . SVG Version: 6.00 Build 0)  -->
<svg version="1.1" xmlns="http://www.w3.org/2000/svg" xmlns:xlink="http://www.w3.org/1999/xlink" x="0px" y="0px"
	 viewBox="0 0 105 105" enable-background="new 0 0 105 105" xml:space="preserve">
<g id="border_centrale_bkgd">
</g>
<g id="Repères" display="none">
</g>
<g id="Calque_3">
</g>
<g id="footer">
</g>
<g id="what_x27_s_new">
</g>
<g id="équipe">
</g>
<g id="chiffres">
	
		<rect x="29.03778" y="47.59156" fill="#43607C" stroke="#1C1C1C" stroke-width="2" stroke-linecap="round" stroke-linejoin="round" stroke-miterlimit="10" width="46.89474" height="11.46316"/>
	<path fill="none" stroke="#1C1C1C" stroke-width="2" stroke-miterlimit="10" d="M23.95445,80.93893h-2.33861
		c-2.80744,0-5.08333-2.27589-5.08333-5.08333V30.79068c0-2.80745,2.27588-5.08333,5.08333-5.08333h2.33861
		c2.80744,0,5.08333,2.27588,5.08333,5.08333v45.06493C29.03778,78.66305,26.7619,80.93893,23.95445,80.93893z"/>
	<path fill="none" stroke="#1C1C1C" stroke-width="2" stroke-miterlimit="10" d="M13.53252,73.6442h-1.29474
		c-1.65685,0-3-1.34315-3-3V36.00209c0-1.65685,1.34314-3,3-3h1.29474c1.65685,0,3,1.34314,3,3V70.6442
		C16.53252,72.30105,15.18937,73.6442,13.53252,73.6442z"/>
	
		<path fill="#43607C" stroke="#1C1C1C" stroke-width="2" stroke-linecap="round" stroke-linejoin="round" stroke-miterlimit="10" d="
		M9.23778,44.17266c0-0.03153-0.56007-0.07187-0.80215-0.07187c-2.94563,0-5.45048,2.41002-5.45048,5.35564v7.47761
		c0,2.94563,2.50485,5.35564,5.45048,5.35564c0.24209,0,0.80215-0.04034,0.80215-0.07187V44.17266z"/>
	<path fill="none" stroke="#1C1C1C" stroke-width="2" stroke-miterlimit="10" d="M83.35445,80.93893h-2.33861
		c-2.80745,0-5.08333-2.27589-5.08333-5.08333V30.79068c0-2.80745,2.27588-5.08333,5.08333-5.08333h2.33861
		c2.80744,0,5.08333,2.27588,5.08333,5.08333v45.06493C88.43778,78.66305,86.1619,80.93893,83.35445,80.93893z"/>
	<path fill="none" stroke="#1C1C1C" stroke-width="2" stroke-miterlimit="10" d="M92.73252,73.6442h-1.29475
		c-1.65685,0-2.99999-1.34315-2.99999-3V36.00209c0-1.65685,1.34314-3,2.99999-3h1.29475c1.65685,0,2.99999,1.34314,2.99999,3
		V70.6442C95.73251,72.30105,94.38937,73.6442,92.73252,73.6442z"/>
	
		<path fill="#43607C" stroke="#1C1C1C" stroke-width="2" stroke-linecap="round" stroke-linejoin="round" stroke-miterlimit="10" d="
		M95.73251,62.21782c0,0.03153,0.56007,0.07187,0.80216,0.07187c2.94563,0,5.45047-2.41001,5.45047-5.35564v-7.47761
		c0-2.94563-2.50484-5.35564-5.45047-5.35564c-0.2421,0-0.80216,0.04034-0.80216,0.07187V62.21782z"/>
</g>
<g id="petite_histoire">
</g>
<g id="menu">
</g>
</svg>
