<?xml version="1.0" encoding="utf-8"?>
<!-- Generator: Adobe Illustrator 19.2.1, SVG Export Plug-In . SVG Version: 6.00 Build 0)  -->
<svg version="1.1" xmlns="http://www.w3.org/2000/svg" xmlns:xlink="http://www.w3.org/1999/xlink" x="0px" y="0px"
	 viewBox="0 0 69.5 69.5" enable-background="new 0 0 69.5 69.5" xml:space="preserve">
<g id="Calque_4">
</g>
<g id="Repères" display="none">
</g>
<g id="Calque_3">
</g>
<g id="footer">
</g>
<g id="community">
	<g>
		<path fill="#FFFFFF" d="M21.50932,55.6557c-0.42965,0-0.87272-0.06042-1.32251-0.1902
			c-1.57537-0.45426-1.86852-1.40307-1.90432-1.9267c-0.12531-1.86628,3.25591-4.50458,10.06313-7.86119
			c0.78321-1.59327,1.43663-3.11941,1.91103-4.22262l0.40279-0.93761c0.46098-1.05845,0.92866-2.35411,1.34712-3.73032
			c-2.58012-3.86682-3.08585-8.00664-2.07215-10.4525c0.56391-1.3695,1.61117-2.15495,2.86878-2.15495
			c0.00671,0,0.01342,0,0.02014,0c0.92419,0.0179,1.70964,0.45874,2.21537,1.24418
			c1.37621,2.14376,0.54153,6.97728-0.58405,10.94032c0.40727,0.53035,0.86377,1.05622,1.37621,1.56866
			c1.3695,1.36726,2.75243,2.51075,4.06822,3.43941c3.38346-0.59748,6.63491-0.54377,8.33559,0.56391
			c0.87272,0.56839,1.3516,1.41425,1.3516,2.3832c0,1.04055-0.51692,1.85285-1.42097,2.22656
			c-1.89089,0.78321-5.3415-0.56839-8.72496-2.80389c-1.67607,0.34909-3.42822,0.87943-5.06849,1.60222
			c-1.56642,0.68923-3.02543,1.36726-4.36136,2.02292C27.91374,51.49797,25.05838,55.6557,21.50932,55.6557z M20.60527,53.24789
			c0.05371,0.02014,0.1186,0.04475,0.19916,0.06713c1.9446,0.56392,3.89367-1.4411,5.56303-4.06598
			C23.12049,51.03029,21.08415,52.4781,20.60527,53.24789z M42.98941,43.26308c2.25117,1.15915,3.93171,1.51943,4.35464,1.19719
			c0.00448-0.27972-0.02238-0.44755-0.33119-0.64894C46.30799,43.35035,44.8266,43.16014,42.98941,43.26308z M33.6625,38.90172
			c-0.34909,1.02265-0.68475,1.8909-0.95328,2.50851l-0.39832,0.92643c-0.24167,0.56615-0.50797,1.186-0.79663,1.83718
			c0.62881-0.28867,1.28223-0.57958,1.95579-0.87719c1.10992-0.48783,2.33397-0.92196,3.59829-1.27328
			c-0.99804-0.79216-1.95355-1.63803-2.81956-2.50627C34.04739,39.31346,33.85271,39.10759,33.6625,38.90172z M32.79426,26.41735
			c-0.31776,0.00447-0.58405,0.26405-0.7944,0.77202c-0.53706,1.29565-0.4386,3.8064,0.8302,6.50959
			c0.70713-3.0948,1.00251-6.01505,0.32671-7.06456C33.04265,26.45763,32.94642,26.42183,32.79426,26.41735z"/>
	</g>
	
		<polygon fill="none" stroke="#FFFFFF" stroke-width="3" stroke-linecap="round" stroke-linejoin="round" stroke-miterlimit="10" points="
		12.18748,3.35264 12.18748,66.73499 57.08333,66.73499 57.08333,20.84881 40.32993,3.35264 	"/>
	
		<polyline fill="none" stroke="#FFFFFF" stroke-width="3" stroke-linecap="round" stroke-linejoin="round" stroke-miterlimit="10" points="
		57.02314,20.79832 40.30565,20.79832 40.30565,3.32157 	"/>
</g>
<g id="media">
</g>
<g id="link">
</g>
<g id="platform">
</g>
<g id="intro">
</g>
<g id="menu">
</g>
</svg>
