<?xml version="1.0" encoding="utf-8"?>
<!-- Generator: Adobe Illustrator 19.2.1, SVG Export Plug-In . SVG Version: 6.00 Build 0)  -->
<svg version="1.1" xmlns="http://www.w3.org/2000/svg" xmlns:xlink="http://www.w3.org/1999/xlink" x="0px" y="0px"
	 viewBox="0 0 83.03125 81.8125" enable-background="new 0 0 83.03125 81.8125" xml:space="preserve">
<g id="border_centrale_bkgd">
</g>
<g id="Repères" display="none">
</g>
<g id="Calque_3">
</g>
<g id="Footer">
</g>
<g id="vos_objectifs">
	<g>
		<g>
			<path fill="#1A2530" d="M60.20736,39.1123c0,3.71094-0.73633,6.68945-2.20898,8.93555
				c-1.47363,2.24609-3.47168,3.36914-5.99414,3.36914c-1.44922,0-2.625-0.43945-3.52734-1.31836
				c-0.9043-0.87891-1.42871-2.0752-1.5752-3.58887h-0.09766c-0.7002,1.62793-1.70898,2.85254-3.02734,3.67383
				c-1.31787,0.82227-2.85596,1.2334-4.61377,1.2334c-2.40918,0-4.27246-0.78516-5.59082-2.35645
				c-1.31836-1.57031-1.97754-3.77148-1.97754-6.60352c0-3.28711,0.98047-5.97754,2.9414-8.06836
				c1.96191-2.0918,4.52051-3.1377,7.67871-3.1377c2.24561,0,4.57275,0.33398,6.98193,1.00098L48.6595,43.58008v0.73242
				c0,1.69336,0.28418,2.9668,0.85449,3.82031c0.56934,0.85547,1.51367,1.28223,2.83203,1.28223
				c1.67578,0,3.04785-0.94824,4.11328-2.84473c1.06641-1.89551,1.59961-4.36523,1.59961-7.40918
				c0-3.15723-0.64355-5.92383-1.92871-8.30078c-1.28613-2.37598-3.12109-4.20313-5.50488-5.48145
				c-2.38477-1.27734-5.10742-1.91602-8.1665-1.91602c-3.74414,0-7.04395,0.80957-9.89941,2.42969
				c-2.85742,1.61914-5.05469,3.91016-6.59179,6.87207c-1.53906,2.96289-2.30762,6.36426-2.30762,10.20508
				c0,5.24121,1.3584,9.29004,4.07715,12.14551c2.71777,2.85742,6.57519,4.28516,11.57226,4.28516
				c1.51367,0,3.04785-0.14648,4.60107-0.43945c1.55469-0.29297,3.43848-0.86328,5.65234-1.70898v2.41699
				c-3.30469,1.30176-6.67383,1.95313-10.10693,1.95313c-5.68066,0-10.10742-1.63184-13.28125-4.89551
				c-3.17383-3.2627-4.76074-7.7998-4.76074-13.61035c0-4.16602,0.88281-7.91406,2.64941-11.24316
				c1.76563-3.32813,4.26367-5.91113,7.49414-7.75098c3.23144-1.83887,6.88086-2.75879,10.94971-2.75879
				c3.49902,0,6.5957,0.72461,9.29004,2.17285c2.69336,1.44922,4.76855,3.51953,6.22461,6.21387
				C59.47884,32.44336,60.20736,35.56445,60.20736,39.1123z M34.10921,42.4082c0,2.32813,0.44727,4.07715,1.34277,5.24902
				c0.89453,1.17188,2.31055,1.75781,4.24805,1.75781c4.1499,0,6.37158-2.81543,6.66455-8.44727l0.39063-7.10449
				c-1.28613-0.43945-2.85645-0.65918-4.71143-0.65918c-2.42578,0-4.35449,0.83398-5.78613,2.50293
				C34.82503,37.375,34.10921,39.60938,34.10921,42.4082z"/>
		</g>
	</g>
	<g>
		<g>
			<polygon fill="#1A2530" points="60.02259,0 60.02259,1.99543 81.03049,1.99543 81.03049,79.81707 60.02259,79.81707 
				60.02259,81.8125 83.03125,81.8125 83.03125,0 			"/>
			<polygon fill="#1A2530" points="0,81.8125 23.00866,81.8125 23.00866,79.81707 2.00075,79.81707 2.00075,1.99543 
				23.00866,1.99543 23.00866,0 0,0 			"/>
		</g>
	</g>
</g>
<g id="Nos_compétences">
</g>
<g id="Nos_missions">
</g>
<g id="Menu">
</g>
</svg>
